<?xml version="1.0" encoding="utf-8"?>
<!-- Generator: Adobe Illustrator 16.0.4, SVG Export Plug-In . SVG Version: 6.00 Build 0)  -->
<svg version="1.2" baseProfile="tiny" id="Ebene_1" xmlns="http://www.w3.org/2000/svg" xmlns:xlink="http://www.w3.org/1999/xlink"
	 x="0px" y="0px" width="506.962px" height="265.823px" viewBox="0 0 506.962 265.823" xml:space="preserve">
<g>
	<path fill-rule="evenodd" fill="#FFFFFF" d="M240.959,249.557H18.374c-8.822,0-16-7.178-16-16v-216c0-8.822,7.178-16,16-16h471
		c8.822,0,16,7.178,16,16v216c0,8.822-7.178,16-16,16H269.788l-14.414,14.414L240.959,249.557z"/>
	<path fill="#A4A4A4" d="M489.374,2.557c8.279,0,15,6.72,15,15v216c0,8.279-6.721,15-15,15h-220l-14,14l-14-14h-223
		c-8.28,0-15-6.721-15-15v-216c0-8.28,6.72-15,15-15H489.374 M489.374,0.557h-471c-9.374,0-17,7.626-17,17v216
		c0,9.374,7.626,17,17,17h222.171l13.415,13.414l1.414,1.414l1.414-1.414l13.414-13.414h219.172c9.374,0,17-7.626,17-17v-216
		C506.374,8.183,498.748,0.557,489.374,0.557L489.374,0.557z"/>
</g>
</svg>
