<svg id="Button" xmlns="http://www.w3.org/2000/svg" xmlns:xlink="http://www.w3.org/1999/xlink" viewBox="0 0 146 48"><defs><style>.cls-1{fill:url(#linear-gradient);}.cls-2{fill:#fff;}.cls-3{fill:#420000;fill-rule:evenodd;opacity:0.12;}</style><linearGradient id="linear-gradient" x1="113" y1="10" x2="113" y2="38" gradientUnits="userSpaceOnUse"><stop offset="0" stop-color="#e52d27"/><stop offset="1" stop-color="#bf171d"/></linearGradient></defs><title>Zeichenfläche 1</title><rect width="146" height="48"/><path class="cls-1" d="M132.6,16s-.39-2.74-1.59-4a5.74,5.74,0,0,0-4-1.69c-5.6-.4-14-.4-14-.4h0s-8.4,0-14,.4a5.74,5.74,0,0,0-4,1.69c-1.2,1.21-1.59,4-1.59,4a59.93,59.93,0,0,0-.4,6.44v3a59.93,59.93,0,0,0,.4,6.44s.39,2.74,1.59,4c1.52,1.59,3.52,1.54,4.41,1.7,3.2.31,13.6.4,13.6.4s8.41,0,14-.42a5.74,5.74,0,0,0,4-1.69c1.2-1.21,1.59-4,1.59-4a60,60,0,0,0,.4-6.44v-3A60,60,0,0,0,132.6,16Z"/><path id="Triangle" class="cls-2" d="M108.87,29.16l10.81-5.57L108.87,18Z"/><path id="The_Sharpness" data-name="The Sharpness" class="cls-3" d="M108.87,18l9.48,6.3,1.33-.69Z"/><path class="cls-2" d="M13.93,30.33v-.69L19.8,19.42H14.3V18h7.76v.69L16.18,28.89h6v1.44Zm15.77,0H28.58l-.19-1.1h-.11a2.37,2.37,0,0,1-1,1,2.84,2.84,0,0,1-1.3.3,3,3,0,0,1-1-.15,1.73,1.73,0,0,1-.74-.49,2.32,2.32,0,0,1-.47-.88,4.61,4.61,0,0,1-.17-1.34V20.86h1.48v6.71a2.87,2.87,0,0,0,.1.81,1.24,1.24,0,0,0,.27.51,1,1,0,0,0,.42.26,1.83,1.83,0,0,0,.54.07,1.38,1.38,0,0,0,.67-.18,1.71,1.71,0,0,0,.56-.51,2.72,2.72,0,0,0,.39-.81,3.78,3.78,0,0,0,.15-1.09V20.86h1.48Zm9.85-9.69a2.63,2.63,0,0,1,.91.15,1.67,1.67,0,0,1,.7.49,2.39,2.39,0,0,1,.46.89,4.73,4.73,0,0,1,.16,1.34v6.82H40.3V23.61a3,3,0,0,0-.09-.81,1.3,1.3,0,0,0-.26-.51.9.9,0,0,0-.39-.26,1.49,1.49,0,0,0-.48-.07,1.21,1.21,0,0,0-.63.18,1.65,1.65,0,0,0-.52.51,2.69,2.69,0,0,0-.35.82,4.32,4.32,0,0,0-.13,1.1v5.77H36V23.61a3,3,0,0,0-.09-.81,1.34,1.34,0,0,0-.25-.51.86.86,0,0,0-.39-.26,1.53,1.53,0,0,0-.49-.07,1.21,1.21,0,0,0-.63.18,1.65,1.65,0,0,0-.52.51,2.76,2.76,0,0,0-.36.82,4.18,4.18,0,0,0-.13,1.1v5.77H31.65V20.86h1.12L33,22h.11a2.4,2.4,0,0,1,.93-1,2.51,2.51,0,0,1,1.23-.3,2.33,2.33,0,0,1,1.23.32A1.9,1.9,0,0,1,37.25,22a2.65,2.65,0,0,1,1-1A2.61,2.61,0,0,1,39.55,20.64ZM53,30.33H51L47.21,18H49L52,28.59h.07L55.23,18h1.54Zm5.93-11.25H57.47V17.31h1.47Zm0,11.25H57.47V20.86h1.47Zm8.25,0H66.08l-.19-1.1h-.1a2.36,2.36,0,0,1-.87,1,2.26,2.26,0,0,1-1.2.33,2.59,2.59,0,0,1-1.22-.29,2.45,2.45,0,0,1-.93-.89A4.78,4.78,0,0,1,61,27.82a10.79,10.79,0,0,1-.2-2.25A9.57,9.57,0,0,1,61,23.36a5.07,5.07,0,0,1,.61-1.53,2.58,2.58,0,0,1,.9-.89,2.21,2.21,0,0,1,1.1-.29,2.52,2.52,0,0,1,1.23.29,1.78,1.78,0,0,1,.79.82h.09V17.31h1.48ZM64,22a1.44,1.44,0,0,0-.74.18,1.42,1.42,0,0,0-.53.58,3.38,3.38,0,0,0-.32,1,9.26,9.26,0,0,0-.11,1.51v.69a9.18,9.18,0,0,0,.11,1.5,3.38,3.38,0,0,0,.32,1,1.42,1.42,0,0,0,.53.58,1.44,1.44,0,0,0,.74.18,1.36,1.36,0,0,0,1.28-.83,5.65,5.65,0,0,0,.42-2.46v-.62Q65.72,22,64,22Zm8.36-1.31a3.46,3.46,0,0,1,1.36.25,2.29,2.29,0,0,1,1,.79,3.84,3.84,0,0,1,.58,1.38,9,9,0,0,1,.2,2V26H70.37a4.58,4.58,0,0,0,.51,2.43,1.72,1.72,0,0,0,1.55.77,1.44,1.44,0,0,0,.65-.15,1.46,1.46,0,0,0,.51-.42,2,2,0,0,0,.33-.67A3.09,3.09,0,0,0,74,27.1H75.5a4.31,4.31,0,0,1-.22,1.44,3.08,3.08,0,0,1-.63,1.08,2.75,2.75,0,0,1-1,.68,3.27,3.27,0,0,1-1.27.24,4,4,0,0,1-1.55-.28,2.66,2.66,0,0,1-1.12-.88,4.19,4.19,0,0,1-.68-1.54,9.63,9.63,0,0,1-.23-2.25,6.32,6.32,0,0,1,.89-3.74A3.11,3.11,0,0,1,72.38,20.64Zm0,1.31a1.9,1.9,0,0,0-.85.18,1.54,1.54,0,0,0-.59.52,2.71,2.71,0,0,0-.37.86,7.05,7.05,0,0,0-.18,1.2H74a4.23,4.23,0,0,0-.4-2.06A1.28,1.28,0,0,0,72.38,22Zm7.79-1.31a2.91,2.91,0,0,1,2.52,1.2,6.49,6.49,0,0,1,.86,3.74,6.49,6.49,0,0,1-.86,3.75,3.25,3.25,0,0,1-5,0,6.49,6.49,0,0,1-.86-3.75,6.49,6.49,0,0,1,.86-3.74A2.91,2.91,0,0,1,80.17,20.64Zm0,1.31a1.48,1.48,0,0,0-1.38.83,5.29,5.29,0,0,0-.45,2.47v.69a5.26,5.26,0,0,0,.45,2.46,1.57,1.57,0,0,0,2.76,0A5.22,5.22,0,0,0,82,25.94v-.69a5.24,5.24,0,0,0-.46-2.47A1.48,1.48,0,0,0,80.17,22Z"/></svg>