<?xml version="1.0" encoding="utf-8"?>
<!-- Generator: Adobe Illustrator 16.0.4, SVG Export Plug-In . SVG Version: 6.00 Build 0)  -->
<svg version="1.2" baseProfile="tiny" id="Ebene_1" xmlns="http://www.w3.org/2000/svg" xmlns:xlink="http://www.w3.org/1999/xlink"
	 x="0px" y="0px" width="482px" height="372px" viewBox="0 0 482 372" xml:space="preserve">
<g>
	<path fill-rule="evenodd" fill="#FFFFFF" d="M80.692,347.278C80.506,347.1,80.258,347,80,347H15c-7.72,0-14-6.28-14-14V15
		C1,7.28,7.28,1,15,1h452c7.72,0,14,6.28,14,14v318c0,7.72-6.28,14-14,14H128c-0.272,0-0.533,0.111-0.722,0.309l-22.307,23.277
		L80.692,347.278z"/>
	<path fill="#A4A4A4" d="M467,2c7.168,0,13,5.832,13,13v318c0,7.168-5.832,13-13,13H128c-0.545,0-1.067,0.223-1.444,0.616
		l-21.615,22.555l-23.556-22.613C81.013,346.199,80.516,346,80,346H15c-7.168,0-13-5.832-13-13V15C2,7.832,7.832,2,15,2H467 M467,0
		H15C6.72,0,0,6.72,0,15v318c0,8.279,6.72,15,15,15h65l25,24l23-24h339c8.279,0,15-6.721,15-15V15C482,6.72,475.279,0,467,0L467,0z"
		/>
</g>
</svg>
