<?xml version="1.0" encoding="utf-8"?>
<!-- Generator: Adobe Illustrator 16.0.4, SVG Export Plug-In . SVG Version: 6.00 Build 0)  -->
<!DOCTYPE svg PUBLIC "-//W3C//DTD SVG 1.1//EN" "http://www.w3.org/Graphics/SVG/1.1/DTD/svg11.dtd">
<svg version="1.1" id="Ebene_1_2_" xmlns="http://www.w3.org/2000/svg" xmlns:xlink="http://www.w3.org/1999/xlink" x="0px" y="0px"
	 width="237.258px" height="240.093px" viewBox="0 0 237.258 240.093" enable-background="new 0 0 237.258 240.093"
	 xml:space="preserve">
<g id="Donut_Automatische_Form_2_">
	<path fill="#5CEB00" d="M118.741,0C53.161,0,0,53.754,0,120.063c0,66.312,53.161,120.063,118.741,120.063
		c65.579,0,118.741-53.754,118.741-120.063C237.482,53.754,184.32,0,118.741,0z M118.741,222.585
		c-55.999,0-101.394-45.899-101.394-102.521S62.742,17.541,118.741,17.541c56,0,101.394,45.9,101.394,102.522
		C220.135,176.686,174.741,222.585,118.741,222.585z"/>
</g>
<path id="Innovative_x0D_Technologien" fill="#FFFFFF" d="M70.387,112h-2.99V95.88h2.99V112z M79.297,99.356
	c0.471,0,0.904,0.071,1.303,0.212c0.397,0.142,0.74,0.369,1.028,0.683s0.515,0.723,0.678,1.228c0.161,0.505,0.243,1.121,0.243,1.847
	V112h-2.785v-7.894c0-0.795-0.145-1.36-0.433-1.692s-0.683-0.499-1.183-0.499c-0.272,0-0.526,0.063-0.762,0.189
	c-0.236,0.126-0.438,0.302-0.608,0.528c-0.17,0.226-0.303,0.487-0.397,0.786c-0.096,0.298-0.143,0.62-0.143,0.964V112h-2.785V99.643
	h2.319l0.284,1.526h0.137c0.159-0.237,0.341-0.467,0.545-0.688c0.205-0.222,0.437-0.415,0.694-0.58
	c0.257-0.165,0.541-0.296,0.853-0.396C78.596,99.406,78.933,99.356,79.297,99.356z M92.229,99.356c0.47,0,0.903,0.071,1.302,0.212
	c0.398,0.142,0.741,0.369,1.029,0.683s0.514,0.723,0.677,1.228c0.162,0.505,0.244,1.121,0.244,1.847V112h-2.786v-7.894
	c0-0.795-0.145-1.36-0.432-1.692c-0.288-0.332-0.684-0.499-1.184-0.499c-0.271,0-0.525,0.063-0.762,0.189
	c-0.235,0.126-0.438,0.302-0.608,0.528c-0.17,0.226-0.303,0.487-0.396,0.786c-0.097,0.298-0.144,0.62-0.144,0.964V112h-2.785V99.643
	h2.319l0.284,1.526h0.137c0.159-0.237,0.341-0.467,0.545-0.688c0.205-0.222,0.438-0.415,0.694-0.58
	c0.256-0.165,0.541-0.296,0.853-0.396C91.527,99.406,91.864,99.356,92.229,99.356z M103.874,99.356c1.63,0,2.854,0.522,3.667,1.566
	c0.814,1.044,1.224,2.675,1.224,4.894c0,2.219-0.408,3.851-1.224,4.899c-0.813,1.048-2.037,1.572-3.667,1.572
	s-2.852-0.523-3.666-1.572c-0.814-1.048-1.223-2.681-1.223-4.899c0-2.218,0.407-3.849,1.223-4.894
	C101.022,99.878,102.244,99.356,103.874,99.356z M103.874,101.731c-0.72,0-1.229,0.312-1.528,0.935
	c-0.3,0.624-0.448,1.524-0.448,2.702v0.895c0,1.186,0.148,2.09,0.448,2.713c0.3,0.624,0.81,0.936,1.528,0.936
	c0.722,0,1.23-0.312,1.529-0.936c0.3-0.623,0.449-1.527,0.449-2.713v-0.895c0-1.178-0.149-2.079-0.449-2.702
	C105.104,102.043,104.595,101.731,103.874,101.731z M117.693,112h-2.843l-3.799-12.357h2.935l1.592,5.312
	c0.03,0.115,0.066,0.258,0.108,0.43c0.041,0.172,0.083,0.355,0.125,0.551c0.041,0.195,0.083,0.397,0.125,0.608
	c0.041,0.21,0.081,0.415,0.119,0.614c0.091,0.475,0.186,0.975,0.283,1.503h0.092c0.067-0.497,0.145-0.979,0.228-1.445
	c0.03-0.199,0.066-0.403,0.108-0.614c0.041-0.21,0.081-0.415,0.118-0.614c0.038-0.199,0.077-0.386,0.119-0.562
	c0.042-0.176,0.085-0.333,0.131-0.47l1.559-5.312h2.798L117.693,112z M127.941,99.356c1.418,0,2.468,0.319,3.146,0.958
	c0.687,0.639,1.022,1.536,1.022,2.69v6.081c0,0.291,0.068,0.501,0.205,0.631c0.138,0.13,0.283,0.195,0.44,0.195h0.568v1.996
	c-0.15,0.084-0.359,0.168-0.625,0.252c-0.267,0.084-0.609,0.126-1.035,0.126c-0.562,0-1.024-0.151-1.396-0.453
	c-0.371-0.302-0.625-0.694-0.766-1.176h-0.125c-0.174,0.245-0.354,0.469-0.545,0.671c-0.188,0.203-0.402,0.375-0.646,0.517
	c-0.244,0.142-0.521,0.25-0.824,0.327c-0.307,0.077-0.666,0.115-1.073,0.115c-0.289,0-0.606-0.048-0.961-0.143
	c-0.354-0.096-0.688-0.271-1-0.528c-0.312-0.257-0.578-0.61-0.791-1.062c-0.213-0.451-0.315-1.036-0.315-1.755
	c0-0.833,0.147-1.526,0.446-2.077c0.301-0.551,0.72-0.992,1.25-1.325c0.535-0.333,1.179-0.568,1.922-0.706
	c0.746-0.138,1.562-0.207,2.451-0.207v-1.296c0-0.214-0.021-0.413-0.054-0.597c-0.032-0.184-0.096-0.344-0.188-0.482
	c-0.092-0.138-0.221-0.247-0.387-0.327c-0.168-0.081-0.387-0.121-0.646-0.121c-0.287,0-0.525,0.04-0.719,0.121
	c-0.188,0.08-0.34,0.182-0.445,0.304c-0.109,0.123-0.188,0.262-0.232,0.419c-0.047,0.157-0.066,0.308-0.066,0.453v0.344h-2.729
	c-0.018-0.069-0.023-0.145-0.023-0.229v-0.287c0-0.513,0.102-0.981,0.299-1.406c0.195-0.424,0.477-0.786,0.836-1.084
	c0.357-0.298,0.795-0.53,1.303-0.694C126.745,99.439,127.312,99.356,127.941,99.356z M129.295,106.527
	c-0.408,0-0.807,0.031-1.188,0.092s-0.728,0.168-1.022,0.321c-0.299,0.153-0.541,0.359-0.724,0.62
	c-0.182,0.26-0.271,0.589-0.271,0.986c0,0.429,0.105,0.767,0.322,1.016s0.562,0.373,1.041,0.373c0.334,0,0.613-0.072,0.848-0.218
	c0.23-0.145,0.424-0.342,0.568-0.591c0.146-0.249,0.256-0.535,0.322-0.86c0.066-0.325,0.104-0.671,0.104-1.039V106.527
	L129.295,106.527z M139.066,99.643h1.763v2.375h-1.763v6.884c0,0.673,0.324,1.01,0.978,1.01h0.785V112
	c-0.101,0.038-0.218,0.073-0.354,0.103c-0.137,0.031-0.279,0.062-0.434,0.092c-0.148,0.031-0.305,0.054-0.455,0.069
	c-0.148,0.016-0.295,0.023-0.432,0.023c-0.562,0-1.027-0.096-1.398-0.287s-0.666-0.443-0.887-0.757
	c-0.221-0.313-0.375-0.667-0.467-1.061s-0.137-0.797-0.137-1.21v-6.953h-1.238v-2.375h1.238l0.42-3.476h2.377L139.066,99.643
	L139.066,99.643z M145.805,97.578h-2.787v-2.57h2.787V97.578z M145.805,112h-2.787V99.643h2.787V112z M154.418,112h-2.842
	l-3.799-12.357h2.934l1.594,5.312c0.029,0.115,0.064,0.258,0.107,0.43c0.041,0.172,0.082,0.355,0.125,0.551
	c0.041,0.195,0.082,0.397,0.125,0.608c0.041,0.21,0.08,0.415,0.119,0.614c0.09,0.475,0.186,0.975,0.283,1.503h0.092
	c0.066-0.497,0.145-0.979,0.227-1.445c0.031-0.199,0.066-0.403,0.109-0.614c0.041-0.21,0.08-0.415,0.117-0.614
	c0.039-0.199,0.078-0.386,0.119-0.562c0.043-0.176,0.086-0.333,0.131-0.47l1.559-5.312h2.797L154.418,112z M165.043,99.356
	c1.479,0,2.584,0.522,3.318,1.566s1.104,2.675,1.104,4.894v0.711h-6.219c0.008,0.551,0.047,1.04,0.119,1.468
	c0.07,0.429,0.182,0.79,0.328,1.084c0.146,0.294,0.34,0.518,0.574,0.671c0.232,0.153,0.521,0.229,0.861,0.229
	c0.479,0,0.857-0.206,1.146-0.619c0.285-0.413,0.426-0.991,0.426-1.732h2.764c0,0.795-0.105,1.485-0.322,2.071
	c-0.217,0.585-0.52,1.069-0.904,1.451c-0.387,0.383-0.844,0.667-1.375,0.855c-0.529,0.187-1.105,0.281-1.729,0.281
	c-1.566,0-2.762-0.523-3.572-1.572c-0.814-1.048-1.227-2.681-1.227-4.899c0-2.218,0.406-3.849,1.217-4.894
	C162.363,99.878,163.525,99.356,165.043,99.356z M165.043,101.663c-0.592,0-1.021,0.245-1.291,0.734s-0.426,1.186-0.473,2.088h3.252
	c0-0.902-0.119-1.599-0.357-2.088S165.559,101.663,165.043,101.663z M62.095,126.564h-3.956V140H55.16v-13.436h-3.957v-2.686h10.894
	L62.095,126.564L62.095,126.564z M67.16,127.355c1.479,0,2.584,0.521,3.319,1.566c0.734,1.043,1.104,2.676,1.104,4.893v0.713h-6.22
	c0.008,0.551,0.047,1.039,0.119,1.469c0.072,0.428,0.183,0.791,0.33,1.084c0.146,0.295,0.339,0.521,0.574,0.672
	c0.233,0.152,0.521,0.229,0.863,0.229c0.479,0,0.858-0.207,1.144-0.619c0.285-0.411,0.426-0.989,0.426-1.731h2.764
	c0,0.795-0.107,1.486-0.324,2.07c-0.216,0.586-0.518,1.067-0.903,1.45c-0.388,0.384-0.846,0.668-1.376,0.854
	c-0.53,0.188-1.106,0.281-1.729,0.281c-1.568,0-2.762-0.523-3.576-1.572c-0.813-1.047-1.223-2.68-1.223-4.898
	c0-2.217,0.406-3.85,1.217-4.893S65.644,127.355,67.16,127.355z M67.16,129.662c-0.592,0-1.021,0.246-1.291,0.734
	c-0.269,0.488-0.426,1.188-0.472,2.088h3.252c0-0.9-0.119-1.6-0.358-2.088C68.053,129.908,67.675,129.662,67.16,129.662z
	 M79.159,127.355c0.652,0,1.243,0.098,1.774,0.287c0.529,0.191,0.98,0.486,1.353,0.891c0.372,0.4,0.657,0.91,0.858,1.531
	c0.201,0.619,0.302,1.359,0.302,2.227h-2.865c0-0.873-0.118-1.518-0.353-1.936c-0.235-0.416-0.592-0.625-1.069-0.625
	c-0.591,0-1.01,0.311-1.256,0.932c-0.246,0.617-0.369,1.521-0.369,2.707v0.896c0,1.188,0.13,2.09,0.392,2.713
	c0.263,0.625,0.707,0.938,1.337,0.938c0.501,0,0.859-0.213,1.079-0.645c0.221-0.43,0.33-1.068,0.33-1.93h2.774
	c0,0.865-0.099,1.609-0.296,2.232c-0.197,0.622-0.479,1.135-0.842,1.534c-0.363,0.401-0.804,0.699-1.318,0.892
	c-0.514,0.191-1.092,0.287-1.729,0.287c-0.797,0-1.485-0.129-2.069-0.386c-0.584-0.256-1.066-0.647-1.449-1.182
	c-0.383-0.531-0.665-1.205-0.848-2.021c-0.183-0.814-0.272-1.775-0.272-2.887c0-2.219,0.377-3.852,1.131-4.895
	C76.509,127.878,77.644,127.355,79.159,127.355z M89.669,128.951h0.104c0.137-0.191,0.299-0.383,0.489-0.572
	c0.188-0.188,0.404-0.358,0.646-0.512c0.242-0.15,0.516-0.271,0.818-0.367c0.304-0.096,0.637-0.145,1.001-0.145
	c0.47,0,0.903,0.07,1.302,0.213c0.397,0.143,0.741,0.369,1.029,0.684c0.288,0.313,0.514,0.726,0.677,1.229
	c0.162,0.504,0.244,1.119,0.244,1.849V140h-2.786v-7.895c0-0.795-0.145-1.357-0.432-1.691c-0.288-0.332-0.684-0.498-1.184-0.498
	c-0.271,0-0.526,0.062-0.762,0.188c-0.236,0.127-0.438,0.304-0.608,0.526c-0.17,0.225-0.303,0.488-0.396,0.785
	c-0.097,0.299-0.144,0.619-0.144,0.965V140h-2.785v-16.992h2.785L89.669,128.951L89.669,128.951z M105.659,127.355
	c0.47,0,0.904,0.07,1.302,0.213s0.741,0.369,1.029,0.684c0.288,0.313,0.514,0.726,0.677,1.229c0.162,0.504,0.244,1.119,0.244,1.849
	V140h-2.786v-7.895c0-0.795-0.144-1.357-0.432-1.691c-0.288-0.332-0.684-0.498-1.184-0.498c-0.271,0-0.525,0.062-0.762,0.188
	c-0.235,0.127-0.438,0.304-0.607,0.526c-0.169,0.225-0.304,0.488-0.397,0.785c-0.096,0.299-0.143,0.619-0.143,0.965V140h-2.785
	v-12.354h2.318l0.284,1.523h0.138c0.158-0.234,0.341-0.467,0.545-0.688c0.205-0.224,0.437-0.414,0.693-0.578
	c0.256-0.161,0.541-0.297,0.854-0.396C104.958,127.406,105.295,127.355,105.659,127.355z M117.306,127.355
	c1.63,0,2.853,0.521,3.667,1.566c0.812,1.043,1.223,2.676,1.223,4.893c0,2.221-0.406,3.854-1.223,4.898
	c-0.812,1.047-2.037,1.572-3.667,1.572c-1.631,0-2.853-0.523-3.666-1.572c-0.815-1.047-1.224-2.68-1.224-4.898
	c0-2.217,0.407-3.85,1.224-4.893C114.454,127.878,115.676,127.355,117.306,127.355z M117.306,129.73
	c-0.721,0-1.229,0.312-1.529,0.936c-0.299,0.625-0.448,1.523-0.448,2.703v0.896c0,1.188,0.149,2.09,0.448,2.713
	c0.3,0.625,0.81,0.938,1.529,0.938c0.721,0,1.229-0.312,1.528-0.938c0.299-0.623,0.45-1.525,0.45-2.713v-0.896
	c0-1.18-0.15-2.078-0.45-2.703C118.536,130.042,118.026,129.73,117.306,129.73z M128.441,140h-2.787v-16.992h2.787V140z
	 M136.168,127.355c1.629,0,2.854,0.521,3.666,1.566c0.814,1.043,1.225,2.676,1.225,4.893c0,2.221-0.408,3.854-1.225,4.898
	c-0.812,1.047-2.037,1.572-3.666,1.572c-1.631,0-2.854-0.523-3.666-1.572c-0.814-1.047-1.225-2.68-1.225-4.898
	c0-2.217,0.408-3.85,1.225-4.893C133.316,127.878,134.538,127.355,136.168,127.355z M136.168,129.73
	c-0.721,0-1.229,0.312-1.527,0.936c-0.301,0.625-0.449,1.523-0.449,2.703v0.896c0,1.188,0.148,2.09,0.449,2.713
	c0.299,0.625,0.811,0.938,1.527,0.938c0.723,0,1.229-0.312,1.527-0.938c0.301-0.623,0.449-1.525,0.449-2.713v-0.896
	c0-1.18-0.148-2.078-0.449-2.703C137.398,130.042,136.889,129.73,136.168,129.73z M154.568,125.578c0,0.881-0.174,1.576-0.522,2.088
	c-0.349,0.517-0.834,0.863-1.455,1.06c0.318,0.354,0.562,0.771,0.729,1.25c0.166,0.479,0.25,1.015,0.25,1.596
	c0,0.638-0.1,1.209-0.297,1.729c-0.196,0.518-0.483,0.957-0.862,1.324c-0.379,0.365-0.854,0.647-1.423,0.85
	c-0.567,0.199-1.221,0.299-1.954,0.299h-1.16c-0.25,0-0.453,0.072-0.606,0.219c-0.154,0.146-0.231,0.324-0.231,0.539
	s0.065,0.389,0.198,0.521c0.134,0.132,0.306,0.199,0.519,0.199h4.242c0.385,0,0.748,0.076,1.086,0.225
	c0.336,0.148,0.633,0.365,0.887,0.648c0.255,0.281,0.453,0.623,0.604,1.021c0.146,0.396,0.224,0.842,0.224,1.33
	c0,0.573-0.104,1.096-0.312,1.565c-0.209,0.471-0.491,0.871-0.852,1.205c-0.354,0.332-0.771,0.588-1.256,0.768
	c-0.479,0.181-0.994,0.271-1.541,0.271h-4.502c-0.371,0-0.723-0.068-1.047-0.205c-0.324-0.141-0.611-0.334-0.855-0.586
	c-0.246-0.252-0.438-0.555-0.578-0.9c-0.145-0.348-0.213-0.731-0.213-1.151c0-0.61,0.146-1.123,0.441-1.53
	c0.297-0.408,0.668-0.736,1.113-0.979c-0.303-0.188-0.543-0.438-0.717-0.752c-0.176-0.312-0.264-0.679-0.264-1.106
	c0-0.269,0.047-0.515,0.145-0.736c0.096-0.229,0.225-0.434,0.389-0.615c0.162-0.182,0.354-0.342,0.572-0.477
	c0.221-0.135,0.451-0.242,0.691-0.326c-0.49-0.367-0.861-0.832-1.111-1.396c-0.252-0.562-0.377-1.209-0.377-1.941
	c0-0.637,0.1-1.211,0.291-1.729s0.479-0.958,0.861-1.325c0.385-0.365,0.854-0.65,1.416-0.854c0.562-0.2,1.209-0.303,1.945-0.303
	c0.385,0,0.752,0.025,1.096,0.086c0.348,0.057,0.662,0.146,0.949,0.271c0.234-0.168,0.43-0.354,0.58-0.558
	c0.15-0.205,0.271-0.403,0.363-0.604c0.092-0.197,0.156-0.386,0.189-0.559c0.039-0.172,0.061-0.312,0.061-0.42h2.295
	L154.568,125.578L154.568,125.578z M147.564,139.861c-0.157,0-0.308,0.031-0.438,0.094c-0.131,0.063-0.25,0.146-0.354,0.246
	c-0.104,0.104-0.185,0.223-0.237,0.355c-0.058,0.133-0.084,0.275-0.084,0.43c0,0.354,0.104,0.633,0.315,0.838
	c0.213,0.207,0.479,0.311,0.797,0.311h3.14c0.354,0,0.653-0.104,0.896-0.311c0.241-0.205,0.362-0.484,0.362-0.838
	s-0.108-0.627-0.33-0.826c-0.221-0.197-0.487-0.299-0.808-0.299H147.564L147.564,139.861z M149.032,129.443
	c-0.568,0-0.998,0.188-1.291,0.562c-0.291,0.373-0.438,0.895-0.438,1.561c0,0.658,0.146,1.176,0.438,1.551
	c0.293,0.375,0.723,0.561,1.291,0.561c0.584,0,1.021-0.188,1.312-0.561c0.291-0.375,0.438-0.893,0.438-1.551
	c0-0.666-0.146-1.186-0.438-1.561C150.052,129.63,149.616,129.443,149.032,129.443z M160.234,125.578h-2.784v-2.57h2.784V125.578z
	 M160.234,140h-2.784v-12.354h2.784V140z M167.543,127.355c1.479,0,2.584,0.521,3.318,1.566c0.734,1.043,1.104,2.676,1.104,4.893
	v0.713h-6.219c0.008,0.551,0.047,1.039,0.119,1.469c0.07,0.428,0.182,0.791,0.328,1.084c0.146,0.295,0.34,0.521,0.574,0.672
	c0.232,0.152,0.521,0.229,0.861,0.229c0.479,0,0.857-0.207,1.146-0.619c0.285-0.411,0.426-0.989,0.426-1.731h2.764
	c0,0.795-0.105,1.486-0.322,2.07c-0.217,0.586-0.52,1.067-0.904,1.45c-0.387,0.384-0.844,0.668-1.375,0.854
	c-0.529,0.188-1.105,0.281-1.729,0.281c-1.566,0-2.762-0.523-3.572-1.572c-0.814-1.047-1.227-2.68-1.227-4.898
	c0-2.217,0.406-3.85,1.217-4.893C164.863,127.878,166.025,127.355,167.543,127.355z M167.543,129.662
	c-0.592,0-1.021,0.246-1.291,0.734s-0.426,1.188-0.473,2.088h3.252c0-0.9-0.119-1.6-0.357-2.088S168.059,129.662,167.543,129.662z
	 M181.18,127.355c0.471,0,0.902,0.07,1.303,0.213c0.396,0.143,0.74,0.369,1.029,0.684c0.285,0.312,0.514,0.726,0.676,1.229
	s0.244,1.119,0.244,1.849V140h-2.785v-7.895c0-0.795-0.146-1.357-0.434-1.691c-0.289-0.332-0.684-0.498-1.184-0.498
	c-0.271,0-0.525,0.062-0.762,0.188c-0.236,0.127-0.438,0.304-0.607,0.526c-0.17,0.225-0.305,0.488-0.396,0.785
	c-0.098,0.299-0.145,0.619-0.145,0.965V140h-2.785v-12.354h2.318l0.285,1.523h0.137c0.158-0.234,0.342-0.467,0.545-0.688
	c0.205-0.224,0.438-0.414,0.693-0.578c0.256-0.161,0.541-0.297,0.854-0.396C180.479,127.408,180.814,127.355,181.18,127.355z"/>
</svg>
