<?xml version="1.0" encoding="utf-8"?>
<!-- Generator: Adobe Illustrator 16.0.4, SVG Export Plug-In . SVG Version: 6.00 Build 0)  -->
<svg version="1.2" baseProfile="tiny" id="Ebene_1" xmlns="http://www.w3.org/2000/svg" xmlns:xlink="http://www.w3.org/1999/xlink"
	 x="0px" y="0px" width="68.004px" height="90px" viewBox="0 0 68.004 90" xml:space="preserve">
<path fill-rule="evenodd" fill="#FFFFFF" d="M45.702,0h-23.4c-4.11,0-6.58,3.81-6.59,7.49c0,1.57,0.6,4,2.3,5.69
	c0.82,0.82,1.83,1.39,2.91,1.67v15.34c0,0.05-0.03,0.14-0.08,0.26l-1.84,4.11c-14.82,33.1-18.1,40.59-18.47,41.661
	c-0.91,2.629-0.8,6.709,1.5,9.909c1.79,2.5,4.52,3.87,7.67,3.87h48.6c3.15,0,5.88-1.37,7.671-3.87c2.299-3.2,2.409-7.28,1.5-9.909
	c-0.371-1.07-3.66-8.591-18.531-41.801l-1.779-3.97c-0.051-0.12-0.08-0.21-0.08-0.26V14.85c1.08-0.28,2.09-0.85,2.92-1.67
	c1.689-1.69,2.29-4.12,2.29-5.69C52.281,3.81,49.812,0,45.702,0z M45.702,5.12c0.96,0,1.43,1.64,1.43,2.38
	c0,0.81-0.53,2.41-1.54,2.41h-2.73c-1.08,0-0.939,0.74-0.939,1.96v18.38c0,0.79,0.23,1.59,0.52,2.24
	c0.4,0.94,19.5,43.48,20.15,45.39c0.76,2.2-0.08,7-4.29,7h-48.6c-4.21,0-5.05-4.8-4.29-7c0.65-1.909,19.75-44.45,20.15-45.39
	c0.29-0.65,0.52-1.45,0.52-2.24V11.87c0-1.22,0.14-1.96-0.94-1.96h-2.73c-1.01,0-1.54-1.6-1.54-2.41c0-0.74,0.47-2.38,1.43-2.38
	H45.702z M53.031,80.609c4.41,0,3.441-4.889,2.461-7.109c-0.971-2.221-11.11-24.87-11.11-24.87h-20.93c0,0-10.14,22.649-11.11,24.87
	c-0.97,2.221-1.95,7.109,2.46,7.109H53.031z"/>
<g>
</g>
<g>
</g>
<g>
</g>
<g>
</g>
<g>
</g>
<g>
</g>
<g>
</g>
<g>
</g>
<g>
</g>
<g>
</g>
<g>
</g>
<g>
</g>
<g>
</g>
<g>
</g>
<g>
</g>
</svg>
