<?xml version="1.0" encoding="utf-8"?>
<!-- Generator: Adobe Illustrator 16.0.4, SVG Export Plug-In . SVG Version: 6.00 Build 0)  -->
<!DOCTYPE svg PUBLIC "-//W3C//DTD SVG 1.1//EN" "http://www.w3.org/Graphics/SVG/1.1/DTD/svg11.dtd">
<svg version="1.1" id="Ebene_1" xmlns="http://www.w3.org/2000/svg" xmlns:xlink="http://www.w3.org/1999/xlink" x="0px" y="0px"
	 width="237.482px" height="240.125px" viewBox="0 0 237.482 240.125" enable-background="new 0 0 237.482 240.125"
	 xml:space="preserve">
<g id="Donut_Automatische_Form_1_">
	<path fill="#5CEB00" d="M118.741,0C53.161,0,0,53.754,0,120.063c0,66.312,53.161,120.062,118.741,120.062
		c65.579,0,118.741-53.754,118.741-120.062C237.483,53.754,184.321,0,118.741,0z M118.741,222.584
		c-55.999,0-101.395-45.898-101.395-102.521c0-56.623,45.396-102.522,101.395-102.522s101.394,45.9,101.394,102.522
		C220.135,176.686,174.74,222.584,118.741,222.584z"/>
</g>
<path fill="#FFFFFF" d="M42.298,97.593c0.712,0,1.385,0.092,2.014,0.275c0.629,0.184,1.179,0.469,1.647,0.854
	c0.472,0.387,0.843,0.88,1.12,1.48c0.276,0.6,0.415,1.313,0.415,2.14v0.287h-3.048v-0.218c0-0.681-0.191-1.222-0.573-1.624
	c-0.383-0.401-0.916-0.603-1.599-0.603c-0.729,0-1.282,0.161-1.666,0.482c-0.383,0.321-0.573,0.73-0.573,1.228
	c0,0.406,0.111,0.74,0.335,1.004c0.223,0.264,0.519,0.49,0.881,0.677c0.364,0.187,0.776,0.352,1.239,0.493
	c0.462,0.141,0.937,0.296,1.421,0.465c0.483,0.169,0.959,0.365,1.421,0.591s0.875,0.513,1.238,0.86
	c0.364,0.348,0.658,0.778,0.882,1.291c0.223,0.512,0.335,1.14,0.335,1.881c0,0.926-0.14,1.713-0.415,2.364
	c-0.275,0.65-0.664,1.18-1.16,1.589c-0.496,0.409-1.089,0.708-1.777,0.895s-1.448,0.281-2.273,0.281
	c-0.735,0-1.438-0.105-2.104-0.315c-0.667-0.21-1.256-0.526-1.764-0.946c-0.508-0.421-0.912-0.945-1.211-1.572
	s-0.449-1.354-0.449-2.18c0-0.092,0.006-0.185,0.014-0.281c0.007-0.095,0.011-0.174,0.011-0.235h3.104
	c0,0.023-0.006,0.077-0.013,0.161c-0.008,0.084-0.013,0.157-0.013,0.218c0,0.383,0.058,0.73,0.172,1.044
	c0.113,0.314,0.279,0.583,0.5,0.809c0.22,0.226,0.486,0.4,0.802,0.522c0.313,0.123,0.678,0.184,1.086,0.184
	c0.447,0,0.826-0.055,1.139-0.167c0.312-0.111,0.562-0.256,0.75-0.436c0.188-0.179,0.324-0.382,0.407-0.608s0.125-0.457,0.125-0.694
	c0-0.383-0.07-0.709-0.216-0.981c-0.145-0.271-0.341-0.504-0.591-0.7c-0.25-0.195-0.54-0.363-0.87-0.505
	c-0.33-0.141-0.682-0.275-1.053-0.401s-0.754-0.254-1.147-0.384c-0.395-0.13-0.775-0.281-1.146-0.453
	c-0.372-0.172-0.722-0.377-1.052-0.614s-0.62-0.522-0.87-0.854s-0.446-0.727-0.591-1.182c-0.146-0.455-0.218-0.989-0.218-1.601
	c0-0.765,0.146-1.43,0.438-1.997c0.292-0.566,0.683-1.036,1.171-1.411c0.489-0.375,1.056-0.654,1.7-0.837
	C40.918,97.685,41.593,97.593,42.298,97.593z M56.65,101.356c0.604,0,1.15,0.128,1.638,0.384c0.484,0.256,0.897,0.648,1.238,1.176
	c0.342,0.528,0.604,1.199,0.785,2.013c0.183,0.815,0.271,1.784,0.271,2.909s-0.098,2.092-0.29,2.903
	c-0.191,0.811-0.458,1.48-0.796,2.008s-0.735,0.916-1.199,1.165c-0.462,0.249-0.967,0.373-1.512,0.373
	c-0.614,0-1.166-0.136-1.654-0.407c-0.487-0.271-0.844-0.656-1.062-1.153h-0.125v5.335H51.16v-16.418h2.319l0.284,1.526h0.112
	c0.312-0.604,0.705-1.058,1.184-1.36C55.536,101.507,56.066,101.356,56.65,101.356z M55.809,103.915
	c-0.677,0-1.154,0.298-1.438,0.895s-0.427,1.449-0.427,2.559v0.849c0,1.117,0.143,1.979,0.427,2.587
	c0.284,0.608,0.764,0.912,1.438,0.912c0.674,0,1.152-0.296,1.438-0.889c0.283-0.593,0.426-1.447,0.426-2.564v-0.895
	c0-1.109-0.143-1.962-0.426-2.559C56.963,104.213,56.483,103.915,55.809,103.915z M68.228,101.356c1.479,0,2.585,0.522,3.318,1.566
	c0.735,1.044,1.104,2.675,1.104,4.894v0.711h-6.219c0.007,0.551,0.047,1.04,0.118,1.468c0.072,0.429,0.184,0.79,0.33,1.084
	c0.147,0.294,0.341,0.518,0.574,0.671c0.234,0.153,0.522,0.229,0.863,0.229c0.479,0,0.858-0.206,1.144-0.619
	s0.428-0.991,0.428-1.732h2.763c0,0.795-0.107,1.485-0.323,2.071c-0.217,0.585-0.519,1.069-0.904,1.451
	c-0.386,0.383-0.845,0.667-1.375,0.855c-0.529,0.187-1.105,0.281-1.729,0.281c-1.568,0-2.761-0.523-3.575-1.572
	c-0.813-1.048-1.223-2.681-1.223-4.899c0-2.218,0.405-3.849,1.217-4.894C65.548,101.878,66.712,101.356,68.228,101.356z
	 M68.228,103.662c-0.591,0-1.021,0.245-1.291,0.734c-0.271,0.489-0.426,1.186-0.474,2.088h3.252c0-0.902-0.118-1.599-0.356-2.088
	S68.744,103.662,68.228,103.662z M83.696,102.813l-4.764,8.812h4.936V114h-8.709v-1.193l4.752-8.789h-4.479v-2.375h8.266
	L83.696,102.813L83.696,102.813z M89.715,99.578H86.93v-2.57h2.784V99.578L89.715,99.578z M89.715,114H86.93v-12.357h2.784V114
	L89.715,114z M96.647,101.356c1.417,0,2.467,0.319,3.147,0.958c0.684,0.639,1.022,1.536,1.022,2.69v6.081
	c0,0.291,0.067,0.501,0.205,0.631c0.137,0.13,0.284,0.195,0.441,0.195h0.568v1.996c-0.152,0.084-0.36,0.168-0.625,0.252
	c-0.266,0.084-0.61,0.126-1.035,0.126c-0.562,0-1.025-0.151-1.396-0.453c-0.371-0.302-0.625-0.694-0.764-1.176H98.09
	c-0.174,0.245-0.354,0.469-0.546,0.671c-0.188,0.203-0.403,0.375-0.646,0.517c-0.243,0.142-0.519,0.25-0.824,0.327
	s-0.664,0.115-1.074,0.115c-0.288,0-0.606-0.048-0.96-0.143c-0.354-0.096-0.687-0.271-1-0.528c-0.313-0.256-0.578-0.61-0.791-1.062
	c-0.212-0.451-0.316-1.036-0.316-1.755c0-0.833,0.148-1.526,0.447-2.077c0.3-0.551,0.718-0.992,1.25-1.325
	c0.535-0.333,1.177-0.568,1.922-0.706c0.747-0.138,1.562-0.207,2.45-0.207v-1.296c0-0.214-0.018-0.413-0.051-0.597
	c-0.034-0.184-0.098-0.344-0.188-0.482c-0.092-0.138-0.221-0.247-0.388-0.327c-0.167-0.081-0.383-0.121-0.646-0.121
	c-0.288,0-0.527,0.04-0.718,0.121c-0.188,0.08-0.339,0.182-0.447,0.304c-0.109,0.123-0.188,0.262-0.232,0.419
	c-0.045,0.157-0.067,0.308-0.067,0.453v0.344h-2.73c-0.015-0.069-0.021-0.145-0.021-0.229v-0.287c0-0.513,0.099-0.981,0.296-1.406
	c0.195-0.424,0.476-0.786,0.836-1.084c0.358-0.298,0.794-0.53,1.302-0.694C95.45,101.438,96.018,101.356,96.647,101.356z
	 M98,108.527c-0.41,0-0.807,0.031-1.188,0.092s-0.726,0.168-1.022,0.321c-0.301,0.153-0.54,0.359-0.723,0.62
	c-0.184,0.26-0.272,0.589-0.272,0.986c0,0.429,0.107,0.767,0.324,1.016c0.216,0.249,0.562,0.373,1.04,0.373
	c0.333,0,0.615-0.072,0.847-0.218c0.23-0.145,0.421-0.342,0.569-0.591c0.146-0.249,0.255-0.535,0.323-0.86
	c0.067-0.325,0.103-0.672,0.103-1.039L98,108.527L98,108.527z M107.578,114h-2.786V97.008h2.786V114z M113.51,99.578h-2.784v-2.57
	h2.784V99.578z M113.51,114h-2.784v-12.357h2.784V114z M120.725,101.356c0.584,0,1.129,0.077,1.633,0.229
	c0.504,0.153,0.941,0.373,1.316,0.66s0.672,0.639,0.883,1.056c0.213,0.417,0.316,0.889,0.316,1.417c0,0.13-0.006,0.249-0.017,0.355
	c-0.012,0.107-0.02,0.168-0.02,0.184h-2.832c0-0.551-0.123-0.954-0.367-1.21c-0.246-0.256-0.582-0.384-1.008-0.384
	c-0.432,0-0.779,0.109-1.047,0.327c-0.264,0.218-0.396,0.514-0.396,0.889c0,0.298,0.084,0.537,0.256,0.717
	c0.171,0.18,0.396,0.329,0.677,0.448c0.278,0.119,0.602,0.222,0.961,0.31c0.358,0.088,0.727,0.188,1.1,0.298
	c0.371,0.111,0.734,0.247,1.096,0.407c0.361,0.161,0.683,0.379,0.961,0.654c0.281,0.275,0.507,0.619,0.679,1.032
	c0.17,0.413,0.256,0.926,0.256,1.538c0,0.757-0.115,1.39-0.348,1.899c-0.229,0.509-0.55,0.92-0.955,1.233
	c-0.406,0.313-0.888,0.537-1.441,0.671c-0.558,0.134-1.162,0.201-1.814,0.201c-0.704,0-1.332-0.094-1.881-0.281
	c-0.55-0.188-1.018-0.453-1.398-0.797s-0.673-0.757-0.87-1.239c-0.195-0.482-0.296-1.017-0.296-1.606v-0.092
	c0-0.038,0.004-0.072,0.014-0.103c0-0.03,0.003-0.061,0.011-0.092h2.831v0.161c0.008,0.329,0.062,0.604,0.166,0.826
	c0.103,0.222,0.23,0.401,0.394,0.539c0.157,0.138,0.336,0.235,0.532,0.292c0.197,0.058,0.396,0.086,0.593,0.086
	c0.184,0,0.369-0.023,0.562-0.068c0.191-0.046,0.369-0.121,0.527-0.224s0.287-0.241,0.389-0.413
	c0.098-0.172,0.146-0.384,0.146-0.637c0-0.329-0.084-0.592-0.256-0.792c-0.171-0.199-0.396-0.365-0.677-0.499
	c-0.28-0.134-0.604-0.249-0.961-0.344c-0.358-0.095-0.729-0.201-1.1-0.315c-0.37-0.114-0.734-0.252-1.097-0.413
	c-0.36-0.161-0.681-0.375-0.962-0.643c-0.279-0.268-0.506-0.604-0.676-1.01c-0.17-0.405-0.256-0.906-0.256-1.503
	c0-0.627,0.112-1.176,0.341-1.646c0.228-0.47,0.538-0.862,0.933-1.176c0.396-0.314,0.856-0.549,1.39-0.706
	C119.539,101.435,120.111,101.356,120.725,101.356z M131.566,101.643h1.763v2.375h-1.763v6.884c0,0.673,0.324,1.01,0.978,1.01h0.785
	V114c-0.101,0.038-0.218,0.073-0.354,0.103c-0.137,0.031-0.279,0.062-0.434,0.092c-0.148,0.031-0.304,0.054-0.455,0.069
	c-0.148,0.016-0.295,0.023-0.433,0.023c-0.562,0-1.026-0.096-1.397-0.287c-0.369-0.191-0.666-0.443-0.887-0.757
	c-0.222-0.313-0.375-0.667-0.468-1.061c-0.09-0.394-0.135-0.797-0.135-1.21v-6.953h-1.24v-2.375h1.24l0.42-3.476h2.377
	L131.566,101.643L131.566,101.643z M139.68,101.356c1.479,0,2.584,0.522,3.318,1.566c0.733,1.044,1.104,2.675,1.104,4.894v0.711
	h-6.223c0.01,0.551,0.049,1.04,0.119,1.468c0.072,0.429,0.186,0.79,0.33,1.084c0.147,0.294,0.34,0.518,0.574,0.671
	c0.233,0.153,0.521,0.229,0.864,0.229c0.478,0,0.855-0.206,1.144-0.619c0.283-0.413,0.426-0.991,0.426-1.732h2.766
	c0,0.795-0.108,1.485-0.323,2.071c-0.218,0.585-0.519,1.069-0.904,1.451c-0.387,0.383-0.846,0.667-1.377,0.855
	c-0.527,0.187-1.104,0.281-1.728,0.281c-1.569,0-2.764-0.523-3.576-1.572c-0.813-1.048-1.223-2.681-1.223-4.899
	c0-2.218,0.404-3.849,1.217-4.894C137,101.878,138.164,101.356,139.68,101.356z M139.68,103.662c-0.594,0-1.021,0.245-1.291,0.734
	s-0.428,1.186-0.473,2.088h3.252c0-0.902-0.119-1.599-0.357-2.088C140.572,103.907,140.195,103.662,139.68,103.662z
	 M153.316,101.356c0.472,0,0.904,0.071,1.304,0.212c0.398,0.141,0.739,0.369,1.028,0.683c0.287,0.313,0.515,0.723,0.677,1.228
	c0.161,0.505,0.243,1.121,0.243,1.847V114h-2.784v-7.894c0-0.795-0.146-1.36-0.433-1.692c-0.289-0.333-0.686-0.499-1.186-0.499
	c-0.271,0-0.523,0.063-0.763,0.189c-0.233,0.126-0.438,0.302-0.606,0.528c-0.172,0.226-0.303,0.487-0.396,0.786
	s-0.145,0.62-0.145,0.964V114h-2.783v-12.357h2.318l0.283,1.526h0.137c0.16-0.237,0.344-0.467,0.545-0.688
	c0.205-0.222,0.438-0.415,0.695-0.58c0.256-0.165,0.541-0.296,0.854-0.396C152.615,101.406,152.953,101.356,153.316,101.356z
	 M170.098,101.356c1.418,0,2.469,0.319,3.148,0.958c0.683,0.639,1.022,1.536,1.022,2.69v6.081c0,0.291,0.066,0.501,0.205,0.631
	c0.137,0.13,0.281,0.195,0.441,0.195h0.567v1.996c-0.151,0.084-0.36,0.168-0.625,0.252c-0.268,0.084-0.61,0.126-1.034,0.126
	c-0.562,0-1.027-0.151-1.396-0.453c-0.371-0.302-0.625-0.694-0.764-1.176h-0.125c-0.176,0.245-0.355,0.469-0.547,0.671
	c-0.188,0.203-0.404,0.375-0.646,0.517c-0.244,0.142-0.52,0.25-0.826,0.327c-0.308,0.077-0.664,0.115-1.073,0.115
	c-0.287,0-0.607-0.048-0.962-0.143c-0.354-0.096-0.688-0.271-1-0.528c-0.313-0.257-0.577-0.61-0.788-1.062
	c-0.214-0.451-0.318-1.036-0.318-1.755c0-0.833,0.147-1.526,0.449-2.077c0.299-0.551,0.715-0.992,1.25-1.325
	c0.532-0.333,1.174-0.568,1.922-0.706c0.746-0.138,1.562-0.207,2.449-0.207v-1.296c0-0.214-0.019-0.413-0.052-0.597
	c-0.032-0.184-0.096-0.344-0.188-0.482c-0.092-0.138-0.221-0.247-0.387-0.327c-0.166-0.081-0.384-0.121-0.647-0.121
	c-0.286,0-0.526,0.04-0.718,0.121c-0.188,0.08-0.338,0.182-0.445,0.304c-0.111,0.123-0.188,0.262-0.234,0.419
	c-0.045,0.157-0.067,0.308-0.067,0.453v0.344h-2.729c-0.018-0.069-0.022-0.145-0.022-0.229v-0.287c0-0.513,0.102-0.981,0.297-1.406
	c0.197-0.424,0.477-0.786,0.838-1.084c0.357-0.298,0.793-0.53,1.301-0.694C168.9,101.438,169.469,101.356,170.098,101.356z
	 M171.451,108.527c-0.408,0-0.806,0.031-1.188,0.092c-0.384,0.061-0.727,0.168-1.022,0.321c-0.299,0.153-0.541,0.359-0.724,0.62
	c-0.184,0.26-0.271,0.589-0.271,0.986c0,0.429,0.106,0.767,0.321,1.016c0.218,0.249,0.562,0.373,1.041,0.373
	c0.334,0,0.615-0.072,0.849-0.218c0.229-0.145,0.42-0.342,0.567-0.591c0.146-0.249,0.257-0.535,0.324-0.86
	c0.066-0.325,0.103-0.671,0.103-1.039V108.527L171.451,108.527z M187.363,114h-2.319l-0.281-1.526h-0.139
	c-0.16,0.245-0.342,0.476-0.547,0.694c-0.203,0.218-0.437,0.41-0.693,0.574c-0.258,0.165-0.541,0.296-0.852,0.396
	c-0.312,0.099-0.648,0.149-1.015,0.149c-0.471,0-0.901-0.071-1.303-0.212c-0.396-0.142-0.738-0.369-1.027-0.683
	c-0.287-0.313-0.516-0.725-0.676-1.233c-0.164-0.509-0.244-1.126-0.244-1.853v-8.663h2.785v7.894c0,0.795,0.139,1.357,0.412,1.687
	c0.277,0.329,0.68,0.493,1.199,0.493c0.272,0,0.524-0.061,0.758-0.184c0.229-0.122,0.434-0.291,0.604-0.505
	c0.17-0.214,0.306-0.47,0.404-0.769c0.098-0.298,0.146-0.62,0.146-0.964v-7.653h2.786L187.363,114L187.363,114z M195.246,101.356
	c0.584,0,1.127,0.077,1.631,0.229c0.504,0.153,0.944,0.373,1.319,0.66s0.669,0.639,0.882,1.056c0.211,0.417,0.317,0.889,0.317,1.417
	c0,0.13-0.006,0.249-0.02,0.355c-0.012,0.107-0.019,0.168-0.019,0.184h-2.83c0-0.551-0.122-0.954-0.368-1.21
	c-0.248-0.256-0.582-0.384-1.009-0.384c-0.434,0-0.778,0.109-1.045,0.327c-0.268,0.218-0.397,0.514-0.397,0.889
	c0,0.298,0.086,0.537,0.256,0.717c0.17,0.18,0.396,0.329,0.678,0.448c0.28,0.119,0.603,0.222,0.961,0.31
	c0.359,0.088,0.728,0.188,1.099,0.298c0.37,0.11,0.737,0.247,1.098,0.407c0.36,0.16,0.682,0.379,0.961,0.654
	s0.508,0.619,0.678,1.032s0.256,0.926,0.256,1.538c0,0.757-0.114,1.39-0.346,1.899c-0.232,0.509-0.553,0.92-0.955,1.233
	c-0.406,0.313-0.889,0.537-1.445,0.671c-0.557,0.134-1.161,0.201-1.812,0.201c-0.703,0-1.331-0.094-1.883-0.281
	c-0.549-0.188-1.017-0.453-1.396-0.797s-0.672-0.757-0.869-1.239c-0.196-0.482-0.295-1.017-0.295-1.606v-0.092
	c0-0.038,0.004-0.072,0.011-0.103c0-0.03,0.004-0.061,0.012-0.092h2.832v0.161c0.009,0.329,0.062,0.604,0.164,0.826
	c0.104,0.222,0.233,0.401,0.395,0.539s0.338,0.235,0.535,0.292c0.193,0.058,0.393,0.086,0.59,0.086c0.183,0,0.371-0.023,0.562-0.068
	c0.192-0.046,0.371-0.121,0.528-0.224c0.16-0.103,0.289-0.241,0.388-0.413c0.102-0.172,0.147-0.384,0.147-0.637
	c0-0.329-0.086-0.592-0.256-0.792c-0.174-0.199-0.396-0.365-0.68-0.499c-0.277-0.134-0.601-0.249-0.959-0.344
	c-0.359-0.096-0.728-0.201-1.099-0.315s-0.737-0.252-1.098-0.413c-0.36-0.161-0.682-0.375-0.963-0.643
	c-0.279-0.268-0.506-0.604-0.676-1.01c-0.172-0.405-0.256-0.906-0.256-1.503c0-0.627,0.112-1.176,0.34-1.646
	c0.229-0.47,0.539-0.862,0.936-1.176c0.394-0.313,0.854-0.549,1.387-0.706C194.062,101.435,194.633,101.356,195.246,101.356z
	 M45.456,129.355c1.417,0,2.467,0.318,3.148,0.959c0.683,0.64,1.021,1.535,1.021,2.688v6.082c0,0.291,0.067,0.5,0.205,0.631
	c0.136,0.129,0.284,0.195,0.442,0.195h0.566v1.996c-0.15,0.084-0.358,0.168-0.625,0.252c-0.265,0.084-0.608,0.127-1.033,0.127
	c-0.562,0-1.026-0.152-1.397-0.453c-0.371-0.305-0.625-0.693-0.763-1.18H46.9c-0.174,0.246-0.355,0.471-0.546,0.674
	c-0.189,0.201-0.404,0.375-0.647,0.516c-0.243,0.145-0.518,0.254-0.824,0.328c-0.306,0.076-0.665,0.115-1.073,0.115
	c-0.288,0-0.607-0.051-0.96-0.146c-0.354-0.097-0.688-0.271-1-0.525c-0.314-0.258-0.578-0.609-0.791-1.062
	c-0.215-0.451-0.318-1.035-0.318-1.756c0-0.834,0.15-1.523,0.449-2.074c0.299-0.553,0.716-0.994,1.25-1.326
	c0.535-0.332,1.175-0.567,1.922-0.705c0.747-0.141,1.562-0.207,2.45-0.207v-1.297c0-0.213-0.019-0.412-0.053-0.598
	c-0.032-0.186-0.097-0.344-0.188-0.48s-0.22-0.246-0.387-0.325c-0.167-0.08-0.385-0.121-0.647-0.121
	c-0.288,0-0.527,0.041-0.717,0.121c-0.188,0.079-0.339,0.182-0.448,0.303c-0.108,0.123-0.188,0.265-0.231,0.42
	c-0.046,0.156-0.068,0.308-0.068,0.453v0.344H41.34c-0.015-0.067-0.021-0.145-0.021-0.229v-0.287c0-0.515,0.099-0.981,0.295-1.406
	c0.197-0.424,0.477-0.784,0.837-1.084c0.359-0.299,0.794-0.528,1.302-0.692C44.258,129.438,44.827,129.355,45.456,129.355z
	 M46.809,136.527c-0.41,0-0.808,0.029-1.188,0.093c-0.384,0.062-0.725,0.168-1.021,0.319c-0.302,0.152-0.54,0.357-0.724,0.619
	c-0.183,0.262-0.271,0.59-0.271,0.986c0,0.43,0.106,0.768,0.322,1.016c0.218,0.25,0.563,0.373,1.04,0.373
	c0.333,0,0.616-0.072,0.849-0.219c0.229-0.146,0.421-0.342,0.567-0.592c0.146-0.248,0.257-0.535,0.324-0.857
	c0.067-0.326,0.104-0.674,0.104-1.039L46.809,136.527L46.809,136.527z M56.387,142h-2.786v-16.992h2.786V142z M62.318,142h-2.785
	v-16.992h2.785V142z M69.625,129.355c1.479,0,2.585,0.521,3.319,1.564c0.735,1.045,1.104,2.678,1.104,4.895v0.713h-6.219
	c0.007,0.552,0.047,1.039,0.12,1.47c0.071,0.428,0.182,0.789,0.329,1.084c0.146,0.295,0.34,0.519,0.574,0.67
	c0.233,0.153,0.521,0.229,0.862,0.229c0.479,0,0.859-0.207,1.145-0.619c0.284-0.414,0.427-0.989,0.427-1.731h2.763
	c0,0.795-0.106,1.483-0.322,2.07c-0.218,0.586-0.52,1.067-0.904,1.45c-0.386,0.384-0.845,0.668-1.375,0.854
	c-0.53,0.188-1.106,0.281-1.729,0.281c-1.567,0-2.761-0.525-3.574-1.572c-0.814-1.049-1.224-2.682-1.224-4.898
	s0.405-3.85,1.219-4.895C66.946,129.877,68.109,129.355,69.625,129.355z M69.625,131.663c-0.591,0-1.021,0.244-1.291,0.733
	c-0.27,0.488-0.426,1.187-0.473,2.088h3.252c0-0.901-0.119-1.6-0.357-2.088C70.518,131.907,70.141,131.663,69.625,131.663z
	 M83.262,129.355c0.47,0,0.902,0.07,1.302,0.213c0.396,0.142,0.741,0.369,1.027,0.683c0.288,0.313,0.515,0.726,0.678,1.229
	c0.163,0.502,0.245,1.121,0.245,1.85V142h-2.786v-7.896c0-0.795-0.146-1.357-0.434-1.689c-0.288-0.334-0.683-0.5-1.184-0.5
	c-0.272,0-0.526,0.062-0.762,0.188c-0.234,0.127-0.438,0.305-0.607,0.526c-0.17,0.228-0.304,0.488-0.396,0.787
	c-0.097,0.297-0.144,0.619-0.144,0.963V142h-2.786v-12.355h2.319l0.284,1.523h0.137c0.158-0.234,0.341-0.465,0.546-0.688
	c0.205-0.224,0.438-0.414,0.692-0.58c0.258-0.164,0.542-0.295,0.854-0.396C82.561,129.404,82.898,129.355,83.262,129.355z
	 M96.395,125.877h6.868c0.629,0,1.208,0.1,1.737,0.293c0.531,0.195,0.989,0.469,1.376,0.814c0.389,0.348,0.688,0.768,0.91,1.256
	c0.22,0.49,0.33,1.033,0.33,1.631c0,0.467-0.062,0.896-0.188,1.289c-0.125,0.396-0.3,0.746-0.52,1.057
	c-0.221,0.312-0.479,0.578-0.779,0.805c-0.299,0.229-0.618,0.398-0.96,0.521v0.092c0.396,0.123,0.765,0.309,1.108,0.553
	c0.345,0.246,0.644,0.539,0.896,0.885c0.255,0.345,0.452,0.736,0.598,1.177c0.145,0.438,0.217,0.916,0.217,1.428
	c0,0.683-0.127,1.287-0.382,1.818c-0.254,0.53-0.597,0.983-1.028,1.358c-0.433,0.375-0.935,0.658-1.506,0.854
	c-0.573,0.193-1.178,0.293-1.812,0.293h-6.868L96.395,125.877L96.395,125.877z M99.374,128.564v3.845h3.069
	c0.354,0,0.667-0.056,0.933-0.16c0.268-0.106,0.486-0.252,0.666-0.433c0.18-0.182,0.312-0.391,0.397-0.631
	c0.087-0.24,0.13-0.498,0.13-0.772c0-0.613-0.182-1.074-0.545-1.384c-0.363-0.312-0.841-0.465-1.435-0.465H99.374z M99.374,135.07
	v4.257h3.398c0.312,0,0.598-0.043,0.856-0.134c0.264-0.086,0.489-0.217,0.684-0.389c0.191-0.174,0.346-0.387,0.455-0.639
	c0.108-0.254,0.165-0.543,0.165-0.873c0-0.305-0.05-0.594-0.145-0.863c-0.096-0.271-0.235-0.512-0.427-0.713
	c-0.188-0.201-0.428-0.359-0.716-0.477s-0.625-0.174-1.014-0.174L99.374,135.07L99.374,135.07z M115.351,129.355
	c1.479,0,2.585,0.521,3.319,1.564c0.733,1.045,1.104,2.678,1.104,4.895v0.713h-6.221c0.007,0.552,0.047,1.039,0.118,1.47
	c0.072,0.428,0.184,0.789,0.33,1.084c0.147,0.295,0.339,0.519,0.574,0.67c0.234,0.153,0.522,0.229,0.863,0.229
	c0.479,0,0.857-0.207,1.144-0.619c0.284-0.414,0.428-0.989,0.428-1.731h2.764c0,0.795-0.108,1.483-0.323,2.07
	c-0.218,0.586-0.519,1.067-0.904,1.45c-0.387,0.384-0.846,0.668-1.376,0.854c-0.529,0.188-1.105,0.281-1.729,0.281
	c-1.568,0-2.761-0.525-3.575-1.572c-0.813-1.049-1.223-2.682-1.223-4.898s0.403-3.85,1.217-4.895
	C112.671,129.877,113.835,129.355,115.351,129.355z M115.351,131.663c-0.593,0-1.021,0.244-1.291,0.733
	c-0.271,0.488-0.428,1.187-0.474,2.088h3.252c0-0.901-0.118-1.6-0.356-2.088C116.244,131.907,115.867,131.663,115.351,131.663z
	 M128.055,129.355c0.176,0,0.334,0.013,0.479,0.035c0.146,0.021,0.271,0.045,0.375,0.066c0.12,0.031,0.223,0.062,0.307,0.092v2.721
	h-1c-0.303,0-0.594,0.047-0.867,0.14c-0.277,0.092-0.521,0.245-0.729,0.465c-0.209,0.217-0.375,0.508-0.5,0.871
	c-0.125,0.362-0.188,0.819-0.188,1.371V142h-2.785v-12.355h2.316l0.33,1.801h0.139c0.082-0.26,0.182-0.514,0.295-0.762
	c0.111-0.248,0.256-0.473,0.426-0.666c0.173-0.195,0.371-0.354,0.599-0.479C127.479,129.415,127.744,129.355,128.055,129.355z
	 M135.215,129.355c1.479,0,2.584,0.521,3.318,1.564c0.735,1.045,1.104,2.678,1.104,4.895v0.713h-6.221
	c0.008,0.552,0.047,1.039,0.119,1.47c0.071,0.428,0.183,0.789,0.33,1.084c0.146,0.295,0.338,0.519,0.573,0.67
	c0.232,0.153,0.521,0.229,0.862,0.229c0.479,0,0.858-0.207,1.145-0.619c0.284-0.414,0.426-0.989,0.426-1.731h2.766
	c0,0.795-0.106,1.483-0.324,2.07c-0.215,0.586-0.52,1.067-0.903,1.45c-0.387,0.384-0.845,0.668-1.375,0.854
	c-0.531,0.188-1.105,0.281-1.729,0.281c-1.568,0-2.764-0.525-3.576-1.572c-0.813-1.049-1.225-2.682-1.225-4.898
	s0.406-3.85,1.219-4.895C132.535,129.877,133.697,129.355,135.215,129.355z M135.215,131.663c-0.592,0-1.021,0.244-1.291,0.733
	c-0.27,0.488-0.426,1.187-0.473,2.088h3.252c0-0.901-0.119-1.6-0.355-2.088C136.108,131.907,135.729,131.663,135.215,131.663z
	 M145.77,127.579h-2.785v-2.57h2.785V127.579z M145.77,142h-2.785v-12.355h2.785V142z M153.145,129.355
	c0.65,0,1.244,0.097,1.773,0.287c0.529,0.189,0.979,0.486,1.354,0.89c0.371,0.401,0.658,0.911,0.857,1.532
	c0.201,0.619,0.303,1.359,0.303,2.226h-2.865c0-0.871-0.116-1.517-0.354-1.935c-0.234-0.416-0.592-0.625-1.068-0.625
	c-0.59,0-1.012,0.312-1.256,0.931c-0.246,0.618-0.369,1.521-0.369,2.707v0.896c0,1.188,0.131,2.09,0.394,2.713
	c0.262,0.623,0.707,0.938,1.336,0.938c0.5,0,0.858-0.215,1.08-0.645c0.219-0.431,0.33-1.071,0.33-1.929h2.772
	c0,0.863-0.1,1.607-0.295,2.229c-0.197,0.625-0.479,1.138-0.844,1.537c-0.361,0.4-0.803,0.699-1.316,0.892
	c-0.517,0.19-1.094,0.287-1.729,0.287c-0.797,0-1.484-0.129-2.069-0.386c-0.585-0.256-1.065-0.649-1.448-1.184
	c-0.383-0.531-0.664-1.203-0.85-2.02c-0.183-0.814-0.271-1.777-0.271-2.889c0-2.218,0.377-3.849,1.132-4.894
	C150.494,129.877,151.629,129.355,153.145,129.355z M163.654,130.952h0.104c0.139-0.191,0.301-0.384,0.488-0.574
	c0.188-0.19,0.405-0.36,0.647-0.51c0.242-0.15,0.517-0.271,0.816-0.367c0.304-0.097,0.639-0.146,1-0.146
	c0.473,0,0.904,0.07,1.305,0.213c0.397,0.142,0.738,0.369,1.027,0.683c0.287,0.313,0.516,0.726,0.678,1.229
	c0.16,0.502,0.242,1.121,0.242,1.85V142h-2.783v-7.896c0-0.795-0.146-1.357-0.434-1.689c-0.289-0.334-0.685-0.5-1.185-0.5
	c-0.271,0-0.524,0.062-0.764,0.188c-0.232,0.127-0.438,0.305-0.605,0.526c-0.172,0.228-0.303,0.488-0.397,0.787
	c-0.096,0.297-0.144,0.619-0.144,0.963V142h-2.784v-16.992h2.784L163.654,130.952L163.654,130.952z M177.939,129.355
	c1.479,0,2.584,0.521,3.318,1.564c0.734,1.045,1.104,2.678,1.104,4.895v0.713h-6.221c0.008,0.552,0.047,1.039,0.118,1.47
	c0.071,0.428,0.185,0.789,0.329,1.084c0.148,0.295,0.342,0.519,0.574,0.67c0.233,0.153,0.522,0.229,0.865,0.229
	c0.477,0,0.855-0.207,1.143-0.619c0.283-0.414,0.428-0.989,0.428-1.731h2.765c0,0.795-0.109,1.483-0.324,2.07
	c-0.217,0.586-0.519,1.067-0.902,1.45c-0.387,0.384-0.848,0.668-1.379,0.854c-0.527,0.188-1.104,0.281-1.727,0.281
	c-1.57,0-2.763-0.525-3.576-1.572c-0.812-1.049-1.224-2.682-1.224-4.898s0.406-3.85,1.218-4.895
	C175.26,129.877,176.424,129.355,177.939,129.355z M177.939,131.663c-0.592,0-1.021,0.244-1.291,0.733
	c-0.27,0.488-0.426,1.187-0.473,2.088h3.254c0-0.901-0.119-1.6-0.359-2.088C178.832,131.907,178.455,131.663,177.939,131.663z
	 M191.576,129.355c0.471,0,0.903,0.07,1.303,0.213c0.398,0.142,0.74,0.369,1.029,0.683c0.286,0.313,0.514,0.726,0.676,1.229
	c0.162,0.502,0.244,1.121,0.244,1.85V142h-2.785v-7.896c0-0.795-0.146-1.357-0.433-1.689c-0.289-0.334-0.686-0.5-1.186-0.5
	c-0.271,0-0.523,0.062-0.762,0.188c-0.232,0.127-0.438,0.305-0.605,0.526c-0.174,0.228-0.305,0.488-0.397,0.787
	c-0.097,0.297-0.144,0.619-0.144,0.963V142h-2.785v-12.355h2.318l0.283,1.523h0.139c0.158-0.234,0.342-0.465,0.545-0.688
	c0.205-0.225,0.438-0.414,0.693-0.58c0.256-0.164,0.541-0.295,0.854-0.396C190.875,129.404,191.213,129.355,191.576,129.355z"/>
</svg>
