<?xml version="1.0" encoding="utf-8"?>
<!-- Generator: Adobe Illustrator 16.0.4, SVG Export Plug-In . SVG Version: 6.00 Build 0)  -->
<svg version="1.2" baseProfile="tiny" id="Ebene_1" xmlns="http://www.w3.org/2000/svg" xmlns:xlink="http://www.w3.org/1999/xlink"
	 x="0px" y="0px" width="93.88px" height="72.61px" viewBox="0 0 93.88 72.61" xml:space="preserve">
<path fill="#FFFFFF" d="M93.508,20.638l-14.12-19.8c-0.308-0.432-0.774-0.724-1.298-0.812c-0.521-0.086-1.06,0.036-1.491,0.345
	l-68.88,49.14c-0.337,0.24-0.592,0.581-0.728,0.973l-6.88,20.09c-0.212,0.612-0.115,0.959,0.261,1.486
	C0.747,72.587,1.354,72.569,2,72.569c0.001,0,0.002,0,0.004,0l21.01,0.04c0.415-0.001,0.82,0.034,1.158-0.207l68.871-49.058
	C93.94,22.704,94.149,21.537,93.508,20.638z M77.293,4.79l4.66,6.535L16.35,58.126l-4.596-6.58L77.293,4.79z M9.535,55.354
	l9.493,13.593l-9.025,0.018l-3.17-4.937c-0.061-0.096-0.145-0.167-0.219-0.249L9.535,55.354z M23.392,68.21l-4.752-6.805
	l65.636-46.825l4.815,6.752L23.392,68.21z"/>
<g>
</g>
<g>
</g>
<g>
</g>
<g>
</g>
<g>
</g>
<g>
</g>
<g>
</g>
<g>
</g>
<g>
</g>
<g>
</g>
<g>
</g>
<g>
</g>
<g>
</g>
<g>
</g>
<g>
</g>
</svg>
