<?xml version="1.0" encoding="utf-8"?>
<!-- Generator: Adobe Illustrator 16.0.4, SVG Export Plug-In . SVG Version: 6.00 Build 0)  -->
<svg version="1.2" baseProfile="tiny" id="Sascha_Panter_Managi_1_"
	 xmlns="http://www.w3.org/2000/svg" xmlns:xlink="http://www.w3.org/1999/xlink" x="0px" y="0px" width="220px" height="206px"
	 viewBox="0 0 220 206" xml:space="preserve">
<polygon fill-rule="evenodd" fill="#5CEB00" points="0,0 220,0 220,165.805 76.158,165.805 31.474,206 31.474,165.805 0,165.805 "/>
<path d="M17.816,21.289h1.214v3.022h-3.04v-2.764l1.45-3.713h1.59L17.816,21.289z M21.845,21.289h1.214v3.022h-3.04v-2.764
	l1.45-3.713h1.59L21.845,21.289z M37.752,33h-2.836l-2.052-9.661c-0.043-0.194-0.083-0.414-0.118-0.659
	c-0.036-0.244-0.068-0.479-0.097-0.702c-0.029-0.259-0.058-0.521-0.086-0.788h-0.097c-0.043,0.288-0.079,0.565-0.107,0.831
	c-0.036,0.23-0.068,0.468-0.097,0.712c-0.029,0.245-0.061,0.446-0.097,0.604L30.136,33H27.3l-3.276-15.167h2.793l1.805,9.327
	c0.036,0.166,0.07,0.371,0.102,0.615s0.062,0.479,0.091,0.702c0.028,0.266,0.061,0.536,0.097,0.81h0.086
	c0.028-0.281,0.057-0.554,0.086-0.82c0.028-0.23,0.059-0.464,0.091-0.702s0.066-0.439,0.102-0.604l1.826-9.327h3.19l1.805,9.327
	c0.028,0.151,0.061,0.347,0.097,0.588c0.036,0.241,0.068,0.477,0.097,0.707c0.028,0.266,0.061,0.543,0.097,0.831h0.086l0.086-0.777
	c0.028-0.216,0.059-0.448,0.091-0.696c0.032-0.248,0.07-0.466,0.113-0.653l1.848-9.327h2.417L37.752,33z M44.848,19.432h-2.632
	v-2.418h2.632V19.432z M44.848,33h-2.632V21.375h2.632V33z M51.878,21.105c0.165,0,0.315,0.011,0.451,0.032
	c0.136,0.021,0.254,0.043,0.354,0.065c0.114,0.029,0.211,0.058,0.29,0.086v2.558h-0.945c-0.287,0-0.561,0.043-0.822,0.129
	c-0.262,0.086-0.491,0.232-0.688,0.438c-0.197,0.205-0.354,0.479-0.473,0.82s-0.177,0.771-0.177,1.29V33h-2.632V21.375h2.191
	l0.312,1.695h0.129c0.079-0.245,0.172-0.484,0.279-0.718s0.242-0.442,0.403-0.626s0.349-0.333,0.564-0.448
	C51.33,21.163,51.584,21.105,51.878,21.105z M61.848,33h-2.632V17.014h2.632V33z M66.848,19.432h-2.632v-2.418h2.632V19.432z
	 M66.848,33h-2.632V21.375h2.632V33z M73.147,21.105c1.396,0,2.442,0.491,3.137,1.473c0.694,0.982,1.042,2.517,1.042,4.604v0.669
	H71.45c0.007,0.518,0.044,0.979,0.113,1.382c0.068,0.403,0.172,0.743,0.312,1.02c0.14,0.277,0.32,0.487,0.542,0.631
	c0.222,0.144,0.494,0.216,0.816,0.216c0.451,0,0.811-0.194,1.08-0.583s0.403-0.932,0.403-1.63h2.61c0,0.749-0.102,1.398-0.306,1.948
	c-0.204,0.551-0.489,1.006-0.854,1.366s-0.799,0.628-1.3,0.804c-0.501,0.176-1.046,0.265-1.633,0.265
	c-1.482,0-2.609-0.493-3.378-1.479c-0.77-0.986-1.155-2.522-1.155-4.609s0.383-3.622,1.149-4.604
	C70.616,21.596,71.715,21.105,73.147,21.105z M73.147,23.274c-0.559,0-0.965,0.23-1.219,0.691c-0.254,0.461-0.403,1.116-0.446,1.965
	h3.072c0-0.849-0.113-1.504-0.338-1.965C73.991,23.505,73.634,23.274,73.147,23.274z M81.697,31.565L81.429,33h-2.191V17.014h2.632
	v5.548h0.118c0.208-0.468,0.542-0.827,1.004-1.08c0.462-0.251,0.983-0.377,1.563-0.377c0.516,0,0.992,0.117,1.429,0.351
	c0.437,0.234,0.814,0.598,1.133,1.09c0.318,0.493,0.569,1.121,0.752,1.884s0.274,1.673,0.274,2.731c0,1.058-0.086,1.97-0.258,2.736
	c-0.172,0.767-0.419,1.4-0.741,1.9c-0.322,0.5-0.713,0.871-1.171,1.112c-0.458,0.241-0.974,0.362-1.547,0.362
	c-0.552,0-1.053-0.144-1.504-0.432c-0.451-0.288-0.824-0.712-1.117-1.273H81.697z M81.869,27.603c0,1.051,0.134,1.855,0.403,2.413
	c0.269,0.558,0.721,0.837,1.359,0.837c0.637,0,1.09-0.279,1.359-0.837c0.269-0.558,0.403-1.362,0.403-2.413v-0.842
	c0-1.043-0.134-1.846-0.403-2.407s-0.722-0.842-1.359-0.842c-0.322,0-0.595,0.074-0.816,0.221c-0.222,0.147-0.403,0.361-0.542,0.642
	s-0.242,0.626-0.306,1.037c-0.064,0.41-0.097,0.878-0.097,1.403V27.603z M94.147,21.105c1.396,0,2.442,0.491,3.137,1.473
	c0.694,0.982,1.042,2.517,1.042,4.604v0.669H92.45c0.007,0.518,0.044,0.979,0.113,1.382c0.068,0.403,0.172,0.743,0.312,1.02
	c0.14,0.277,0.32,0.487,0.542,0.631c0.222,0.144,0.494,0.216,0.816,0.216c0.451,0,0.811-0.194,1.08-0.583s0.403-0.932,0.403-1.63
	h2.61c0,0.749-0.102,1.398-0.306,1.948c-0.204,0.551-0.489,1.006-0.854,1.366s-0.799,0.628-1.3,0.804
	c-0.501,0.176-1.046,0.265-1.633,0.265c-1.482,0-2.609-0.493-3.378-1.479c-0.77-0.986-1.155-2.522-1.155-4.609
	s0.383-3.622,1.149-4.604C91.616,21.596,92.715,21.105,94.147,21.105z M94.147,23.274c-0.559,0-0.965,0.23-1.219,0.691
	c-0.254,0.461-0.403,1.116-0.446,1.965h3.072c0-0.849-0.113-1.504-0.338-1.965C94.991,23.505,94.634,23.274,94.147,23.274z
	 M105.759,21.105c0.444,0,0.854,0.066,1.23,0.2s0.7,0.347,0.972,0.642c0.272,0.295,0.485,0.68,0.639,1.155
	c0.154,0.475,0.231,1.054,0.231,1.738V33h-2.632v-7.427c0-0.748-0.136-1.279-0.408-1.592c-0.272-0.313-0.645-0.469-1.117-0.469
	c-0.258,0-0.498,0.059-0.72,0.178c-0.222,0.119-0.414,0.285-0.575,0.497c-0.161,0.212-0.287,0.459-0.376,0.74
	c-0.09,0.281-0.134,0.583-0.134,0.907V33h-2.632V21.375h2.191l0.269,1.436h0.129c0.15-0.223,0.322-0.439,0.516-0.648
	c0.193-0.208,0.412-0.39,0.655-0.545c0.243-0.155,0.512-0.279,0.806-0.373C105.096,21.152,105.415,21.105,105.759,21.105z
	 M23.907,53.502h-4.748V60h-2.814V44.834h2.814v6.142h4.748v-6.142h2.825V60h-2.825V53.502z M33.147,48.105
	c1.396,0,2.442,0.491,3.137,1.473c0.694,0.982,1.042,2.517,1.042,4.604v0.669H31.45c0.007,0.518,0.044,0.979,0.113,1.382
	c0.068,0.403,0.172,0.743,0.312,1.02c0.14,0.277,0.32,0.487,0.542,0.631c0.222,0.144,0.494,0.216,0.816,0.216
	c0.451,0,0.811-0.194,1.08-0.583s0.403-0.932,0.403-1.63h2.61c0,0.749-0.102,1.398-0.306,1.948
	c-0.204,0.551-0.489,1.006-0.854,1.366s-0.799,0.628-1.3,0.804c-0.501,0.176-1.046,0.265-1.633,0.265
	c-1.482,0-2.609-0.493-3.378-1.479c-0.77-0.986-1.155-2.522-1.155-4.609s0.383-3.622,1.149-4.604
	C30.616,48.596,31.715,48.105,33.147,48.105z M33.147,50.274c-0.559,0-0.965,0.23-1.219,0.691c-0.254,0.461-0.403,1.116-0.446,1.965
	h3.072c0-0.849-0.113-1.504-0.338-1.965C33.991,50.505,33.634,50.274,33.147,50.274z M43.878,48.105
	c0.165,0,0.315,0.011,0.451,0.032c0.136,0.021,0.254,0.043,0.354,0.065c0.114,0.029,0.211,0.058,0.29,0.086v2.558h-0.945
	c-0.287,0-0.561,0.043-0.822,0.129c-0.262,0.086-0.491,0.232-0.688,0.438c-0.197,0.205-0.354,0.479-0.473,0.82
	s-0.177,0.771-0.177,1.29V60h-2.632V48.375h2.191l0.312,1.695h0.129c0.079-0.245,0.172-0.484,0.279-0.718s0.242-0.442,0.403-0.626
	s0.349-0.333,0.564-0.448C43.33,48.163,43.584,48.105,43.878,48.105z M49.793,48.105c1.339,0,2.331,0.3,2.976,0.901
	c0.645,0.601,0.967,1.445,0.967,2.531v5.721c0,0.273,0.064,0.471,0.193,0.594c0.129,0.122,0.269,0.183,0.419,0.183h0.537v1.878
	c-0.144,0.079-0.34,0.158-0.591,0.238c-0.251,0.079-0.577,0.119-0.978,0.119c-0.53,0-0.971-0.143-1.321-0.427
	c-0.351-0.284-0.591-0.653-0.72-1.106h-0.118c-0.165,0.23-0.337,0.441-0.516,0.632c-0.179,0.19-0.383,0.353-0.612,0.486
	c-0.229,0.133-0.489,0.235-0.779,0.308c-0.29,0.072-0.628,0.108-1.015,0.108c-0.272,0-0.575-0.045-0.908-0.135
	s-0.648-0.255-0.945-0.497c-0.297-0.241-0.546-0.574-0.747-0.999c-0.201-0.424-0.301-0.975-0.301-1.651
	c0-0.784,0.141-1.436,0.424-1.954c0.283-0.519,0.677-0.934,1.182-1.247s1.11-0.534,1.815-0.664c0.705-0.13,1.477-0.194,2.315-0.194
	v-1.22c0-0.202-0.016-0.389-0.048-0.562s-0.091-0.324-0.177-0.454c-0.086-0.129-0.208-0.232-0.365-0.308
	c-0.158-0.075-0.362-0.113-0.612-0.113c-0.272,0-0.498,0.038-0.677,0.113c-0.179,0.076-0.321,0.171-0.424,0.286
	c-0.104,0.115-0.177,0.247-0.22,0.394s-0.064,0.29-0.064,0.426v0.324h-2.578c-0.015-0.065-0.021-0.137-0.021-0.216v-0.27
	c0-0.482,0.093-0.923,0.279-1.322c0.186-0.399,0.449-0.74,0.79-1.02c0.34-0.281,0.75-0.499,1.23-0.653
	C48.661,48.182,49.198,48.105,49.793,48.105z M51.071,54.852c-0.387,0-0.761,0.029-1.123,0.086
	c-0.362,0.058-0.684,0.158-0.967,0.302c-0.283,0.144-0.51,0.338-0.682,0.583c-0.172,0.245-0.258,0.555-0.258,0.929
	c0,0.403,0.102,0.721,0.306,0.955s0.532,0.351,0.983,0.351c0.315,0,0.582-0.068,0.8-0.205c0.218-0.137,0.397-0.322,0.537-0.556
	s0.242-0.503,0.306-0.81c0.064-0.306,0.097-0.631,0.097-0.977V54.852z M64.831,60H62.64l-0.269-1.436h-0.129
	c-0.15,0.23-0.322,0.448-0.516,0.653s-0.412,0.385-0.655,0.54c-0.244,0.155-0.512,0.279-0.806,0.372
	c-0.294,0.094-0.612,0.141-0.956,0.141c-0.444,0-0.854-0.067-1.23-0.2c-0.376-0.133-0.7-0.347-0.972-0.643
	c-0.272-0.295-0.485-0.682-0.639-1.16c-0.154-0.479-0.231-1.06-0.231-1.744v-8.15h2.632v7.427c0,0.749,0.13,1.278,0.392,1.587
	c0.261,0.31,0.639,0.464,1.133,0.464c0.258,0,0.496-0.058,0.714-0.173c0.218-0.115,0.408-0.273,0.569-0.475
	c0.161-0.201,0.288-0.442,0.381-0.723c0.093-0.281,0.14-0.583,0.14-0.907v-7.2h2.632V60z M71.062,48.105
	c0.551,0,1.065,0.072,1.542,0.216c0.476,0.144,0.892,0.351,1.246,0.621s0.632,0.601,0.833,0.993c0.2,0.392,0.301,0.836,0.301,1.333
	c0,0.123-0.005,0.234-0.016,0.335c-0.011,0.101-0.016,0.158-0.016,0.172h-2.675c0-0.518-0.117-0.897-0.349-1.139
	c-0.233-0.241-0.55-0.362-0.951-0.362c-0.408,0-0.738,0.103-0.988,0.308c-0.251,0.205-0.376,0.484-0.376,0.837
	c0,0.28,0.081,0.505,0.242,0.674c0.161,0.169,0.374,0.31,0.639,0.421c0.265,0.111,0.567,0.208,0.908,0.291
	c0.34,0.083,0.686,0.177,1.037,0.281c0.351,0.104,0.696,0.232,1.037,0.383c0.34,0.151,0.643,0.356,0.908,0.615
	c0.265,0.259,0.478,0.583,0.639,0.972s0.242,0.871,0.242,1.446c0,0.712-0.109,1.308-0.328,1.787
	c-0.219,0.479-0.52,0.865-0.902,1.161c-0.383,0.295-0.838,0.505-1.364,0.631c-0.526,0.125-1.098,0.189-1.713,0.189
	c-0.666,0-1.259-0.088-1.778-0.265c-0.52-0.176-0.96-0.426-1.321-0.75c-0.362-0.324-0.636-0.712-0.822-1.166
	c-0.187-0.454-0.279-0.957-0.279-1.511v-0.086c0-0.036,0.003-0.068,0.011-0.097c0-0.029,0.003-0.058,0.011-0.086h2.675v0.151
	c0.007,0.31,0.059,0.568,0.156,0.777c0.097,0.208,0.22,0.377,0.371,0.507c0.15,0.129,0.318,0.221,0.505,0.275
	c0.186,0.054,0.372,0.081,0.559,0.081c0.172,0,0.349-0.021,0.532-0.065c0.183-0.043,0.349-0.113,0.5-0.21s0.272-0.227,0.365-0.388
	c0.093-0.162,0.14-0.362,0.14-0.599c0-0.31-0.081-0.558-0.242-0.745c-0.161-0.187-0.375-0.343-0.639-0.47
	c-0.265-0.125-0.568-0.233-0.908-0.324c-0.34-0.09-0.686-0.189-1.037-0.297c-0.351-0.108-0.697-0.237-1.037-0.389
	c-0.34-0.151-0.643-0.352-0.908-0.604c-0.265-0.251-0.478-0.568-0.639-0.95s-0.242-0.853-0.242-1.414
	c0-0.59,0.107-1.106,0.322-1.549c0.215-0.443,0.508-0.812,0.881-1.106c0.372-0.295,0.809-0.517,1.311-0.664
	C69.94,48.179,70.481,48.105,71.062,48.105z M80.116,43.841c0.15,0,0.315,0.007,0.494,0.022c0.179,0.014,0.354,0.034,0.526,0.059
	c0.172,0.025,0.336,0.054,0.494,0.086c0.157,0.032,0.29,0.063,0.397,0.092v1.976h-1.074c-0.616,0-0.924,0.316-0.924,0.95v1.349
	h1.998v2.235H80.03V60h-2.643v-9.391h-1.171v-2.235h1.171V46.96c0-0.389,0.043-0.77,0.129-1.144s0.232-0.707,0.44-0.999
	c0.208-0.292,0.487-0.527,0.838-0.707C79.146,43.931,79.586,43.841,80.116,43.841z M87.545,48.105c1.54,0,2.694,0.491,3.464,1.473
	c0.77,0.982,1.155,2.517,1.155,4.604s-0.385,3.624-1.155,4.609c-0.77,0.986-1.925,1.479-3.464,1.479
	c-1.54,0-2.695-0.493-3.464-1.479c-0.77-0.986-1.155-2.522-1.155-4.609s0.385-3.622,1.155-4.604
	C84.85,48.596,86.005,48.105,87.545,48.105z M87.545,50.339c-0.681,0-1.162,0.293-1.445,0.88c-0.283,0.586-0.424,1.434-0.424,2.542
	v0.842c0,1.116,0.141,1.967,0.424,2.553c0.283,0.586,0.764,0.879,1.445,0.879c0.68,0,1.162-0.293,1.445-0.879
	c0.283-0.586,0.424-1.438,0.424-2.553v-0.842c0-1.108-0.142-1.956-0.424-2.542C88.707,50.633,88.225,50.339,87.545,50.339z
	 M98.878,48.105c0.165,0,0.315,0.011,0.451,0.032c0.136,0.021,0.254,0.043,0.354,0.065c0.114,0.029,0.211,0.058,0.29,0.086v2.558
	h-0.945c-0.287,0-0.561,0.043-0.822,0.129c-0.262,0.086-0.491,0.232-0.688,0.438c-0.197,0.205-0.354,0.479-0.473,0.82
	s-0.177,0.771-0.177,1.29V60h-2.632V48.375h2.191l0.312,1.695h0.129c0.079-0.245,0.172-0.484,0.279-0.718s0.242-0.442,0.403-0.626
	s0.349-0.333,0.564-0.448C98.33,48.163,98.584,48.105,98.878,48.105z M109.831,60h-2.191l-0.269-1.436h-0.107
	c-0.287,0.561-0.657,0.986-1.112,1.273c-0.455,0.288-0.958,0.432-1.509,0.432c-0.573,0-1.089-0.121-1.547-0.362
	c-0.458-0.241-0.849-0.611-1.171-1.112c-0.322-0.5-0.569-1.133-0.741-1.9c-0.172-0.766-0.258-1.679-0.258-2.736
	c0-1.058,0.091-1.968,0.274-2.731s0.433-1.391,0.752-1.884c0.318-0.493,0.696-0.856,1.133-1.09c0.437-0.234,0.913-0.351,1.429-0.351
	c0.58,0,1.101,0.126,1.563,0.377c0.462,0.252,0.796,0.612,1.004,1.08h0.118v-5.548h2.632V60z M105.438,50.512
	c-0.638,0-1.09,0.28-1.359,0.842s-0.403,1.364-0.403,2.407v0.842c0,1.051,0.134,1.855,0.403,2.413
	c0.269,0.558,0.721,0.837,1.359,0.837c0.637,0,1.09-0.279,1.359-0.837c0.269-0.558,0.403-1.362,0.403-2.413v-0.788
	c0-0.525-0.032-0.993-0.097-1.403c-0.064-0.411-0.167-0.756-0.306-1.037s-0.321-0.495-0.542-0.642
	C106.032,50.586,105.76,50.512,105.438,50.512z M116.146,48.105c1.396,0,2.443,0.491,3.137,1.473
	c0.695,0.982,1.043,2.517,1.043,4.604v0.669h-5.877c0.008,0.518,0.045,0.979,0.113,1.382c0.068,0.403,0.172,0.743,0.312,1.02
	c0.139,0.277,0.32,0.487,0.541,0.631c0.223,0.144,0.494,0.216,0.816,0.216c0.451,0,0.812-0.194,1.08-0.583
	c0.27-0.389,0.402-0.932,0.402-1.63h2.611c0,0.749-0.102,1.398-0.307,1.948c-0.203,0.551-0.488,1.006-0.854,1.366
	s-0.799,0.628-1.301,0.804c-0.5,0.176-1.045,0.265-1.633,0.265c-1.482,0-2.607-0.493-3.377-1.479
	c-0.771-0.986-1.156-2.522-1.156-4.609s0.383-3.622,1.15-4.604C113.615,48.596,114.715,48.105,116.146,48.105z M116.146,50.274
	c-0.559,0-0.965,0.23-1.219,0.691c-0.254,0.461-0.402,1.116-0.445,1.965h3.072c0-0.849-0.113-1.504-0.338-1.965
	C116.99,50.505,116.635,50.274,116.146,50.274z M126.877,48.105c0.166,0,0.316,0.011,0.451,0.032
	c0.137,0.021,0.254,0.043,0.355,0.065c0.113,0.029,0.211,0.058,0.289,0.086v2.558h-0.945c-0.285,0-0.561,0.043-0.82,0.129
	c-0.262,0.086-0.492,0.232-0.688,0.438c-0.197,0.205-0.355,0.479-0.473,0.82c-0.119,0.342-0.178,0.771-0.178,1.29V60h-2.633V48.375
	h2.191l0.312,1.695h0.129c0.078-0.245,0.172-0.484,0.279-0.718s0.242-0.442,0.402-0.626c0.162-0.184,0.35-0.333,0.564-0.448
	C126.33,48.163,126.584,48.105,126.877,48.105z M137.83,60h-2.191l-0.268-1.436h-0.129c-0.15,0.23-0.322,0.448-0.516,0.653
	s-0.412,0.385-0.656,0.54c-0.242,0.155-0.512,0.279-0.805,0.372c-0.295,0.094-0.613,0.141-0.957,0.141
	c-0.443,0-0.854-0.067-1.229-0.2c-0.377-0.133-0.701-0.347-0.973-0.643c-0.273-0.295-0.486-0.682-0.639-1.16
	c-0.154-0.479-0.232-1.06-0.232-1.744v-8.15h2.633v7.427c0,0.749,0.131,1.278,0.393,1.587c0.26,0.31,0.639,0.464,1.133,0.464
	c0.258,0,0.496-0.058,0.715-0.173c0.217-0.115,0.408-0.273,0.568-0.475c0.162-0.201,0.289-0.442,0.381-0.723
	c0.094-0.281,0.141-0.583,0.141-0.907v-7.2h2.631V60z M145.758,48.105c0.445,0,0.855,0.066,1.23,0.2
	c0.377,0.133,0.699,0.347,0.973,0.642c0.271,0.295,0.484,0.68,0.639,1.155c0.154,0.475,0.23,1.054,0.23,1.738V60h-2.631v-7.427
	c0-0.748-0.137-1.279-0.408-1.592c-0.273-0.313-0.645-0.469-1.117-0.469c-0.258,0-0.498,0.059-0.721,0.178
	c-0.221,0.119-0.412,0.285-0.574,0.497c-0.16,0.212-0.287,0.459-0.375,0.74c-0.09,0.281-0.135,0.583-0.135,0.907V60h-2.633V48.375
	h2.191l0.27,1.436h0.129c0.15-0.223,0.322-0.439,0.516-0.648c0.193-0.208,0.412-0.39,0.654-0.545
	c0.244-0.155,0.512-0.279,0.807-0.373C145.096,48.152,145.414,48.105,145.758,48.105z M160.711,46.432
	c0,0.828-0.164,1.482-0.494,1.965c-0.328,0.482-0.787,0.813-1.375,0.993c0.301,0.331,0.531,0.723,0.688,1.176
	c0.158,0.454,0.236,0.954,0.236,1.5c0,0.598-0.092,1.139-0.279,1.625c-0.186,0.486-0.457,0.901-0.816,1.247
	c-0.357,0.345-0.805,0.612-1.342,0.799s-1.154,0.28-1.848,0.28h-1.096c-0.236,0-0.428,0.069-0.574,0.205
	c-0.148,0.137-0.221,0.306-0.221,0.507c0,0.202,0.062,0.366,0.188,0.491c0.125,0.126,0.289,0.189,0.488,0.189h4.008
	c0.365,0,0.707,0.07,1.025,0.21c0.318,0.141,0.598,0.344,0.838,0.61c0.24,0.267,0.43,0.587,0.57,0.961
	c0.139,0.374,0.209,0.792,0.209,1.252c0,0.54-0.1,1.031-0.295,1.474c-0.197,0.442-0.465,0.82-0.801,1.133
	c-0.338,0.313-0.732,0.554-1.188,0.724c-0.455,0.169-0.939,0.253-1.455,0.253h-4.254c-0.352,0-0.682-0.065-0.988-0.194
	c-0.309-0.129-0.578-0.313-0.811-0.55c-0.234-0.238-0.416-0.52-0.549-0.848s-0.199-0.689-0.199-1.085
	c0-0.576,0.141-1.056,0.42-1.441s0.629-0.692,1.053-0.923c-0.287-0.18-0.512-0.416-0.678-0.707
	c-0.164-0.292-0.246-0.639-0.246-1.042c0-0.252,0.045-0.484,0.135-0.696c0.088-0.212,0.211-0.405,0.365-0.578
	c0.152-0.173,0.334-0.322,0.541-0.448c0.209-0.125,0.426-0.228,0.656-0.308c-0.467-0.345-0.816-0.782-1.053-1.312
	c-0.236-0.529-0.355-1.139-0.355-1.83c0-0.597,0.092-1.139,0.275-1.625c0.182-0.486,0.453-0.901,0.816-1.247
	c0.361-0.346,0.807-0.614,1.336-0.804c0.531-0.191,1.143-0.286,1.838-0.286c0.365,0,0.711,0.027,1.037,0.081
	c0.324,0.054,0.623,0.138,0.896,0.253c0.221-0.158,0.404-0.333,0.547-0.523c0.145-0.19,0.258-0.379,0.344-0.567
	c0.086-0.187,0.146-0.361,0.184-0.523c0.035-0.162,0.053-0.293,0.053-0.394H160.711z M154.094,59.871
	c-0.15,0-0.287,0.029-0.412,0.086c-0.127,0.057-0.236,0.135-0.334,0.232c-0.096,0.097-0.172,0.208-0.225,0.334
	c-0.055,0.126-0.082,0.261-0.082,0.405c0,0.331,0.102,0.594,0.301,0.788c0.201,0.194,0.451,0.292,0.752,0.292h2.965
	c0.338,0,0.619-0.097,0.85-0.292c0.229-0.194,0.344-0.457,0.344-0.788s-0.104-0.59-0.312-0.777
	c-0.207-0.188-0.461-0.281-0.762-0.281H154.094z M155.48,50.069c-0.537,0-0.943,0.177-1.219,0.529
	c-0.277,0.353-0.414,0.842-0.414,1.468c0,0.619,0.137,1.105,0.414,1.458c0.275,0.353,0.682,0.529,1.219,0.529
	c0.551,0,0.965-0.176,1.24-0.529s0.414-0.838,0.414-1.458c0-0.626-0.139-1.115-0.414-1.468S156.031,50.069,155.48,50.069z
	 M166.146,48.105c1.396,0,2.443,0.491,3.137,1.473c0.695,0.982,1.043,2.517,1.043,4.604v0.669h-5.877
	c0.008,0.518,0.045,0.979,0.113,1.382c0.068,0.403,0.172,0.743,0.312,1.02c0.139,0.277,0.32,0.487,0.541,0.631
	c0.223,0.144,0.494,0.216,0.816,0.216c0.451,0,0.812-0.194,1.08-0.583c0.27-0.389,0.402-0.932,0.402-1.63h2.611
	c0,0.749-0.102,1.398-0.307,1.948c-0.203,0.551-0.488,1.006-0.854,1.366s-0.799,0.628-1.301,0.804
	c-0.5,0.176-1.045,0.265-1.633,0.265c-1.482,0-2.607-0.493-3.377-1.479c-0.771-0.986-1.156-2.522-1.156-4.609
	s0.383-3.622,1.15-4.604C163.615,48.596,164.715,48.105,166.146,48.105z M166.146,50.274c-0.559,0-0.965,0.23-1.219,0.691
	c-0.254,0.461-0.402,1.116-0.445,1.965h3.072c0-0.849-0.113-1.504-0.338-1.965C166.99,50.505,166.635,50.274,166.146,50.274z
	 M177.758,48.105c0.445,0,0.855,0.066,1.23,0.2c0.377,0.133,0.699,0.347,0.973,0.642c0.271,0.295,0.484,0.68,0.639,1.155
	c0.154,0.475,0.23,1.054,0.23,1.738V60h-2.631v-7.427c0-0.748-0.137-1.279-0.408-1.592c-0.273-0.313-0.645-0.469-1.117-0.469
	c-0.258,0-0.498,0.059-0.721,0.178c-0.221,0.119-0.412,0.285-0.574,0.497c-0.16,0.212-0.287,0.459-0.375,0.74
	c-0.09,0.281-0.135,0.583-0.135,0.907V60h-2.633V48.375h2.191l0.27,1.436h0.129c0.15-0.223,0.322-0.439,0.516-0.648
	c0.193-0.208,0.412-0.39,0.654-0.545c0.244-0.155,0.512-0.279,0.807-0.373C177.096,48.152,177.414,48.105,177.758,48.105z
	 M186.051,60h-3.039v-3.033h3.039V60z M16.366,70.834h2.814v10.32c0,0.878,0.204,1.543,0.612,1.997
	c0.408,0.453,0.988,0.68,1.74,0.68s1.335-0.227,1.751-0.68c0.415-0.454,0.623-1.119,0.623-1.997v-10.32h2.825v10.417
	c0,0.82-0.12,1.543-0.36,2.169c-0.24,0.626-0.584,1.15-1.031,1.571c-0.448,0.421-0.992,0.739-1.633,0.955
	c-0.641,0.216-1.366,0.324-2.175,0.324c-0.81,0-1.533-0.108-2.17-0.324c-0.638-0.216-1.178-0.534-1.622-0.955
	c-0.444-0.421-0.784-0.944-1.021-1.571c-0.236-0.626-0.354-1.349-0.354-2.169V70.834z M34.759,74.105c0.444,0,0.854,0.066,1.23,0.2
	s0.7,0.347,0.972,0.642c0.272,0.295,0.485,0.68,0.639,1.155c0.154,0.475,0.231,1.054,0.231,1.738V86h-2.632v-7.427
	c0-0.748-0.136-1.279-0.408-1.592c-0.272-0.313-0.645-0.469-1.117-0.469c-0.258,0-0.498,0.059-0.72,0.178
	c-0.222,0.119-0.414,0.285-0.575,0.497c-0.161,0.212-0.287,0.459-0.376,0.74c-0.09,0.281-0.134,0.583-0.134,0.907V86h-2.632V74.375
	h2.191l0.269,1.436h0.129c0.15-0.223,0.322-0.439,0.516-0.648c0.193-0.208,0.412-0.39,0.655-0.545
	c0.243-0.155,0.512-0.279,0.806-0.373C34.096,74.152,34.415,74.105,34.759,74.105z M48.831,86H46.64l-0.269-1.436h-0.107
	c-0.287,0.561-0.657,0.986-1.112,1.273c-0.455,0.288-0.958,0.432-1.509,0.432c-0.573,0-1.089-0.121-1.547-0.362
	c-0.458-0.241-0.849-0.611-1.171-1.112c-0.322-0.5-0.569-1.133-0.741-1.9c-0.172-0.766-0.258-1.679-0.258-2.736
	c0-1.058,0.091-1.968,0.274-2.731s0.433-1.391,0.752-1.884c0.318-0.493,0.696-0.856,1.133-1.09c0.437-0.234,0.913-0.351,1.429-0.351
	c0.58,0,1.101,0.126,1.563,0.377c0.462,0.252,0.796,0.612,1.004,1.08h0.118v-5.548h2.632V86z M44.438,76.512
	c-0.638,0-1.09,0.28-1.359,0.842s-0.403,1.364-0.403,2.407v0.842c0,1.051,0.134,1.855,0.403,2.413
	c0.269,0.558,0.721,0.837,1.359,0.837c0.637,0,1.09-0.279,1.359-0.837c0.269-0.558,0.403-1.362,0.403-2.413v-0.788
	c0-0.525-0.032-0.993-0.097-1.403c-0.064-0.411-0.167-0.756-0.306-1.037s-0.321-0.495-0.542-0.642
	C45.032,76.586,44.76,76.512,44.438,76.512z M66.238,86h-2.653l-1.149-5.548c-0.058-0.295-0.107-0.61-0.15-0.945
	c-0.043-0.334-0.079-0.646-0.107-0.934c-0.029-0.338-0.054-0.669-0.075-0.993h-0.129c-0.021,0.317-0.047,0.641-0.075,0.972
	c-0.029,0.281-0.064,0.588-0.107,0.923s-0.093,0.653-0.15,0.956L60.523,86h-2.664l-2.814-11.626h2.643l1.096,4.771
	c0.086,0.396,0.159,0.808,0.22,1.236c0.061,0.428,0.109,0.822,0.145,1.182c0.043,0.417,0.075,0.828,0.097,1.23h0.086
	c0.028-0.381,0.068-0.777,0.118-1.188c0.036-0.353,0.086-0.743,0.15-1.171s0.136-0.851,0.215-1.269l0.999-4.793h2.632l0.999,4.814
	c0.057,0.288,0.114,0.635,0.172,1.042c0.057,0.406,0.111,0.8,0.161,1.182c0.05,0.446,0.1,0.907,0.15,1.382h0.086
	c0.057-0.446,0.118-0.885,0.183-1.317c0.057-0.367,0.118-0.757,0.183-1.171c0.064-0.414,0.132-0.786,0.204-1.117l1.01-4.814h2.449
	L66.238,86z M72.848,72.432h-2.632v-2.418h2.632V72.432z M72.848,86h-2.632V74.375h2.632V86z M79.878,74.105
	c0.165,0,0.315,0.011,0.451,0.032c0.136,0.021,0.254,0.043,0.354,0.065c0.114,0.029,0.211,0.058,0.29,0.086v2.558h-0.945
	c-0.287,0-0.561,0.043-0.822,0.129c-0.262,0.086-0.491,0.232-0.688,0.438c-0.197,0.205-0.354,0.479-0.473,0.82
	s-0.177,0.771-0.177,1.29V86h-2.632V74.375h2.191l0.312,1.695h0.129c0.079-0.245,0.172-0.484,0.279-0.718s0.242-0.442,0.403-0.626
	s0.349-0.333,0.564-0.448C79.33,74.163,79.584,74.105,79.878,74.105z M89.697,84.565L89.429,86h-2.191V70.014h2.632v5.548h0.118
	c0.208-0.468,0.542-0.827,1.004-1.08c0.462-0.251,0.983-0.377,1.563-0.377c0.516,0,0.992,0.117,1.429,0.351
	c0.437,0.234,0.814,0.598,1.133,1.09c0.318,0.493,0.569,1.121,0.752,1.884s0.274,1.673,0.274,2.731c0,1.058-0.086,1.97-0.258,2.736
	c-0.172,0.767-0.419,1.4-0.741,1.9c-0.322,0.5-0.713,0.871-1.171,1.112c-0.458,0.241-0.974,0.362-1.547,0.362
	c-0.552,0-1.053-0.144-1.504-0.432c-0.451-0.288-0.824-0.712-1.117-1.273H89.697z M89.869,80.603c0,1.051,0.134,1.855,0.403,2.413
	c0.269,0.558,0.721,0.837,1.359,0.837c0.637,0,1.09-0.279,1.359-0.837c0.269-0.558,0.403-1.362,0.403-2.413v-0.842
	c0-1.043-0.134-1.846-0.403-2.407s-0.722-0.842-1.359-0.842c-0.322,0-0.595,0.074-0.816,0.221c-0.222,0.147-0.403,0.361-0.542,0.642
	s-0.242,0.626-0.306,1.037c-0.064,0.41-0.097,0.878-0.097,1.403V80.603z M102.878,74.105c0.165,0,0.315,0.011,0.451,0.032
	c0.136,0.021,0.254,0.043,0.354,0.065c0.114,0.029,0.211,0.058,0.29,0.086v2.558h-0.945c-0.287,0-0.561,0.043-0.822,0.129
	c-0.262,0.086-0.491,0.232-0.688,0.438c-0.197,0.205-0.354,0.479-0.473,0.82s-0.177,0.771-0.177,1.29V86h-2.632V74.375h2.191
	l0.312,1.695h0.129c0.079-0.245,0.172-0.484,0.279-0.718s0.242-0.442,0.403-0.626s0.349-0.333,0.564-0.448
	C102.33,74.163,102.584,74.105,102.878,74.105z M108.793,74.105c1.34,0,2.332,0.3,2.977,0.901c0.645,0.601,0.967,1.445,0.967,2.531
	v5.721c0,0.273,0.064,0.471,0.193,0.594c0.129,0.122,0.268,0.183,0.418,0.183h0.537v1.878c-0.143,0.079-0.34,0.158-0.59,0.238
	c-0.252,0.079-0.576,0.119-0.979,0.119c-0.529,0-0.971-0.143-1.32-0.427c-0.352-0.284-0.592-0.653-0.721-1.106h-0.117
	c-0.166,0.23-0.338,0.441-0.517,0.632c-0.179,0.19-0.383,0.353-0.612,0.486c-0.229,0.133-0.489,0.235-0.779,0.308
	c-0.29,0.072-0.628,0.108-1.015,0.108c-0.272,0-0.575-0.045-0.908-0.135s-0.648-0.255-0.945-0.497
	c-0.297-0.241-0.546-0.574-0.747-0.999c-0.201-0.424-0.301-0.975-0.301-1.651c0-0.784,0.141-1.436,0.424-1.954
	c0.283-0.519,0.677-0.934,1.182-1.247s1.11-0.534,1.815-0.664c0.705-0.13,1.477-0.194,2.316-0.194v-1.22
	c0-0.202-0.018-0.389-0.049-0.562c-0.033-0.173-0.092-0.324-0.178-0.454c-0.086-0.129-0.208-0.232-0.365-0.308
	c-0.158-0.075-0.362-0.113-0.612-0.113c-0.272,0-0.498,0.038-0.677,0.113c-0.179,0.076-0.321,0.171-0.424,0.286
	c-0.104,0.115-0.177,0.247-0.22,0.394s-0.064,0.29-0.064,0.426v0.324h-2.578c-0.015-0.065-0.021-0.137-0.021-0.216v-0.27
	c0-0.482,0.093-0.923,0.279-1.322c0.186-0.399,0.449-0.74,0.79-1.02c0.34-0.281,0.75-0.499,1.23-0.653
	C107.661,74.182,108.198,74.105,108.793,74.105z M110.072,80.852c-0.388,0-0.762,0.029-1.124,0.086
	c-0.362,0.058-0.684,0.158-0.967,0.302c-0.283,0.144-0.51,0.338-0.682,0.583c-0.172,0.245-0.258,0.555-0.258,0.929
	c0,0.403,0.102,0.721,0.306,0.955s0.532,0.351,0.983,0.351c0.315,0,0.582-0.068,0.8-0.205c0.218-0.137,0.397-0.322,0.537-0.556
	s0.242-0.503,0.306-0.81c0.064-0.306,0.098-0.631,0.098-0.977V80.852z M123.83,86h-2.191l-0.268-1.436h-0.129
	c-0.15,0.23-0.322,0.448-0.516,0.653s-0.412,0.385-0.656,0.54c-0.242,0.155-0.512,0.279-0.805,0.372
	c-0.295,0.094-0.613,0.141-0.957,0.141c-0.443,0-0.854-0.067-1.229-0.2c-0.377-0.133-0.701-0.347-0.973-0.643
	c-0.273-0.295-0.486-0.682-0.639-1.16c-0.154-0.479-0.232-1.06-0.232-1.744v-8.15h2.633v7.427c0,0.749,0.131,1.278,0.393,1.587
	c0.26,0.31,0.639,0.464,1.133,0.464c0.258,0,0.496-0.058,0.715-0.173c0.217-0.115,0.408-0.273,0.568-0.475
	c0.162-0.201,0.289-0.442,0.381-0.723c0.094-0.281,0.141-0.583,0.141-0.907v-7.2h2.631V86z M130.211,74.105
	c0.617,0,1.176,0.09,1.676,0.27c0.502,0.18,0.928,0.459,1.279,0.837c0.35,0.377,0.621,0.858,0.811,1.441s0.285,1.281,0.285,2.094
	h-2.707c0-0.82-0.111-1.427-0.334-1.819c-0.221-0.392-0.559-0.588-1.01-0.588c-0.559,0-0.953,0.292-1.186,0.875
	c-0.234,0.583-0.35,1.432-0.35,2.547v0.842c0,1.116,0.123,1.967,0.371,2.553c0.246,0.586,0.666,0.879,1.262,0.879
	c0.473,0,0.812-0.201,1.02-0.604c0.209-0.403,0.312-1.007,0.312-1.813h2.621c0,0.813-0.094,1.513-0.279,2.1
	c-0.188,0.587-0.451,1.069-0.795,1.447c-0.344,0.377-0.76,0.657-1.246,0.836c-0.488,0.18-1.031,0.27-1.633,0.27
	c-0.752,0-1.404-0.121-1.955-0.362c-0.553-0.241-1.008-0.611-1.369-1.112c-0.363-0.5-0.629-1.133-0.801-1.9
	c-0.172-0.766-0.258-1.671-0.258-2.715c0-2.087,0.355-3.622,1.068-4.604C127.707,74.596,128.779,74.105,130.211,74.105z
	 M138.869,75.605h0.096c0.129-0.18,0.283-0.36,0.463-0.54c0.178-0.18,0.383-0.34,0.611-0.48c0.23-0.141,0.488-0.255,0.773-0.346
	c0.287-0.09,0.602-0.135,0.945-0.135c0.445,0,0.855,0.066,1.23,0.2c0.377,0.133,0.699,0.347,0.973,0.642
	c0.271,0.295,0.484,0.68,0.639,1.155c0.154,0.475,0.23,1.054,0.23,1.738V86h-2.631v-7.427c0-0.748-0.137-1.279-0.408-1.592
	c-0.273-0.313-0.645-0.469-1.117-0.469c-0.258,0-0.498,0.059-0.721,0.178c-0.221,0.119-0.412,0.285-0.574,0.497
	c-0.16,0.212-0.287,0.459-0.375,0.74c-0.09,0.281-0.135,0.583-0.135,0.907V86h-2.633V70.014h2.633V75.605z M151.146,74.105
	c1.396,0,2.443,0.491,3.137,1.473c0.695,0.982,1.043,2.517,1.043,4.604v0.669h-5.877c0.008,0.518,0.045,0.979,0.113,1.382
	c0.068,0.403,0.172,0.743,0.312,1.02c0.139,0.277,0.32,0.487,0.541,0.631c0.223,0.144,0.494,0.216,0.816,0.216
	c0.451,0,0.812-0.194,1.08-0.583c0.27-0.389,0.402-0.932,0.402-1.63h2.611c0,0.749-0.102,1.398-0.307,1.948
	c-0.203,0.551-0.488,1.006-0.854,1.366s-0.799,0.628-1.301,0.804c-0.5,0.176-1.045,0.265-1.633,0.265
	c-1.482,0-2.607-0.493-3.377-1.479c-0.771-0.986-1.156-2.522-1.156-4.609s0.383-3.622,1.15-4.604
	C148.615,74.596,149.715,74.105,151.146,74.105z M151.146,76.274c-0.559,0-0.965,0.23-1.219,0.691
	c-0.254,0.461-0.402,1.116-0.445,1.965h3.072c0-0.849-0.113-1.504-0.338-1.965C151.99,76.505,151.635,76.274,151.146,76.274z
	 M162.758,74.105c0.445,0,0.855,0.066,1.23,0.2c0.377,0.133,0.699,0.347,0.973,0.642c0.271,0.295,0.484,0.68,0.639,1.155
	c0.154,0.475,0.23,1.054,0.23,1.738V86h-2.631v-7.427c0-0.748-0.137-1.279-0.408-1.592c-0.273-0.313-0.645-0.469-1.117-0.469
	c-0.258,0-0.498,0.059-0.721,0.178c-0.221,0.119-0.412,0.285-0.574,0.497c-0.16,0.212-0.287,0.459-0.375,0.74
	c-0.09,0.281-0.135,0.583-0.135,0.907V86h-2.633V74.375h2.191l0.27,1.436h0.129c0.15-0.223,0.322-0.439,0.516-0.648
	c0.193-0.208,0.412-0.39,0.654-0.545c0.244-0.155,0.512-0.279,0.807-0.373C162.096,74.152,162.414,74.105,162.758,74.105z
	 M177.061,74.105c0.553,0,1.066,0.072,1.543,0.216c0.475,0.144,0.891,0.351,1.246,0.621c0.354,0.27,0.631,0.601,0.832,0.993
	c0.199,0.392,0.301,0.836,0.301,1.333c0,0.123-0.006,0.234-0.016,0.335c-0.012,0.101-0.018,0.158-0.018,0.172h-2.674
	c0-0.518-0.117-0.897-0.35-1.139s-0.549-0.362-0.951-0.362c-0.408,0-0.736,0.103-0.988,0.308c-0.25,0.205-0.375,0.484-0.375,0.837
	c0,0.28,0.08,0.505,0.242,0.674c0.16,0.169,0.373,0.31,0.639,0.421c0.264,0.111,0.566,0.208,0.908,0.291
	c0.34,0.083,0.686,0.177,1.035,0.281c0.352,0.104,0.697,0.232,1.037,0.383c0.34,0.151,0.643,0.356,0.908,0.615
	c0.264,0.259,0.479,0.583,0.639,0.972c0.162,0.389,0.242,0.871,0.242,1.446c0,0.712-0.109,1.308-0.328,1.787
	s-0.52,0.865-0.902,1.161c-0.383,0.295-0.838,0.505-1.363,0.631c-0.527,0.125-1.098,0.189-1.715,0.189
	c-0.666,0-1.258-0.088-1.777-0.265s-0.959-0.426-1.32-0.75c-0.363-0.324-0.637-0.712-0.822-1.166
	c-0.188-0.454-0.279-0.957-0.279-1.511v-0.086c0-0.036,0.004-0.068,0.01-0.097c0-0.029,0.004-0.058,0.012-0.086h2.674v0.151
	c0.008,0.31,0.061,0.568,0.156,0.777c0.098,0.208,0.221,0.377,0.371,0.507c0.15,0.129,0.318,0.221,0.504,0.275
	c0.188,0.054,0.373,0.081,0.559,0.081c0.172,0,0.35-0.021,0.533-0.065c0.182-0.043,0.348-0.113,0.498-0.21s0.273-0.227,0.365-0.388
	c0.094-0.162,0.141-0.362,0.141-0.599c0-0.31-0.08-0.558-0.242-0.745c-0.16-0.187-0.375-0.343-0.639-0.47
	c-0.266-0.125-0.568-0.233-0.908-0.324c-0.34-0.09-0.686-0.189-1.037-0.297c-0.35-0.108-0.695-0.237-1.035-0.389
	c-0.342-0.151-0.645-0.352-0.908-0.604c-0.266-0.251-0.479-0.568-0.639-0.95c-0.162-0.381-0.242-0.853-0.242-1.414
	c0-0.59,0.107-1.106,0.322-1.549c0.215-0.443,0.508-0.812,0.881-1.106c0.371-0.295,0.809-0.517,1.311-0.664
	C175.939,74.179,176.48,74.105,177.061,74.105z M185.848,72.432h-2.633v-2.418h2.633V72.432z M185.848,86h-2.633V74.375h2.633V86z
	 M192.146,74.105c1.396,0,2.443,0.491,3.137,1.473c0.695,0.982,1.043,2.517,1.043,4.604v0.669h-5.877
	c0.008,0.518,0.045,0.979,0.113,1.382c0.068,0.403,0.172,0.743,0.312,1.02c0.139,0.277,0.32,0.487,0.541,0.631
	c0.223,0.144,0.494,0.216,0.816,0.216c0.451,0,0.812-0.194,1.08-0.583c0.27-0.389,0.402-0.932,0.402-1.63h2.611
	c0,0.749-0.102,1.398-0.307,1.948c-0.203,0.551-0.488,1.006-0.854,1.366s-0.799,0.628-1.301,0.804
	c-0.5,0.176-1.045,0.265-1.633,0.265c-1.482,0-2.607-0.493-3.377-1.479c-0.771-0.986-1.156-2.522-1.156-4.609
	s0.383-3.622,1.15-4.604C189.615,74.596,190.715,74.105,192.146,74.105z M192.146,76.274c-0.559,0-0.965,0.23-1.219,0.691
	c-0.254,0.461-0.402,1.116-0.445,1.965h3.072c0-0.849-0.113-1.504-0.338-1.965C192.99,76.505,192.635,76.274,192.146,76.274z
	 M201.051,86h-3.039v-3.033h3.039V86z M24.219,113l-4.662-8.355c-0.043-0.079-0.102-0.196-0.177-0.351
	c-0.075-0.154-0.152-0.311-0.231-0.469c-0.086-0.187-0.179-0.385-0.279-0.594l-0.086,0.065c0.007,0.166,0.014,0.327,0.021,0.485
	c0.007,0.137,0.012,0.275,0.016,0.416c0.003,0.141,0.005,0.261,0.005,0.362V113h-2.481V97.834h2.481l4.662,8.355
	c0.057,0.101,0.127,0.23,0.209,0.389c0.082,0.159,0.159,0.313,0.231,0.464c0.079,0.18,0.161,0.367,0.247,0.561l0.064-0.064
	c-0.007-0.194-0.011-0.374-0.011-0.54c-0.007-0.144-0.011-0.284-0.011-0.421s0-0.237,0-0.302v-8.441h2.514V113H24.219z M37.831,113
	H35.64l-0.269-1.436h-0.129c-0.15,0.23-0.322,0.448-0.516,0.653s-0.412,0.385-0.655,0.54c-0.244,0.155-0.512,0.279-0.806,0.372
	c-0.294,0.094-0.612,0.141-0.956,0.141c-0.444,0-0.854-0.067-1.23-0.2c-0.376-0.133-0.7-0.347-0.972-0.643
	c-0.272-0.295-0.485-0.682-0.639-1.16c-0.154-0.479-0.231-1.06-0.231-1.744v-8.15h2.632v7.427c0,0.749,0.13,1.278,0.392,1.587
	c0.261,0.31,0.639,0.464,1.133,0.464c0.258,0,0.496-0.058,0.714-0.173c0.218-0.115,0.408-0.273,0.569-0.475
	c0.161-0.201,0.288-0.442,0.381-0.723c0.093-0.281,0.14-0.583,0.14-0.907v-7.2h2.632V113z M44.878,101.105
	c0.165,0,0.315,0.011,0.451,0.032c0.136,0.021,0.254,0.043,0.354,0.065c0.114,0.029,0.211,0.058,0.29,0.086v2.558h-0.945
	c-0.287,0-0.561,0.043-0.822,0.129c-0.262,0.086-0.491,0.232-0.688,0.438c-0.197,0.205-0.354,0.479-0.473,0.82
	s-0.177,0.771-0.177,1.29V113h-2.632v-11.626h2.191l0.312,1.695h0.129c0.079-0.245,0.172-0.484,0.279-0.718s0.242-0.442,0.403-0.626
	s0.349-0.333,0.564-0.448C44.33,101.163,44.584,101.105,44.878,101.105z M56.062,101.105c0.551,0,1.065,0.072,1.542,0.216
	c0.476,0.144,0.892,0.351,1.246,0.621s0.632,0.601,0.833,0.993c0.2,0.392,0.301,0.836,0.301,1.333c0,0.123-0.005,0.234-0.016,0.335
	c-0.011,0.101-0.016,0.158-0.016,0.172h-2.675c0-0.518-0.117-0.897-0.349-1.139c-0.233-0.241-0.55-0.362-0.951-0.362
	c-0.408,0-0.738,0.103-0.988,0.308c-0.251,0.205-0.376,0.484-0.376,0.837c0,0.28,0.081,0.505,0.242,0.674
	c0.161,0.169,0.374,0.31,0.639,0.421c0.265,0.111,0.567,0.208,0.908,0.291c0.34,0.083,0.686,0.177,1.037,0.281
	c0.351,0.104,0.696,0.232,1.037,0.383c0.34,0.151,0.643,0.356,0.908,0.615c0.265,0.259,0.478,0.583,0.639,0.972
	s0.242,0.871,0.242,1.446c0,0.712-0.109,1.308-0.328,1.787c-0.219,0.479-0.52,0.865-0.902,1.161
	c-0.383,0.295-0.838,0.505-1.364,0.631c-0.526,0.125-1.098,0.189-1.713,0.189c-0.666,0-1.259-0.088-1.778-0.265
	c-0.52-0.176-0.96-0.426-1.321-0.75c-0.362-0.324-0.636-0.712-0.822-1.166c-0.187-0.454-0.279-0.957-0.279-1.511v-0.086
	c0-0.036,0.003-0.068,0.011-0.097c0-0.029,0.003-0.058,0.011-0.086h2.675v0.151c0.007,0.31,0.059,0.568,0.156,0.777
	c0.097,0.208,0.22,0.377,0.371,0.507c0.15,0.129,0.318,0.221,0.505,0.275c0.186,0.054,0.372,0.081,0.559,0.081
	c0.172,0,0.349-0.021,0.532-0.065c0.183-0.043,0.349-0.113,0.5-0.21s0.272-0.227,0.365-0.388c0.093-0.162,0.14-0.362,0.14-0.599
	c0-0.31-0.081-0.558-0.242-0.745c-0.161-0.187-0.375-0.343-0.639-0.47c-0.265-0.125-0.568-0.233-0.908-0.324
	c-0.34-0.09-0.686-0.189-1.037-0.297c-0.351-0.108-0.697-0.237-1.037-0.389c-0.34-0.151-0.643-0.352-0.908-0.604
	c-0.265-0.251-0.478-0.568-0.639-0.95s-0.242-0.853-0.242-1.414c0-0.59,0.107-1.106,0.322-1.549
	c0.215-0.443,0.508-0.812,0.881-1.106c0.372-0.295,0.809-0.517,1.311-0.664C54.94,101.179,55.481,101.105,56.062,101.105z
	 M66.545,101.105c1.54,0,2.694,0.491,3.464,1.473c0.77,0.982,1.155,2.517,1.155,4.604s-0.385,3.624-1.155,4.609
	c-0.77,0.986-1.925,1.479-3.464,1.479c-1.54,0-2.695-0.493-3.464-1.479c-0.77-0.986-1.155-2.522-1.155-4.609
	s0.385-3.622,1.155-4.604C63.85,101.596,65.005,101.105,66.545,101.105z M66.545,103.339c-0.681,0-1.162,0.293-1.445,0.88
	c-0.283,0.586-0.424,1.434-0.424,2.542v0.842c0,1.116,0.141,1.967,0.424,2.553c0.283,0.586,0.764,0.879,1.445,0.879
	c0.68,0,1.162-0.293,1.445-0.879c0.283-0.586,0.424-1.438,0.424-2.553v-0.842c0-1.108-0.142-1.956-0.424-2.542
	C67.707,103.633,67.225,103.339,66.545,103.339z M82.147,101.105c1.396,0,2.442,0.491,3.137,1.473
	c0.694,0.982,1.042,2.517,1.042,4.604v0.669H80.45c0.007,0.518,0.044,0.979,0.113,1.382c0.068,0.403,0.172,0.743,0.312,1.02
	c0.14,0.277,0.32,0.487,0.542,0.631c0.222,0.144,0.494,0.216,0.816,0.216c0.451,0,0.811-0.194,1.08-0.583s0.403-0.932,0.403-1.63
	h2.61c0,0.749-0.102,1.398-0.306,1.948c-0.204,0.551-0.489,1.006-0.854,1.366s-0.799,0.628-1.3,0.804
	c-0.501,0.176-1.046,0.265-1.633,0.265c-1.482,0-2.609-0.493-3.378-1.479c-0.77-0.986-1.155-2.522-1.155-4.609
	s0.383-3.622,1.149-4.604C79.616,101.596,80.715,101.105,82.147,101.105z M82.147,103.274c-0.559,0-0.965,0.23-1.219,0.691
	c-0.254,0.461-0.403,1.116-0.446,1.965h3.072c0-0.849-0.113-1.504-0.338-1.965C82.991,103.505,82.634,103.274,82.147,103.274z
	 M93.759,101.105c0.444,0,0.854,0.066,1.23,0.2s0.7,0.347,0.972,0.642c0.272,0.295,0.485,0.68,0.639,1.155
	c0.154,0.475,0.231,1.054,0.231,1.738V113h-2.632v-7.427c0-0.748-0.136-1.279-0.408-1.592c-0.272-0.313-0.645-0.469-1.117-0.469
	c-0.258,0-0.498,0.059-0.72,0.178c-0.222,0.119-0.414,0.285-0.575,0.497c-0.161,0.212-0.287,0.459-0.376,0.74
	c-0.09,0.281-0.134,0.583-0.134,0.907V113h-2.632v-11.626h2.191l0.269,1.436h0.129c0.15-0.223,0.322-0.439,0.516-0.648
	c0.193-0.208,0.412-0.39,0.655-0.545c0.243-0.155,0.512-0.279,0.806-0.373C93.096,101.152,93.415,101.105,93.759,101.105z
	 M102.03,101.375h1.665v2.235h-1.665v6.477c0,0.633,0.308,0.95,0.924,0.95h0.741V113c-0.093,0.036-0.204,0.068-0.333,0.097
	s-0.265,0.058-0.408,0.086c-0.144,0.029-0.287,0.05-0.43,0.064c-0.144,0.015-0.279,0.022-0.408,0.022c-0.53,0-0.971-0.09-1.321-0.27
	c-0.351-0.18-0.63-0.417-0.838-0.712c-0.208-0.295-0.354-0.628-0.44-0.999s-0.129-0.75-0.129-1.139v-6.542h-1.171v-2.235h1.171
	l0.397-3.271h2.245V101.375z M109.062,101.105c0.551,0,1.065,0.072,1.542,0.216s0.891,0.351,1.246,0.621
	c0.354,0.27,0.633,0.601,0.832,0.993c0.201,0.392,0.301,0.836,0.301,1.333c0,0.123-0.006,0.234-0.016,0.335
	c-0.012,0.101-0.016,0.158-0.016,0.172h-2.676c0-0.518-0.115-0.897-0.349-1.139c-0.233-0.241-0.55-0.362-0.951-0.362
	c-0.408,0-0.738,0.103-0.988,0.308c-0.251,0.205-0.376,0.484-0.376,0.837c0,0.28,0.081,0.505,0.242,0.674
	c0.161,0.169,0.374,0.31,0.639,0.421c0.265,0.111,0.567,0.208,0.908,0.291c0.34,0.083,0.686,0.177,1.038,0.281
	c0.35,0.104,0.695,0.232,1.035,0.383c0.342,0.151,0.645,0.356,0.908,0.615c0.266,0.259,0.479,0.583,0.639,0.972
	c0.162,0.389,0.242,0.871,0.242,1.446c0,0.712-0.109,1.308-0.328,1.787c-0.217,0.479-0.518,0.865-0.902,1.161
	c-0.383,0.295-0.838,0.505-1.363,0.631c-0.527,0.125-1.098,0.189-1.714,0.189c-0.666,0-1.259-0.088-1.778-0.265
	c-0.52-0.176-0.96-0.426-1.321-0.75c-0.362-0.324-0.636-0.712-0.822-1.166c-0.187-0.454-0.279-0.957-0.279-1.511v-0.086
	c0-0.036,0.003-0.068,0.011-0.097c0-0.029,0.003-0.058,0.011-0.086h2.675v0.151c0.007,0.31,0.059,0.568,0.156,0.777
	c0.097,0.208,0.22,0.377,0.371,0.507c0.15,0.129,0.318,0.221,0.505,0.275c0.186,0.054,0.372,0.081,0.559,0.081
	c0.172,0,0.349-0.021,0.532-0.065c0.183-0.043,0.349-0.113,0.5-0.21c0.15-0.097,0.271-0.227,0.365-0.388
	c0.092-0.162,0.139-0.362,0.139-0.599c0-0.31-0.08-0.558-0.242-0.745c-0.16-0.187-0.374-0.343-0.639-0.47
	c-0.265-0.125-0.568-0.233-0.908-0.324c-0.34-0.09-0.686-0.189-1.037-0.297c-0.351-0.108-0.697-0.237-1.037-0.389
	c-0.34-0.151-0.643-0.352-0.908-0.604c-0.265-0.251-0.478-0.568-0.639-0.95s-0.242-0.853-0.242-1.414
	c0-0.59,0.107-1.106,0.322-1.549c0.215-0.443,0.508-0.812,0.881-1.106c0.372-0.295,0.809-0.517,1.311-0.664
	C107.94,101.179,108.481,101.105,109.062,101.105z M118.029,101.375h1.666v2.235h-1.666v6.477c0,0.633,0.309,0.95,0.924,0.95h0.742
	V113c-0.094,0.036-0.205,0.068-0.334,0.097s-0.264,0.058-0.408,0.086c-0.143,0.029-0.285,0.05-0.43,0.064
	c-0.143,0.015-0.279,0.022-0.408,0.022c-0.529,0-0.971-0.09-1.32-0.27c-0.352-0.18-0.631-0.417-0.838-0.712
	c-0.209-0.295-0.355-0.628-0.441-0.999s-0.129-0.75-0.129-1.139v-6.542h-1.17v-2.235h1.17l0.398-3.271h2.244V101.375z
	 M125.146,101.105c1.396,0,2.443,0.491,3.137,1.473c0.695,0.982,1.043,2.517,1.043,4.604v0.669h-5.877
	c0.008,0.518,0.045,0.979,0.113,1.382c0.068,0.403,0.172,0.743,0.312,1.02c0.139,0.277,0.32,0.487,0.541,0.631
	c0.223,0.144,0.494,0.216,0.816,0.216c0.451,0,0.812-0.194,1.08-0.583c0.27-0.389,0.402-0.932,0.402-1.63h2.611
	c0,0.749-0.102,1.398-0.307,1.948c-0.203,0.551-0.488,1.006-0.854,1.366s-0.799,0.628-1.301,0.804
	c-0.5,0.176-1.045,0.265-1.633,0.265c-1.482,0-2.607-0.493-3.377-1.479c-0.771-0.986-1.156-2.522-1.156-4.609
	s0.383-3.622,1.15-4.604C122.615,101.596,123.715,101.105,125.146,101.105z M125.146,103.274c-0.559,0-0.965,0.23-1.219,0.691
	c-0.254,0.461-0.402,1.116-0.445,1.965h3.072c0-0.849-0.113-1.504-0.338-1.965C125.99,103.505,125.635,103.274,125.146,103.274z
	 M133.869,102.605h0.096c0.129-0.18,0.283-0.36,0.463-0.54c0.178-0.18,0.383-0.34,0.611-0.48c0.23-0.141,0.488-0.255,0.773-0.346
	c0.287-0.09,0.602-0.135,0.945-0.135c0.445,0,0.855,0.066,1.23,0.2c0.377,0.133,0.699,0.347,0.973,0.642
	c0.271,0.295,0.484,0.68,0.639,1.155c0.154,0.475,0.23,1.054,0.23,1.738V113h-2.631v-7.427c0-0.748-0.137-1.279-0.408-1.592
	c-0.273-0.313-0.645-0.469-1.117-0.469c-0.258,0-0.498,0.059-0.721,0.178c-0.221,0.119-0.412,0.285-0.574,0.497
	c-0.16,0.212-0.287,0.459-0.375,0.74c-0.09,0.281-0.135,0.583-0.135,0.907V113h-2.633V97.014h2.633V102.605z M145.029,101.375h1.666
	v2.235h-1.666v6.477c0,0.633,0.309,0.95,0.924,0.95h0.742V113c-0.094,0.036-0.205,0.068-0.334,0.097s-0.264,0.058-0.408,0.086
	c-0.143,0.029-0.285,0.05-0.43,0.064c-0.143,0.015-0.279,0.022-0.408,0.022c-0.529,0-0.971-0.09-1.32-0.27
	c-0.352-0.18-0.631-0.417-0.838-0.712c-0.209-0.295-0.355-0.628-0.441-0.999s-0.129-0.75-0.129-1.139v-6.542h-1.17v-2.235h1.17
	l0.398-3.271h2.244V101.375z M157.146,101.105c1.396,0,2.443,0.491,3.137,1.473c0.695,0.982,1.043,2.517,1.043,4.604v0.669h-5.877
	c0.008,0.518,0.045,0.979,0.113,1.382c0.068,0.403,0.172,0.743,0.312,1.02c0.139,0.277,0.32,0.487,0.541,0.631
	c0.223,0.144,0.494,0.216,0.816,0.216c0.451,0,0.812-0.194,1.08-0.583c0.27-0.389,0.402-0.932,0.402-1.63h2.611
	c0,0.749-0.102,1.398-0.307,1.948c-0.203,0.551-0.488,1.006-0.854,1.366s-0.799,0.628-1.301,0.804
	c-0.5,0.176-1.045,0.265-1.633,0.265c-1.482,0-2.607-0.493-3.377-1.479c-0.771-0.986-1.156-2.522-1.156-4.609
	s0.383-3.622,1.15-4.604C154.615,101.596,155.715,101.105,157.146,101.105z M157.146,103.274c-0.559,0-0.965,0.23-1.219,0.691
	c-0.254,0.461-0.402,1.116-0.445,1.965h3.072c0-0.849-0.113-1.504-0.338-1.965C157.99,103.505,157.635,103.274,157.146,103.274z
	 M166.029,101.375h1.666v2.235h-1.666v6.477c0,0.633,0.309,0.95,0.924,0.95h0.742V113c-0.094,0.036-0.205,0.068-0.334,0.097
	s-0.264,0.058-0.408,0.086c-0.143,0.029-0.285,0.05-0.43,0.064c-0.143,0.015-0.279,0.022-0.408,0.022c-0.529,0-0.971-0.09-1.32-0.27
	c-0.352-0.18-0.631-0.417-0.838-0.712c-0.209-0.295-0.355-0.628-0.441-0.999s-0.129-0.75-0.129-1.139v-6.542h-1.17v-2.235h1.17
	l0.398-3.271h2.244V101.375z M179.238,113h-2.654l-1.148-5.548c-0.059-0.295-0.107-0.61-0.15-0.945
	c-0.043-0.334-0.08-0.646-0.107-0.934c-0.029-0.338-0.055-0.669-0.076-0.993h-0.129c-0.021,0.317-0.047,0.641-0.074,0.972
	c-0.029,0.281-0.064,0.588-0.107,0.923s-0.094,0.653-0.15,0.956l-1.117,5.57h-2.664l-2.814-11.626h2.643l1.096,4.771
	c0.086,0.396,0.158,0.808,0.221,1.236c0.061,0.428,0.107,0.822,0.145,1.182c0.043,0.417,0.074,0.828,0.096,1.23h0.086
	c0.029-0.381,0.068-0.777,0.119-1.188c0.035-0.353,0.086-0.743,0.15-1.171s0.135-0.851,0.215-1.269l0.998-4.793h2.633l0.998,4.814
	c0.059,0.288,0.115,0.635,0.172,1.042c0.059,0.406,0.111,0.8,0.162,1.182c0.049,0.446,0.1,0.907,0.15,1.382h0.086
	c0.057-0.446,0.117-0.885,0.182-1.317c0.059-0.367,0.119-0.757,0.184-1.171c0.064-0.414,0.133-0.786,0.203-1.117l1.01-4.814h2.449
	L179.238,113z M186.793,101.105c1.338,0,2.33,0.3,2.975,0.901c0.645,0.601,0.967,1.445,0.967,2.531v5.721
	c0,0.273,0.064,0.471,0.193,0.594c0.129,0.122,0.27,0.183,0.42,0.183h0.537v1.878c-0.145,0.079-0.34,0.158-0.592,0.238
	c-0.25,0.079-0.576,0.119-0.977,0.119c-0.531,0-0.971-0.143-1.322-0.427c-0.35-0.284-0.59-0.653-0.719-1.106h-0.119
	c-0.164,0.23-0.336,0.441-0.516,0.632c-0.178,0.19-0.383,0.353-0.611,0.486c-0.23,0.133-0.488,0.235-0.779,0.308
	c-0.289,0.072-0.629,0.108-1.016,0.108c-0.271,0-0.574-0.045-0.906-0.135c-0.334-0.09-0.648-0.255-0.945-0.497
	c-0.299-0.241-0.547-0.574-0.748-0.999c-0.199-0.424-0.301-0.975-0.301-1.651c0-0.784,0.143-1.436,0.426-1.954
	c0.281-0.519,0.676-0.934,1.182-1.247c0.504-0.313,1.109-0.534,1.814-0.664c0.705-0.13,1.477-0.194,2.314-0.194v-1.22
	c0-0.202-0.016-0.389-0.047-0.562c-0.033-0.173-0.092-0.324-0.178-0.454c-0.086-0.129-0.209-0.232-0.365-0.308
	c-0.158-0.075-0.361-0.113-0.613-0.113c-0.271,0-0.498,0.038-0.676,0.113c-0.18,0.076-0.32,0.171-0.424,0.286
	c-0.105,0.115-0.178,0.247-0.221,0.394s-0.064,0.29-0.064,0.426v0.324h-2.578c-0.016-0.065-0.021-0.137-0.021-0.216v-0.27
	c0-0.482,0.092-0.923,0.279-1.322c0.186-0.399,0.449-0.74,0.789-1.02c0.34-0.281,0.75-0.499,1.23-0.653
	C185.66,101.182,186.197,101.105,186.793,101.105z M188.07,107.852c-0.387,0-0.76,0.029-1.121,0.086
	c-0.363,0.058-0.686,0.158-0.967,0.302c-0.283,0.144-0.512,0.338-0.684,0.583c-0.172,0.245-0.258,0.555-0.258,0.929
	c0,0.403,0.104,0.721,0.307,0.955c0.205,0.234,0.531,0.351,0.982,0.351c0.316,0,0.582-0.068,0.801-0.205s0.398-0.322,0.537-0.556
	c0.141-0.234,0.242-0.503,0.307-0.81c0.064-0.306,0.096-0.631,0.096-0.977V107.852z M197.061,101.105
	c0.553,0,1.066,0.072,1.543,0.216c0.475,0.144,0.891,0.351,1.246,0.621c0.354,0.27,0.631,0.601,0.832,0.993
	c0.199,0.392,0.301,0.836,0.301,1.333c0,0.123-0.006,0.234-0.016,0.335c-0.012,0.101-0.018,0.158-0.018,0.172h-2.674
	c0-0.518-0.117-0.897-0.35-1.139s-0.549-0.362-0.951-0.362c-0.408,0-0.736,0.103-0.988,0.308c-0.25,0.205-0.375,0.484-0.375,0.837
	c0,0.28,0.08,0.505,0.242,0.674c0.16,0.169,0.373,0.31,0.639,0.421c0.264,0.111,0.566,0.208,0.908,0.291
	c0.34,0.083,0.686,0.177,1.035,0.281c0.352,0.104,0.697,0.232,1.037,0.383c0.34,0.151,0.643,0.356,0.908,0.615
	c0.264,0.259,0.479,0.583,0.639,0.972c0.162,0.389,0.242,0.871,0.242,1.446c0,0.712-0.109,1.308-0.328,1.787
	s-0.52,0.865-0.902,1.161c-0.383,0.295-0.838,0.505-1.363,0.631c-0.527,0.125-1.098,0.189-1.715,0.189
	c-0.666,0-1.258-0.088-1.777-0.265s-0.959-0.426-1.32-0.75c-0.363-0.324-0.637-0.712-0.822-1.166
	c-0.188-0.454-0.279-0.957-0.279-1.511v-0.086c0-0.036,0.004-0.068,0.01-0.097c0-0.029,0.004-0.058,0.012-0.086h2.674v0.151
	c0.008,0.31,0.061,0.568,0.156,0.777c0.098,0.208,0.221,0.377,0.371,0.507c0.15,0.129,0.318,0.221,0.504,0.275
	c0.188,0.054,0.373,0.081,0.559,0.081c0.172,0,0.35-0.021,0.533-0.065c0.182-0.043,0.348-0.113,0.498-0.21s0.273-0.227,0.365-0.388
	c0.094-0.162,0.141-0.362,0.141-0.599c0-0.31-0.08-0.558-0.242-0.745c-0.16-0.187-0.375-0.343-0.639-0.47
	c-0.266-0.125-0.568-0.233-0.908-0.324c-0.34-0.09-0.686-0.189-1.037-0.297c-0.35-0.108-0.695-0.237-1.035-0.389
	c-0.342-0.151-0.645-0.352-0.908-0.604c-0.266-0.251-0.479-0.568-0.639-0.95c-0.162-0.381-0.242-0.853-0.242-1.414
	c0-0.59,0.107-1.106,0.322-1.549c0.215-0.443,0.508-0.812,0.881-1.106c0.371-0.295,0.809-0.517,1.311-0.664
	C195.939,101.179,196.48,101.105,197.061,101.105z M26.238,139h-2.653l-1.149-5.549c-0.058-0.295-0.107-0.609-0.15-0.943
	s-0.079-0.646-0.107-0.934c-0.029-0.338-0.054-0.669-0.075-0.994h-0.129c-0.021,0.317-0.047,0.64-0.075,0.972
	c-0.029,0.279-0.064,0.588-0.107,0.922c-0.043,0.336-0.093,0.654-0.15,0.955L20.523,139h-2.664l-2.814-11.625h2.643l1.096,4.772
	c0.086,0.395,0.159,0.807,0.22,1.236c0.061,0.428,0.109,0.822,0.145,1.182c0.043,0.416,0.075,0.826,0.097,1.23h0.086
	c0.028-0.381,0.068-0.777,0.118-1.188c0.036-0.354,0.086-0.744,0.15-1.172s0.136-0.852,0.215-1.268l0.999-4.793h2.632l0.999,4.815
	c0.057,0.287,0.114,0.635,0.172,1.041c0.057,0.406,0.111,0.801,0.161,1.182c0.05,0.447,0.1,0.908,0.15,1.383h0.086
	c0.057-0.447,0.118-0.885,0.183-1.316c0.057-0.367,0.118-0.758,0.183-1.172s0.132-0.787,0.204-1.117l1.01-4.815h2.449L26.238,139z
	 M32.848,125.432h-2.632v-2.418h2.632V125.432z M32.848,139h-2.632v-11.625h2.632V139z M39.878,127.105
	c0.165,0,0.315,0.011,0.451,0.032c0.136,0.021,0.254,0.043,0.354,0.065c0.114,0.029,0.211,0.058,0.29,0.086v2.558h-0.945
	c-0.287,0-0.561,0.043-0.822,0.129c-0.262,0.086-0.491,0.232-0.688,0.438c-0.197,0.205-0.354,0.479-0.473,0.821
	c-0.118,0.342-0.177,0.771-0.177,1.289V139h-2.632v-11.625h2.191l0.312,1.695h0.129c0.079-0.245,0.172-0.484,0.279-0.718
	s0.242-0.442,0.403-0.626s0.349-0.333,0.564-0.448C39.33,127.163,39.584,127.105,39.878,127.105z M44.848,131.994l3.233-4.62h2.825
	l-3.438,4.729L51.078,139h-2.922l-2.342-4.814l-0.967,1.188V139h-2.632v-15.986h2.632V131.994z M54.848,139h-2.632v-15.986h2.632
	V139z M59.848,125.432h-2.632v-2.418h2.632V125.432z M59.848,139h-2.632v-11.625h2.632V139z M66.212,127.105
	c0.616,0,1.174,0.09,1.676,0.27c0.501,0.18,0.927,0.459,1.278,0.837c0.351,0.377,0.621,0.858,0.811,1.441
	c0.189,0.583,0.285,1.281,0.285,2.094h-2.707c0-0.82-0.111-1.426-0.333-1.818c-0.222-0.392-0.559-0.588-1.01-0.588
	c-0.559,0-0.955,0.292-1.187,0.875c-0.233,0.583-0.349,1.433-0.349,2.548v0.842c0,1.115,0.124,1.967,0.371,2.553
	s0.667,0.879,1.262,0.879c0.473,0,0.812-0.201,1.021-0.604c0.208-0.402,0.312-1.008,0.312-1.814h2.621
	c0,0.814-0.093,1.514-0.279,2.1c-0.187,0.588-0.451,1.068-0.795,1.447c-0.344,0.377-0.759,0.656-1.246,0.836
	c-0.487,0.18-1.031,0.27-1.633,0.27c-0.752,0-1.404-0.119-1.955-0.361c-0.552-0.24-1.008-0.611-1.37-1.111
	c-0.362-0.5-0.628-1.133-0.8-1.9c-0.172-0.766-0.258-1.67-0.258-2.715c0-2.086,0.356-3.621,1.069-4.604
	C63.707,127.596,64.779,127.105,66.212,127.105z M74.869,128.605h0.097c0.129-0.18,0.283-0.36,0.462-0.54
	c0.179-0.18,0.383-0.34,0.612-0.48c0.229-0.141,0.487-0.255,0.773-0.346c0.286-0.09,0.602-0.135,0.945-0.135
	c0.444,0,0.854,0.066,1.23,0.2s0.7,0.347,0.972,0.642c0.272,0.295,0.485,0.68,0.639,1.155c0.154,0.475,0.231,1.054,0.231,1.738V139
	h-2.632v-7.426c0-0.749-0.136-1.28-0.408-1.593c-0.272-0.313-0.645-0.469-1.117-0.469c-0.258,0-0.498,0.059-0.72,0.178
	c-0.222,0.119-0.414,0.285-0.575,0.497c-0.161,0.212-0.287,0.459-0.376,0.74c-0.09,0.281-0.134,0.583-0.134,0.906V139h-2.632
	v-15.986h2.632V128.605z M96.219,139l-4.662-8.354c-0.043-0.079-0.102-0.196-0.177-0.351c-0.075-0.154-0.152-0.311-0.231-0.469
	c-0.086-0.187-0.179-0.385-0.279-0.594l-0.086,0.065c0.007,0.166,0.014,0.327,0.021,0.485c0.007,0.137,0.012,0.275,0.016,0.416
	c0.003,0.141,0.005,0.261,0.005,0.362V139h-2.481v-15.166h2.481l4.662,8.355c0.057,0.1,0.127,0.23,0.209,0.389
	c0.082,0.158,0.159,0.312,0.231,0.463c0.079,0.182,0.161,0.367,0.247,0.562l0.064-0.064c-0.007-0.195-0.011-0.375-0.011-0.541
	c-0.007-0.143-0.011-0.283-0.011-0.42s0-0.238,0-0.303v-8.441h2.514V139H96.219z M105.147,127.105c1.396,0,2.442,0.491,3.137,1.473
	c0.694,0.982,1.042,2.518,1.042,4.604v0.67h-5.876c0.007,0.518,0.044,0.979,0.113,1.381c0.068,0.404,0.172,0.744,0.312,1.021
	s0.32,0.486,0.542,0.631c0.222,0.145,0.494,0.217,0.816,0.217c0.451,0,0.811-0.195,1.08-0.584s0.403-0.932,0.403-1.629h2.61
	c0,0.748-0.102,1.396-0.306,1.947s-0.489,1.006-0.854,1.365c-0.365,0.361-0.799,0.629-1.3,0.805
	c-0.501,0.176-1.046,0.264-1.633,0.264c-1.482,0-2.609-0.492-3.378-1.479c-0.77-0.986-1.155-2.521-1.155-4.609
	c0-2.086,0.383-3.621,1.149-4.604C102.616,127.596,103.715,127.105,105.147,127.105z M105.147,129.274
	c-0.559,0-0.965,0.23-1.219,0.691c-0.254,0.461-0.403,1.115-0.446,1.964h3.072c0-0.85-0.113-1.503-0.338-1.964
	C105.991,129.505,105.634,129.274,105.147,129.274z M119.83,139h-2.191l-0.268-1.436h-0.129c-0.15,0.23-0.322,0.449-0.516,0.654
	s-0.412,0.385-0.656,0.539c-0.242,0.154-0.512,0.279-0.805,0.373c-0.295,0.092-0.613,0.139-0.957,0.139
	c-0.443,0-0.854-0.066-1.229-0.199c-0.377-0.133-0.701-0.348-0.973-0.643c-0.273-0.295-0.486-0.682-0.639-1.16
	c-0.154-0.479-0.232-1.059-0.232-1.742v-8.151h2.633v7.426c0,0.75,0.131,1.277,0.393,1.588c0.26,0.309,0.639,0.463,1.133,0.463
	c0.258,0,0.496-0.057,0.715-0.172c0.217-0.115,0.408-0.273,0.568-0.475c0.162-0.201,0.289-0.443,0.381-0.723
	c0.094-0.281,0.141-0.584,0.141-0.908v-7.2h2.631V139z M126.146,127.105c1.396,0,2.443,0.491,3.137,1.473
	c0.695,0.982,1.043,2.518,1.043,4.604v0.67h-5.877c0.008,0.518,0.045,0.979,0.113,1.381c0.068,0.404,0.172,0.744,0.312,1.021
	c0.139,0.277,0.32,0.486,0.541,0.631c0.223,0.145,0.494,0.217,0.816,0.217c0.451,0,0.812-0.195,1.08-0.584
	c0.27-0.389,0.402-0.932,0.402-1.629h2.611c0,0.748-0.102,1.396-0.307,1.947c-0.203,0.551-0.488,1.006-0.854,1.365
	c-0.365,0.361-0.799,0.629-1.301,0.805c-0.5,0.176-1.045,0.264-1.633,0.264c-1.482,0-2.607-0.492-3.377-1.479
	c-0.771-0.986-1.156-2.521-1.156-4.609c0-2.086,0.383-3.621,1.15-4.604C123.615,127.596,124.715,127.105,126.146,127.105z
	 M126.146,129.274c-0.559,0-0.965,0.23-1.219,0.691c-0.254,0.461-0.402,1.115-0.445,1.964h3.072c0-0.85-0.113-1.503-0.338-1.964
	C126.99,129.505,126.635,129.274,126.146,129.274z M136.061,127.105c0.553,0,1.066,0.072,1.543,0.216
	c0.475,0.144,0.891,0.351,1.246,0.621c0.354,0.27,0.631,0.601,0.832,0.993c0.199,0.392,0.301,0.836,0.301,1.333
	c0,0.123-0.006,0.234-0.016,0.335c-0.012,0.101-0.018,0.158-0.018,0.172h-2.674c0-0.518-0.117-0.897-0.35-1.139
	s-0.549-0.362-0.951-0.362c-0.408,0-0.736,0.103-0.988,0.308c-0.25,0.205-0.375,0.484-0.375,0.837c0,0.28,0.08,0.505,0.242,0.675
	c0.16,0.168,0.373,0.309,0.639,0.42c0.264,0.113,0.566,0.209,0.908,0.293c0.34,0.082,0.686,0.176,1.035,0.279
	c0.352,0.105,0.697,0.232,1.037,0.385c0.34,0.15,0.643,0.355,0.908,0.615c0.264,0.258,0.479,0.582,0.639,0.971
	c0.162,0.389,0.242,0.871,0.242,1.447c0,0.711-0.109,1.307-0.328,1.785s-0.52,0.865-0.902,1.16
	c-0.383,0.297-0.838,0.506-1.363,0.633c-0.527,0.125-1.098,0.188-1.715,0.188c-0.666,0-1.258-0.088-1.777-0.264
	s-0.959-0.426-1.32-0.75c-0.363-0.324-0.637-0.713-0.822-1.166c-0.188-0.453-0.279-0.957-0.279-1.512v-0.086
	c0-0.035,0.004-0.068,0.01-0.098c0-0.027,0.004-0.057,0.012-0.086h2.674v0.15c0.008,0.311,0.061,0.57,0.156,0.777
	c0.098,0.209,0.221,0.379,0.371,0.508s0.318,0.221,0.504,0.275c0.188,0.055,0.373,0.082,0.559,0.082c0.172,0,0.35-0.023,0.533-0.066
	c0.182-0.043,0.348-0.113,0.498-0.209c0.15-0.098,0.273-0.227,0.365-0.389c0.094-0.162,0.141-0.363,0.141-0.6
	c0-0.309-0.08-0.559-0.242-0.744c-0.16-0.188-0.375-0.344-0.639-0.471c-0.266-0.125-0.568-0.234-0.908-0.324
	s-0.686-0.188-1.037-0.297c-0.35-0.107-0.695-0.236-1.035-0.389c-0.342-0.15-0.645-0.352-0.908-0.604
	c-0.266-0.252-0.479-0.568-0.639-0.951c-0.162-0.381-0.242-0.852-0.242-1.413c0-0.59,0.107-1.106,0.322-1.549
	c0.215-0.443,0.508-0.812,0.881-1.106c0.371-0.295,0.809-0.517,1.311-0.664C134.939,127.179,135.48,127.105,136.061,127.105z
	 M145.051,139h-3.039v-3.033h3.039V139z M150.051,126.598l-1.449,3.713h-1.59l1.213-3.444h-1.213v-3.033h3.039V126.598z
	 M154.08,126.598l-1.461,3.713h-1.58l1.215-3.444h-1.215v-3.033h3.041V126.598z"/>
</svg>
