<?xml version="1.0" encoding="utf-8"?>
<!-- Generator: Adobe Illustrator 16.0.4, SVG Export Plug-In . SVG Version: 6.00 Build 0)  -->
<svg version="1.2" baseProfile="tiny" id="Sascha_Panter_Managi_1_"
	 xmlns="http://www.w3.org/2000/svg" xmlns:xlink="http://www.w3.org/1999/xlink" x="0px" y="0px" width="220px" height="257.914px"
	 viewBox="0 0 220 257.914" xml:space="preserve">
<polygon fill-rule="evenodd" fill="#5CEB00" points="0,0 220,0 220,165.805 76.158,165.805 31.474,206 31.474,165.805 0,165.805 "/>
<path fill="#B3B3B3" d="M10.531,255v-7.969c0-0.094,0.005-0.235,0.016-0.426c0.01-0.19,0.023-0.379,0.039-0.566
	c0.016-0.219,0.034-0.453,0.055-0.703h-0.062c-0.047,0.25-0.094,0.484-0.141,0.703c-0.042,0.188-0.083,0.376-0.125,0.566
	c-0.042,0.19-0.076,0.332-0.102,0.426L8.016,255H6.75l-2.188-7.969c-0.011-0.036-0.023-0.09-0.039-0.16s-0.033-0.148-0.051-0.234
	c-0.019-0.086-0.038-0.179-0.059-0.277c-0.021-0.099-0.039-0.195-0.055-0.289c-0.042-0.224-0.086-0.469-0.133-0.734h-0.07
	c0.016,0.261,0.031,0.503,0.047,0.727c0.01,0.192,0.022,0.383,0.035,0.57c0.013,0.188,0.02,0.32,0.02,0.398V255H2.992v-10.977h2.141
	l1.938,7.203c0.026,0.099,0.051,0.211,0.074,0.336s0.047,0.254,0.07,0.387s0.045,0.269,0.066,0.406
	c0.021,0.138,0.039,0.272,0.055,0.402c0.036,0.302,0.07,0.612,0.102,0.93h0.07c0.026-0.323,0.057-0.638,0.094-0.945
	c0.031-0.261,0.067-0.53,0.109-0.809c0.042-0.278,0.091-0.515,0.148-0.707l1.945-7.203h2.133V255H10.531z M16.89,246.391
	c0.849,0,1.484,0.207,1.906,0.621s0.633,0.993,0.633,1.738v4.719c0,0.198,0.047,0.34,0.141,0.426s0.198,0.129,0.312,0.129h0.508
	v0.914c-0.073,0.042-0.182,0.083-0.328,0.125c-0.146,0.042-0.325,0.062-0.539,0.062c-0.344,0-0.63-0.095-0.859-0.285
	c-0.229-0.19-0.385-0.441-0.469-0.754h-0.078c-0.219,0.349-0.504,0.62-0.855,0.812s-0.749,0.289-1.191,0.289
	c-0.141,0-0.292-0.012-0.453-0.035c-0.161-0.023-0.324-0.065-0.488-0.125s-0.323-0.146-0.477-0.258
	c-0.153-0.112-0.289-0.255-0.406-0.43s-0.211-0.387-0.281-0.637s-0.105-0.544-0.105-0.883c0-0.578,0.107-1.051,0.32-1.418
	c0.214-0.367,0.511-0.653,0.891-0.859c0.38-0.206,0.831-0.347,1.352-0.422c0.521-0.075,1.086-0.113,1.695-0.113v-1.086
	c0-0.203-0.018-0.388-0.055-0.555c-0.036-0.167-0.104-0.31-0.203-0.43c-0.099-0.12-0.234-0.214-0.406-0.281
	s-0.393-0.102-0.664-0.102c-0.25,0-0.457,0.039-0.621,0.117s-0.295,0.181-0.395,0.309c-0.099,0.128-0.169,0.271-0.211,0.43
	c-0.042,0.159-0.062,0.319-0.062,0.48v0.188h-1.297c-0.01-0.047-0.016-0.097-0.016-0.148v-0.195c0-0.386,0.066-0.726,0.199-1.02
	s0.319-0.539,0.559-0.734c0.24-0.195,0.525-0.343,0.855-0.441C16.131,246.44,16.495,246.391,16.89,246.391z M18.117,251.18
	c-0.427,0-0.816,0.02-1.168,0.059s-0.653,0.116-0.906,0.23c-0.252,0.114-0.449,0.273-0.59,0.477s-0.211,0.469-0.211,0.797
	c0,0.479,0.097,0.812,0.289,1c0.193,0.188,0.474,0.281,0.844,0.281c0.208,0,0.416-0.043,0.621-0.129
	c0.206-0.086,0.392-0.215,0.559-0.387c0.167-0.172,0.302-0.388,0.406-0.648c0.104-0.261,0.156-0.565,0.156-0.914V251.18z
	 M24.898,246.391c0.317,0,0.604,0.044,0.859,0.133c0.255,0.089,0.473,0.234,0.652,0.438s0.319,0.466,0.418,0.789
	c0.099,0.323,0.148,0.719,0.148,1.188V255h-1.312v-5.969c0-0.292-0.029-0.532-0.086-0.723c-0.058-0.19-0.138-0.341-0.242-0.453
	c-0.104-0.112-0.229-0.19-0.375-0.234c-0.146-0.044-0.308-0.066-0.484-0.066c-0.208,0-0.406,0.052-0.594,0.156
	s-0.353,0.255-0.496,0.453c-0.144,0.198-0.258,0.44-0.344,0.727s-0.129,0.612-0.129,0.977V255h-1.312v-8.414h0.992l0.18,0.969h0.094
	c0.234-0.417,0.526-0.715,0.875-0.895C24.09,246.48,24.476,246.391,24.898,246.391z M31.53,246.391c0.849,0,1.484,0.207,1.906,0.621
	s0.633,0.993,0.633,1.738v4.719c0,0.198,0.047,0.34,0.141,0.426s0.198,0.129,0.312,0.129h0.508v0.914
	c-0.073,0.042-0.182,0.083-0.328,0.125s-0.326,0.062-0.539,0.062c-0.344,0-0.63-0.095-0.859-0.285s-0.385-0.441-0.469-0.754h-0.078
	c-0.219,0.349-0.504,0.62-0.855,0.812s-0.749,0.289-1.191,0.289c-0.141,0-0.292-0.012-0.453-0.035s-0.324-0.065-0.488-0.125
	s-0.323-0.146-0.477-0.258s-0.289-0.255-0.406-0.43s-0.211-0.387-0.281-0.637s-0.105-0.544-0.105-0.883
	c0-0.578,0.107-1.051,0.32-1.418s0.51-0.653,0.891-0.859s0.831-0.347,1.352-0.422s1.086-0.113,1.695-0.113v-1.086
	c0-0.203-0.018-0.388-0.055-0.555s-0.104-0.31-0.203-0.43s-0.234-0.214-0.406-0.281s-0.393-0.102-0.664-0.102
	c-0.25,0-0.457,0.039-0.621,0.117s-0.295,0.181-0.395,0.309s-0.169,0.271-0.211,0.43s-0.062,0.319-0.062,0.48v0.188h-1.297
	c-0.01-0.047-0.016-0.097-0.016-0.148v-0.195c0-0.386,0.066-0.726,0.199-1.02s0.319-0.539,0.559-0.734s0.525-0.343,0.855-0.441
	S31.134,246.391,31.53,246.391z M32.757,251.18c-0.427,0-0.816,0.02-1.168,0.059s-0.654,0.116-0.906,0.23s-0.449,0.273-0.59,0.477
	s-0.211,0.469-0.211,0.797c0,0.479,0.096,0.812,0.289,1s0.474,0.281,0.844,0.281c0.208,0,0.416-0.043,0.621-0.129
	s0.392-0.215,0.559-0.387s0.302-0.388,0.406-0.648s0.156-0.565,0.156-0.914V251.18z M42.256,245.219c0,0.25-0.031,0.485-0.094,0.707
	s-0.155,0.421-0.277,0.598c-0.122,0.177-0.271,0.327-0.445,0.449c-0.174,0.122-0.371,0.212-0.59,0.27
	c0.234,0.245,0.418,0.531,0.551,0.859s0.199,0.703,0.199,1.125c0,0.433-0.063,0.823-0.191,1.172
	c-0.127,0.349-0.309,0.645-0.543,0.887s-0.517,0.43-0.848,0.562c-0.331,0.133-0.699,0.202-1.105,0.207H38.03
	c-0.109,0-0.209,0.02-0.301,0.059c-0.091,0.039-0.172,0.093-0.242,0.16s-0.125,0.147-0.164,0.238s-0.059,0.188-0.059,0.293
	s0.021,0.202,0.062,0.293c0.042,0.091,0.098,0.172,0.168,0.242s0.151,0.125,0.242,0.164c0.091,0.039,0.189,0.059,0.293,0.059h2.406
	c0.302,0,0.576,0.052,0.82,0.156c0.245,0.104,0.453,0.246,0.625,0.426s0.304,0.388,0.395,0.625c0.091,0.237,0.137,0.488,0.137,0.754
	c0,0.333-0.053,0.646-0.16,0.938c-0.106,0.292-0.264,0.544-0.473,0.758c-0.208,0.214-0.466,0.383-0.773,0.508
	c-0.307,0.125-0.659,0.188-1.055,0.188h-2.383c-0.344,0-0.646-0.052-0.906-0.156c-0.26-0.104-0.478-0.247-0.652-0.43
	c-0.174-0.183-0.306-0.395-0.395-0.637c-0.088-0.242-0.133-0.501-0.133-0.777c0-0.203,0.026-0.399,0.078-0.59
	c0.052-0.19,0.125-0.363,0.219-0.52s0.208-0.294,0.344-0.414c0.136-0.12,0.287-0.211,0.453-0.273
	c-0.219-0.136-0.388-0.316-0.508-0.543c-0.12-0.227-0.18-0.468-0.18-0.723c0-0.344,0.108-0.64,0.324-0.887
	c0.216-0.247,0.504-0.437,0.863-0.566c-0.307-0.25-0.547-0.556-0.719-0.918s-0.258-0.78-0.258-1.254
	c0-0.442,0.062-0.839,0.188-1.188s0.306-0.646,0.543-0.891c0.237-0.245,0.526-0.433,0.867-0.562c0.341-0.13,0.726-0.195,1.152-0.195
	c0.214,0,0.425,0.027,0.633,0.082c0.208,0.055,0.401,0.129,0.578,0.223c0.188-0.099,0.344-0.207,0.469-0.324
	s0.227-0.239,0.305-0.367s0.137-0.257,0.176-0.387s0.069-0.263,0.09-0.398H42.256z M37.772,254.812
	c-0.167,0-0.311,0.024-0.434,0.074c-0.122,0.05-0.224,0.118-0.305,0.207c-0.081,0.089-0.141,0.192-0.18,0.312
	s-0.059,0.247-0.059,0.383s0.021,0.263,0.062,0.383c0.042,0.12,0.103,0.226,0.184,0.316c0.081,0.091,0.183,0.163,0.305,0.215
	c0.123,0.052,0.265,0.078,0.426,0.078h2.32c0.141,0,0.271-0.026,0.391-0.078c0.12-0.052,0.226-0.124,0.316-0.215
	c0.091-0.091,0.162-0.196,0.211-0.316c0.05-0.12,0.074-0.247,0.074-0.383s-0.02-0.263-0.059-0.383s-0.1-0.224-0.184-0.312
	c-0.083-0.089-0.186-0.157-0.309-0.207c-0.122-0.05-0.27-0.074-0.441-0.074H37.772z M38.834,247.477
	c-0.469,0-0.823,0.156-1.062,0.469c-0.239,0.312-0.359,0.739-0.359,1.281c0,0.562,0.12,0.992,0.359,1.289
	c0.24,0.297,0.594,0.445,1.062,0.445s0.826-0.155,1.07-0.465c0.245-0.31,0.367-0.733,0.367-1.27c0-0.567-0.122-1.001-0.367-1.301
	C39.66,247.626,39.303,247.477,38.834,247.477z M44.709,245h-1.305v-1.57h1.305V245z M44.709,255h-1.305v-8.414h1.305V255z
	 M50.178,246.391c0.318,0,0.604,0.044,0.859,0.133s0.473,0.234,0.652,0.438s0.319,0.466,0.418,0.789s0.148,0.719,0.148,1.188V255
	h-1.312v-5.969c0-0.292-0.029-0.532-0.086-0.723s-0.138-0.341-0.242-0.453s-0.229-0.19-0.375-0.234s-0.307-0.066-0.484-0.066
	c-0.208,0-0.406,0.052-0.594,0.156s-0.353,0.255-0.496,0.453s-0.258,0.44-0.344,0.727s-0.129,0.612-0.129,0.977V255h-1.312v-8.414
	h0.992l0.18,0.969h0.094c0.234-0.417,0.526-0.715,0.875-0.895S49.756,246.391,50.178,246.391z M60.217,245.219
	c0,0.25-0.031,0.485-0.094,0.707s-0.155,0.421-0.277,0.598c-0.123,0.177-0.271,0.327-0.445,0.449
	c-0.175,0.122-0.371,0.212-0.59,0.27c0.234,0.245,0.418,0.531,0.551,0.859s0.199,0.703,0.199,1.125c0,0.433-0.064,0.823-0.191,1.172
	c-0.128,0.349-0.309,0.645-0.543,0.887s-0.517,0.43-0.848,0.562c-0.331,0.133-0.699,0.202-1.105,0.207H55.99
	c-0.109,0-0.21,0.02-0.301,0.059c-0.091,0.039-0.172,0.093-0.242,0.16s-0.125,0.147-0.164,0.238s-0.059,0.188-0.059,0.293
	s0.021,0.202,0.062,0.293c0.042,0.091,0.098,0.172,0.168,0.242s0.151,0.125,0.242,0.164c0.091,0.039,0.188,0.059,0.293,0.059h2.406
	c0.302,0,0.575,0.052,0.82,0.156c0.245,0.104,0.453,0.246,0.625,0.426s0.303,0.388,0.395,0.625c0.091,0.237,0.137,0.488,0.137,0.754
	c0,0.333-0.054,0.646-0.16,0.938c-0.107,0.292-0.265,0.544-0.473,0.758c-0.208,0.214-0.466,0.383-0.773,0.508
	c-0.308,0.125-0.659,0.188-1.055,0.188h-2.383c-0.344,0-0.646-0.052-0.906-0.156c-0.261-0.104-0.478-0.247-0.652-0.43
	c-0.175-0.183-0.306-0.395-0.395-0.637c-0.089-0.242-0.133-0.501-0.133-0.777c0-0.203,0.026-0.399,0.078-0.59
	c0.052-0.19,0.125-0.363,0.219-0.52s0.208-0.294,0.344-0.414c0.135-0.12,0.286-0.211,0.453-0.273
	c-0.219-0.136-0.388-0.316-0.508-0.543c-0.12-0.227-0.18-0.468-0.18-0.723c0-0.344,0.108-0.64,0.324-0.887
	c0.216-0.247,0.504-0.437,0.863-0.566c-0.308-0.25-0.547-0.556-0.719-0.918s-0.258-0.78-0.258-1.254
	c0-0.442,0.062-0.839,0.188-1.188s0.306-0.646,0.543-0.891c0.237-0.245,0.526-0.433,0.867-0.562c0.341-0.13,0.725-0.195,1.152-0.195
	c0.213,0,0.424,0.027,0.633,0.082c0.208,0.055,0.401,0.129,0.578,0.223c0.188-0.099,0.344-0.207,0.469-0.324
	s0.227-0.239,0.305-0.367s0.137-0.257,0.176-0.387s0.069-0.263,0.09-0.398H60.217z M55.732,254.812
	c-0.167,0-0.312,0.024-0.434,0.074c-0.123,0.05-0.224,0.118-0.305,0.207c-0.081,0.089-0.141,0.192-0.18,0.312
	s-0.059,0.247-0.059,0.383s0.021,0.263,0.062,0.383c0.042,0.12,0.103,0.226,0.184,0.316c0.081,0.091,0.182,0.163,0.305,0.215
	c0.122,0.052,0.264,0.078,0.426,0.078h2.32c0.141,0,0.271-0.026,0.391-0.078c0.12-0.052,0.225-0.124,0.316-0.215
	c0.091-0.091,0.161-0.196,0.211-0.316c0.049-0.12,0.074-0.247,0.074-0.383s-0.02-0.263-0.059-0.383s-0.101-0.224-0.184-0.312
	c-0.083-0.089-0.187-0.157-0.309-0.207c-0.123-0.05-0.27-0.074-0.441-0.074H55.732z M56.795,247.477
	c-0.469,0-0.823,0.156-1.062,0.469c-0.24,0.312-0.359,0.739-0.359,1.281c0,0.562,0.12,0.992,0.359,1.289
	c0.239,0.297,0.594,0.445,1.062,0.445s0.825-0.155,1.07-0.465c0.245-0.31,0.367-0.733,0.367-1.27c0-0.567-0.123-1.001-0.367-1.301
	C57.62,247.626,57.264,247.477,56.795,247.477z M65.997,255v-10.977h3.414c0.646,0,1.226,0.112,1.738,0.336
	c0.513,0.224,0.949,0.559,1.309,1.004s0.634,1,0.824,1.664c0.19,0.664,0.285,1.438,0.285,2.324c0,0.938-0.095,1.759-0.285,2.465
	c-0.19,0.706-0.465,1.294-0.824,1.766s-0.795,0.825-1.309,1.062c-0.513,0.237-1.092,0.355-1.738,0.355H65.997z M67.411,245.305
	v8.414h1.867c0.433,0,0.822-0.082,1.168-0.246c0.347-0.164,0.642-0.41,0.887-0.738c0.245-0.328,0.434-0.741,0.566-1.238
	s0.199-1.079,0.199-1.746v-0.797c0-0.609-0.066-1.144-0.199-1.602s-0.321-0.839-0.566-1.141c-0.245-0.302-0.54-0.528-0.887-0.68
	c-0.346-0.151-0.735-0.227-1.168-0.227H67.411z M76.31,245h-1.305v-1.57h1.305V245z M76.31,255h-1.305v-8.414h1.305V255z
	 M81.168,246.391c0.088,0,0.169,0.008,0.242,0.023c0.073,0.016,0.138,0.031,0.195,0.047l0.188,0.062v1.359h-0.438
	c-0.208,0-0.406,0.034-0.594,0.102s-0.353,0.179-0.496,0.332c-0.144,0.153-0.258,0.356-0.344,0.609s-0.129,0.566-0.129,0.941V255
	h-1.312v-8.414h0.992l0.18,1.102h0.094c0.052-0.161,0.117-0.319,0.195-0.473s0.174-0.292,0.289-0.414
	c0.114-0.122,0.249-0.222,0.402-0.297C80.787,246.429,80.965,246.391,81.168,246.391z M85.676,246.391
	c0.458,0,0.862,0.074,1.211,0.223c0.349,0.148,0.638,0.382,0.867,0.699c0.229,0.317,0.402,0.727,0.52,1.227s0.176,1.102,0.176,1.805
	v0.836h-4.562c0.005,0.979,0.158,1.698,0.457,2.156c0.3,0.458,0.759,0.688,1.379,0.688c0.208,0,0.4-0.043,0.574-0.129
	c0.175-0.086,0.326-0.211,0.453-0.375c0.128-0.164,0.227-0.363,0.297-0.598s0.105-0.497,0.105-0.789h1.297
	c0,0.474-0.066,0.899-0.199,1.277s-0.32,0.698-0.562,0.961s-0.532,0.465-0.871,0.605c-0.338,0.141-0.713,0.211-1.125,0.211
	c-0.521,0-0.979-0.082-1.375-0.246c-0.396-0.164-0.728-0.425-0.996-0.781c-0.268-0.356-0.47-0.812-0.605-1.367
	c-0.135-0.555-0.203-1.223-0.203-2.004c0-1.505,0.265-2.614,0.793-3.328C83.833,246.747,84.624,246.391,85.676,246.391z
	 M85.676,247.555c-0.292,0-0.543,0.052-0.754,0.156s-0.387,0.259-0.527,0.465s-0.25,0.461-0.328,0.766s-0.133,0.66-0.164,1.066
	h3.172c0-0.808-0.118-1.418-0.355-1.832C86.482,247.762,86.134,247.555,85.676,247.555z M92.613,246.391
	c0.458,0,0.85,0.071,1.176,0.215c0.325,0.144,0.592,0.355,0.801,0.637c0.208,0.281,0.36,0.628,0.457,1.039
	c0.096,0.411,0.145,0.886,0.145,1.422h-1.359c0-0.364-0.02-0.681-0.059-0.949s-0.105-0.491-0.199-0.668s-0.219-0.31-0.375-0.398
	s-0.352-0.133-0.586-0.133c-0.521,0-0.901,0.245-1.141,0.734c-0.24,0.489-0.359,1.222-0.359,2.195v0.617
	c0,0.969,0.117,1.698,0.352,2.188s0.617,0.734,1.148,0.734c0.234,0,0.434-0.047,0.598-0.141s0.297-0.231,0.398-0.414
	s0.174-0.406,0.219-0.672c0.044-0.266,0.066-0.573,0.066-0.922h1.297c0,0.442-0.047,0.863-0.141,1.262s-0.244,0.75-0.449,1.055
	c-0.206,0.305-0.473,0.547-0.801,0.727s-0.724,0.27-1.188,0.27c-0.495,0-0.923-0.087-1.285-0.262
	c-0.362-0.175-0.66-0.442-0.895-0.805s-0.409-0.819-0.523-1.371c-0.115-0.552-0.172-1.206-0.172-1.961
	c0-1.505,0.233-2.614,0.699-3.328C90.903,246.747,91.629,246.391,92.613,246.391z M98.738,246.586h1.133v1.172h-1.133v5.492
	c0,0.25,0.062,0.441,0.188,0.574s0.312,0.199,0.562,0.199h0.383v0.914c-0.109,0.062-0.254,0.114-0.434,0.156
	s-0.35,0.062-0.512,0.062c-0.287,0-0.526-0.056-0.719-0.168s-0.346-0.259-0.461-0.441s-0.197-0.39-0.246-0.621
	s-0.074-0.468-0.074-0.707v-5.461h-0.727v-1.172h0.727l0.289-2.336h1.023V246.586z M104.448,246.391c0.984,0,1.732,0.356,2.242,1.07
	c0.511,0.714,0.766,1.823,0.766,3.328c0,1.511-0.255,2.621-0.766,3.332c-0.51,0.711-1.258,1.066-2.242,1.066
	s-1.731-0.355-2.242-1.066c-0.51-0.711-0.766-1.821-0.766-3.332c0-1.505,0.255-2.614,0.766-3.328
	C102.717,246.747,103.464,246.391,104.448,246.391z M104.448,247.555c-0.552,0-0.962,0.245-1.23,0.734
	c-0.268,0.489-0.402,1.222-0.402,2.195v0.617c0,0.969,0.134,1.698,0.402,2.188c0.269,0.489,0.679,0.734,1.23,0.734
	c0.547,0,0.956-0.245,1.227-0.734c0.271-0.489,0.406-1.219,0.406-2.188v-0.617c0-0.974-0.135-1.706-0.406-2.195
	C105.404,247.8,104.995,247.555,104.448,247.555z M111.769,246.391c0.089,0,0.169,0.008,0.242,0.023s0.138,0.031,0.195,0.047
	l0.188,0.062v1.359h-0.438c-0.208,0-0.406,0.034-0.594,0.102s-0.353,0.179-0.496,0.332s-0.258,0.356-0.344,0.609
	s-0.129,0.566-0.129,0.941V255h-1.312v-8.414h0.992l0.18,1.102h0.094c0.052-0.161,0.117-0.319,0.195-0.473s0.175-0.292,0.289-0.414
	s0.249-0.222,0.402-0.297S111.565,246.391,111.769,246.391z"/>
<path fill="#FFFFFF" d="M6.913,223.432c0.551,0,1.069,0.07,1.556,0.211s0.911,0.359,1.274,0.654
	c0.363,0.297,0.652,0.675,0.866,1.135s0.321,1.006,0.321,1.639v0.22H8.574v-0.167c0-0.521-0.148-0.936-0.444-1.244
	c-0.296-0.307-0.708-0.461-1.235-0.461c-0.562,0-0.992,0.123-1.288,0.369s-0.444,0.56-0.444,0.94c0,0.311,0.086,0.567,0.259,0.769
	c0.173,0.203,0.4,0.376,0.681,0.52s0.601,0.27,0.958,0.377c0.357,0.109,0.724,0.228,1.099,0.356s0.741,0.28,1.099,0.452
	c0.357,0.174,0.677,0.394,0.958,0.66s0.508,0.596,0.681,0.988s0.259,0.873,0.259,1.441c0,0.709-0.107,1.312-0.321,1.811
	s-0.513,0.904-0.896,1.217c-0.384,0.314-0.842,0.543-1.375,0.686c-0.533,0.144-1.119,0.216-1.758,0.216
	c-0.568,0-1.11-0.081-1.626-0.241c-0.516-0.161-0.97-0.403-1.362-0.726s-0.705-0.724-0.936-1.204s-0.347-1.037-0.347-1.67
	c0-0.07,0.003-0.142,0.009-0.215s0.009-0.134,0.009-0.181h2.399c0,0.018-0.003,0.059-0.009,0.123s-0.009,0.12-0.009,0.167
	c0,0.293,0.044,0.56,0.132,0.8s0.217,0.447,0.387,0.62s0.376,0.306,0.62,0.399s0.523,0.141,0.839,0.141
	c0.346,0,0.639-0.042,0.879-0.128c0.24-0.084,0.434-0.195,0.58-0.334c0.146-0.137,0.252-0.292,0.316-0.465s0.097-0.351,0.097-0.532
	c0-0.293-0.056-0.543-0.167-0.751s-0.264-0.387-0.457-0.537c-0.193-0.148-0.417-0.277-0.672-0.387
	c-0.255-0.107-0.526-0.211-0.813-0.307c-0.287-0.098-0.583-0.195-0.888-0.295s-0.601-0.215-0.888-0.348
	c-0.287-0.131-0.558-0.288-0.813-0.47s-0.479-0.399-0.672-0.655c-0.193-0.254-0.346-0.556-0.457-0.904s-0.167-0.758-0.167-1.227
	c0-0.586,0.113-1.096,0.338-1.529s0.527-0.794,0.905-1.081s0.816-0.501,1.314-0.642S6.368,223.432,6.913,223.432z M15.902,226.314
	c1.096,0,1.907,0.245,2.435,0.734s0.791,1.176,0.791,2.061v4.658c0,0.223,0.053,0.384,0.158,0.483s0.22,0.149,0.343,0.149h0.439
	v1.529c-0.117,0.064-0.278,0.129-0.483,0.193s-0.472,0.097-0.8,0.097c-0.434,0-0.794-0.116-1.081-0.347
	c-0.287-0.231-0.483-0.532-0.589-0.901h-0.097c-0.135,0.188-0.275,0.359-0.422,0.515s-0.313,0.287-0.501,0.395
	c-0.188,0.109-0.4,0.192-0.637,0.251s-0.514,0.088-0.831,0.088c-0.223,0-0.47-0.037-0.743-0.11s-0.53-0.207-0.773-0.404
	c-0.243-0.195-0.447-0.467-0.611-0.812s-0.246-0.794-0.246-1.345c0-0.639,0.116-1.169,0.347-1.591s0.554-0.76,0.967-1.016
	c0.413-0.254,0.908-0.435,1.485-0.54s1.208-0.158,1.894-0.158v-0.993c0-0.164-0.013-0.316-0.04-0.457s-0.075-0.264-0.145-0.369
	s-0.17-0.189-0.299-0.25c-0.129-0.062-0.296-0.093-0.501-0.093c-0.223,0-0.407,0.03-0.554,0.093
	c-0.146,0.061-0.262,0.139-0.347,0.232s-0.145,0.201-0.18,0.32c-0.035,0.121-0.053,0.236-0.053,0.348v0.264h-2.109
	c-0.012-0.053-0.018-0.111-0.018-0.176v-0.22c0-0.393,0.076-0.751,0.229-1.077c0.152-0.324,0.368-0.602,0.646-0.83
	s0.614-0.405,1.006-0.531S15.416,226.314,15.902,226.314z M16.948,231.808c-0.316,0-0.623,0.023-0.918,0.07s-0.56,0.129-0.791,0.246
	s-0.417,0.275-0.558,0.475s-0.211,0.451-0.211,0.756c0,0.328,0.083,0.588,0.25,0.778s0.435,0.285,0.804,0.285
	c0.258,0,0.476-0.056,0.655-0.167s0.325-0.262,0.439-0.452s0.198-0.41,0.25-0.66c0.053-0.248,0.079-0.514,0.079-0.795V231.808z
	 M24.122,226.314c0.451,0,0.872,0.059,1.261,0.176s0.729,0.285,1.02,0.506c0.29,0.219,0.517,0.489,0.681,0.809
	s0.246,0.681,0.246,1.085c0,0.1-0.004,0.19-0.013,0.272s-0.013,0.129-0.013,0.141h-2.188c0-0.422-0.095-0.73-0.286-0.928
	c-0.19-0.195-0.45-0.294-0.778-0.294c-0.334,0-0.604,0.083-0.809,0.251c-0.205,0.166-0.308,0.394-0.308,0.681
	c0,0.229,0.066,0.412,0.198,0.55s0.306,0.252,0.523,0.342c0.217,0.092,0.464,0.171,0.743,0.238s0.561,0.144,0.848,0.229
	s0.57,0.188,0.848,0.312s0.526,0.29,0.743,0.501s0.391,0.475,0.523,0.791s0.198,0.709,0.198,1.178c0,0.58-0.089,1.065-0.268,1.455
	s-0.425,0.704-0.738,0.944s-0.686,0.412-1.116,0.515c-0.431,0.102-0.898,0.153-1.402,0.153c-0.545,0-1.03-0.072-1.455-0.216
	c-0.425-0.143-0.785-0.347-1.081-0.61s-0.52-0.58-0.672-0.949s-0.229-0.779-0.229-1.23v-0.07c0-0.029,0.003-0.056,0.009-0.079
	c0-0.023,0.003-0.047,0.009-0.07h2.188v0.123c0.006,0.252,0.048,0.463,0.127,0.633s0.18,0.308,0.303,0.413s0.261,0.181,0.413,0.224
	c0.152,0.045,0.305,0.066,0.457,0.066c0.141,0,0.286-0.018,0.435-0.053s0.286-0.092,0.409-0.172
	c0.123-0.078,0.223-0.184,0.299-0.316c0.076-0.131,0.114-0.294,0.114-0.487c0-0.252-0.066-0.454-0.198-0.606
	s-0.306-0.279-0.523-0.383c-0.217-0.102-0.464-0.189-0.743-0.264c-0.278-0.072-0.561-0.153-0.848-0.241s-0.57-0.193-0.848-0.316
	s-0.526-0.287-0.743-0.492s-0.391-0.463-0.523-0.773s-0.198-0.694-0.198-1.151c0-0.48,0.088-0.9,0.264-1.262
	c0.176-0.359,0.416-0.66,0.721-0.9s0.662-0.42,1.072-0.541C23.205,226.375,23.647,226.314,24.122,226.314z M32.245,226.314
	c0.504,0,0.961,0.073,1.371,0.22s0.759,0.374,1.046,0.681c0.287,0.309,0.508,0.699,0.664,1.174s0.233,1.043,0.233,1.705h-2.215
	c0-0.668-0.091-1.161-0.272-1.48s-0.457-0.479-0.826-0.479c-0.457,0-0.781,0.237-0.971,0.712s-0.286,1.166-0.286,2.074v0.686
	c0,0.908,0.101,1.602,0.303,2.078c0.202,0.479,0.546,0.717,1.033,0.717c0.387,0,0.665-0.164,0.835-0.492s0.255-0.82,0.255-1.477
	h2.145c0,0.662-0.076,1.232-0.229,1.709c-0.152,0.479-0.369,0.871-0.65,1.178c-0.281,0.309-0.621,0.535-1.02,0.682
	s-0.844,0.22-1.336,0.22c-0.615,0-1.148-0.099-1.6-0.294c-0.451-0.196-0.825-0.498-1.121-0.906
	c-0.296-0.406-0.514-0.922-0.655-1.547c-0.141-0.623-0.211-1.36-0.211-2.21c0-1.699,0.292-2.948,0.875-3.749
	C30.196,226.715,31.073,226.314,32.245,226.314z M39.146,227.536h0.079c0.105-0.146,0.231-0.293,0.378-0.439
	s0.313-0.276,0.501-0.392c0.188-0.113,0.398-0.207,0.633-0.281c0.234-0.072,0.492-0.109,0.773-0.109
	c0.363,0,0.699,0.055,1.006,0.162c0.308,0.109,0.573,0.283,0.795,0.523s0.397,0.554,0.523,0.94s0.189,0.858,0.189,1.415V236h-2.153
	v-6.047c0-0.609-0.111-1.041-0.334-1.297c-0.223-0.254-0.527-0.382-0.914-0.382c-0.211,0-0.407,0.048-0.589,0.146
	c-0.182,0.096-0.338,0.231-0.47,0.404s-0.234,0.373-0.308,0.602s-0.11,0.475-0.11,0.738V236h-2.153v-13.017h2.153V227.536z
	 M48.902,226.314c1.096,0,1.907,0.245,2.435,0.734s0.791,1.176,0.791,2.061v4.658c0,0.223,0.053,0.384,0.158,0.483
	s0.22,0.149,0.343,0.149h0.439v1.529c-0.117,0.064-0.278,0.129-0.483,0.193s-0.472,0.097-0.8,0.097
	c-0.434,0-0.794-0.116-1.081-0.347c-0.287-0.231-0.483-0.532-0.589-0.901h-0.097c-0.135,0.188-0.275,0.359-0.422,0.515
	s-0.313,0.287-0.501,0.395c-0.188,0.109-0.4,0.192-0.637,0.251s-0.514,0.088-0.831,0.088c-0.223,0-0.47-0.037-0.743-0.11
	s-0.53-0.207-0.773-0.404c-0.243-0.195-0.447-0.467-0.611-0.812s-0.246-0.794-0.246-1.345c0-0.639,0.116-1.169,0.347-1.591
	s0.554-0.76,0.967-1.016c0.413-0.254,0.908-0.435,1.485-0.54s1.208-0.158,1.894-0.158v-0.993c0-0.164-0.013-0.316-0.04-0.457
	s-0.075-0.264-0.145-0.369s-0.17-0.189-0.299-0.25c-0.129-0.062-0.296-0.093-0.501-0.093c-0.223,0-0.407,0.03-0.554,0.093
	c-0.146,0.061-0.262,0.139-0.347,0.232s-0.145,0.201-0.18,0.32c-0.035,0.121-0.053,0.236-0.053,0.348v0.264h-2.109
	c-0.012-0.053-0.018-0.111-0.018-0.176v-0.22c0-0.393,0.076-0.751,0.229-1.077c0.152-0.324,0.368-0.602,0.646-0.83
	s0.614-0.405,1.006-0.531S48.416,226.314,48.902,226.314z M49.948,231.808c-0.316,0-0.623,0.023-0.918,0.07s-0.56,0.129-0.791,0.246
	s-0.417,0.275-0.558,0.475s-0.211,0.451-0.211,0.756c0,0.328,0.083,0.588,0.25,0.778s0.435,0.285,0.804,0.285
	c0.258,0,0.476-0.056,0.655-0.167s0.325-0.262,0.439-0.452s0.198-0.41,0.25-0.66c0.053-0.248,0.079-0.514,0.079-0.795V231.808z
	 M60.384,231.21V236h-2.303v-12.349h4.412c0.639,0,1.198,0.093,1.679,0.276c0.48,0.186,0.883,0.443,1.208,0.773
	c0.325,0.332,0.57,0.725,0.734,1.178c0.164,0.455,0.246,0.948,0.246,1.481c0,0.58-0.092,1.107-0.277,1.582s-0.447,0.879-0.787,1.213
	s-0.747,0.593-1.222,0.778c-0.475,0.184-1.002,0.276-1.582,0.276H60.384z M60.384,225.708v3.472h1.872
	c0.562,0,0.992-0.161,1.288-0.483s0.444-0.768,0.444-1.336c0-0.51-0.151-0.912-0.453-1.208s-0.728-0.444-1.279-0.444H60.384z
	 M70.902,226.314c1.096,0,1.907,0.245,2.435,0.734s0.791,1.176,0.791,2.061v4.658c0,0.223,0.053,0.384,0.158,0.483
	s0.22,0.149,0.343,0.149h0.439v1.529c-0.117,0.064-0.278,0.129-0.483,0.193s-0.472,0.097-0.8,0.097
	c-0.434,0-0.794-0.116-1.081-0.347c-0.287-0.231-0.483-0.532-0.589-0.901h-0.097c-0.135,0.188-0.275,0.359-0.422,0.515
	s-0.313,0.287-0.501,0.395c-0.188,0.109-0.4,0.192-0.637,0.251s-0.514,0.088-0.831,0.088c-0.223,0-0.47-0.037-0.743-0.11
	s-0.53-0.207-0.773-0.404c-0.243-0.195-0.447-0.467-0.611-0.812s-0.246-0.794-0.246-1.345c0-0.639,0.116-1.169,0.347-1.591
	s0.554-0.76,0.967-1.016c0.413-0.254,0.908-0.435,1.485-0.54s1.208-0.158,1.894-0.158v-0.993c0-0.164-0.013-0.316-0.04-0.457
	s-0.075-0.264-0.145-0.369s-0.17-0.189-0.299-0.25c-0.129-0.062-0.296-0.093-0.501-0.093c-0.223,0-0.407,0.03-0.554,0.093
	c-0.146,0.061-0.262,0.139-0.347,0.232s-0.145,0.201-0.18,0.32c-0.035,0.121-0.053,0.236-0.053,0.348v0.264h-2.109
	c-0.012-0.053-0.018-0.111-0.018-0.176v-0.22c0-0.393,0.076-0.751,0.229-1.077c0.152-0.324,0.368-0.602,0.646-0.83
	s0.614-0.405,1.006-0.531S70.416,226.314,70.902,226.314z M71.948,231.808c-0.316,0-0.623,0.023-0.918,0.07s-0.56,0.129-0.791,0.246
	s-0.417,0.275-0.558,0.475s-0.211,0.451-0.211,0.756c0,0.328,0.083,0.588,0.25,0.778s0.435,0.285,0.804,0.285
	c0.258,0,0.476-0.056,0.655-0.167s0.325-0.262,0.439-0.452s0.198-0.41,0.25-0.66c0.053-0.248,0.079-0.514,0.079-0.795V231.808z
	 M80.511,226.314c0.363,0,0.699,0.055,1.006,0.162c0.308,0.109,0.573,0.283,0.795,0.523s0.397,0.554,0.523,0.94
	s0.189,0.858,0.189,1.415V236h-2.153v-6.047c0-0.609-0.111-1.041-0.334-1.297c-0.223-0.254-0.527-0.382-0.914-0.382
	c-0.211,0-0.407,0.048-0.589,0.146c-0.182,0.096-0.338,0.231-0.47,0.404s-0.234,0.373-0.308,0.602s-0.11,0.475-0.11,0.738V236
	h-2.153v-9.466h1.793l0.22,1.169h0.105c0.123-0.182,0.264-0.357,0.422-0.527s0.337-0.317,0.536-0.443s0.419-0.228,0.659-0.304
	S80.229,226.314,80.511,226.314z M87.278,226.534h1.362v1.819h-1.362v5.273c0,0.516,0.252,0.773,0.756,0.773h0.606v1.6
	c-0.076,0.029-0.167,0.056-0.272,0.079s-0.217,0.047-0.334,0.07s-0.234,0.041-0.352,0.053s-0.229,0.018-0.334,0.018
	c-0.434,0-0.794-0.073-1.081-0.22s-0.516-0.34-0.686-0.58s-0.29-0.511-0.36-0.812s-0.105-0.611-0.105-0.928v-5.326h-0.958v-1.819
	h0.958l0.325-2.663h1.837V226.534z M93.192,226.314c1.143,0,1.998,0.4,2.566,1.199c0.568,0.801,0.853,2.05,0.853,3.749v0.545h-4.808
	c0.006,0.422,0.037,0.797,0.092,1.125s0.141,0.605,0.255,0.831s0.262,0.396,0.444,0.514s0.404,0.176,0.668,0.176
	c0.369,0,0.664-0.158,0.883-0.475s0.33-0.759,0.33-1.327h2.136c0,0.609-0.083,1.138-0.25,1.587c-0.167,0.447-0.4,0.818-0.699,1.111
	s-0.653,0.512-1.063,0.654c-0.41,0.144-0.855,0.216-1.336,0.216c-1.213,0-2.134-0.401-2.764-1.204s-0.945-2.054-0.945-3.753
	s0.313-2.948,0.94-3.749C91.121,226.715,92.021,226.314,93.192,226.314z M93.192,228.081c-0.457,0-0.79,0.188-0.998,0.562
	s-0.33,0.908-0.365,1.6h2.514c0-0.691-0.092-1.225-0.277-1.6S93.591,228.081,93.192,228.081z M101.79,226.314
	c0.135,0,0.258,0.009,0.369,0.026s0.208,0.035,0.29,0.053c0.094,0.023,0.173,0.047,0.237,0.07v2.083h-0.773
	c-0.234,0-0.458,0.035-0.672,0.105s-0.401,0.189-0.562,0.355c-0.161,0.168-0.29,0.391-0.387,0.668
	c-0.097,0.279-0.145,0.629-0.145,1.051V236h-2.153v-9.466h1.793l0.255,1.38h0.105c0.064-0.199,0.141-0.394,0.229-0.584
	s0.198-0.361,0.33-0.51c0.132-0.15,0.286-0.271,0.461-0.365S101.55,226.314,101.79,226.314z"/>
<path d="M17.816,21.289h1.214v3.022h-3.04v-2.764l1.45-3.713h1.59L17.816,21.289z M21.845,21.289h1.214v3.022h-3.04v-2.764
	l1.45-3.713h1.59L21.845,21.289z M37.752,33h-2.836l-2.052-9.661c-0.043-0.194-0.083-0.414-0.118-0.659
	c-0.036-0.244-0.068-0.479-0.097-0.702c-0.029-0.259-0.058-0.521-0.086-0.788h-0.097c-0.043,0.288-0.079,0.565-0.107,0.831
	c-0.036,0.23-0.068,0.468-0.097,0.712c-0.029,0.245-0.061,0.446-0.097,0.604L30.136,33H27.3l-3.276-15.167h2.793l1.805,9.327
	c0.036,0.166,0.07,0.371,0.102,0.615s0.062,0.479,0.091,0.702c0.028,0.266,0.061,0.536,0.097,0.81h0.086
	c0.028-0.281,0.057-0.554,0.086-0.82c0.028-0.23,0.059-0.464,0.091-0.702s0.066-0.439,0.102-0.604l1.826-9.327h3.19l1.805,9.327
	c0.028,0.151,0.061,0.347,0.097,0.588c0.036,0.241,0.068,0.477,0.097,0.707c0.028,0.266,0.061,0.543,0.097,0.831h0.086l0.086-0.777
	c0.028-0.216,0.059-0.448,0.091-0.696c0.032-0.248,0.07-0.466,0.113-0.653l1.848-9.327h2.417L37.752,33z M44.848,19.432h-2.632
	v-2.418h2.632V19.432z M44.848,33h-2.632V21.375h2.632V33z M51.878,21.105c0.165,0,0.315,0.011,0.451,0.032
	c0.136,0.021,0.254,0.043,0.354,0.065c0.114,0.029,0.211,0.058,0.29,0.086v2.558h-0.945c-0.287,0-0.561,0.043-0.822,0.129
	c-0.262,0.086-0.491,0.232-0.688,0.438c-0.197,0.205-0.354,0.479-0.473,0.82s-0.177,0.771-0.177,1.29V33h-2.632V21.375h2.191
	l0.312,1.695h0.129c0.079-0.245,0.172-0.484,0.279-0.718s0.242-0.442,0.403-0.626s0.349-0.333,0.564-0.448
	C51.33,21.163,51.584,21.105,51.878,21.105z M61.848,33h-2.632V17.014h2.632V33z M66.848,19.432h-2.632v-2.418h2.632V19.432z
	 M66.848,33h-2.632V21.375h2.632V33z M73.147,21.105c1.396,0,2.442,0.491,3.137,1.473c0.694,0.982,1.042,2.517,1.042,4.604v0.669
	H71.45c0.007,0.518,0.044,0.979,0.113,1.382c0.068,0.403,0.172,0.743,0.312,1.02c0.14,0.277,0.32,0.487,0.542,0.631
	c0.222,0.144,0.494,0.216,0.816,0.216c0.451,0,0.811-0.194,1.08-0.583s0.403-0.932,0.403-1.63h2.61c0,0.749-0.102,1.398-0.306,1.948
	c-0.204,0.551-0.489,1.006-0.854,1.366s-0.799,0.628-1.3,0.804c-0.501,0.176-1.046,0.265-1.633,0.265
	c-1.482,0-2.609-0.493-3.378-1.479c-0.77-0.986-1.155-2.522-1.155-4.609s0.383-3.622,1.149-4.604
	C70.616,21.596,71.715,21.105,73.147,21.105z M73.147,23.274c-0.559,0-0.965,0.23-1.219,0.691c-0.254,0.461-0.403,1.116-0.446,1.965
	h3.072c0-0.849-0.113-1.504-0.338-1.965C73.991,23.505,73.634,23.274,73.147,23.274z M81.697,31.565L81.429,33h-2.191V17.014h2.632
	v5.548h0.118c0.208-0.468,0.542-0.827,1.004-1.08c0.462-0.251,0.983-0.377,1.563-0.377c0.516,0,0.992,0.117,1.429,0.351
	c0.437,0.234,0.814,0.598,1.133,1.09c0.318,0.493,0.569,1.121,0.752,1.884s0.274,1.673,0.274,2.731c0,1.058-0.086,1.97-0.258,2.736
	c-0.172,0.767-0.419,1.4-0.741,1.9c-0.322,0.5-0.713,0.871-1.171,1.112c-0.458,0.241-0.974,0.362-1.547,0.362
	c-0.552,0-1.053-0.144-1.504-0.432c-0.451-0.288-0.824-0.712-1.117-1.273H81.697z M81.869,27.603c0,1.051,0.134,1.855,0.403,2.413
	c0.269,0.558,0.721,0.837,1.359,0.837c0.637,0,1.09-0.279,1.359-0.837c0.269-0.558,0.403-1.362,0.403-2.413v-0.842
	c0-1.043-0.134-1.846-0.403-2.407s-0.722-0.842-1.359-0.842c-0.322,0-0.595,0.074-0.816,0.221c-0.222,0.147-0.403,0.361-0.542,0.642
	s-0.242,0.626-0.306,1.037c-0.064,0.41-0.097,0.878-0.097,1.403V27.603z M94.147,21.105c1.396,0,2.442,0.491,3.137,1.473
	c0.694,0.982,1.042,2.517,1.042,4.604v0.669H92.45c0.007,0.518,0.044,0.979,0.113,1.382c0.068,0.403,0.172,0.743,0.312,1.02
	c0.14,0.277,0.32,0.487,0.542,0.631c0.222,0.144,0.494,0.216,0.816,0.216c0.451,0,0.811-0.194,1.08-0.583s0.403-0.932,0.403-1.63
	h2.61c0,0.749-0.102,1.398-0.306,1.948c-0.204,0.551-0.489,1.006-0.854,1.366s-0.799,0.628-1.3,0.804
	c-0.501,0.176-1.046,0.265-1.633,0.265c-1.482,0-2.609-0.493-3.378-1.479c-0.77-0.986-1.155-2.522-1.155-4.609
	s0.383-3.622,1.149-4.604C91.616,21.596,92.715,21.105,94.147,21.105z M94.147,23.274c-0.559,0-0.965,0.23-1.219,0.691
	c-0.254,0.461-0.403,1.116-0.446,1.965h3.072c0-0.849-0.113-1.504-0.338-1.965C94.991,23.505,94.634,23.274,94.147,23.274z
	 M105.759,21.105c0.444,0,0.854,0.066,1.23,0.2s0.7,0.347,0.972,0.642c0.272,0.295,0.485,0.68,0.639,1.155
	c0.154,0.475,0.231,1.054,0.231,1.738V33h-2.632v-7.427c0-0.748-0.136-1.279-0.408-1.592c-0.272-0.313-0.645-0.469-1.117-0.469
	c-0.258,0-0.498,0.059-0.72,0.178c-0.222,0.119-0.414,0.285-0.575,0.497c-0.161,0.212-0.287,0.459-0.376,0.74
	c-0.09,0.281-0.134,0.583-0.134,0.907V33h-2.632V21.375h2.191l0.269,1.436h0.129c0.15-0.223,0.322-0.439,0.516-0.648
	c0.193-0.208,0.412-0.39,0.655-0.545c0.243-0.155,0.512-0.279,0.806-0.373C105.096,21.152,105.415,21.105,105.759,21.105z
	 M23.907,53.502h-4.748V60h-2.814V44.834h2.814v6.142h4.748v-6.142h2.825V60h-2.825V53.502z M33.147,48.105
	c1.396,0,2.442,0.491,3.137,1.473c0.694,0.982,1.042,2.517,1.042,4.604v0.669H31.45c0.007,0.518,0.044,0.979,0.113,1.382
	c0.068,0.403,0.172,0.743,0.312,1.02c0.14,0.277,0.32,0.487,0.542,0.631c0.222,0.144,0.494,0.216,0.816,0.216
	c0.451,0,0.811-0.194,1.08-0.583s0.403-0.932,0.403-1.63h2.61c0,0.749-0.102,1.398-0.306,1.948
	c-0.204,0.551-0.489,1.006-0.854,1.366s-0.799,0.628-1.3,0.804c-0.501,0.176-1.046,0.265-1.633,0.265
	c-1.482,0-2.609-0.493-3.378-1.479c-0.77-0.986-1.155-2.522-1.155-4.609s0.383-3.622,1.149-4.604
	C30.616,48.596,31.715,48.105,33.147,48.105z M33.147,50.274c-0.559,0-0.965,0.23-1.219,0.691c-0.254,0.461-0.403,1.116-0.446,1.965
	h3.072c0-0.849-0.113-1.504-0.338-1.965C33.991,50.505,33.634,50.274,33.147,50.274z M43.878,48.105
	c0.165,0,0.315,0.011,0.451,0.032c0.136,0.021,0.254,0.043,0.354,0.065c0.114,0.029,0.211,0.058,0.29,0.086v2.558h-0.945
	c-0.287,0-0.561,0.043-0.822,0.129c-0.262,0.086-0.491,0.232-0.688,0.438c-0.197,0.205-0.354,0.479-0.473,0.82
	s-0.177,0.771-0.177,1.29V60h-2.632V48.375h2.191l0.312,1.695h0.129c0.079-0.245,0.172-0.484,0.279-0.718s0.242-0.442,0.403-0.626
	s0.349-0.333,0.564-0.448C43.33,48.163,43.584,48.105,43.878,48.105z M49.793,48.105c1.339,0,2.331,0.3,2.976,0.901
	c0.645,0.601,0.967,1.445,0.967,2.531v5.721c0,0.273,0.064,0.471,0.193,0.594c0.129,0.122,0.269,0.183,0.419,0.183h0.537v1.878
	c-0.144,0.079-0.34,0.158-0.591,0.238c-0.251,0.079-0.577,0.119-0.978,0.119c-0.53,0-0.971-0.143-1.321-0.427
	c-0.351-0.284-0.591-0.653-0.72-1.106h-0.118c-0.165,0.23-0.337,0.441-0.516,0.632c-0.179,0.19-0.383,0.353-0.612,0.486
	c-0.229,0.133-0.489,0.235-0.779,0.308c-0.29,0.072-0.628,0.108-1.015,0.108c-0.272,0-0.575-0.045-0.908-0.135
	s-0.648-0.255-0.945-0.497c-0.297-0.241-0.546-0.574-0.747-0.999c-0.201-0.424-0.301-0.975-0.301-1.651
	c0-0.784,0.141-1.436,0.424-1.954c0.283-0.519,0.677-0.934,1.182-1.247s1.11-0.534,1.815-0.664c0.705-0.13,1.477-0.194,2.315-0.194
	v-1.22c0-0.202-0.016-0.389-0.048-0.562s-0.091-0.324-0.177-0.454c-0.086-0.129-0.208-0.232-0.365-0.308
	c-0.158-0.075-0.362-0.113-0.612-0.113c-0.272,0-0.498,0.038-0.677,0.113c-0.179,0.076-0.321,0.171-0.424,0.286
	c-0.104,0.115-0.177,0.247-0.22,0.394s-0.064,0.29-0.064,0.426v0.324h-2.578c-0.015-0.065-0.021-0.137-0.021-0.216v-0.27
	c0-0.482,0.093-0.923,0.279-1.322c0.186-0.399,0.449-0.74,0.79-1.02c0.34-0.281,0.75-0.499,1.23-0.653
	C48.661,48.182,49.198,48.105,49.793,48.105z M51.071,54.852c-0.387,0-0.761,0.029-1.123,0.086
	c-0.362,0.058-0.684,0.158-0.967,0.302c-0.283,0.144-0.51,0.338-0.682,0.583c-0.172,0.245-0.258,0.555-0.258,0.929
	c0,0.403,0.102,0.721,0.306,0.955s0.532,0.351,0.983,0.351c0.315,0,0.582-0.068,0.8-0.205c0.218-0.137,0.397-0.322,0.537-0.556
	s0.242-0.503,0.306-0.81c0.064-0.306,0.097-0.631,0.097-0.977V54.852z M64.831,60H62.64l-0.269-1.436h-0.129
	c-0.15,0.23-0.322,0.448-0.516,0.653s-0.412,0.385-0.655,0.54c-0.244,0.155-0.512,0.279-0.806,0.372
	c-0.294,0.094-0.612,0.141-0.956,0.141c-0.444,0-0.854-0.067-1.23-0.2c-0.376-0.133-0.7-0.347-0.972-0.643
	c-0.272-0.295-0.485-0.682-0.639-1.16c-0.154-0.479-0.231-1.06-0.231-1.744v-8.15h2.632v7.427c0,0.749,0.13,1.278,0.392,1.587
	c0.261,0.31,0.639,0.464,1.133,0.464c0.258,0,0.496-0.058,0.714-0.173c0.218-0.115,0.408-0.273,0.569-0.475
	c0.161-0.201,0.288-0.442,0.381-0.723c0.093-0.281,0.14-0.583,0.14-0.907v-7.2h2.632V60z M71.062,48.105
	c0.551,0,1.065,0.072,1.542,0.216c0.476,0.144,0.892,0.351,1.246,0.621s0.632,0.601,0.833,0.993c0.2,0.392,0.301,0.836,0.301,1.333
	c0,0.123-0.005,0.234-0.016,0.335c-0.011,0.101-0.016,0.158-0.016,0.172h-2.675c0-0.518-0.117-0.897-0.349-1.139
	c-0.233-0.241-0.55-0.362-0.951-0.362c-0.408,0-0.738,0.103-0.988,0.308c-0.251,0.205-0.376,0.484-0.376,0.837
	c0,0.28,0.081,0.505,0.242,0.674c0.161,0.169,0.374,0.31,0.639,0.421c0.265,0.111,0.567,0.208,0.908,0.291
	c0.34,0.083,0.686,0.177,1.037,0.281c0.351,0.104,0.696,0.232,1.037,0.383c0.34,0.151,0.643,0.356,0.908,0.615
	c0.265,0.259,0.478,0.583,0.639,0.972s0.242,0.871,0.242,1.446c0,0.712-0.109,1.308-0.328,1.787
	c-0.219,0.479-0.52,0.865-0.902,1.161c-0.383,0.295-0.838,0.505-1.364,0.631c-0.526,0.125-1.098,0.189-1.713,0.189
	c-0.666,0-1.259-0.088-1.778-0.265c-0.52-0.176-0.96-0.426-1.321-0.75c-0.362-0.324-0.636-0.712-0.822-1.166
	c-0.187-0.454-0.279-0.957-0.279-1.511v-0.086c0-0.036,0.003-0.068,0.011-0.097c0-0.029,0.003-0.058,0.011-0.086h2.675v0.151
	c0.007,0.31,0.059,0.568,0.156,0.777c0.097,0.208,0.22,0.377,0.371,0.507c0.15,0.129,0.318,0.221,0.505,0.275
	c0.186,0.054,0.372,0.081,0.559,0.081c0.172,0,0.349-0.021,0.532-0.065c0.183-0.043,0.349-0.113,0.5-0.21s0.272-0.227,0.365-0.388
	c0.093-0.162,0.14-0.362,0.14-0.599c0-0.31-0.081-0.558-0.242-0.745c-0.161-0.187-0.375-0.343-0.639-0.47
	c-0.265-0.125-0.568-0.233-0.908-0.324c-0.34-0.09-0.686-0.189-1.037-0.297c-0.351-0.108-0.697-0.237-1.037-0.389
	c-0.34-0.151-0.643-0.352-0.908-0.604c-0.265-0.251-0.478-0.568-0.639-0.95s-0.242-0.853-0.242-1.414
	c0-0.59,0.107-1.106,0.322-1.549c0.215-0.443,0.508-0.812,0.881-1.106c0.372-0.295,0.809-0.517,1.311-0.664
	C69.94,48.179,70.481,48.105,71.062,48.105z M80.116,43.841c0.15,0,0.315,0.007,0.494,0.022c0.179,0.014,0.354,0.034,0.526,0.059
	c0.172,0.025,0.336,0.054,0.494,0.086c0.157,0.032,0.29,0.063,0.397,0.092v1.976h-1.074c-0.616,0-0.924,0.316-0.924,0.95v1.349
	h1.998v2.235H80.03V60h-2.643v-9.391h-1.171v-2.235h1.171V46.96c0-0.389,0.043-0.77,0.129-1.144s0.232-0.707,0.44-0.999
	c0.208-0.292,0.487-0.527,0.838-0.707C79.146,43.931,79.586,43.841,80.116,43.841z M87.545,48.105c1.54,0,2.694,0.491,3.464,1.473
	c0.77,0.982,1.155,2.517,1.155,4.604s-0.385,3.624-1.155,4.609c-0.77,0.986-1.925,1.479-3.464,1.479
	c-1.54,0-2.695-0.493-3.464-1.479c-0.77-0.986-1.155-2.522-1.155-4.609s0.385-3.622,1.155-4.604
	C84.85,48.596,86.005,48.105,87.545,48.105z M87.545,50.339c-0.681,0-1.162,0.293-1.445,0.88c-0.283,0.586-0.424,1.434-0.424,2.542
	v0.842c0,1.116,0.141,1.967,0.424,2.553c0.283,0.586,0.764,0.879,1.445,0.879c0.68,0,1.162-0.293,1.445-0.879
	c0.283-0.586,0.424-1.438,0.424-2.553v-0.842c0-1.108-0.142-1.956-0.424-2.542C88.707,50.633,88.225,50.339,87.545,50.339z
	 M98.878,48.105c0.165,0,0.315,0.011,0.451,0.032c0.136,0.021,0.254,0.043,0.354,0.065c0.114,0.029,0.211,0.058,0.29,0.086v2.558
	h-0.945c-0.287,0-0.561,0.043-0.822,0.129c-0.262,0.086-0.491,0.232-0.688,0.438c-0.197,0.205-0.354,0.479-0.473,0.82
	s-0.177,0.771-0.177,1.29V60h-2.632V48.375h2.191l0.312,1.695h0.129c0.079-0.245,0.172-0.484,0.279-0.718s0.242-0.442,0.403-0.626
	s0.349-0.333,0.564-0.448C98.33,48.163,98.584,48.105,98.878,48.105z M109.831,60h-2.191l-0.269-1.436h-0.107
	c-0.287,0.561-0.657,0.986-1.112,1.273c-0.455,0.288-0.958,0.432-1.509,0.432c-0.573,0-1.089-0.121-1.547-0.362
	c-0.458-0.241-0.849-0.611-1.171-1.112c-0.322-0.5-0.569-1.133-0.741-1.9c-0.172-0.766-0.258-1.679-0.258-2.736
	c0-1.058,0.091-1.968,0.274-2.731s0.433-1.391,0.752-1.884c0.318-0.493,0.696-0.856,1.133-1.09c0.437-0.234,0.913-0.351,1.429-0.351
	c0.58,0,1.101,0.126,1.563,0.377c0.462,0.252,0.796,0.612,1.004,1.08h0.118v-5.548h2.632V60z M105.438,50.512
	c-0.638,0-1.09,0.28-1.359,0.842s-0.403,1.364-0.403,2.407v0.842c0,1.051,0.134,1.855,0.403,2.413
	c0.269,0.558,0.721,0.837,1.359,0.837c0.637,0,1.09-0.279,1.359-0.837c0.269-0.558,0.403-1.362,0.403-2.413v-0.788
	c0-0.525-0.032-0.993-0.097-1.403c-0.064-0.411-0.167-0.756-0.306-1.037s-0.321-0.495-0.542-0.642
	C106.032,50.586,105.76,50.512,105.438,50.512z M116.146,48.105c1.396,0,2.443,0.491,3.137,1.473
	c0.695,0.982,1.043,2.517,1.043,4.604v0.669h-5.877c0.008,0.518,0.045,0.979,0.113,1.382c0.068,0.403,0.172,0.743,0.312,1.02
	c0.139,0.277,0.32,0.487,0.541,0.631c0.223,0.144,0.494,0.216,0.816,0.216c0.451,0,0.812-0.194,1.08-0.583
	c0.27-0.389,0.402-0.932,0.402-1.63h2.611c0,0.749-0.102,1.398-0.307,1.948c-0.203,0.551-0.488,1.006-0.854,1.366
	s-0.799,0.628-1.301,0.804c-0.5,0.176-1.045,0.265-1.633,0.265c-1.482,0-2.607-0.493-3.377-1.479
	c-0.771-0.986-1.156-2.522-1.156-4.609s0.383-3.622,1.15-4.604C113.615,48.596,114.715,48.105,116.146,48.105z M116.146,50.274
	c-0.559,0-0.965,0.23-1.219,0.691c-0.254,0.461-0.402,1.116-0.445,1.965h3.072c0-0.849-0.113-1.504-0.338-1.965
	C116.99,50.505,116.635,50.274,116.146,50.274z M126.877,48.105c0.166,0,0.316,0.011,0.451,0.032
	c0.137,0.021,0.254,0.043,0.355,0.065c0.113,0.029,0.211,0.058,0.289,0.086v2.558h-0.945c-0.285,0-0.561,0.043-0.82,0.129
	c-0.262,0.086-0.492,0.232-0.688,0.438c-0.197,0.205-0.355,0.479-0.473,0.82c-0.119,0.342-0.178,0.771-0.178,1.29V60h-2.633V48.375
	h2.191l0.312,1.695h0.129c0.078-0.245,0.172-0.484,0.279-0.718s0.242-0.442,0.402-0.626c0.162-0.184,0.35-0.333,0.564-0.448
	C126.33,48.163,126.584,48.105,126.877,48.105z M137.83,60h-2.191l-0.268-1.436h-0.129c-0.15,0.23-0.322,0.448-0.516,0.653
	s-0.412,0.385-0.656,0.54c-0.242,0.155-0.512,0.279-0.805,0.372c-0.295,0.094-0.613,0.141-0.957,0.141
	c-0.443,0-0.854-0.067-1.229-0.2c-0.377-0.133-0.701-0.347-0.973-0.643c-0.273-0.295-0.486-0.682-0.639-1.16
	c-0.154-0.479-0.232-1.06-0.232-1.744v-8.15h2.633v7.427c0,0.749,0.131,1.278,0.393,1.587c0.26,0.31,0.639,0.464,1.133,0.464
	c0.258,0,0.496-0.058,0.715-0.173c0.217-0.115,0.408-0.273,0.568-0.475c0.162-0.201,0.289-0.442,0.381-0.723
	c0.094-0.281,0.141-0.583,0.141-0.907v-7.2h2.631V60z M145.758,48.105c0.445,0,0.855,0.066,1.23,0.2
	c0.377,0.133,0.699,0.347,0.973,0.642c0.271,0.295,0.484,0.68,0.639,1.155c0.154,0.475,0.23,1.054,0.23,1.738V60h-2.631v-7.427
	c0-0.748-0.137-1.279-0.408-1.592c-0.273-0.313-0.645-0.469-1.117-0.469c-0.258,0-0.498,0.059-0.721,0.178
	c-0.221,0.119-0.412,0.285-0.574,0.497c-0.16,0.212-0.287,0.459-0.375,0.74c-0.09,0.281-0.135,0.583-0.135,0.907V60h-2.633V48.375
	h2.191l0.27,1.436h0.129c0.15-0.223,0.322-0.439,0.516-0.648c0.193-0.208,0.412-0.39,0.654-0.545
	c0.244-0.155,0.512-0.279,0.807-0.373C145.096,48.152,145.414,48.105,145.758,48.105z M160.711,46.432
	c0,0.828-0.164,1.482-0.494,1.965c-0.328,0.482-0.787,0.813-1.375,0.993c0.301,0.331,0.531,0.723,0.688,1.176
	c0.158,0.454,0.236,0.954,0.236,1.5c0,0.598-0.092,1.139-0.279,1.625c-0.186,0.486-0.457,0.901-0.816,1.247
	c-0.357,0.345-0.805,0.612-1.342,0.799s-1.154,0.28-1.848,0.28h-1.096c-0.236,0-0.428,0.069-0.574,0.205
	c-0.148,0.137-0.221,0.306-0.221,0.507c0,0.202,0.062,0.366,0.188,0.491c0.125,0.126,0.289,0.189,0.488,0.189h4.008
	c0.365,0,0.707,0.07,1.025,0.21c0.318,0.141,0.598,0.344,0.838,0.61c0.24,0.267,0.43,0.587,0.57,0.961
	c0.139,0.374,0.209,0.792,0.209,1.252c0,0.54-0.1,1.031-0.295,1.474c-0.197,0.442-0.465,0.82-0.801,1.133
	c-0.338,0.313-0.732,0.554-1.188,0.724c-0.455,0.169-0.939,0.253-1.455,0.253h-4.254c-0.352,0-0.682-0.065-0.988-0.194
	c-0.309-0.129-0.578-0.313-0.811-0.55c-0.234-0.238-0.416-0.52-0.549-0.848s-0.199-0.689-0.199-1.085
	c0-0.576,0.141-1.056,0.42-1.441s0.629-0.692,1.053-0.923c-0.287-0.18-0.512-0.416-0.678-0.707
	c-0.164-0.292-0.246-0.639-0.246-1.042c0-0.252,0.045-0.484,0.135-0.696c0.088-0.212,0.211-0.405,0.365-0.578
	c0.152-0.173,0.334-0.322,0.541-0.448c0.209-0.125,0.426-0.228,0.656-0.308c-0.467-0.345-0.816-0.782-1.053-1.312
	c-0.236-0.529-0.355-1.139-0.355-1.83c0-0.597,0.092-1.139,0.275-1.625c0.182-0.486,0.453-0.901,0.816-1.247
	c0.361-0.346,0.807-0.614,1.336-0.804c0.531-0.191,1.143-0.286,1.838-0.286c0.365,0,0.711,0.027,1.037,0.081
	c0.324,0.054,0.623,0.138,0.896,0.253c0.221-0.158,0.404-0.333,0.547-0.523c0.145-0.19,0.258-0.379,0.344-0.567
	c0.086-0.187,0.146-0.361,0.184-0.523c0.035-0.162,0.053-0.293,0.053-0.394H160.711z M154.094,59.871
	c-0.15,0-0.287,0.029-0.412,0.086c-0.127,0.057-0.236,0.135-0.334,0.232c-0.096,0.097-0.172,0.208-0.225,0.334
	c-0.055,0.126-0.082,0.261-0.082,0.405c0,0.331,0.102,0.594,0.301,0.788c0.201,0.194,0.451,0.292,0.752,0.292h2.965
	c0.338,0,0.619-0.097,0.85-0.292c0.229-0.194,0.344-0.457,0.344-0.788s-0.104-0.59-0.312-0.777
	c-0.207-0.188-0.461-0.281-0.762-0.281H154.094z M155.48,50.069c-0.537,0-0.943,0.177-1.219,0.529
	c-0.277,0.353-0.414,0.842-0.414,1.468c0,0.619,0.137,1.105,0.414,1.458c0.275,0.353,0.682,0.529,1.219,0.529
	c0.551,0,0.965-0.176,1.24-0.529s0.414-0.838,0.414-1.458c0-0.626-0.139-1.115-0.414-1.468S156.031,50.069,155.48,50.069z
	 M166.146,48.105c1.396,0,2.443,0.491,3.137,1.473c0.695,0.982,1.043,2.517,1.043,4.604v0.669h-5.877
	c0.008,0.518,0.045,0.979,0.113,1.382c0.068,0.403,0.172,0.743,0.312,1.02c0.139,0.277,0.32,0.487,0.541,0.631
	c0.223,0.144,0.494,0.216,0.816,0.216c0.451,0,0.812-0.194,1.08-0.583c0.27-0.389,0.402-0.932,0.402-1.63h2.611
	c0,0.749-0.102,1.398-0.307,1.948c-0.203,0.551-0.488,1.006-0.854,1.366s-0.799,0.628-1.301,0.804
	c-0.5,0.176-1.045,0.265-1.633,0.265c-1.482,0-2.607-0.493-3.377-1.479c-0.771-0.986-1.156-2.522-1.156-4.609
	s0.383-3.622,1.15-4.604C163.615,48.596,164.715,48.105,166.146,48.105z M166.146,50.274c-0.559,0-0.965,0.23-1.219,0.691
	c-0.254,0.461-0.402,1.116-0.445,1.965h3.072c0-0.849-0.113-1.504-0.338-1.965C166.99,50.505,166.635,50.274,166.146,50.274z
	 M177.758,48.105c0.445,0,0.855,0.066,1.23,0.2c0.377,0.133,0.699,0.347,0.973,0.642c0.271,0.295,0.484,0.68,0.639,1.155
	c0.154,0.475,0.23,1.054,0.23,1.738V60h-2.631v-7.427c0-0.748-0.137-1.279-0.408-1.592c-0.273-0.313-0.645-0.469-1.117-0.469
	c-0.258,0-0.498,0.059-0.721,0.178c-0.221,0.119-0.412,0.285-0.574,0.497c-0.16,0.212-0.287,0.459-0.375,0.74
	c-0.09,0.281-0.135,0.583-0.135,0.907V60h-2.633V48.375h2.191l0.27,1.436h0.129c0.15-0.223,0.322-0.439,0.516-0.648
	c0.193-0.208,0.412-0.39,0.654-0.545c0.244-0.155,0.512-0.279,0.807-0.373C177.096,48.152,177.414,48.105,177.758,48.105z
	 M186.051,60h-3.039v-3.033h3.039V60z M16.366,70.834h2.814v10.32c0,0.878,0.204,1.543,0.612,1.997
	c0.408,0.453,0.988,0.68,1.74,0.68s1.335-0.227,1.751-0.68c0.415-0.454,0.623-1.119,0.623-1.997v-10.32h2.825v10.417
	c0,0.82-0.12,1.543-0.36,2.169c-0.24,0.626-0.584,1.15-1.031,1.571c-0.448,0.421-0.992,0.739-1.633,0.955
	c-0.641,0.216-1.366,0.324-2.175,0.324c-0.81,0-1.533-0.108-2.17-0.324c-0.638-0.216-1.178-0.534-1.622-0.955
	c-0.444-0.421-0.784-0.944-1.021-1.571c-0.236-0.626-0.354-1.349-0.354-2.169V70.834z M34.759,74.105c0.444,0,0.854,0.066,1.23,0.2
	s0.7,0.347,0.972,0.642c0.272,0.295,0.485,0.68,0.639,1.155c0.154,0.475,0.231,1.054,0.231,1.738V86h-2.632v-7.427
	c0-0.748-0.136-1.279-0.408-1.592c-0.272-0.313-0.645-0.469-1.117-0.469c-0.258,0-0.498,0.059-0.72,0.178
	c-0.222,0.119-0.414,0.285-0.575,0.497c-0.161,0.212-0.287,0.459-0.376,0.74c-0.09,0.281-0.134,0.583-0.134,0.907V86h-2.632V74.375
	h2.191l0.269,1.436h0.129c0.15-0.223,0.322-0.439,0.516-0.648c0.193-0.208,0.412-0.39,0.655-0.545
	c0.243-0.155,0.512-0.279,0.806-0.373C34.096,74.152,34.415,74.105,34.759,74.105z M48.831,86H46.64l-0.269-1.436h-0.107
	c-0.287,0.561-0.657,0.986-1.112,1.273c-0.455,0.288-0.958,0.432-1.509,0.432c-0.573,0-1.089-0.121-1.547-0.362
	c-0.458-0.241-0.849-0.611-1.171-1.112c-0.322-0.5-0.569-1.133-0.741-1.9c-0.172-0.766-0.258-1.679-0.258-2.736
	c0-1.058,0.091-1.968,0.274-2.731s0.433-1.391,0.752-1.884c0.318-0.493,0.696-0.856,1.133-1.09c0.437-0.234,0.913-0.351,1.429-0.351
	c0.58,0,1.101,0.126,1.563,0.377c0.462,0.252,0.796,0.612,1.004,1.08h0.118v-5.548h2.632V86z M44.438,76.512
	c-0.638,0-1.09,0.28-1.359,0.842s-0.403,1.364-0.403,2.407v0.842c0,1.051,0.134,1.855,0.403,2.413
	c0.269,0.558,0.721,0.837,1.359,0.837c0.637,0,1.09-0.279,1.359-0.837c0.269-0.558,0.403-1.362,0.403-2.413v-0.788
	c0-0.525-0.032-0.993-0.097-1.403c-0.064-0.411-0.167-0.756-0.306-1.037s-0.321-0.495-0.542-0.642
	C45.032,76.586,44.76,76.512,44.438,76.512z M66.238,86h-2.653l-1.149-5.548c-0.058-0.295-0.107-0.61-0.15-0.945
	c-0.043-0.334-0.079-0.646-0.107-0.934c-0.029-0.338-0.054-0.669-0.075-0.993h-0.129c-0.021,0.317-0.047,0.641-0.075,0.972
	c-0.029,0.281-0.064,0.588-0.107,0.923s-0.093,0.653-0.15,0.956L60.523,86h-2.664l-2.814-11.626h2.643l1.096,4.771
	c0.086,0.396,0.159,0.808,0.22,1.236c0.061,0.428,0.109,0.822,0.145,1.182c0.043,0.417,0.075,0.828,0.097,1.23h0.086
	c0.028-0.381,0.068-0.777,0.118-1.188c0.036-0.353,0.086-0.743,0.15-1.171s0.136-0.851,0.215-1.269l0.999-4.793h2.632l0.999,4.814
	c0.057,0.288,0.114,0.635,0.172,1.042c0.057,0.406,0.111,0.8,0.161,1.182c0.05,0.446,0.1,0.907,0.15,1.382h0.086
	c0.057-0.446,0.118-0.885,0.183-1.317c0.057-0.367,0.118-0.757,0.183-1.171c0.064-0.414,0.132-0.786,0.204-1.117l1.01-4.814h2.449
	L66.238,86z M72.848,72.432h-2.632v-2.418h2.632V72.432z M72.848,86h-2.632V74.375h2.632V86z M79.878,74.105
	c0.165,0,0.315,0.011,0.451,0.032c0.136,0.021,0.254,0.043,0.354,0.065c0.114,0.029,0.211,0.058,0.29,0.086v2.558h-0.945
	c-0.287,0-0.561,0.043-0.822,0.129c-0.262,0.086-0.491,0.232-0.688,0.438c-0.197,0.205-0.354,0.479-0.473,0.82
	s-0.177,0.771-0.177,1.29V86h-2.632V74.375h2.191l0.312,1.695h0.129c0.079-0.245,0.172-0.484,0.279-0.718s0.242-0.442,0.403-0.626
	s0.349-0.333,0.564-0.448C79.33,74.163,79.584,74.105,79.878,74.105z M89.697,84.565L89.429,86h-2.191V70.014h2.632v5.548h0.118
	c0.208-0.468,0.542-0.827,1.004-1.08c0.462-0.251,0.983-0.377,1.563-0.377c0.516,0,0.992,0.117,1.429,0.351
	c0.437,0.234,0.814,0.598,1.133,1.09c0.318,0.493,0.569,1.121,0.752,1.884s0.274,1.673,0.274,2.731c0,1.058-0.086,1.97-0.258,2.736
	c-0.172,0.767-0.419,1.4-0.741,1.9c-0.322,0.5-0.713,0.871-1.171,1.112c-0.458,0.241-0.974,0.362-1.547,0.362
	c-0.552,0-1.053-0.144-1.504-0.432c-0.451-0.288-0.824-0.712-1.117-1.273H89.697z M89.869,80.603c0,1.051,0.134,1.855,0.403,2.413
	c0.269,0.558,0.721,0.837,1.359,0.837c0.637,0,1.09-0.279,1.359-0.837c0.269-0.558,0.403-1.362,0.403-2.413v-0.842
	c0-1.043-0.134-1.846-0.403-2.407s-0.722-0.842-1.359-0.842c-0.322,0-0.595,0.074-0.816,0.221c-0.222,0.147-0.403,0.361-0.542,0.642
	s-0.242,0.626-0.306,1.037c-0.064,0.41-0.097,0.878-0.097,1.403V80.603z M102.878,74.105c0.165,0,0.315,0.011,0.451,0.032
	c0.136,0.021,0.254,0.043,0.354,0.065c0.114,0.029,0.211,0.058,0.29,0.086v2.558h-0.945c-0.287,0-0.561,0.043-0.822,0.129
	c-0.262,0.086-0.491,0.232-0.688,0.438c-0.197,0.205-0.354,0.479-0.473,0.82s-0.177,0.771-0.177,1.29V86h-2.632V74.375h2.191
	l0.312,1.695h0.129c0.079-0.245,0.172-0.484,0.279-0.718s0.242-0.442,0.403-0.626s0.349-0.333,0.564-0.448
	C102.33,74.163,102.584,74.105,102.878,74.105z M108.793,74.105c1.34,0,2.332,0.3,2.977,0.901c0.645,0.601,0.967,1.445,0.967,2.531
	v5.721c0,0.273,0.064,0.471,0.193,0.594c0.129,0.122,0.268,0.183,0.418,0.183h0.537v1.878c-0.143,0.079-0.34,0.158-0.59,0.238
	c-0.252,0.079-0.576,0.119-0.979,0.119c-0.529,0-0.971-0.143-1.32-0.427c-0.352-0.284-0.592-0.653-0.721-1.106h-0.117
	c-0.166,0.23-0.338,0.441-0.517,0.632c-0.179,0.19-0.383,0.353-0.612,0.486c-0.229,0.133-0.489,0.235-0.779,0.308
	c-0.29,0.072-0.628,0.108-1.015,0.108c-0.272,0-0.575-0.045-0.908-0.135s-0.648-0.255-0.945-0.497
	c-0.297-0.241-0.546-0.574-0.747-0.999c-0.201-0.424-0.301-0.975-0.301-1.651c0-0.784,0.141-1.436,0.424-1.954
	c0.283-0.519,0.677-0.934,1.182-1.247s1.11-0.534,1.815-0.664c0.705-0.13,1.477-0.194,2.316-0.194v-1.22
	c0-0.202-0.018-0.389-0.049-0.562c-0.033-0.173-0.092-0.324-0.178-0.454c-0.086-0.129-0.208-0.232-0.365-0.308
	c-0.158-0.075-0.362-0.113-0.612-0.113c-0.272,0-0.498,0.038-0.677,0.113c-0.179,0.076-0.321,0.171-0.424,0.286
	c-0.104,0.115-0.177,0.247-0.22,0.394s-0.064,0.29-0.064,0.426v0.324h-2.578c-0.015-0.065-0.021-0.137-0.021-0.216v-0.27
	c0-0.482,0.093-0.923,0.279-1.322c0.186-0.399,0.449-0.74,0.79-1.02c0.34-0.281,0.75-0.499,1.23-0.653
	C107.661,74.182,108.198,74.105,108.793,74.105z M110.072,80.852c-0.388,0-0.762,0.029-1.124,0.086
	c-0.362,0.058-0.684,0.158-0.967,0.302c-0.283,0.144-0.51,0.338-0.682,0.583c-0.172,0.245-0.258,0.555-0.258,0.929
	c0,0.403,0.102,0.721,0.306,0.955s0.532,0.351,0.983,0.351c0.315,0,0.582-0.068,0.8-0.205c0.218-0.137,0.397-0.322,0.537-0.556
	s0.242-0.503,0.306-0.81c0.064-0.306,0.098-0.631,0.098-0.977V80.852z M123.83,86h-2.191l-0.268-1.436h-0.129
	c-0.15,0.23-0.322,0.448-0.516,0.653s-0.412,0.385-0.656,0.54c-0.242,0.155-0.512,0.279-0.805,0.372
	c-0.295,0.094-0.613,0.141-0.957,0.141c-0.443,0-0.854-0.067-1.229-0.2c-0.377-0.133-0.701-0.347-0.973-0.643
	c-0.273-0.295-0.486-0.682-0.639-1.16c-0.154-0.479-0.232-1.06-0.232-1.744v-8.15h2.633v7.427c0,0.749,0.131,1.278,0.393,1.587
	c0.26,0.31,0.639,0.464,1.133,0.464c0.258,0,0.496-0.058,0.715-0.173c0.217-0.115,0.408-0.273,0.568-0.475
	c0.162-0.201,0.289-0.442,0.381-0.723c0.094-0.281,0.141-0.583,0.141-0.907v-7.2h2.631V86z M130.211,74.105
	c0.617,0,1.176,0.09,1.676,0.27c0.502,0.18,0.928,0.459,1.279,0.837c0.35,0.377,0.621,0.858,0.811,1.441s0.285,1.281,0.285,2.094
	h-2.707c0-0.82-0.111-1.427-0.334-1.819c-0.221-0.392-0.559-0.588-1.01-0.588c-0.559,0-0.953,0.292-1.186,0.875
	c-0.234,0.583-0.35,1.432-0.35,2.547v0.842c0,1.116,0.123,1.967,0.371,2.553c0.246,0.586,0.666,0.879,1.262,0.879
	c0.473,0,0.812-0.201,1.02-0.604c0.209-0.403,0.312-1.007,0.312-1.813h2.621c0,0.813-0.094,1.513-0.279,2.1
	c-0.188,0.587-0.451,1.069-0.795,1.447c-0.344,0.377-0.76,0.657-1.246,0.836c-0.488,0.18-1.031,0.27-1.633,0.27
	c-0.752,0-1.404-0.121-1.955-0.362c-0.553-0.241-1.008-0.611-1.369-1.112c-0.363-0.5-0.629-1.133-0.801-1.9
	c-0.172-0.766-0.258-1.671-0.258-2.715c0-2.087,0.355-3.622,1.068-4.604C127.707,74.596,128.779,74.105,130.211,74.105z
	 M138.869,75.605h0.096c0.129-0.18,0.283-0.36,0.463-0.54c0.178-0.18,0.383-0.34,0.611-0.48c0.23-0.141,0.488-0.255,0.773-0.346
	c0.287-0.09,0.602-0.135,0.945-0.135c0.445,0,0.855,0.066,1.23,0.2c0.377,0.133,0.699,0.347,0.973,0.642
	c0.271,0.295,0.484,0.68,0.639,1.155c0.154,0.475,0.23,1.054,0.23,1.738V86h-2.631v-7.427c0-0.748-0.137-1.279-0.408-1.592
	c-0.273-0.313-0.645-0.469-1.117-0.469c-0.258,0-0.498,0.059-0.721,0.178c-0.221,0.119-0.412,0.285-0.574,0.497
	c-0.16,0.212-0.287,0.459-0.375,0.74c-0.09,0.281-0.135,0.583-0.135,0.907V86h-2.633V70.014h2.633V75.605z M151.146,74.105
	c1.396,0,2.443,0.491,3.137,1.473c0.695,0.982,1.043,2.517,1.043,4.604v0.669h-5.877c0.008,0.518,0.045,0.979,0.113,1.382
	c0.068,0.403,0.172,0.743,0.312,1.02c0.139,0.277,0.32,0.487,0.541,0.631c0.223,0.144,0.494,0.216,0.816,0.216
	c0.451,0,0.812-0.194,1.08-0.583c0.27-0.389,0.402-0.932,0.402-1.63h2.611c0,0.749-0.102,1.398-0.307,1.948
	c-0.203,0.551-0.488,1.006-0.854,1.366s-0.799,0.628-1.301,0.804c-0.5,0.176-1.045,0.265-1.633,0.265
	c-1.482,0-2.607-0.493-3.377-1.479c-0.771-0.986-1.156-2.522-1.156-4.609s0.383-3.622,1.15-4.604
	C148.615,74.596,149.715,74.105,151.146,74.105z M151.146,76.274c-0.559,0-0.965,0.23-1.219,0.691
	c-0.254,0.461-0.402,1.116-0.445,1.965h3.072c0-0.849-0.113-1.504-0.338-1.965C151.99,76.505,151.635,76.274,151.146,76.274z
	 M162.758,74.105c0.445,0,0.855,0.066,1.23,0.2c0.377,0.133,0.699,0.347,0.973,0.642c0.271,0.295,0.484,0.68,0.639,1.155
	c0.154,0.475,0.23,1.054,0.23,1.738V86h-2.631v-7.427c0-0.748-0.137-1.279-0.408-1.592c-0.273-0.313-0.645-0.469-1.117-0.469
	c-0.258,0-0.498,0.059-0.721,0.178c-0.221,0.119-0.412,0.285-0.574,0.497c-0.16,0.212-0.287,0.459-0.375,0.74
	c-0.09,0.281-0.135,0.583-0.135,0.907V86h-2.633V74.375h2.191l0.27,1.436h0.129c0.15-0.223,0.322-0.439,0.516-0.648
	c0.193-0.208,0.412-0.39,0.654-0.545c0.244-0.155,0.512-0.279,0.807-0.373C162.096,74.152,162.414,74.105,162.758,74.105z
	 M177.061,74.105c0.553,0,1.066,0.072,1.543,0.216c0.475,0.144,0.891,0.351,1.246,0.621c0.354,0.27,0.631,0.601,0.832,0.993
	c0.199,0.392,0.301,0.836,0.301,1.333c0,0.123-0.006,0.234-0.016,0.335c-0.012,0.101-0.018,0.158-0.018,0.172h-2.674
	c0-0.518-0.117-0.897-0.35-1.139s-0.549-0.362-0.951-0.362c-0.408,0-0.736,0.103-0.988,0.308c-0.25,0.205-0.375,0.484-0.375,0.837
	c0,0.28,0.08,0.505,0.242,0.674c0.16,0.169,0.373,0.31,0.639,0.421c0.264,0.111,0.566,0.208,0.908,0.291
	c0.34,0.083,0.686,0.177,1.035,0.281c0.352,0.104,0.697,0.232,1.037,0.383c0.34,0.151,0.643,0.356,0.908,0.615
	c0.264,0.259,0.479,0.583,0.639,0.972c0.162,0.389,0.242,0.871,0.242,1.446c0,0.712-0.109,1.308-0.328,1.787
	s-0.52,0.865-0.902,1.161c-0.383,0.295-0.838,0.505-1.363,0.631c-0.527,0.125-1.098,0.189-1.715,0.189
	c-0.666,0-1.258-0.088-1.777-0.265s-0.959-0.426-1.32-0.75c-0.363-0.324-0.637-0.712-0.822-1.166
	c-0.188-0.454-0.279-0.957-0.279-1.511v-0.086c0-0.036,0.004-0.068,0.01-0.097c0-0.029,0.004-0.058,0.012-0.086h2.674v0.151
	c0.008,0.31,0.061,0.568,0.156,0.777c0.098,0.208,0.221,0.377,0.371,0.507c0.15,0.129,0.318,0.221,0.504,0.275
	c0.188,0.054,0.373,0.081,0.559,0.081c0.172,0,0.35-0.021,0.533-0.065c0.182-0.043,0.348-0.113,0.498-0.21s0.273-0.227,0.365-0.388
	c0.094-0.162,0.141-0.362,0.141-0.599c0-0.31-0.08-0.558-0.242-0.745c-0.16-0.187-0.375-0.343-0.639-0.47
	c-0.266-0.125-0.568-0.233-0.908-0.324c-0.34-0.09-0.686-0.189-1.037-0.297c-0.35-0.108-0.695-0.237-1.035-0.389
	c-0.342-0.151-0.645-0.352-0.908-0.604c-0.266-0.251-0.479-0.568-0.639-0.95c-0.162-0.381-0.242-0.853-0.242-1.414
	c0-0.59,0.107-1.106,0.322-1.549c0.215-0.443,0.508-0.812,0.881-1.106c0.371-0.295,0.809-0.517,1.311-0.664
	C175.939,74.179,176.48,74.105,177.061,74.105z M185.848,72.432h-2.633v-2.418h2.633V72.432z M185.848,86h-2.633V74.375h2.633V86z
	 M192.146,74.105c1.396,0,2.443,0.491,3.137,1.473c0.695,0.982,1.043,2.517,1.043,4.604v0.669h-5.877
	c0.008,0.518,0.045,0.979,0.113,1.382c0.068,0.403,0.172,0.743,0.312,1.02c0.139,0.277,0.32,0.487,0.541,0.631
	c0.223,0.144,0.494,0.216,0.816,0.216c0.451,0,0.812-0.194,1.08-0.583c0.27-0.389,0.402-0.932,0.402-1.63h2.611
	c0,0.749-0.102,1.398-0.307,1.948c-0.203,0.551-0.488,1.006-0.854,1.366s-0.799,0.628-1.301,0.804
	c-0.5,0.176-1.045,0.265-1.633,0.265c-1.482,0-2.607-0.493-3.377-1.479c-0.771-0.986-1.156-2.522-1.156-4.609
	s0.383-3.622,1.15-4.604C189.615,74.596,190.715,74.105,192.146,74.105z M192.146,76.274c-0.559,0-0.965,0.23-1.219,0.691
	c-0.254,0.461-0.402,1.116-0.445,1.965h3.072c0-0.849-0.113-1.504-0.338-1.965C192.99,76.505,192.635,76.274,192.146,76.274z
	 M201.051,86h-3.039v-3.033h3.039V86z M24.219,113l-4.662-8.355c-0.043-0.079-0.102-0.196-0.177-0.351
	c-0.075-0.154-0.152-0.311-0.231-0.469c-0.086-0.187-0.179-0.385-0.279-0.594l-0.086,0.065c0.007,0.166,0.014,0.327,0.021,0.485
	c0.007,0.137,0.012,0.275,0.016,0.416c0.003,0.141,0.005,0.261,0.005,0.362V113h-2.481V97.834h2.481l4.662,8.355
	c0.057,0.101,0.127,0.23,0.209,0.389c0.082,0.159,0.159,0.313,0.231,0.464c0.079,0.18,0.161,0.367,0.247,0.561l0.064-0.064
	c-0.007-0.194-0.011-0.374-0.011-0.54c-0.007-0.144-0.011-0.284-0.011-0.421s0-0.237,0-0.302v-8.441h2.514V113H24.219z M37.831,113
	H35.64l-0.269-1.436h-0.129c-0.15,0.23-0.322,0.448-0.516,0.653s-0.412,0.385-0.655,0.54c-0.244,0.155-0.512,0.279-0.806,0.372
	c-0.294,0.094-0.612,0.141-0.956,0.141c-0.444,0-0.854-0.067-1.23-0.2c-0.376-0.133-0.7-0.347-0.972-0.643
	c-0.272-0.295-0.485-0.682-0.639-1.16c-0.154-0.479-0.231-1.06-0.231-1.744v-8.15h2.632v7.427c0,0.749,0.13,1.278,0.392,1.587
	c0.261,0.31,0.639,0.464,1.133,0.464c0.258,0,0.496-0.058,0.714-0.173c0.218-0.115,0.408-0.273,0.569-0.475
	c0.161-0.201,0.288-0.442,0.381-0.723c0.093-0.281,0.14-0.583,0.14-0.907v-7.2h2.632V113z M44.878,101.105
	c0.165,0,0.315,0.011,0.451,0.032c0.136,0.021,0.254,0.043,0.354,0.065c0.114,0.029,0.211,0.058,0.29,0.086v2.558h-0.945
	c-0.287,0-0.561,0.043-0.822,0.129c-0.262,0.086-0.491,0.232-0.688,0.438c-0.197,0.205-0.354,0.479-0.473,0.82
	s-0.177,0.771-0.177,1.29V113h-2.632v-11.626h2.191l0.312,1.695h0.129c0.079-0.245,0.172-0.484,0.279-0.718s0.242-0.442,0.403-0.626
	s0.349-0.333,0.564-0.448C44.33,101.163,44.584,101.105,44.878,101.105z M56.062,101.105c0.551,0,1.065,0.072,1.542,0.216
	c0.476,0.144,0.892,0.351,1.246,0.621s0.632,0.601,0.833,0.993c0.2,0.392,0.301,0.836,0.301,1.333c0,0.123-0.005,0.234-0.016,0.335
	c-0.011,0.101-0.016,0.158-0.016,0.172h-2.675c0-0.518-0.117-0.897-0.349-1.139c-0.233-0.241-0.55-0.362-0.951-0.362
	c-0.408,0-0.738,0.103-0.988,0.308c-0.251,0.205-0.376,0.484-0.376,0.837c0,0.28,0.081,0.505,0.242,0.674
	c0.161,0.169,0.374,0.31,0.639,0.421c0.265,0.111,0.567,0.208,0.908,0.291c0.34,0.083,0.686,0.177,1.037,0.281
	c0.351,0.104,0.696,0.232,1.037,0.383c0.34,0.151,0.643,0.356,0.908,0.615c0.265,0.259,0.478,0.583,0.639,0.972
	s0.242,0.871,0.242,1.446c0,0.712-0.109,1.308-0.328,1.787c-0.219,0.479-0.52,0.865-0.902,1.161
	c-0.383,0.295-0.838,0.505-1.364,0.631c-0.526,0.125-1.098,0.189-1.713,0.189c-0.666,0-1.259-0.088-1.778-0.265
	c-0.52-0.176-0.96-0.426-1.321-0.75c-0.362-0.324-0.636-0.712-0.822-1.166c-0.187-0.454-0.279-0.957-0.279-1.511v-0.086
	c0-0.036,0.003-0.068,0.011-0.097c0-0.029,0.003-0.058,0.011-0.086h2.675v0.151c0.007,0.31,0.059,0.568,0.156,0.777
	c0.097,0.208,0.22,0.377,0.371,0.507c0.15,0.129,0.318,0.221,0.505,0.275c0.186,0.054,0.372,0.081,0.559,0.081
	c0.172,0,0.349-0.021,0.532-0.065c0.183-0.043,0.349-0.113,0.5-0.21s0.272-0.227,0.365-0.388c0.093-0.162,0.14-0.362,0.14-0.599
	c0-0.31-0.081-0.558-0.242-0.745c-0.161-0.187-0.375-0.343-0.639-0.47c-0.265-0.125-0.568-0.233-0.908-0.324
	c-0.34-0.09-0.686-0.189-1.037-0.297c-0.351-0.108-0.697-0.237-1.037-0.389c-0.34-0.151-0.643-0.352-0.908-0.604
	c-0.265-0.251-0.478-0.568-0.639-0.95s-0.242-0.853-0.242-1.414c0-0.59,0.107-1.106,0.322-1.549
	c0.215-0.443,0.508-0.812,0.881-1.106c0.372-0.295,0.809-0.517,1.311-0.664C54.94,101.179,55.481,101.105,56.062,101.105z
	 M66.545,101.105c1.54,0,2.694,0.491,3.464,1.473c0.77,0.982,1.155,2.517,1.155,4.604s-0.385,3.624-1.155,4.609
	c-0.77,0.986-1.925,1.479-3.464,1.479c-1.54,0-2.695-0.493-3.464-1.479c-0.77-0.986-1.155-2.522-1.155-4.609
	s0.385-3.622,1.155-4.604C63.85,101.596,65.005,101.105,66.545,101.105z M66.545,103.339c-0.681,0-1.162,0.293-1.445,0.88
	c-0.283,0.586-0.424,1.434-0.424,2.542v0.842c0,1.116,0.141,1.967,0.424,2.553c0.283,0.586,0.764,0.879,1.445,0.879
	c0.68,0,1.162-0.293,1.445-0.879c0.283-0.586,0.424-1.438,0.424-2.553v-0.842c0-1.108-0.142-1.956-0.424-2.542
	C67.707,103.633,67.225,103.339,66.545,103.339z M82.147,101.105c1.396,0,2.442,0.491,3.137,1.473
	c0.694,0.982,1.042,2.517,1.042,4.604v0.669H80.45c0.007,0.518,0.044,0.979,0.113,1.382c0.068,0.403,0.172,0.743,0.312,1.02
	c0.14,0.277,0.32,0.487,0.542,0.631c0.222,0.144,0.494,0.216,0.816,0.216c0.451,0,0.811-0.194,1.08-0.583s0.403-0.932,0.403-1.63
	h2.61c0,0.749-0.102,1.398-0.306,1.948c-0.204,0.551-0.489,1.006-0.854,1.366s-0.799,0.628-1.3,0.804
	c-0.501,0.176-1.046,0.265-1.633,0.265c-1.482,0-2.609-0.493-3.378-1.479c-0.77-0.986-1.155-2.522-1.155-4.609
	s0.383-3.622,1.149-4.604C79.616,101.596,80.715,101.105,82.147,101.105z M82.147,103.274c-0.559,0-0.965,0.23-1.219,0.691
	c-0.254,0.461-0.403,1.116-0.446,1.965h3.072c0-0.849-0.113-1.504-0.338-1.965C82.991,103.505,82.634,103.274,82.147,103.274z
	 M93.759,101.105c0.444,0,0.854,0.066,1.23,0.2s0.7,0.347,0.972,0.642c0.272,0.295,0.485,0.68,0.639,1.155
	c0.154,0.475,0.231,1.054,0.231,1.738V113h-2.632v-7.427c0-0.748-0.136-1.279-0.408-1.592c-0.272-0.313-0.645-0.469-1.117-0.469
	c-0.258,0-0.498,0.059-0.72,0.178c-0.222,0.119-0.414,0.285-0.575,0.497c-0.161,0.212-0.287,0.459-0.376,0.74
	c-0.09,0.281-0.134,0.583-0.134,0.907V113h-2.632v-11.626h2.191l0.269,1.436h0.129c0.15-0.223,0.322-0.439,0.516-0.648
	c0.193-0.208,0.412-0.39,0.655-0.545c0.243-0.155,0.512-0.279,0.806-0.373C93.096,101.152,93.415,101.105,93.759,101.105z
	 M102.03,101.375h1.665v2.235h-1.665v6.477c0,0.633,0.308,0.95,0.924,0.95h0.741V113c-0.093,0.036-0.204,0.068-0.333,0.097
	s-0.265,0.058-0.408,0.086c-0.144,0.029-0.287,0.05-0.43,0.064c-0.144,0.015-0.279,0.022-0.408,0.022c-0.53,0-0.971-0.09-1.321-0.27
	c-0.351-0.18-0.63-0.417-0.838-0.712c-0.208-0.295-0.354-0.628-0.44-0.999s-0.129-0.75-0.129-1.139v-6.542h-1.171v-2.235h1.171
	l0.397-3.271h2.245V101.375z M109.062,101.105c0.551,0,1.065,0.072,1.542,0.216s0.891,0.351,1.246,0.621
	c0.354,0.27,0.633,0.601,0.832,0.993c0.201,0.392,0.301,0.836,0.301,1.333c0,0.123-0.006,0.234-0.016,0.335
	c-0.012,0.101-0.016,0.158-0.016,0.172h-2.676c0-0.518-0.115-0.897-0.349-1.139c-0.233-0.241-0.55-0.362-0.951-0.362
	c-0.408,0-0.738,0.103-0.988,0.308c-0.251,0.205-0.376,0.484-0.376,0.837c0,0.28,0.081,0.505,0.242,0.674
	c0.161,0.169,0.374,0.31,0.639,0.421c0.265,0.111,0.567,0.208,0.908,0.291c0.34,0.083,0.686,0.177,1.038,0.281
	c0.35,0.104,0.695,0.232,1.035,0.383c0.342,0.151,0.645,0.356,0.908,0.615c0.266,0.259,0.479,0.583,0.639,0.972
	c0.162,0.389,0.242,0.871,0.242,1.446c0,0.712-0.109,1.308-0.328,1.787c-0.217,0.479-0.518,0.865-0.902,1.161
	c-0.383,0.295-0.838,0.505-1.363,0.631c-0.527,0.125-1.098,0.189-1.714,0.189c-0.666,0-1.259-0.088-1.778-0.265
	c-0.52-0.176-0.96-0.426-1.321-0.75c-0.362-0.324-0.636-0.712-0.822-1.166c-0.187-0.454-0.279-0.957-0.279-1.511v-0.086
	c0-0.036,0.003-0.068,0.011-0.097c0-0.029,0.003-0.058,0.011-0.086h2.675v0.151c0.007,0.31,0.059,0.568,0.156,0.777
	c0.097,0.208,0.22,0.377,0.371,0.507c0.15,0.129,0.318,0.221,0.505,0.275c0.186,0.054,0.372,0.081,0.559,0.081
	c0.172,0,0.349-0.021,0.532-0.065c0.183-0.043,0.349-0.113,0.5-0.21c0.15-0.097,0.271-0.227,0.365-0.388
	c0.092-0.162,0.139-0.362,0.139-0.599c0-0.31-0.08-0.558-0.242-0.745c-0.16-0.187-0.374-0.343-0.639-0.47
	c-0.265-0.125-0.568-0.233-0.908-0.324c-0.34-0.09-0.686-0.189-1.037-0.297c-0.351-0.108-0.697-0.237-1.037-0.389
	c-0.34-0.151-0.643-0.352-0.908-0.604c-0.265-0.251-0.478-0.568-0.639-0.95s-0.242-0.853-0.242-1.414
	c0-0.59,0.107-1.106,0.322-1.549c0.215-0.443,0.508-0.812,0.881-1.106c0.372-0.295,0.809-0.517,1.311-0.664
	C107.94,101.179,108.481,101.105,109.062,101.105z M118.029,101.375h1.666v2.235h-1.666v6.477c0,0.633,0.309,0.95,0.924,0.95h0.742
	V113c-0.094,0.036-0.205,0.068-0.334,0.097s-0.264,0.058-0.408,0.086c-0.143,0.029-0.285,0.05-0.43,0.064
	c-0.143,0.015-0.279,0.022-0.408,0.022c-0.529,0-0.971-0.09-1.32-0.27c-0.352-0.18-0.631-0.417-0.838-0.712
	c-0.209-0.295-0.355-0.628-0.441-0.999s-0.129-0.75-0.129-1.139v-6.542h-1.17v-2.235h1.17l0.398-3.271h2.244V101.375z
	 M125.146,101.105c1.396,0,2.443,0.491,3.137,1.473c0.695,0.982,1.043,2.517,1.043,4.604v0.669h-5.877
	c0.008,0.518,0.045,0.979,0.113,1.382c0.068,0.403,0.172,0.743,0.312,1.02c0.139,0.277,0.32,0.487,0.541,0.631
	c0.223,0.144,0.494,0.216,0.816,0.216c0.451,0,0.812-0.194,1.08-0.583c0.27-0.389,0.402-0.932,0.402-1.63h2.611
	c0,0.749-0.102,1.398-0.307,1.948c-0.203,0.551-0.488,1.006-0.854,1.366s-0.799,0.628-1.301,0.804
	c-0.5,0.176-1.045,0.265-1.633,0.265c-1.482,0-2.607-0.493-3.377-1.479c-0.771-0.986-1.156-2.522-1.156-4.609
	s0.383-3.622,1.15-4.604C122.615,101.596,123.715,101.105,125.146,101.105z M125.146,103.274c-0.559,0-0.965,0.23-1.219,0.691
	c-0.254,0.461-0.402,1.116-0.445,1.965h3.072c0-0.849-0.113-1.504-0.338-1.965C125.99,103.505,125.635,103.274,125.146,103.274z
	 M133.869,102.605h0.096c0.129-0.18,0.283-0.36,0.463-0.54c0.178-0.18,0.383-0.34,0.611-0.48c0.23-0.141,0.488-0.255,0.773-0.346
	c0.287-0.09,0.602-0.135,0.945-0.135c0.445,0,0.855,0.066,1.23,0.2c0.377,0.133,0.699,0.347,0.973,0.642
	c0.271,0.295,0.484,0.68,0.639,1.155c0.154,0.475,0.23,1.054,0.23,1.738V113h-2.631v-7.427c0-0.748-0.137-1.279-0.408-1.592
	c-0.273-0.313-0.645-0.469-1.117-0.469c-0.258,0-0.498,0.059-0.721,0.178c-0.221,0.119-0.412,0.285-0.574,0.497
	c-0.16,0.212-0.287,0.459-0.375,0.74c-0.09,0.281-0.135,0.583-0.135,0.907V113h-2.633V97.014h2.633V102.605z M145.029,101.375h1.666
	v2.235h-1.666v6.477c0,0.633,0.309,0.95,0.924,0.95h0.742V113c-0.094,0.036-0.205,0.068-0.334,0.097s-0.264,0.058-0.408,0.086
	c-0.143,0.029-0.285,0.05-0.43,0.064c-0.143,0.015-0.279,0.022-0.408,0.022c-0.529,0-0.971-0.09-1.32-0.27
	c-0.352-0.18-0.631-0.417-0.838-0.712c-0.209-0.295-0.355-0.628-0.441-0.999s-0.129-0.75-0.129-1.139v-6.542h-1.17v-2.235h1.17
	l0.398-3.271h2.244V101.375z M157.146,101.105c1.396,0,2.443,0.491,3.137,1.473c0.695,0.982,1.043,2.517,1.043,4.604v0.669h-5.877
	c0.008,0.518,0.045,0.979,0.113,1.382c0.068,0.403,0.172,0.743,0.312,1.02c0.139,0.277,0.32,0.487,0.541,0.631
	c0.223,0.144,0.494,0.216,0.816,0.216c0.451,0,0.812-0.194,1.08-0.583c0.27-0.389,0.402-0.932,0.402-1.63h2.611
	c0,0.749-0.102,1.398-0.307,1.948c-0.203,0.551-0.488,1.006-0.854,1.366s-0.799,0.628-1.301,0.804
	c-0.5,0.176-1.045,0.265-1.633,0.265c-1.482,0-2.607-0.493-3.377-1.479c-0.771-0.986-1.156-2.522-1.156-4.609
	s0.383-3.622,1.15-4.604C154.615,101.596,155.715,101.105,157.146,101.105z M157.146,103.274c-0.559,0-0.965,0.23-1.219,0.691
	c-0.254,0.461-0.402,1.116-0.445,1.965h3.072c0-0.849-0.113-1.504-0.338-1.965C157.99,103.505,157.635,103.274,157.146,103.274z
	 M166.029,101.375h1.666v2.235h-1.666v6.477c0,0.633,0.309,0.95,0.924,0.95h0.742V113c-0.094,0.036-0.205,0.068-0.334,0.097
	s-0.264,0.058-0.408,0.086c-0.143,0.029-0.285,0.05-0.43,0.064c-0.143,0.015-0.279,0.022-0.408,0.022c-0.529,0-0.971-0.09-1.32-0.27
	c-0.352-0.18-0.631-0.417-0.838-0.712c-0.209-0.295-0.355-0.628-0.441-0.999s-0.129-0.75-0.129-1.139v-6.542h-1.17v-2.235h1.17
	l0.398-3.271h2.244V101.375z M179.238,113h-2.654l-1.148-5.548c-0.059-0.295-0.107-0.61-0.15-0.945
	c-0.043-0.334-0.08-0.646-0.107-0.934c-0.029-0.338-0.055-0.669-0.076-0.993h-0.129c-0.021,0.317-0.047,0.641-0.074,0.972
	c-0.029,0.281-0.064,0.588-0.107,0.923s-0.094,0.653-0.15,0.956l-1.117,5.57h-2.664l-2.814-11.626h2.643l1.096,4.771
	c0.086,0.396,0.158,0.808,0.221,1.236c0.061,0.428,0.107,0.822,0.145,1.182c0.043,0.417,0.074,0.828,0.096,1.23h0.086
	c0.029-0.381,0.068-0.777,0.119-1.188c0.035-0.353,0.086-0.743,0.15-1.171s0.135-0.851,0.215-1.269l0.998-4.793h2.633l0.998,4.814
	c0.059,0.288,0.115,0.635,0.172,1.042c0.059,0.406,0.111,0.8,0.162,1.182c0.049,0.446,0.1,0.907,0.15,1.382h0.086
	c0.057-0.446,0.117-0.885,0.182-1.317c0.059-0.367,0.119-0.757,0.184-1.171c0.064-0.414,0.133-0.786,0.203-1.117l1.01-4.814h2.449
	L179.238,113z M186.793,101.105c1.338,0,2.33,0.3,2.975,0.901c0.645,0.601,0.967,1.445,0.967,2.531v5.721
	c0,0.273,0.064,0.471,0.193,0.594c0.129,0.122,0.27,0.183,0.42,0.183h0.537v1.878c-0.145,0.079-0.34,0.158-0.592,0.238
	c-0.25,0.079-0.576,0.119-0.977,0.119c-0.531,0-0.971-0.143-1.322-0.427c-0.35-0.284-0.59-0.653-0.719-1.106h-0.119
	c-0.164,0.23-0.336,0.441-0.516,0.632c-0.178,0.19-0.383,0.353-0.611,0.486c-0.23,0.133-0.488,0.235-0.779,0.308
	c-0.289,0.072-0.629,0.108-1.016,0.108c-0.271,0-0.574-0.045-0.906-0.135c-0.334-0.09-0.648-0.255-0.945-0.497
	c-0.299-0.241-0.547-0.574-0.748-0.999c-0.199-0.424-0.301-0.975-0.301-1.651c0-0.784,0.143-1.436,0.426-1.954
	c0.281-0.519,0.676-0.934,1.182-1.247c0.504-0.313,1.109-0.534,1.814-0.664c0.705-0.13,1.477-0.194,2.314-0.194v-1.22
	c0-0.202-0.016-0.389-0.047-0.562c-0.033-0.173-0.092-0.324-0.178-0.454c-0.086-0.129-0.209-0.232-0.365-0.308
	c-0.158-0.075-0.361-0.113-0.613-0.113c-0.271,0-0.498,0.038-0.676,0.113c-0.18,0.076-0.32,0.171-0.424,0.286
	c-0.105,0.115-0.178,0.247-0.221,0.394s-0.064,0.29-0.064,0.426v0.324h-2.578c-0.016-0.065-0.021-0.137-0.021-0.216v-0.27
	c0-0.482,0.092-0.923,0.279-1.322c0.186-0.399,0.449-0.74,0.789-1.02c0.34-0.281,0.75-0.499,1.23-0.653
	C185.66,101.182,186.197,101.105,186.793,101.105z M188.07,107.852c-0.387,0-0.76,0.029-1.121,0.086
	c-0.363,0.058-0.686,0.158-0.967,0.302c-0.283,0.144-0.512,0.338-0.684,0.583c-0.172,0.245-0.258,0.555-0.258,0.929
	c0,0.403,0.104,0.721,0.307,0.955c0.205,0.234,0.531,0.351,0.982,0.351c0.316,0,0.582-0.068,0.801-0.205s0.398-0.322,0.537-0.556
	c0.141-0.234,0.242-0.503,0.307-0.81c0.064-0.306,0.096-0.631,0.096-0.977V107.852z M197.061,101.105
	c0.553,0,1.066,0.072,1.543,0.216c0.475,0.144,0.891,0.351,1.246,0.621c0.354,0.27,0.631,0.601,0.832,0.993
	c0.199,0.392,0.301,0.836,0.301,1.333c0,0.123-0.006,0.234-0.016,0.335c-0.012,0.101-0.018,0.158-0.018,0.172h-2.674
	c0-0.518-0.117-0.897-0.35-1.139s-0.549-0.362-0.951-0.362c-0.408,0-0.736,0.103-0.988,0.308c-0.25,0.205-0.375,0.484-0.375,0.837
	c0,0.28,0.08,0.505,0.242,0.674c0.16,0.169,0.373,0.31,0.639,0.421c0.264,0.111,0.566,0.208,0.908,0.291
	c0.34,0.083,0.686,0.177,1.035,0.281c0.352,0.104,0.697,0.232,1.037,0.383c0.34,0.151,0.643,0.356,0.908,0.615
	c0.264,0.259,0.479,0.583,0.639,0.972c0.162,0.389,0.242,0.871,0.242,1.446c0,0.712-0.109,1.308-0.328,1.787
	s-0.52,0.865-0.902,1.161c-0.383,0.295-0.838,0.505-1.363,0.631c-0.527,0.125-1.098,0.189-1.715,0.189
	c-0.666,0-1.258-0.088-1.777-0.265s-0.959-0.426-1.32-0.75c-0.363-0.324-0.637-0.712-0.822-1.166
	c-0.188-0.454-0.279-0.957-0.279-1.511v-0.086c0-0.036,0.004-0.068,0.01-0.097c0-0.029,0.004-0.058,0.012-0.086h2.674v0.151
	c0.008,0.31,0.061,0.568,0.156,0.777c0.098,0.208,0.221,0.377,0.371,0.507c0.15,0.129,0.318,0.221,0.504,0.275
	c0.188,0.054,0.373,0.081,0.559,0.081c0.172,0,0.35-0.021,0.533-0.065c0.182-0.043,0.348-0.113,0.498-0.21s0.273-0.227,0.365-0.388
	c0.094-0.162,0.141-0.362,0.141-0.599c0-0.31-0.08-0.558-0.242-0.745c-0.16-0.187-0.375-0.343-0.639-0.47
	c-0.266-0.125-0.568-0.233-0.908-0.324c-0.34-0.09-0.686-0.189-1.037-0.297c-0.35-0.108-0.695-0.237-1.035-0.389
	c-0.342-0.151-0.645-0.352-0.908-0.604c-0.266-0.251-0.479-0.568-0.639-0.95c-0.162-0.381-0.242-0.853-0.242-1.414
	c0-0.59,0.107-1.106,0.322-1.549c0.215-0.443,0.508-0.812,0.881-1.106c0.371-0.295,0.809-0.517,1.311-0.664
	C195.939,101.179,196.48,101.105,197.061,101.105z M26.238,139h-2.653l-1.149-5.549c-0.058-0.295-0.107-0.609-0.15-0.943
	s-0.079-0.646-0.107-0.934c-0.029-0.338-0.054-0.669-0.075-0.994h-0.129c-0.021,0.317-0.047,0.64-0.075,0.972
	c-0.029,0.279-0.064,0.588-0.107,0.922c-0.043,0.336-0.093,0.654-0.15,0.955L20.523,139h-2.664l-2.814-11.625h2.643l1.096,4.772
	c0.086,0.395,0.159,0.807,0.22,1.236c0.061,0.428,0.109,0.822,0.145,1.182c0.043,0.416,0.075,0.826,0.097,1.23h0.086
	c0.028-0.381,0.068-0.777,0.118-1.188c0.036-0.354,0.086-0.744,0.15-1.172s0.136-0.852,0.215-1.268l0.999-4.793h2.632l0.999,4.815
	c0.057,0.287,0.114,0.635,0.172,1.041c0.057,0.406,0.111,0.801,0.161,1.182c0.05,0.447,0.1,0.908,0.15,1.383h0.086
	c0.057-0.447,0.118-0.885,0.183-1.316c0.057-0.367,0.118-0.758,0.183-1.172s0.132-0.787,0.204-1.117l1.01-4.815h2.449L26.238,139z
	 M32.848,125.432h-2.632v-2.418h2.632V125.432z M32.848,139h-2.632v-11.625h2.632V139z M39.878,127.105
	c0.165,0,0.315,0.011,0.451,0.032c0.136,0.021,0.254,0.043,0.354,0.065c0.114,0.029,0.211,0.058,0.29,0.086v2.558h-0.945
	c-0.287,0-0.561,0.043-0.822,0.129c-0.262,0.086-0.491,0.232-0.688,0.438c-0.197,0.205-0.354,0.479-0.473,0.821
	c-0.118,0.342-0.177,0.771-0.177,1.289V139h-2.632v-11.625h2.191l0.312,1.695h0.129c0.079-0.245,0.172-0.484,0.279-0.718
	s0.242-0.442,0.403-0.626s0.349-0.333,0.564-0.448C39.33,127.163,39.584,127.105,39.878,127.105z M44.848,131.994l3.233-4.62h2.825
	l-3.438,4.729L51.078,139h-2.922l-2.342-4.814l-0.967,1.188V139h-2.632v-15.986h2.632V131.994z M54.848,139h-2.632v-15.986h2.632
	V139z M59.848,125.432h-2.632v-2.418h2.632V125.432z M59.848,139h-2.632v-11.625h2.632V139z M66.212,127.105
	c0.616,0,1.174,0.09,1.676,0.27c0.501,0.18,0.927,0.459,1.278,0.837c0.351,0.377,0.621,0.858,0.811,1.441
	c0.189,0.583,0.285,1.281,0.285,2.094h-2.707c0-0.82-0.111-1.426-0.333-1.818c-0.222-0.392-0.559-0.588-1.01-0.588
	c-0.559,0-0.955,0.292-1.187,0.875c-0.233,0.583-0.349,1.433-0.349,2.548v0.842c0,1.115,0.124,1.967,0.371,2.553
	s0.667,0.879,1.262,0.879c0.473,0,0.812-0.201,1.021-0.604c0.208-0.402,0.312-1.008,0.312-1.814h2.621
	c0,0.814-0.093,1.514-0.279,2.1c-0.187,0.588-0.451,1.068-0.795,1.447c-0.344,0.377-0.759,0.656-1.246,0.836
	c-0.487,0.18-1.031,0.27-1.633,0.27c-0.752,0-1.404-0.119-1.955-0.361c-0.552-0.24-1.008-0.611-1.37-1.111
	c-0.362-0.5-0.628-1.133-0.8-1.9c-0.172-0.766-0.258-1.67-0.258-2.715c0-2.086,0.356-3.621,1.069-4.604
	C63.707,127.596,64.779,127.105,66.212,127.105z M74.869,128.605h0.097c0.129-0.18,0.283-0.36,0.462-0.54
	c0.179-0.18,0.383-0.34,0.612-0.48c0.229-0.141,0.487-0.255,0.773-0.346c0.286-0.09,0.602-0.135,0.945-0.135
	c0.444,0,0.854,0.066,1.23,0.2s0.7,0.347,0.972,0.642c0.272,0.295,0.485,0.68,0.639,1.155c0.154,0.475,0.231,1.054,0.231,1.738V139
	h-2.632v-7.426c0-0.749-0.136-1.28-0.408-1.593c-0.272-0.313-0.645-0.469-1.117-0.469c-0.258,0-0.498,0.059-0.72,0.178
	c-0.222,0.119-0.414,0.285-0.575,0.497c-0.161,0.212-0.287,0.459-0.376,0.74c-0.09,0.281-0.134,0.583-0.134,0.906V139h-2.632
	v-15.986h2.632V128.605z M96.219,139l-4.662-8.354c-0.043-0.079-0.102-0.196-0.177-0.351c-0.075-0.154-0.152-0.311-0.231-0.469
	c-0.086-0.187-0.179-0.385-0.279-0.594l-0.086,0.065c0.007,0.166,0.014,0.327,0.021,0.485c0.007,0.137,0.012,0.275,0.016,0.416
	c0.003,0.141,0.005,0.261,0.005,0.362V139h-2.481v-15.166h2.481l4.662,8.355c0.057,0.1,0.127,0.23,0.209,0.389
	c0.082,0.158,0.159,0.312,0.231,0.463c0.079,0.182,0.161,0.367,0.247,0.562l0.064-0.064c-0.007-0.195-0.011-0.375-0.011-0.541
	c-0.007-0.143-0.011-0.283-0.011-0.42s0-0.238,0-0.303v-8.441h2.514V139H96.219z M105.147,127.105c1.396,0,2.442,0.491,3.137,1.473
	c0.694,0.982,1.042,2.518,1.042,4.604v0.67h-5.876c0.007,0.518,0.044,0.979,0.113,1.381c0.068,0.404,0.172,0.744,0.312,1.021
	s0.32,0.486,0.542,0.631c0.222,0.145,0.494,0.217,0.816,0.217c0.451,0,0.811-0.195,1.08-0.584s0.403-0.932,0.403-1.629h2.61
	c0,0.748-0.102,1.396-0.306,1.947s-0.489,1.006-0.854,1.365c-0.365,0.361-0.799,0.629-1.3,0.805
	c-0.501,0.176-1.046,0.264-1.633,0.264c-1.482,0-2.609-0.492-3.378-1.479c-0.77-0.986-1.155-2.521-1.155-4.609
	c0-2.086,0.383-3.621,1.149-4.604C102.616,127.596,103.715,127.105,105.147,127.105z M105.147,129.274
	c-0.559,0-0.965,0.23-1.219,0.691c-0.254,0.461-0.403,1.115-0.446,1.964h3.072c0-0.85-0.113-1.503-0.338-1.964
	C105.991,129.505,105.634,129.274,105.147,129.274z M119.83,139h-2.191l-0.268-1.436h-0.129c-0.15,0.23-0.322,0.449-0.516,0.654
	s-0.412,0.385-0.656,0.539c-0.242,0.154-0.512,0.279-0.805,0.373c-0.295,0.092-0.613,0.139-0.957,0.139
	c-0.443,0-0.854-0.066-1.229-0.199c-0.377-0.133-0.701-0.348-0.973-0.643c-0.273-0.295-0.486-0.682-0.639-1.16
	c-0.154-0.479-0.232-1.059-0.232-1.742v-8.151h2.633v7.426c0,0.75,0.131,1.277,0.393,1.588c0.26,0.309,0.639,0.463,1.133,0.463
	c0.258,0,0.496-0.057,0.715-0.172c0.217-0.115,0.408-0.273,0.568-0.475c0.162-0.201,0.289-0.443,0.381-0.723
	c0.094-0.281,0.141-0.584,0.141-0.908v-7.2h2.631V139z M126.146,127.105c1.396,0,2.443,0.491,3.137,1.473
	c0.695,0.982,1.043,2.518,1.043,4.604v0.67h-5.877c0.008,0.518,0.045,0.979,0.113,1.381c0.068,0.404,0.172,0.744,0.312,1.021
	c0.139,0.277,0.32,0.486,0.541,0.631c0.223,0.145,0.494,0.217,0.816,0.217c0.451,0,0.812-0.195,1.08-0.584
	c0.27-0.389,0.402-0.932,0.402-1.629h2.611c0,0.748-0.102,1.396-0.307,1.947c-0.203,0.551-0.488,1.006-0.854,1.365
	c-0.365,0.361-0.799,0.629-1.301,0.805c-0.5,0.176-1.045,0.264-1.633,0.264c-1.482,0-2.607-0.492-3.377-1.479
	c-0.771-0.986-1.156-2.521-1.156-4.609c0-2.086,0.383-3.621,1.15-4.604C123.615,127.596,124.715,127.105,126.146,127.105z
	 M126.146,129.274c-0.559,0-0.965,0.23-1.219,0.691c-0.254,0.461-0.402,1.115-0.445,1.964h3.072c0-0.85-0.113-1.503-0.338-1.964
	C126.99,129.505,126.635,129.274,126.146,129.274z M136.061,127.105c0.553,0,1.066,0.072,1.543,0.216
	c0.475,0.144,0.891,0.351,1.246,0.621c0.354,0.27,0.631,0.601,0.832,0.993c0.199,0.392,0.301,0.836,0.301,1.333
	c0,0.123-0.006,0.234-0.016,0.335c-0.012,0.101-0.018,0.158-0.018,0.172h-2.674c0-0.518-0.117-0.897-0.35-1.139
	s-0.549-0.362-0.951-0.362c-0.408,0-0.736,0.103-0.988,0.308c-0.25,0.205-0.375,0.484-0.375,0.837c0,0.28,0.08,0.505,0.242,0.675
	c0.16,0.168,0.373,0.309,0.639,0.42c0.264,0.113,0.566,0.209,0.908,0.293c0.34,0.082,0.686,0.176,1.035,0.279
	c0.352,0.105,0.697,0.232,1.037,0.385c0.34,0.15,0.643,0.355,0.908,0.615c0.264,0.258,0.479,0.582,0.639,0.971
	c0.162,0.389,0.242,0.871,0.242,1.447c0,0.711-0.109,1.307-0.328,1.785s-0.52,0.865-0.902,1.16
	c-0.383,0.297-0.838,0.506-1.363,0.633c-0.527,0.125-1.098,0.188-1.715,0.188c-0.666,0-1.258-0.088-1.777-0.264
	s-0.959-0.426-1.32-0.75c-0.363-0.324-0.637-0.713-0.822-1.166c-0.188-0.453-0.279-0.957-0.279-1.512v-0.086
	c0-0.035,0.004-0.068,0.01-0.098c0-0.027,0.004-0.057,0.012-0.086h2.674v0.15c0.008,0.311,0.061,0.57,0.156,0.777
	c0.098,0.209,0.221,0.379,0.371,0.508s0.318,0.221,0.504,0.275c0.188,0.055,0.373,0.082,0.559,0.082c0.172,0,0.35-0.023,0.533-0.066
	c0.182-0.043,0.348-0.113,0.498-0.209c0.15-0.098,0.273-0.227,0.365-0.389c0.094-0.162,0.141-0.363,0.141-0.6
	c0-0.309-0.08-0.559-0.242-0.744c-0.16-0.188-0.375-0.344-0.639-0.471c-0.266-0.125-0.568-0.234-0.908-0.324
	s-0.686-0.188-1.037-0.297c-0.35-0.107-0.695-0.236-1.035-0.389c-0.342-0.15-0.645-0.352-0.908-0.604
	c-0.266-0.252-0.479-0.568-0.639-0.951c-0.162-0.381-0.242-0.852-0.242-1.413c0-0.59,0.107-1.106,0.322-1.549
	c0.215-0.443,0.508-0.812,0.881-1.106c0.371-0.295,0.809-0.517,1.311-0.664C134.939,127.179,135.48,127.105,136.061,127.105z
	 M145.051,139h-3.039v-3.033h3.039V139z M150.051,126.598l-1.449,3.713h-1.59l1.213-3.444h-1.213v-3.033h3.039V126.598z
	 M154.08,126.598l-1.461,3.713h-1.58l1.215-3.444h-1.215v-3.033h3.041V126.598z"/>
</svg>
