<?xml version="1.0" encoding="utf-8"?>
<!-- Generator: Adobe Illustrator 16.0.4, SVG Export Plug-In . SVG Version: 6.00 Build 0)  -->
<svg version="1.2" baseProfile="tiny" id="Ebene_1" xmlns="http://www.w3.org/2000/svg" xmlns:xlink="http://www.w3.org/1999/xlink"
	 x="0px" y="0px" width="72.403px" height="72.402px" viewBox="0 0 72.403 72.402" xml:space="preserve">
<path fill-rule="evenodd" fill="#FFFFFF" d="M63.958,8.445c-11.26-11.26-29.52-11.26-40.77,0
	c-10.195,10.196-11.158,26.122-2.891,37.401L1.268,64.875c-1.69,1.69-1.69,4.431,0,6.12l0.14,0.14c1.69,1.69,4.43,1.69,6.12,0
	l19.028-19.028c11.273,8.268,27.207,7.305,37.402-2.892C75.218,37.955,75.218,19.705,63.958,8.445z M59.238,44.495
	c-8.65,8.66-22.68,8.66-31.34,0c-8.65-8.65-8.65-22.68,0-31.33c8.66-8.66,22.69-8.66,31.34,0
	C67.898,21.815,67.898,35.845,59.238,44.495z"/>
<g>
</g>
<g>
</g>
<g>
</g>
<g>
</g>
<g>
</g>
<g>
</g>
<g>
</g>
<g>
</g>
<g>
</g>
<g>
</g>
<g>
</g>
<g>
</g>
<g>
</g>
<g>
</g>
<g>
</g>
</svg>
