<?xml version="1.0" encoding="utf-8"?>
<!-- Generator: Adobe Illustrator 16.0.4, SVG Export Plug-In . SVG Version: 6.00 Build 0)  -->
<!DOCTYPE svg PUBLIC "-//W3C//DTD SVG 1.1//EN" "http://www.w3.org/Graphics/SVG/1.1/DTD/svg11.dtd">
<svg version="1.1" id="Ebene_1" xmlns="http://www.w3.org/2000/svg" xmlns:xlink="http://www.w3.org/1999/xlink" x="0px" y="0px"
	 width="237.482px" height="240.125px" viewBox="0 2.355 237.482 240.125" enable-background="new 0 2.355 237.482 240.125"
	 xml:space="preserve">
<g id="Donut_Automatische_Form">
	<path fill="#5CEB00" d="M118.742,2.355C53.162,2.355,0,56.109,0,122.418C0,188.73,53.162,242.48,118.742,242.48
		c65.579,0,118.74-53.754,118.74-120.062C237.483,56.109,184.322,2.355,118.742,2.355z M118.742,224.94
		c-55.999,0-101.395-45.897-101.395-102.521S62.743,19.896,118.742,19.896s101.394,45.899,101.394,102.521
		S174.741,224.94,118.742,224.94z"/>
</g>
<path fill="#FFFFFF" d="M68.135,104.355v-16.12h10.179v2.687h-7.196v3.844h6.174v2.687h-6.174v4.231h7.333v2.673L68.135,104.355
	L68.135,104.355z M87.672,97.896l3.502,6.459h-3.146l-2.068-4.084h-0.113c-0.342,0.673-0.685,1.354-1.027,2.042
	c-0.346,0.688-0.695,1.37-1.052,2.042h-2.979l3.547-6.392l-3.264-5.966h3.161c0.296,0.589,0.593,1.19,0.894,1.808
	c0.299,0.615,0.607,1.21,0.927,1.783h0.114c0.312-0.573,0.62-1.168,0.927-1.783c0.31-0.615,0.604-1.219,0.896-1.808h3.001
	L87.672,97.896z M101.559,93.169l-4.767,8.812h4.938v2.375h-8.709v-1.191l4.752-8.789h-4.479V92h8.269L101.559,93.169
	L101.559,93.169z M108.955,91.712c1.479,0,2.585,0.521,3.319,1.564c0.732,1.044,1.104,2.677,1.104,4.896v0.711h-6.219
	c0.007,0.552,0.047,1.04,0.119,1.469s0.183,0.79,0.33,1.084c0.146,0.294,0.34,0.52,0.574,0.671c0.232,0.152,0.521,0.229,0.861,0.229
	c0.479,0,0.858-0.206,1.146-0.619s0.427-0.99,0.427-1.731h2.763c0,0.795-0.105,1.484-0.321,2.071
	c-0.219,0.585-0.521,1.068-0.904,1.45c-0.386,0.384-0.845,0.667-1.375,0.854s-1.106,0.281-1.729,0.281
	c-1.566,0-2.761-0.521-3.573-1.572c-0.814-1.048-1.225-2.681-1.225-4.897c0-2.216,0.404-3.851,1.217-4.896
	C106.275,92.234,107.438,91.712,108.955,91.712z M108.955,94.018c-0.592,0-1.021,0.245-1.291,0.733
	c-0.27,0.489-0.427,1.187-0.473,2.088h3.252c0-0.901-0.119-1.599-0.357-2.088C109.848,94.263,109.47,94.018,108.955,94.018z
	 M119.51,104.355h-2.783v-16.99h2.783V104.355z M125.442,104.355h-2.784v-16.99h2.784V104.355z M132.749,91.712
	c1.479,0,2.585,0.521,3.319,1.564c0.732,1.044,1.104,2.677,1.104,4.896v0.711h-6.22c0.008,0.552,0.048,1.04,0.119,1.469
	s0.183,0.79,0.329,1.084c0.146,0.294,0.341,0.52,0.574,0.671c0.232,0.152,0.521,0.229,0.861,0.229c0.479,0,0.857-0.206,1.146-0.619
	c0.283-0.413,0.427-0.99,0.427-1.731h2.763c0,0.795-0.105,1.484-0.32,2.071c-0.22,0.585-0.521,1.068-0.904,1.45
	c-0.387,0.384-0.846,0.667-1.376,0.854c-0.529,0.188-1.105,0.281-1.729,0.281c-1.566,0-2.761-0.521-3.572-1.572
	c-0.814-1.048-1.226-2.681-1.226-4.897c0-2.216,0.404-3.851,1.217-4.896C130.069,92.234,131.233,91.712,132.749,91.712z
	 M132.749,94.018c-0.592,0-1.021,0.245-1.291,0.733c-0.27,0.489-0.426,1.187-0.472,2.088h3.252c0-0.901-0.119-1.599-0.358-2.088
	C133.641,94.263,133.264,94.018,132.749,94.018z M146.385,91.712c0.474,0,0.904,0.071,1.306,0.212
	c0.396,0.143,0.74,0.369,1.026,0.684c0.287,0.313,0.516,0.725,0.679,1.229s0.244,1.121,0.244,1.848v8.674h-2.785v-7.895
	c0-0.795-0.146-1.359-0.435-1.691c-0.289-0.333-0.684-0.499-1.185-0.499c-0.271,0-0.525,0.062-0.762,0.188
	c-0.233,0.126-0.438,0.303-0.606,0.525c-0.172,0.228-0.305,0.488-0.397,0.786c-0.094,0.298-0.144,0.62-0.144,0.964v7.618h-2.785
	V91.999h2.319l0.283,1.524h0.138c0.158-0.235,0.342-0.467,0.546-0.688c0.204-0.221,0.438-0.415,0.692-0.58s0.542-0.296,0.854-0.396
	C145.684,91.762,146.022,91.712,146.385,91.712z M156.428,91.999h1.764v2.375h-1.764v6.884c0,0.674,0.323,1.011,0.979,1.011h0.784
	v2.088c-0.103,0.038-0.217,0.073-0.354,0.104c-0.137,0.031-0.277,0.062-0.433,0.092c-0.151,0.031-0.303,0.055-0.454,0.069
	s-0.296,0.021-0.433,0.021c-0.562,0-1.026-0.097-1.397-0.287c-0.371-0.189-0.668-0.441-0.888-0.757
	c-0.221-0.312-0.375-0.667-0.467-1.062c-0.094-0.396-0.14-0.797-0.14-1.21v-6.953h-1.235V92h1.235l0.422-3.478h2.375v3.477H156.428z
	 M164.543,91.712c1.479,0,2.584,0.521,3.319,1.564c0.734,1.044,1.103,2.677,1.103,4.896v0.711h-6.219
	c0.008,0.552,0.047,1.04,0.119,1.469c0.071,0.429,0.182,0.79,0.329,1.084c0.146,0.294,0.34,0.52,0.574,0.671
	c0.231,0.152,0.521,0.229,0.86,0.229c0.479,0,0.859-0.206,1.146-0.619s0.428-0.99,0.428-1.731h2.762c0,0.795-0.104,1.484-0.32,2.071
	c-0.219,0.585-0.521,1.068-0.903,1.45c-0.387,0.384-0.846,0.667-1.377,0.854c-0.529,0.188-1.105,0.281-1.729,0.281
	c-1.565,0-2.76-0.521-3.572-1.572c-0.814-1.048-1.225-2.681-1.225-4.897c0-2.216,0.404-3.851,1.22-4.896
	C161.864,92.234,163.027,91.712,164.543,91.712z M164.543,94.018c-0.592,0-1.021,0.245-1.291,0.733
	c-0.27,0.489-0.426,1.187-0.473,2.088h3.253c0-0.901-0.12-1.599-0.358-2.088C165.436,94.263,165.059,94.018,164.543,94.018z
	 M36.376,124.483l5.847-8.249h3.329l-4.729,6.553l4.865,9.566h-3.354l-3.468-7.191l-2.49,3.086v4.105h-3.001v-16.121h3.001V124.483
	L36.376,124.483z M53.105,119.712c0.174,0,0.333,0.013,0.479,0.035c0.146,0.021,0.271,0.046,0.375,0.067
	c0.121,0.029,0.227,0.062,0.31,0.093v2.719h-1c-0.306,0-0.596,0.046-0.87,0.14c-0.276,0.092-0.521,0.246-0.729,0.465
	c-0.209,0.218-0.375,0.508-0.5,0.873c-0.125,0.361-0.188,0.818-0.188,1.371v6.883h-2.786V120h2.32l0.327,1.802h0.139
	c0.083-0.26,0.183-0.515,0.296-0.763c0.113-0.249,0.257-0.473,0.427-0.666c0.17-0.194,0.369-0.354,0.597-0.478
	C52.525,119.773,52.794,119.712,53.105,119.712z M60.263,119.712c1.479,0,2.585,0.521,3.317,1.563
	c0.734,1.045,1.104,2.678,1.104,4.896v0.711h-6.222c0.01,0.553,0.05,1.041,0.12,1.471c0.072,0.429,0.185,0.791,0.33,1.084
	c0.147,0.295,0.339,0.521,0.574,0.672c0.234,0.15,0.521,0.229,0.863,0.229c0.479,0,0.856-0.205,1.144-0.619
	c0.283-0.411,0.426-0.989,0.426-1.731h2.766c0,0.798-0.107,1.486-0.324,2.07c-0.216,0.586-0.519,1.069-0.903,1.452
	c-0.386,0.382-0.846,0.666-1.375,0.854c-0.528,0.188-1.104,0.28-1.729,0.28c-1.568,0-2.764-0.521-3.576-1.571
	c-0.814-1.048-1.222-2.681-1.222-4.896c0-2.215,0.402-3.849,1.217-4.895C57.583,120.234,58.747,119.712,60.263,119.712z
	 M60.263,122.019c-0.594,0-1.021,0.244-1.291,0.732c-0.271,0.489-0.429,1.188-0.475,2.089h3.252c0-0.901-0.12-1.6-0.355-2.089
	C61.155,122.263,60.778,122.019,60.263,122.019z M71.819,119.712c1.417,0,2.468,0.319,3.146,0.958
	c0.685,0.641,1.023,1.536,1.023,2.689v6.08c0,0.291,0.067,0.502,0.204,0.631c0.137,0.133,0.284,0.195,0.443,0.195h0.565v1.995
	c-0.149,0.085-0.357,0.169-0.625,0.253c-0.266,0.086-0.607,0.127-1.035,0.127c-0.562,0-1.024-0.148-1.396-0.453
	s-0.625-0.691-0.764-1.177H73.26c-0.175,0.243-0.354,0.47-0.547,0.673c-0.188,0.199-0.402,0.375-0.646,0.518
	c-0.242,0.141-0.52,0.25-0.823,0.324c-0.308,0.076-0.665,0.115-1.075,0.115c-0.288,0-0.605-0.049-0.96-0.145
	c-0.353-0.098-0.687-0.271-1-0.529c-0.312-0.256-0.578-0.607-0.791-1.061s-0.315-1.037-0.315-1.758c0-0.832,0.147-1.523,0.446-2.074
	c0.302-0.553,0.719-0.992,1.25-1.324c0.535-0.334,1.178-0.566,1.925-0.707c0.744-0.137,1.562-0.205,2.447-0.205v-1.297
	c0-0.214-0.018-0.414-0.051-0.598c-0.034-0.185-0.098-0.346-0.188-0.481c-0.094-0.138-0.223-0.247-0.39-0.325
	c-0.167-0.082-0.383-0.121-0.646-0.121c-0.288,0-0.526,0.039-0.716,0.121c-0.188,0.078-0.342,0.182-0.449,0.303
	c-0.109,0.123-0.188,0.265-0.232,0.42c-0.044,0.156-0.065,0.31-0.065,0.453v0.347h-2.729c-0.016-0.07-0.021-0.146-0.021-0.229
	v-0.287c0-0.514,0.098-0.979,0.295-1.406c0.194-0.424,0.477-0.783,0.836-1.084c0.357-0.297,0.794-0.527,1.302-0.691
	C70.622,119.794,71.19,119.712,71.819,119.712z M73.172,126.882c-0.407,0-0.806,0.031-1.188,0.093
	c-0.383,0.062-0.727,0.168-1.022,0.321c-0.3,0.152-0.54,0.356-0.723,0.619c-0.182,0.26-0.272,0.59-0.272,0.983
	c0,0.431,0.108,0.771,0.324,1.019s0.562,0.373,1.04,0.373c0.333,0,0.615-0.072,0.849-0.222c0.229-0.146,0.422-0.342,0.567-0.59
	c0.146-0.248,0.255-0.535,0.323-0.858c0.068-0.324,0.104-0.67,0.104-1.037L73.172,126.882L73.172,126.882z M82.943,119.999h1.764
	v2.375h-1.764v6.884c0,0.676,0.326,1.012,0.979,1.012h0.785v2.088c-0.1,0.039-0.216,0.07-0.354,0.104
	c-0.14,0.031-0.281,0.062-0.435,0.092c-0.15,0.031-0.303,0.054-0.455,0.068c-0.149,0.017-0.296,0.021-0.432,0.021
	c-0.562,0-1.027-0.097-1.396-0.287c-0.372-0.188-0.667-0.44-0.89-0.756c-0.221-0.312-0.375-0.668-0.466-1.062
	c-0.092-0.395-0.138-0.797-0.138-1.211v-6.952h-1.239V120h1.239l0.421-3.478h2.376L82.943,119.999L82.943,119.999z M89.682,117.934
	h-2.786v-2.568h2.786V117.934z M89.682,132.354h-2.786V120h2.786V132.354z M98.296,132.354h-2.842L91.656,120h2.935l1.595,5.312
	c0.027,0.114,0.063,0.26,0.105,0.435c0.042,0.172,0.083,0.354,0.125,0.551c0.042,0.197,0.083,0.396,0.125,0.604
	c0.042,0.211,0.082,0.414,0.12,0.613c0.091,0.477,0.188,0.979,0.283,1.504h0.092c0.067-0.498,0.146-0.979,0.229-1.442
	c0.027-0.199,0.063-0.404,0.105-0.615c0.042-0.209,0.082-0.414,0.12-0.612c0.037-0.199,0.077-0.388,0.118-0.562
	c0.041-0.178,0.085-0.332,0.132-0.473L99.299,120h2.8L98.296,132.354z M108.545,119.712c1.417,0,2.47,0.319,3.148,0.958
	c0.682,0.641,1.021,1.536,1.021,2.689v6.08c0,0.291,0.068,0.502,0.205,0.631c0.139,0.133,0.284,0.195,0.442,0.195h0.568v1.995
	c-0.152,0.085-0.36,0.169-0.625,0.253c-0.268,0.086-0.61,0.127-1.035,0.127c-0.562,0-1.026-0.148-1.397-0.453
	s-0.625-0.691-0.763-1.177h-0.125c-0.174,0.243-0.355,0.47-0.546,0.673c-0.188,0.199-0.404,0.375-0.647,0.518
	c-0.243,0.141-0.518,0.25-0.821,0.324c-0.31,0.076-0.665,0.115-1.075,0.115c-0.288,0-0.607-0.049-0.96-0.145
	c-0.354-0.098-0.688-0.271-1-0.529c-0.314-0.256-0.578-0.607-0.791-1.061s-0.317-1.037-0.317-1.758c0-0.832,0.149-1.523,0.448-2.074
	c0.3-0.553,0.717-0.992,1.25-1.324c0.535-0.334,1.176-0.566,1.922-0.707c0.747-0.137,1.562-0.205,2.45-0.205v-1.297
	c0-0.214-0.02-0.414-0.051-0.598c-0.034-0.185-0.1-0.346-0.188-0.481c-0.091-0.137-0.221-0.247-0.388-0.325
	c-0.167-0.082-0.385-0.121-0.647-0.121c-0.288,0-0.524,0.039-0.716,0.121c-0.189,0.078-0.34,0.182-0.449,0.303
	c-0.107,0.123-0.188,0.265-0.23,0.42c-0.045,0.156-0.067,0.31-0.067,0.453v0.347h-2.729c-0.017-0.07-0.021-0.146-0.021-0.229v-0.287
	c0-0.514,0.098-0.979,0.295-1.406c0.196-0.424,0.478-0.783,0.836-1.084c0.359-0.297,0.794-0.527,1.302-0.691
	C107.347,119.794,107.916,119.712,108.545,119.712z M109.898,126.882c-0.41,0-0.809,0.031-1.188,0.093
	c-0.383,0.062-0.725,0.168-1.021,0.321c-0.3,0.152-0.54,0.356-0.725,0.619c-0.182,0.26-0.271,0.59-0.271,0.983
	c0,0.431,0.105,0.771,0.324,1.019c0.216,0.248,0.562,0.373,1.04,0.373c0.333,0,0.613-0.072,0.847-0.222
	c0.229-0.146,0.422-0.342,0.569-0.59c0.146-0.248,0.255-0.535,0.321-0.858c0.067-0.324,0.104-0.67,0.104-1.037L109.898,126.882
	L109.898,126.882z M121.625,119.712c0.175,0,0.333,0.013,0.479,0.035c0.145,0.021,0.27,0.046,0.375,0.067
	c0.121,0.029,0.225,0.062,0.308,0.093v2.719h-1c-0.304,0-0.595,0.046-0.87,0.14c-0.273,0.092-0.52,0.246-0.729,0.465
	c-0.209,0.218-0.375,0.508-0.5,0.873c-0.125,0.361-0.188,0.818-0.188,1.371v6.883h-2.786V120h2.32l0.329,1.802h0.137
	c0.083-0.26,0.185-0.515,0.296-0.763c0.113-0.249,0.256-0.473,0.429-0.666c0.17-0.194,0.367-0.354,0.597-0.478
	C121.044,119.773,121.313,119.712,121.625,119.712z M127.249,130.83l-0.285,1.523h-2.316v-16.989h2.786v5.896h0.125
	c0.219-0.496,0.571-0.879,1.062-1.146c0.488-0.271,1.041-0.401,1.653-0.401c0.546,0,1.052,0.125,1.514,0.373
	s0.861,0.637,1.198,1.159c0.338,0.522,0.604,1.188,0.797,2.002c0.192,0.812,0.289,1.776,0.289,2.899
	c0,1.125-0.091,2.097-0.271,2.908c-0.181,0.813-0.44,1.487-0.782,2.021c-0.344,0.532-0.756,0.926-1.239,1.182
	c-0.484,0.257-1.029,0.386-1.638,0.386c-0.583,0-1.113-0.149-1.595-0.459c-0.478-0.306-0.871-0.759-1.183-1.354L127.249,130.83
	L127.249,130.83z M127.43,126.619c0,1.115,0.142,1.973,0.426,2.562c0.285,0.594,0.765,0.891,1.438,0.891s1.154-0.297,1.438-0.891
	s0.427-1.447,0.427-2.562v-0.896c0-1.107-0.143-1.965-0.427-2.561c-0.283-0.6-0.767-0.896-1.438-0.896
	c-0.341,0-0.63,0.078-0.861,0.233c-0.234,0.156-0.429,0.385-0.574,0.685c-0.146,0.297-0.256,0.664-0.323,1.104
	c-0.068,0.438-0.103,0.934-0.103,1.488L127.43,126.619L127.43,126.619z M141.713,119.712c1.479,0,2.586,0.521,3.32,1.563
	c0.734,1.045,1.104,2.678,1.104,4.896v0.711h-6.223c0.007,0.553,0.048,1.041,0.12,1.471c0.07,0.429,0.185,0.791,0.329,1.084
	c0.146,0.295,0.339,0.521,0.573,0.672c0.232,0.15,0.521,0.229,0.862,0.229c0.479,0,0.857-0.205,1.145-0.619
	c0.284-0.411,0.427-0.989,0.427-1.731h2.767c0,0.798-0.108,1.486-0.324,2.07c-0.217,0.586-0.521,1.069-0.903,1.452
	c-0.388,0.382-0.847,0.666-1.375,0.854c-0.531,0.188-1.105,0.28-1.729,0.28c-1.569,0-2.765-0.521-3.576-1.571
	c-0.813-1.048-1.226-2.681-1.226-4.896c0-2.215,0.406-3.849,1.22-4.895C139.034,120.234,140.198,119.712,141.713,119.712z
	 M141.713,122.019c-0.591,0-1.021,0.244-1.29,0.732c-0.269,0.489-0.427,1.188-0.472,2.089h3.252c0-0.901-0.119-1.6-0.355-2.089
	C142.606,122.263,142.229,122.019,141.713,122.019z M152.27,117.934h-2.785v-2.568h2.785V117.934z M152.27,132.354h-2.785V120h2.785
	V132.354z M158.395,119.999h1.763v2.375h-1.763v6.884c0,0.676,0.326,1.012,0.979,1.012h0.784v2.088
	c-0.099,0.039-0.217,0.07-0.353,0.104c-0.14,0.031-0.281,0.062-0.436,0.092c-0.149,0.031-0.305,0.054-0.454,0.068
	c-0.149,0.017-0.297,0.021-0.434,0.021c-0.562,0-1.026-0.097-1.397-0.287c-0.372-0.188-0.667-0.44-0.888-0.756
	c-0.22-0.312-0.375-0.668-0.466-1.062c-0.092-0.395-0.137-0.797-0.137-1.211v-6.952h-1.24V120h1.24l0.42-3.478h2.377
	L158.395,119.999L158.395,119.999z M177.397,132.354h-2.318l-0.284-1.522h-0.137c-0.158,0.244-0.342,0.478-0.546,0.69
	c-0.204,0.222-0.438,0.41-0.692,0.574c-0.258,0.163-0.543,0.297-0.854,0.396c-0.312,0.099-0.647,0.146-1.012,0.146
	c-0.474,0-0.904-0.07-1.305-0.214c-0.396-0.141-0.738-0.366-1.026-0.682s-0.516-0.728-0.68-1.234
	c-0.162-0.508-0.244-1.125-0.244-1.852v-8.663h2.785v7.895c0,0.795,0.142,1.356,0.416,1.688c0.275,0.327,0.679,0.49,1.199,0.49
	c0.272,0,0.524-0.062,0.756-0.186c0.23-0.12,0.435-0.291,0.604-0.504c0.171-0.215,0.307-0.471,0.4-0.771
	c0.103-0.299,0.147-0.617,0.147-0.963v-7.651h2.785L177.397,132.354L177.397,132.354z M187.077,119.712
	c0.47,0,0.903,0.071,1.302,0.212c0.397,0.142,0.741,0.369,1.029,0.684c0.287,0.313,0.513,0.726,0.677,1.229
	c0.162,0.505,0.244,1.121,0.244,1.848v8.674h-2.785v-7.894c0-0.797-0.146-1.358-0.434-1.692c-0.287-0.332-0.685-0.498-1.185-0.498
	c-0.271,0-0.525,0.062-0.763,0.188c-0.231,0.126-0.438,0.303-0.605,0.525c-0.172,0.228-0.307,0.488-0.396,0.785
	c-0.097,0.301-0.144,0.619-0.144,0.965v7.617h-2.785V120h2.316l0.284,1.523h0.14c0.155-0.234,0.341-0.467,0.545-0.688
	c0.205-0.222,0.437-0.415,0.69-0.58s0.543-0.296,0.854-0.396C186.375,119.762,186.713,119.712,187.077,119.712z M203.26,132.354
	h-2.317l-0.282-1.522h-0.114c-0.304,0.596-0.692,1.049-1.177,1.354c-0.479,0.31-1.015,0.459-1.599,0.459
	c-0.604,0-1.151-0.129-1.64-0.386c-0.482-0.256-0.896-0.647-1.236-1.182c-0.344-0.531-0.604-1.205-0.784-2.021
	c-0.186-0.812-0.272-1.783-0.272-2.908c0-1.123,0.1-2.092,0.29-2.899c0.192-0.812,0.458-1.479,0.796-2.002
	c0.338-0.522,0.736-0.91,1.199-1.159s0.967-0.373,1.512-0.373c0.615,0,1.166,0.135,1.654,0.4c0.489,0.269,0.844,0.649,1.063,1.146
	h0.125v-5.896h2.782V132.354L203.26,132.354z M198.61,122.271c-0.675,0-1.153,0.299-1.438,0.896
	c-0.281,0.597-0.427,1.449-0.427,2.56v0.896c0,1.114,0.146,1.974,0.427,2.562c0.284,0.594,0.767,0.892,1.438,0.892
	c0.674,0,1.154-0.298,1.438-0.892c0.284-0.593,0.43-1.447,0.43-2.562v-0.838c0-0.562-0.035-1.058-0.104-1.49
	c-0.065-0.438-0.177-0.808-0.323-1.104c-0.146-0.297-0.339-0.523-0.571-0.684C199.239,122.351,198.951,122.271,198.61,122.271z
	 M95.215,160.354h-2.987v-16.119h2.987V160.354z M107.377,160.354h-2.317l-0.284-1.522h-0.113c-0.304,0.597-0.695,1.049-1.178,1.354
	c-0.48,0.31-1.017,0.459-1.6,0.459c-0.604,0-1.149-0.129-1.637-0.386c-0.482-0.256-0.896-0.647-1.239-1.182
	c-0.341-0.531-0.603-1.205-0.782-2.021c-0.185-0.812-0.272-1.783-0.272-2.908c0-1.123,0.097-2.092,0.29-2.899
	c0.192-0.812,0.458-1.479,0.796-2.002c0.337-0.522,0.736-0.91,1.198-1.158c0.463-0.25,0.968-0.373,1.513-0.373
	c0.613,0,1.166,0.134,1.653,0.397c0.489,0.271,0.844,0.65,1.062,1.148h0.125v-5.898h2.786V160.354L107.377,160.354z
	 M102.727,150.271c-0.678,0-1.153,0.297-1.438,0.896c-0.284,0.597-0.427,1.449-0.427,2.56v0.896c0,1.114,0.143,1.974,0.427,2.562
	c0.283,0.594,0.767,0.892,1.438,0.892s1.151-0.298,1.438-0.892c0.284-0.593,0.426-1.447,0.426-2.562v-0.838
	c0-0.562-0.031-1.058-0.104-1.49c-0.067-0.438-0.176-0.808-0.323-1.104c-0.146-0.299-0.339-0.524-0.574-0.685
	C103.356,150.349,103.068,150.271,102.727,150.271z M115.351,147.712c1.479,0,2.585,0.521,3.317,1.563
	c0.734,1.043,1.104,2.677,1.104,4.896v0.711h-6.219c0.007,0.552,0.047,1.041,0.117,1.47c0.072,0.428,0.185,0.791,0.33,1.084
	c0.147,0.295,0.339,0.521,0.574,0.672c0.234,0.151,0.522,0.229,0.863,0.229c0.479,0,0.856-0.205,1.144-0.619
	c0.284-0.41,0.428-0.988,0.428-1.73h2.764c0,0.795-0.107,1.486-0.323,2.07c-0.217,0.586-0.519,1.068-0.904,1.451
	s-0.845,0.666-1.375,0.854c-0.528,0.188-1.104,0.281-1.729,0.281c-1.568,0-2.761-0.521-3.575-1.572
	c-0.813-1.047-1.223-2.68-1.223-4.896c0-2.216,0.402-3.85,1.217-4.895C112.671,148.233,113.835,147.712,115.351,147.712z
	 M115.351,150.017c-0.594,0-1.021,0.246-1.291,0.733c-0.271,0.49-0.429,1.188-0.475,2.09h3.252c0-0.901-0.117-1.6-0.355-2.09
	C116.244,150.263,115.867,150.017,115.351,150.017z M127.283,147.712c1.479,0,2.585,0.521,3.319,1.563
	c0.732,1.043,1.104,2.677,1.104,4.896v0.711h-6.22c0.008,0.552,0.048,1.041,0.119,1.47c0.07,0.428,0.183,0.791,0.33,1.084
	c0.146,0.295,0.338,0.521,0.571,0.672c0.234,0.151,0.521,0.229,0.863,0.229c0.479,0,0.858-0.205,1.146-0.619
	c0.282-0.41,0.427-0.988,0.427-1.73h2.764c0,0.795-0.104,1.486-0.324,2.07c-0.216,0.586-0.519,1.068-0.901,1.451
	c-0.389,0.383-0.848,0.666-1.375,0.854c-0.531,0.188-1.106,0.281-1.729,0.281c-1.565,0-2.762-0.521-3.576-1.572
	c-0.812-1.047-1.222-2.68-1.222-4.896c0-2.216,0.404-3.85,1.217-4.895C124.603,148.233,125.766,147.712,127.283,147.712z
	 M127.283,150.017c-0.592,0-1.021,0.246-1.29,0.733c-0.271,0.49-0.428,1.188-0.474,2.09h3.252c0-0.901-0.119-1.6-0.356-2.09
	C128.175,150.263,127.798,150.017,127.283,150.017z M140.919,147.712c0.473,0,0.902,0.07,1.305,0.211
	c0.396,0.144,0.737,0.369,1.026,0.685c0.287,0.313,0.517,0.726,0.676,1.229c0.164,0.504,0.245,1.119,0.245,1.848v8.674h-2.786
	v-7.895c0-0.797-0.144-1.357-0.432-1.691c-0.288-0.332-0.683-0.498-1.184-0.498c-0.271,0-0.525,0.062-0.765,0.188
	c-0.232,0.125-0.438,0.303-0.605,0.525c-0.169,0.225-0.303,0.488-0.397,0.785c-0.094,0.299-0.143,0.619-0.143,0.965v7.617h-2.785
	V148h2.319l0.282,1.523h0.138c0.16-0.234,0.343-0.467,0.547-0.688c0.204-0.221,0.437-0.414,0.691-0.578
	c0.258-0.164,0.541-0.297,0.854-0.396C140.218,147.761,140.555,147.712,140.919,147.712z"/>
</svg>
