<?xml version="1.0" encoding="utf-8"?>
<!-- Generator: Adobe Illustrator 16.0.4, SVG Export Plug-In . SVG Version: 6.00 Build 0)  -->
<svg version="1.2" baseProfile="tiny" id="Ebene_1" xmlns="http://www.w3.org/2000/svg" xmlns:xlink="http://www.w3.org/1999/xlink"
	 x="0px" y="0px" width="103px" height="94px" viewBox="0 0 103 94" xml:space="preserve">
<rect x="22.86" y="22.81" fill="#FFFFFF" width="57" height="4.06"/>
<rect x="22.86" y="33.81" fill="#FFFFFF" width="57" height="4.06"/>
<rect x="22.86" y="44.81" fill="#FFFFFF" width="57" height="4.06"/>
<path fill-rule="evenodd" fill="#FFFFFF" d="M6.08,0C3.62,0,0,3.59,0,6.16v59.25c0,2.561,3.62,6.119,6.08,6.119h90.88
	c2.42,0,6.04-3.559,6.04-6.119V6.16C103,3.59,99.38,0,96.96,0H6.08z M7.11,7.22h88.83V64.35H7.11V7.22z M66.66,85.82V75.59H36.39
	v10.23l-6.08,6.13V94h42.42v-2.05L66.66,85.82z"/>
<g>
</g>
<g>
</g>
<g>
</g>
<g>
</g>
<g>
</g>
<g>
</g>
<g>
</g>
<g>
</g>
<g>
</g>
<g>
</g>
<g>
</g>
<g>
</g>
<g>
</g>
<g>
</g>
<g>
</g>
</svg>
