<?xml version="1.0" encoding="utf-8"?>
<!-- Generator: Adobe Illustrator 16.0.4, SVG Export Plug-In . SVG Version: 6.00 Build 0)  -->
<svg version="1.2" baseProfile="tiny" id="Ebene_1" xmlns="http://www.w3.org/2000/svg" xmlns:xlink="http://www.w3.org/1999/xlink"
	 x="0px" y="0px" width="56.361px" height="98.44px" viewBox="0 0 56.361 98.44" xml:space="preserve">
<path fill-rule="evenodd" fill="#FFFFFF" d="M10.227,69.152c1.141,5.997,2.66,11.135,4.035,15.068
	c-7.206,5.404-8.017,13.22-8.017,13.22l-6,1C-1.254,83.198,4.369,74.325,10.227,69.152z M45.297,68.44
	c-1.104,6.022-2.598,11.208-3.977,15.225c7.927,5.404,8.795,13.775,8.795,13.775l6,1C57.687,82.471,51.441,73.496,45.297,68.44z"/>
<path fill-rule="evenodd" fill="#FFFFFF" d="M29.816,3.36L27.696,0l-2.12,3.36c-3.62,5.75-14.63,23.24-14.63,47.33
	c0,22.83,8.65,40.16,9.02,40.88l0.69,1.37h14.08l0.69-1.37c0.369-0.72,9.02-18.05,9.02-40.88C44.446,26.6,33.436,9.11,29.816,3.36z
	 M27.696,44.61c-2.95,0-5.33-2.39-5.33-5.34c0-2.94,2.38-5.33,5.33-5.33s5.33,2.39,5.33,5.33
	C33.026,42.22,30.646,44.61,27.696,44.61z"/>
<g>
</g>
<g>
</g>
<g>
</g>
<g>
</g>
<g>
</g>
<g>
</g>
<g>
</g>
<g>
</g>
<g>
</g>
<g>
</g>
<g>
</g>
<g>
</g>
<g>
</g>
<g>
</g>
<g>
</g>
</svg>
