<?xml version="1.0" encoding="utf-8"?>
<!-- Generator: Adobe Illustrator 16.0.4, SVG Export Plug-In . SVG Version: 6.00 Build 0)  -->
<svg version="1.2" baseProfile="tiny" id="Ebene_1" xmlns="http://www.w3.org/2000/svg" xmlns:xlink="http://www.w3.org/1999/xlink"
	 x="0px" y="0px" width="129.992px" height="43px" viewBox="0 0 129.992 43" xml:space="preserve">
<path fill="#FFFFFF" d="M129.977,18.56c-0.271-5.41-4.471-10.55-11.5-14.09c-12.26-6.17-32.561-6.96-51.101,4.67l4.851,3.26
	c16.229-9.25,33.42-8.47,43.92-3.19c5.209,2.62,8.43,6.22,8.609,9.62c0.18,3.49-2.9,6.22-5.51,7.9
	c-11.439,7.35-36.971-0.101-52.74-11.38c-8.37-5.99-19.54-11.06-29.87-13.55c-8.51-2.06-20.39-3.38-28.7,1.96
	c-6.86,4.41-8.1,9.31-7.92,12.64c0.28,5.411,4.47,10.54,11.5,14.081c8.017,4.03,19.473,5.767,31.625,3.234L45.196,43l19.13-16.891
	l-24.66-8.1l2.333,10.544c-10.869,2.26-21.047,0.762-28.153-2.813c-5.21-2.62-8.43-6.22-8.61-9.62c-0.18-3.48,2.9-6.22,5.51-7.9
	c11.41-7.33,36.95,0.15,52.73,11.44c8.37,5.99,19.54,11.04,29.879,13.529c4.051,0.971,8.871,1.771,13.711,1.771
	c5.31,0,10.64-0.97,14.99-3.771C128.916,26.779,130.156,21.891,129.977,18.56z"/>
<g>
</g>
<g>
</g>
<g>
</g>
<g>
</g>
<g>
</g>
<g>
</g>
<g>
</g>
<g>
</g>
<g>
</g>
<g>
</g>
<g>
</g>
<g>
</g>
<g>
</g>
<g>
</g>
<g>
</g>
</svg>
