<?xml version="1.0" standalone="no"?><!-- Generator: Adobe Fireworks CS6, Export SVG Extension by Aaron Beall (http://fireworks.abeall.com) . Version: 0.6.1  --><!DOCTYPE svg PUBLIC "-//W3C//DTD SVG 1.1//EN" "http://www.w3.org/Graphics/SVG/1.1/DTD/svg11.dtd"><svg id="Untitled-Page%201" viewBox="0 0 239 241" style="background-color:#ffffff00" version="1.1"	xmlns="http://www.w3.org/2000/svg" xmlns:xlink="http://www.w3.org/1999/xlink" xml:space="preserve"	x="0px" y="0px" width="239px" height="241px">	<defs>		<filter id="filter1" x="-100%" y="-100%" width="300%" height="300%">			<!-- Drop Shadow -->			<feOffset result="out" in="SourceGraphic" dx="0" dy="2"/>			<feColorMatrix result="out" in="out" type="matrix" values="0 0 0 0 0  0 0 0 0 0  0 0 0 0 0  0 0 0 0.902 0"/>			<feGaussianBlur result="out" in="out" stdDeviation="1"/>			<feBlend in="SourceGraphic" in2="out" mode="normal" result="Drop_Shadow1"/>		</filter>	</defs>	<g>		<path d="M 119.345 0 C 184.9249 0 238.0867 53.7537 238.0867 120.0637 C 238.0867 186.374 184.9249 240.1277 119.345 240.1277 C 53.7648 240.1277 0.6033 186.374 0.6033 120.0637 C 0.6033 53.7537 53.7648 0 119.345 0 ZM 119.345 17.5413 C 175.3438 17.5413 220.7385 63.4414 220.7385 120.0637 C 220.7385 176.686 175.3438 222.5864 119.345 222.5864 C 63.346 222.5864 17.9512 176.686 17.9512 120.0637 C 17.9512 63.4414 63.346 17.5413 119.345 17.5413 Z" fill="#5ceb00"/>	</g>	<text filter="url(#filter1)" x="6.6782" y="166" width="224.7053" fill="#ffffff" style="font-size: 40px; color: #ffffff; font-family: Archivo Narrow; text-align: center; "><tspan><![CDATA[Exzellente Kreativarbeit und Ideen]]></tspan></text></svg>