<?xml version="1.0" encoding="utf-8"?>
<!-- Generator: Adobe Illustrator 16.0.4, SVG Export Plug-In . SVG Version: 6.00 Build 0)  -->
<svg version="1.2" baseProfile="tiny" id="Ebene_1" xmlns="http://www.w3.org/2000/svg" xmlns:xlink="http://www.w3.org/1999/xlink"
	 x="0px" y="0px" width="107.08px" height="21.99px" viewBox="0 0 107.08 21.99" xml:space="preserve">
<path fill-rule="evenodd" fill="#FFFFFF" d="M85.75,10.68c-1.529,0-2.061,0.84-2.061,1.88v3.799c0,1.041,0.531,1.881,2.061,1.881
	c1.52,0,2.061-0.84,2.061-1.881v-3.799C87.811,11.52,87.27,10.68,85.75,10.68z M107.08,21.79h-4.88l-4.11-6.89v6.89h-4.5V1.13
	l4.5-0.75v13.29l4.11-6.53h4.88l-4.5,7.129L107.08,21.79z M92.311,15.92c0,3.061-1.271,6.03-6.551,6.03
	c-5.279,0-6.56-2.97-6.56-6.03v-2.949c0-3.071,1.28-6.031,6.56-6.031c5.28,0,6.551,2.96,6.551,6.031V15.92z M77.91,15.92
	c0,3.061-1.26,6.03-6.54,6.03s-6.57-2.97-6.57-6.03v-2.949c0-3.071,1.29-6.031,6.57-6.031s6.54,2.96,6.54,6.031V15.92z M63.51,15.84
	c0,3.551-1.01,6.141-7.15,6.141c-2.209,0-3.509-0.19-5.959-0.57V1.13l4.5-0.75v7.09c0.97-0.36,2.229-0.54,3.369-0.54
	c4.49,0,5.24,2.01,5.24,5.25V15.84z M48.9,15.77h-8.24v0.311c0,1.71,0.61,2.16,2.62,2.16c1.81,0,2.92-0.09,5.25-0.49v3.66
	c-2.25,0.46-3.42,0.58-5.62,0.58c-4.82,0-6.74-2.54-6.74-6.221v-3c0-3.209,1.42-5.839,6.36-5.839c4.95,0,6.37,2.6,6.37,5.839V15.77z
	 M34.84,11.17c-2.33-0.4-3-0.49-4.12-0.49c-2.02,0-2.63,0.44-2.63,2.16v3.24c0,1.71,0.61,2.16,2.63,2.16c1.12,0,1.79-0.09,4.12-0.49
	v3.66c-2.04,0.46-3.37,0.58-4.5,0.58c-4.82,0-6.74-2.54-6.74-6.221V13.15c0-3.68,1.92-6.22,6.74-6.22c1.13,0,2.46,0.12,4.5,0.58
	V11.17z M22.1,21.811h-3.75l-0.16-0.951c-1.71,0.951-3.23,1.111-4.24,1.111c-2.75,0-4.21-1.841-4.21-4.381c0-3,1.7-4.07,4.76-4.07
	h3.1V12.87c0-1.53-0.17-1.98-2.52-1.98h-3.84l0.37-3.75h4.2c5.16,0,6.29,1.63,6.29,5.76V21.811z M6.74,21.79H2.25v-10.9H0V7.14h2.25
	V4.88C2.25,1.82,3.51,0,7.12,0h2.99v3.75H8.24c-1.4,0-1.49,0.53-1.49,1.51L6.74,7.14h3.4l-0.4,3.75h-3V21.79z M71.359,10.68
	c-1.529,0-2.06,0.84-2.06,1.88v3.799c0,1.041,0.53,1.881,2.06,1.881c1.521,0,2.061-0.84,2.061-1.881v-3.799
	C73.42,11.52,72.88,10.68,71.359,10.68z M14.23,17.529c0,0.82,0.39,1.25,1.24,1.25c0.92,0,1.46-0.299,2.13-0.609v-1.65h-2
	C14.65,16.52,14.23,16.7,14.23,17.529z M42.53,10.31c-1.52,0-1.87,0.84-1.87,1.87v0.59h3.75v-0.59
	C44.41,11.15,44.06,10.31,42.53,10.31z M57.141,10.68c-0.91,0-1.57,0.31-2.24,0.61v6.94c0.64,0.06,1.01,0.06,1.619,0.06
	c2.201,0,2.5-1.011,2.5-2.42v-3.31C59.02,11.52,58.67,10.68,57.141,10.68z"/>
<g>
</g>
<g>
</g>
<g>
</g>
<g>
</g>
<g>
</g>
<g>
</g>
<g>
</g>
<g>
</g>
<g>
</g>
<g>
</g>
<g>
</g>
<g>
</g>
<g>
</g>
<g>
</g>
<g>
</g>
</svg>
