<?xml version="1.0" encoding="utf-8"?>
<!-- Generator: Adobe Illustrator 16.0.4, SVG Export Plug-In . SVG Version: 6.00 Build 0)  -->
<svg version="1.2" baseProfile="tiny" id="Ebene_2" xmlns="http://www.w3.org/2000/svg" xmlns:xlink="http://www.w3.org/1999/xlink"
	 x="0px" y="0px" width="80px" height="128px" viewBox="0 0 80 128" xml:space="preserve">
<rect fill="#5CEB00" width="80" height="128"/>
<rect x="2.411" y="110.361" width="75.179" height="15.378"/>
<g>
	<path fill="#FFFFFF" d="M5.715,113.413h1.116l3.488,7.34v-7.34h0.905v9.084H10.16l-3.54-7.331v7.331H5.715V113.413z"/>
	<path fill="#FFFFFF" d="M19.333,114.712c0.463,0.804,0.695,1.832,0.695,3.086c0,1.355-0.265,2.483-0.795,3.382
		c-0.622,1.056-1.509,1.583-2.662,1.583c-1.076,0-1.922-0.461-2.538-1.385c-0.549-0.891-0.824-2.016-0.824-3.376
		c0-1.229,0.235-2.28,0.705-3.154c0.603-1.121,1.495-1.682,2.676-1.682C17.825,113.166,18.739,113.681,19.333,114.712z
		 M18.497,120.502c0.373-0.777,0.56-1.672,0.56-2.683c0-1.069-0.215-1.93-0.645-2.581c-0.43-0.652-1.019-0.978-1.764-0.978
		c-0.724,0-1.314,0.322-1.771,0.968c-0.457,0.646-0.686,1.598-0.686,2.856c0,1.007,0.196,1.855,0.588,2.547s1.028,1.036,1.907,1.036
		C17.52,121.668,18.124,121.279,18.497,120.502z"/>
	<path fill="#FFFFFF" d="M21.981,113.413h1.358l2.011,7.681l1.997-7.681h1.348v9.084H27.79v-5.361c0-0.186,0.003-0.492,0.01-0.921
		s0.009-0.889,0.009-1.38l-1.997,7.662h-0.939l-2.016-7.662v0.278c0,0.223,0.005,0.562,0.014,1.018
		c0.01,0.456,0.014,0.791,0.014,1.005v5.361h-0.905V113.413z"/>
	<path fill="#FFFFFF" d="M31.079,113.413h0.957v9.084h-0.957V113.413z"/>
	<path fill="#FFFFFF" d="M34.362,113.413h1.116l3.488,7.34v-7.34h0.905v9.084h-1.064l-3.54-7.331v7.331h-0.905V113.413z"/>
	<path fill="#FFFFFF" d="M42.309,113.413h0.957v9.084h-0.957V113.413z"/>
	<path fill="#FFFFFF" d="M45.645,113.413h5.076v1.113h-4.152v2.758h3.838v1.051h-3.838v3.08h4.224v1.082h-5.147V113.413z"/>
	<path fill="#FFFFFF" d="M52.771,113.413h3.179c0.524,0,0.956,0.102,1.296,0.303c0.645,0.388,0.968,1.104,0.968,2.146
		c0,0.544-0.087,0.989-0.26,1.335c-0.173,0.347-0.415,0.625-0.727,0.835c0.273,0.145,0.479,0.334,0.617,0.569
		c0.138,0.234,0.215,0.616,0.23,1.144l0.033,1.219c0.01,0.346,0.032,0.604,0.067,0.772c0.057,0.289,0.158,0.475,0.305,0.557v0.204
		h-1.162c-0.032-0.078-0.058-0.18-0.076-0.303c-0.02-0.124-0.035-0.363-0.048-0.718l-0.057-1.515
		c-0.021-0.594-0.187-0.991-0.495-1.193c-0.176-0.111-0.452-0.167-0.828-0.167h-2.096v3.896h-0.947V113.413z M55.849,117.575
		c0.433,0,0.774-0.116,1.025-0.347c0.252-0.23,0.378-0.647,0.378-1.249c0-0.647-0.176-1.089-0.528-1.323
		c-0.188-0.124-0.439-0.186-0.755-0.186h-2.25v3.104H55.849z"/>
	<path fill="#FFFFFF" d="M65.467,113.413v1.082h-2.357v8.002h-0.957v-8.002h-2.356v-1.082H65.467z"/>
</g>
<path d="M28.889,20.133v-6.188c3.847-0.947,6.705-4.413,6.705-8.555h-4.52c0,2.372-1.923,4.296-4.293,4.296
	c-2.371,0-4.294-1.924-4.294-4.296h-4.52c0,4.142,2.857,7.607,6.704,8.555v6.188C14.054,21.192,5.763,30.155,5.763,41.059
	c0,11.615,9.409,21.032,21.017,21.032c11.607,0,21.017-9.417,21.017-21.032C47.797,30.155,39.506,21.192,28.889,20.133z
	 M26.78,57.568c-8.393,0-15.321-6.281-16.358-14.398h7.81c0.947,3.85,4.41,6.709,8.549,6.709v-4.522
	c-2.371,0-4.294-1.924-4.294-4.297c0-2.373,1.923-4.297,4.294-4.297v-4.523c-4.139,0-7.602,2.859-8.549,6.709h-7.81
	c1.036-8.122,7.965-14.398,16.358-14.398c9.113,0,16.497,7.389,16.497,16.509C43.277,50.173,35.893,57.568,26.78,57.568z"/>
<g>
	<path d="M5.52,68.472h3.154c1.07,0,1.901,0.386,2.491,1.155c0.526,0.694,0.79,1.585,0.79,2.669c0,0.838-0.155,1.596-0.466,2.272
		c-0.548,1.196-1.49,1.794-2.825,1.794H5.52V68.472z M8.464,75.449c0.354,0,0.645-0.038,0.872-0.112
		c0.406-0.141,0.739-0.408,0.998-0.807c0.207-0.318,0.355-0.727,0.447-1.225c0.052-0.297,0.079-0.572,0.079-0.826
		c0-0.979-0.19-1.737-0.57-2.277c-0.38-0.541-0.992-0.812-1.835-0.812H6.6v6.059H8.464z"/>
	<path d="M16.801,70.769c0.381,0.191,0.671,0.439,0.87,0.744c0.192,0.289,0.32,0.628,0.384,1.015
		c0.057,0.265,0.085,0.688,0.085,1.268h-4.184c0.018,0.585,0.155,1.055,0.41,1.408c0.256,0.354,0.652,0.53,1.188,0.53
		c0.501,0,0.901-0.167,1.199-0.501c0.167-0.194,0.285-0.419,0.355-0.675h0.951c-0.025,0.211-0.108,0.446-0.25,0.706
		c-0.141,0.26-0.299,0.472-0.473,0.637c-0.292,0.286-0.652,0.479-1.082,0.58c-0.231,0.058-0.492,0.086-0.784,0.086
		c-0.711,0-1.315-0.261-1.81-0.781c-0.495-0.521-0.742-1.251-0.742-2.188c0-0.924,0.249-1.675,0.748-2.251
		c0.498-0.576,1.149-0.864,1.954-0.864C16.027,70.481,16.42,70.577,16.801,70.769z M17.147,73.026
		c-0.039-0.418-0.13-0.753-0.271-1.004c-0.263-0.466-0.702-0.698-1.315-0.698c-0.44,0-0.81,0.16-1.108,0.48
		s-0.457,0.728-0.474,1.222H17.147z"/>
	<path d="M19.902,74.558c0.029,0.322,0.111,0.569,0.247,0.741c0.249,0.312,0.68,0.468,1.294,0.468c0.365,0,0.687-0.078,0.965-0.234
		c0.278-0.155,0.417-0.396,0.417-0.723c0-0.246-0.111-0.435-0.333-0.563c-0.142-0.079-0.422-0.17-0.84-0.274l-0.781-0.193
		c-0.499-0.121-0.866-0.258-1.103-0.408c-0.422-0.261-0.633-0.623-0.633-1.084c0-0.545,0.199-0.985,0.596-1.322
		c0.397-0.336,0.932-0.504,1.603-0.504c0.878,0,1.511,0.254,1.899,0.762c0.243,0.322,0.361,0.67,0.354,1.043h-0.913
		c-0.019-0.218-0.097-0.415-0.236-0.594c-0.228-0.252-0.622-0.379-1.182-0.379c-0.374,0-0.657,0.069-0.85,0.209
		c-0.192,0.139-0.289,0.322-0.289,0.551c0,0.25,0.126,0.45,0.379,0.6c0.146,0.089,0.361,0.168,0.646,0.236l0.651,0.155
		c0.708,0.168,1.182,0.331,1.423,0.489c0.376,0.246,0.564,0.635,0.564,1.165c0,0.512-0.197,0.954-0.59,1.327
		c-0.394,0.372-0.993,0.559-1.797,0.559c-0.867,0-1.48-0.194-1.841-0.583s-0.554-0.869-0.579-1.442H19.902z"/>
	<path d="M24.865,68.472h0.983v1.096h-0.983V68.472z M24.865,70.637h0.983v5.726h-0.983V70.637z"/>
	<path d="M30.56,70.841c0.182,0.125,0.368,0.308,0.557,0.548v-0.726h0.892v5.232c0,0.73-0.107,1.307-0.321,1.729
		c-0.399,0.781-1.154,1.172-2.264,1.172c-0.618,0-1.137-0.14-1.558-0.417c-0.421-0.277-0.657-0.712-0.707-1.302h0.983
		c0.046,0.258,0.139,0.456,0.278,0.596c0.217,0.215,0.559,0.322,1.025,0.322c0.737,0,1.22-0.262,1.448-0.784
		c0.135-0.308,0.198-0.857,0.187-1.649c-0.192,0.294-0.424,0.513-0.695,0.656c-0.271,0.143-0.63,0.215-1.076,0.215
		c-0.621,0-1.164-0.222-1.629-0.664s-0.698-1.174-0.698-2.193c0-0.964,0.234-1.716,0.704-2.256c0.469-0.541,1.035-0.812,1.699-0.812
		C29.833,70.508,30.225,70.619,30.56,70.841z M30.679,71.878c-0.292-0.344-0.665-0.516-1.117-0.516c-0.677,0-1.14,0.318-1.389,0.955
		c-0.132,0.341-0.198,0.786-0.198,1.338c0,0.648,0.131,1.142,0.393,1.479c0.262,0.339,0.614,0.508,1.056,0.508
		c0.691,0,1.177-0.313,1.458-0.94c0.157-0.354,0.235-0.768,0.235-1.24C31.117,72.749,30.971,72.222,30.679,71.878z"/>
	<path d="M33.45,70.61h0.918v0.816c0.272-0.337,0.561-0.579,0.865-0.726s0.643-0.22,1.015-0.22c0.816,0,1.368,0.284,1.654,0.854
		c0.158,0.312,0.236,0.758,0.236,1.338v3.689h-0.983v-3.625c0-0.352-0.052-0.635-0.156-0.85c-0.172-0.357-0.483-0.537-0.935-0.537
		c-0.229,0-0.417,0.023-0.564,0.07c-0.265,0.079-0.498,0.236-0.698,0.473c-0.161,0.189-0.266,0.386-0.314,0.588
		c-0.048,0.202-0.072,0.492-0.072,0.867v3.014H33.45V70.61z"/>
	<path d="M39.508,70.637h0.945v0.763c0.194-0.262,0.406-0.464,0.635-0.607c0.327-0.215,0.711-0.322,1.152-0.322
		c0.653,0,1.208,0.25,1.664,0.75c0.456,0.499,0.684,1.213,0.684,2.141c0,1.253-0.328,2.148-0.986,2.686
		c-0.417,0.34-0.902,0.51-1.456,0.51c-0.435,0-0.8-0.095-1.095-0.285c-0.173-0.107-0.364-0.291-0.577-0.553v2.938h-0.967V70.637z
		 M43.146,75.146c0.3-0.378,0.45-0.942,0.45-1.694c0-0.458-0.066-0.853-0.199-1.182c-0.252-0.634-0.712-0.95-1.38-0.95
		c-0.672,0-1.132,0.334-1.38,1.004c-0.133,0.358-0.199,0.812-0.199,1.364c0,0.444,0.066,0.821,0.199,1.134
		c0.252,0.594,0.712,0.891,1.38,0.891C42.47,75.712,42.846,75.523,43.146,75.146z"/>
	<path d="M45.749,70.61h0.918v0.993c0.075-0.193,0.26-0.429,0.553-0.706c0.294-0.277,0.633-0.416,1.016-0.416
		c0.018,0,0.049,0.001,0.092,0.005s0.116,0.011,0.22,0.021v1.021c-0.058-0.011-0.11-0.018-0.158-0.021
		c-0.049-0.004-0.102-0.006-0.159-0.006c-0.486,0-0.86,0.157-1.122,0.471s-0.392,0.674-0.392,1.082v3.309h-0.967V70.61z"/>
	<path d="M52.895,70.769c0.381,0.191,0.671,0.439,0.87,0.744c0.192,0.289,0.32,0.628,0.385,1.015
		c0.057,0.265,0.085,0.688,0.085,1.268h-4.184c0.018,0.585,0.154,1.055,0.41,1.408s0.652,0.53,1.188,0.53
		c0.501,0,0.9-0.167,1.199-0.501c0.167-0.194,0.285-0.419,0.354-0.675h0.951c-0.025,0.211-0.108,0.446-0.25,0.706
		s-0.299,0.472-0.473,0.637c-0.292,0.286-0.652,0.479-1.083,0.58c-0.23,0.058-0.492,0.086-0.783,0.086
		c-0.712,0-1.314-0.261-1.81-0.781c-0.494-0.521-0.742-1.251-0.742-2.188c0-0.924,0.25-1.675,0.748-2.251s1.149-0.864,1.953-0.864
		C52.121,70.481,52.514,70.577,52.895,70.769z M53.241,73.026c-0.039-0.418-0.13-0.753-0.271-1.004
		c-0.263-0.466-0.701-0.698-1.315-0.698c-0.44,0-0.81,0.16-1.108,0.48c-0.298,0.32-0.456,0.728-0.474,1.222H53.241z"/>
	<path d="M55.427,68.472h0.982v1.096h-0.982V68.472z M55.427,70.637h0.982v5.726h-0.982V70.637z"/>
	<path d="M58.445,74.558c0.029,0.322,0.112,0.569,0.247,0.741c0.249,0.312,0.68,0.468,1.294,0.468c0.365,0,0.687-0.078,0.965-0.234
		c0.277-0.155,0.416-0.396,0.416-0.723c0-0.246-0.11-0.435-0.332-0.563c-0.143-0.079-0.423-0.17-0.841-0.274l-0.781-0.193
		c-0.498-0.121-0.865-0.258-1.103-0.408c-0.422-0.261-0.633-0.623-0.633-1.084c0-0.545,0.198-0.985,0.596-1.322
		c0.397-0.336,0.932-0.504,1.604-0.504c0.878,0,1.511,0.254,1.899,0.762c0.243,0.322,0.361,0.67,0.354,1.043h-0.914
		c-0.018-0.218-0.097-0.415-0.236-0.594c-0.227-0.252-0.621-0.379-1.182-0.379c-0.374,0-0.657,0.069-0.85,0.209
		c-0.192,0.139-0.289,0.322-0.289,0.551c0,0.25,0.127,0.45,0.38,0.6c0.146,0.089,0.361,0.168,0.646,0.236l0.651,0.155
		c0.708,0.168,1.182,0.331,1.423,0.489c0.376,0.246,0.564,0.635,0.564,1.165c0,0.512-0.197,0.954-0.591,1.327
		c-0.394,0.372-0.992,0.559-1.797,0.559c-0.866,0-1.48-0.194-1.841-0.583s-0.554-0.869-0.579-1.442H58.445z"/>
	<path d="M5.52,82.472h3.154c1.07,0,1.901,0.386,2.491,1.155c0.526,0.694,0.79,1.585,0.79,2.669c0,0.838-0.155,1.596-0.466,2.272
		c-0.548,1.196-1.49,1.794-2.825,1.794H5.52V82.472z M8.464,89.449c0.354,0,0.645-0.038,0.872-0.112
		c0.406-0.141,0.739-0.408,0.998-0.807c0.207-0.318,0.355-0.727,0.447-1.225c0.052-0.297,0.079-0.572,0.079-0.826
		c0-0.979-0.19-1.737-0.57-2.277c-0.38-0.541-0.992-0.812-1.835-0.812H6.6v6.059H8.464z"/>
	<path d="M16.801,84.769c0.381,0.191,0.671,0.439,0.87,0.744c0.192,0.289,0.32,0.628,0.384,1.015
		c0.057,0.265,0.085,0.688,0.085,1.268h-4.184c0.018,0.585,0.155,1.055,0.41,1.408c0.256,0.354,0.652,0.53,1.188,0.53
		c0.501,0,0.901-0.167,1.199-0.501c0.167-0.194,0.285-0.419,0.355-0.675h0.951c-0.025,0.211-0.108,0.446-0.25,0.706
		c-0.141,0.26-0.299,0.472-0.473,0.637c-0.292,0.286-0.652,0.479-1.082,0.58c-0.231,0.058-0.492,0.086-0.784,0.086
		c-0.711,0-1.315-0.261-1.81-0.781c-0.495-0.521-0.742-1.251-0.742-2.188c0-0.924,0.249-1.675,0.748-2.251
		c0.498-0.576,1.149-0.864,1.954-0.864C16.027,84.481,16.42,84.577,16.801,84.769z M17.147,87.026
		c-0.039-0.418-0.13-0.753-0.271-1.004c-0.263-0.466-0.702-0.698-1.315-0.698c-0.44,0-0.81,0.16-1.108,0.48
		s-0.457,0.728-0.474,1.222H17.147z"/>
	<path d="M20.281,84.61v3.818c0,0.294,0.045,0.533,0.136,0.72c0.167,0.344,0.479,0.516,0.936,0.516c0.656,0,1.102-0.301,1.339-0.902
		c0.129-0.322,0.193-0.765,0.193-1.327V84.61h0.967v5.752h-0.913l0.011-0.849c-0.123,0.219-0.276,0.403-0.458,0.554
		c-0.362,0.301-0.801,0.451-1.318,0.451c-0.805,0-1.353-0.274-1.644-0.822c-0.158-0.294-0.237-0.686-0.237-1.176v-3.91H20.281z"/>
	<path d="M25.573,83.004h0.978v1.606h0.918v0.789h-0.918v3.754c0,0.201,0.068,0.335,0.204,0.403c0.075,0.039,0.201,0.06,0.376,0.06
		c0.046,0,0.097-0.002,0.15-0.004c0.054-0.003,0.116-0.009,0.188-0.018v0.768c-0.111,0.032-0.227,0.056-0.346,0.07
		c-0.12,0.014-0.25,0.021-0.39,0.021c-0.451,0-0.757-0.116-0.918-0.347c-0.161-0.231-0.242-0.531-0.242-0.899v-3.809h-0.779V84.61
		h0.779V83.004z"/>
	<path d="M29.034,88.558c0.029,0.322,0.111,0.569,0.247,0.741c0.249,0.312,0.68,0.468,1.294,0.468c0.365,0,0.687-0.078,0.965-0.234
		c0.278-0.155,0.417-0.396,0.417-0.723c0-0.246-0.111-0.435-0.333-0.563c-0.142-0.079-0.422-0.17-0.84-0.274l-0.781-0.193
		c-0.499-0.121-0.866-0.258-1.103-0.408c-0.422-0.261-0.633-0.623-0.633-1.084c0-0.545,0.199-0.985,0.596-1.322
		c0.397-0.336,0.932-0.504,1.603-0.504c0.878,0,1.511,0.254,1.899,0.762c0.243,0.322,0.361,0.67,0.354,1.043h-0.913
		c-0.019-0.218-0.097-0.415-0.236-0.594c-0.228-0.252-0.622-0.379-1.182-0.379c-0.374,0-0.657,0.069-0.85,0.209
		c-0.192,0.139-0.289,0.322-0.289,0.551c0,0.25,0.126,0.45,0.379,0.6c0.146,0.089,0.361,0.168,0.646,0.236l0.651,0.155
		c0.708,0.168,1.182,0.331,1.423,0.489c0.376,0.246,0.564,0.635,0.564,1.165c0,0.512-0.197,0.954-0.59,1.327
		c-0.394,0.372-0.993,0.559-1.797,0.559c-0.867,0-1.48-0.194-1.841-0.583s-0.554-0.869-0.579-1.442H29.034z"/>
	<path d="M37.84,84.916c0.407,0.315,0.651,0.857,0.733,1.628h-0.94c-0.057-0.355-0.188-0.649-0.392-0.884s-0.532-0.353-0.983-0.353
		c-0.616,0-1.056,0.301-1.321,0.901c-0.172,0.391-0.258,0.871-0.258,1.443c0,0.576,0.122,1.061,0.365,1.454s0.626,0.59,1.149,0.59
		c0.401,0,0.719-0.122,0.954-0.366c0.234-0.244,0.396-0.579,0.486-1.003h0.94c-0.107,0.762-0.376,1.32-0.806,1.673
		s-0.979,0.528-1.649,0.528c-0.752,0-1.352-0.274-1.799-0.824s-0.671-1.236-0.671-2.06c0-1.01,0.245-1.796,0.736-2.358
		c0.491-0.562,1.115-0.843,1.875-0.843C36.907,84.443,37.434,84.601,37.84,84.916z"/>
	<path d="M39.622,82.445h0.967v2.943c0.229-0.29,0.436-0.494,0.617-0.612c0.312-0.204,0.7-0.307,1.166-0.307
		c0.834,0,1.4,0.292,1.697,0.876c0.161,0.318,0.242,0.761,0.242,1.327v3.689h-0.994v-3.625c0-0.423-0.054-0.732-0.161-0.93
		c-0.176-0.315-0.505-0.473-0.988-0.473c-0.401,0-0.765,0.138-1.091,0.414c-0.325,0.275-0.488,0.796-0.488,1.562v3.051h-0.967
		V82.445z"/>
	<path d="M45.741,82.472h0.967v7.891h-0.967V82.472z"/>
	<path d="M51.206,86.881c0.222-0.028,0.371-0.121,0.446-0.278c0.043-0.087,0.064-0.211,0.064-0.372c0-0.331-0.117-0.571-0.352-0.72
		c-0.234-0.149-0.569-0.225-1.005-0.225c-0.504,0-0.861,0.138-1.072,0.411c-0.118,0.15-0.194,0.376-0.23,0.675h-0.902
		c0.018-0.712,0.248-1.206,0.689-1.484s0.954-0.418,1.537-0.418c0.676,0,1.225,0.129,1.646,0.387
		c0.419,0.258,0.628,0.659,0.628,1.204v3.313c0,0.101,0.021,0.181,0.062,0.242c0.041,0.061,0.128,0.091,0.261,0.091
		c0.043,0,0.092-0.003,0.145-0.008c0.055-0.006,0.111-0.014,0.172-0.024v0.715c-0.15,0.043-0.265,0.069-0.344,0.08
		c-0.078,0.011-0.186,0.016-0.322,0.016c-0.332,0-0.574-0.117-0.725-0.354c-0.079-0.126-0.135-0.303-0.166-0.532
		c-0.197,0.258-0.48,0.481-0.85,0.672c-0.368,0.189-0.774,0.284-1.219,0.284c-0.533,0-0.97-0.162-1.308-0.485
		c-0.339-0.324-0.508-0.729-0.508-1.215c0-0.533,0.167-0.946,0.499-1.239c0.334-0.293,0.771-0.475,1.311-0.542L51.206,86.881z
		 M49.17,89.493c0.205,0.16,0.446,0.24,0.726,0.24c0.34,0,0.67-0.078,0.988-0.235c0.537-0.261,0.806-0.688,0.806-1.282v-0.777
		c-0.118,0.076-0.27,0.139-0.456,0.188c-0.186,0.051-0.367,0.087-0.546,0.108l-0.585,0.074c-0.35,0.047-0.613,0.12-0.79,0.221
		c-0.299,0.168-0.448,0.436-0.448,0.804C48.864,89.112,48.967,89.332,49.17,89.493z"/>
	<path d="M54.232,84.61h0.918v0.816c0.272-0.337,0.561-0.579,0.865-0.726s0.643-0.22,1.016-0.22c0.816,0,1.367,0.284,1.654,0.854
		c0.157,0.312,0.236,0.758,0.236,1.338v3.689h-0.983v-3.625c0-0.352-0.052-0.635-0.155-0.85c-0.172-0.357-0.484-0.537-0.936-0.537
		c-0.229,0-0.417,0.023-0.563,0.07c-0.265,0.079-0.498,0.236-0.698,0.473c-0.161,0.189-0.266,0.386-0.314,0.588
		c-0.048,0.202-0.072,0.492-0.072,0.867v3.014h-0.967V84.61z"/>
	<path d="M63.562,84.787c0.172,0.107,0.366,0.296,0.584,0.563v-2.905h0.929v7.917h-0.87v-0.801c-0.225,0.355-0.49,0.611-0.797,0.769
		c-0.308,0.157-0.658,0.236-1.055,0.236c-0.639,0-1.191-0.27-1.658-0.809c-0.468-0.539-0.701-1.256-0.701-2.151
		c0-0.838,0.213-1.563,0.64-2.178c0.426-0.614,1.035-0.921,1.827-0.921C62.899,84.508,63.267,84.601,63.562,84.787z M61.404,89.101
		c0.261,0.415,0.678,0.623,1.251,0.623c0.445,0,0.812-0.193,1.098-0.578c0.287-0.385,0.431-0.938,0.431-1.656
		c0-0.728-0.147-1.266-0.443-1.614c-0.296-0.35-0.661-0.524-1.096-0.524c-0.484,0-0.877,0.187-1.179,0.559
		c-0.301,0.373-0.451,0.921-0.451,1.645C61.015,88.169,61.145,88.685,61.404,89.101z"/>
	<path d="M5.389,102.633c0.238-0.49,0.703-0.937,1.394-1.337l1.031-0.597c0.462-0.269,0.786-0.498,0.972-0.688
		c0.293-0.298,0.44-0.639,0.44-1.022c0-0.448-0.134-0.804-0.403-1.067s-0.626-0.396-1.074-0.396c-0.663,0-1.121,0.252-1.375,0.755
		c-0.136,0.27-0.211,0.643-0.226,1.12H5.166c0.011-0.67,0.134-1.216,0.371-1.639c0.419-0.744,1.158-1.117,2.218-1.117
		c0.881,0,1.524,0.238,1.931,0.715c0.406,0.477,0.609,1.006,0.609,1.59c0,0.616-0.217,1.143-0.65,1.579
		c-0.25,0.254-0.7,0.562-1.348,0.924l-0.736,0.408c-0.351,0.193-0.626,0.378-0.827,0.554c-0.358,0.311-0.583,0.656-0.677,1.036h4.2
		v0.913h-5.28C5.013,103.7,5.15,103.123,5.389,102.633z"/>
	<path d="M15.913,97.901c0.344,0.633,0.516,1.502,0.516,2.604c0,1.046-0.156,1.91-0.467,2.595c-0.451,0.98-1.189,1.471-2.213,1.471
		c-0.924,0-1.611-0.4-2.062-1.203c-0.376-0.669-0.564-1.568-0.564-2.695c0-0.874,0.113-1.624,0.338-2.251
		c0.422-1.167,1.187-1.751,2.293-1.751C14.749,96.671,15.469,97.081,15.913,97.901z M14.939,103.024
		c0.298-0.443,0.447-1.271,0.447-2.48c0-0.874-0.108-1.593-0.323-2.157c-0.215-0.563-0.633-0.846-1.253-0.846
		c-0.57,0-0.987,0.268-1.251,0.803s-0.396,1.324-0.396,2.366c0,0.784,0.084,1.414,0.253,1.891c0.258,0.727,0.699,1.09,1.323,1.09
		C14.242,103.69,14.642,103.469,14.939,103.024z"/>
	<path d="M17.613,98.916v-0.741c0.698-0.068,1.185-0.182,1.461-0.341s0.481-0.536,0.618-1.131h0.763v7.659h-1.031v-5.446H17.613z"/>
	<path d="M27.267,97.901c0.344,0.633,0.516,1.502,0.516,2.604c0,1.046-0.156,1.91-0.467,2.595c-0.451,0.98-1.189,1.471-2.213,1.471
		c-0.924,0-1.611-0.4-2.062-1.203c-0.376-0.669-0.564-1.568-0.564-2.695c0-0.874,0.113-1.624,0.338-2.251
		c0.422-1.167,1.187-1.751,2.293-1.751C26.104,96.671,26.823,97.081,27.267,97.901z M26.294,103.024
		c0.298-0.443,0.447-1.271,0.447-2.48c0-0.874-0.108-1.593-0.323-2.157c-0.215-0.563-0.633-0.846-1.253-0.846
		c-0.57,0-0.987,0.268-1.251,0.803s-0.396,1.324-0.396,2.366c0,0.784,0.084,1.414,0.253,1.891c0.258,0.727,0.699,1.09,1.323,1.09
		C25.597,103.69,25.997,103.469,26.294,103.024z"/>
</g>
</svg>
