<?xml version="1.0" encoding="utf-8"?>
<!-- Generator: Adobe Illustrator 16.0.4, SVG Export Plug-In . SVG Version: 6.00 Build 0)  -->
<svg version="1.2" baseProfile="tiny" id="svg13498" xmlns:svg="http://www.w3.org/2000/svg"
	 xmlns="http://www.w3.org/2000/svg" xmlns:xlink="http://www.w3.org/1999/xlink" x="0px" y="0px" width="200.148px" height="51px"
	 viewBox="410.455 107.955 200.148 51" xml:space="preserve">
<path id="path11596" fill="#FFFFFF" d="M484.552,144.311c0-3.89-2.91-7.146-7.063-7.146s-7.063,3.257-7.063,7.146
	c0,4.03,3.238,7.146,7.063,7.146S484.552,148.341,484.552,144.311 M486.758,144.311c0,5.249-4.154,9.208-9.27,9.208
	c-5.116,0-9.27-3.959-9.27-9.208c0-5.061,4.201-9.209,9.27-9.209S486.758,139.25,486.758,144.311"/>
<path id="path11602" fill="#FFFFFF" d="M489.269,134.633l13.283,13.895v-13.051h2.206v18.394l-13.283-13.896v13.17h-2.206V134.633z"
	/>
<path id="path11606" fill="#FFFFFF" d="M524.191,153.144h-2.207v-17.667h2.207V153.144z"/>
<path id="path11612" fill="#FFFFFF" d="M527.875,134.633l13.283,13.895v-13.051h2.205v18.394l-13.283-13.896v13.17h-2.205V134.633z"
	/>
<path id="path11618" fill="#FFFFFF" d="M547.096,135.476h9.504v2.016h-7.299v4.944h7.088v2.014h-7.088v6.679h7.299v2.016h-9.504
	V135.476z"/>
<path id="path11624" fill="#FFFFFF" d="M567.771,138.827c-0.658-1.101-1.502-1.663-2.84-1.663c-1.408,0-2.957,0.961-2.957,2.507
	c0,1.382,1.361,2.108,2.465,2.53l1.266,0.492c2.512,0.984,4.389,2.367,4.389,5.319c0,3.21-2.486,5.506-5.654,5.506
	c-2.863,0-5.094-2.107-5.469-4.943l2.229-0.469c-0.023,1.944,1.525,3.351,3.428,3.351c1.9,0,3.262-1.593,3.262-3.444
	c0-1.897-1.527-2.718-3.053-3.351l-1.219-0.516c-2.018-0.867-3.85-2.015-3.85-4.476c0-2.858,2.535-4.569,5.211-4.569
	c1.971,0,3.59,0.96,4.553,2.671L567.771,138.827z"/>
<path id="path11630" fill="#FFFFFF" d="M577.861,153.144h-2.205v-15.651h-4.201v-2.016h10.607v2.016h-4.201V153.144z"/>
<path id="path11636" fill="#FFFFFF" d="M589.084,139.554l-3.146,7.146h6.291L589.084,139.554z M585.023,148.716l-2.018,4.428h-2.371
	l8.449-18.416l8.447,18.416h-2.371l-2.018-4.428H585.023z"/>
<path id="path11642" fill="#FFFFFF" d="M601.803,143.842h0.705c2.252,0,4.693-0.422,4.693-3.233c0-2.765-2.629-3.164-4.811-3.164
	h-0.588V143.842z M610.604,153.145h-2.676l-5.209-7.475h-0.916v7.475h-2.205v-17.668h2.674c1.574,0,3.264,0.023,4.672,0.821
	c1.479,0.867,2.322,2.53,2.322,4.218c0,2.53-1.689,4.64-4.246,4.943L610.604,153.145z"/>
<path id="path11648" fill="#FFFFFF" d="M511.401,151.14h7.24v2.015h-9.446v-17.667h2.207V151.14z"/>
<path id="path11654" fill="#5CEB00" d="M461.225,133.454c0,13.957-11.331,25.271-25.31,25.271
	c-13.979,0-25.312-11.314-25.312-25.271c0-13.955,11.333-25.269,25.312-25.269C449.894,108.185,461.225,119.5,461.225,133.454"/>
<path id="path11660" fill="none" stroke="#000000" stroke-width="0.8" d="M459.668,133.454c0,13.098-10.634,23.718-23.753,23.718
	c-13.119,0-23.754-10.62-23.754-23.718c0-13.097,10.635-23.715,23.754-23.715C449.034,109.739,459.668,120.357,459.668,133.454z"/>
<path id="path11666" fill="#FFFFFF" stroke="#000000" stroke-width="0.8" d="M436.148,153.623l1.426-2.249l1.127-15.069l8.561,3.749
	l2.027-0.6l-0.227-2.175l-7.583-5.998l5.106-4.796l-0.148-1.426l-1.202-0.224l-6.459,1.5l-1.351-11.996l-1.501-1.05h-0.019
	l-1.501,1.05l-1.351,11.996l-6.457-1.5l-1.201,0.224l-0.151,1.426l5.107,4.796l-7.584,5.998l-0.227,2.175l2.029,0.6l8.561-3.749
	l1.125,15.069l1.426,2.249H436.148z"/>
<path id="path11678" fill="#FFFFFF" d="M546.971,127.368c-0.17-0.204-0.395-0.31-0.734-0.31h-0.742v3.275h0.742
	c0.34,0,0.564-0.106,0.734-0.31c0.186-0.227,0.213-0.586,0.213-1.349S547.156,127.594,546.971,127.368 M547.658,130.729
	c-0.332,0.332-0.807,0.48-1.33,0.48h-1.816v-5.027h1.816c0.523,0,0.998,0.148,1.33,0.48c0.566,0.565,0.51,1.257,0.51,2.012
	S548.225,130.164,547.658,130.729"/>
<path id="path11684" fill="#FFFFFF" d="M549.117,131.208v-5.026h3.314v0.875H550.1v1.179h1.986v0.875H550.1v1.222h2.332v0.875
	H549.117z"/>
<path id="path11690" fill="#FFFFFF" d="M555.248,127.058h-0.926v1.327h0.926c0.434,0,0.715-0.275,0.715-0.664
	C555.963,127.333,555.682,127.058,555.248,127.058 M556.014,131.208l-0.984-2.005h-0.707v2.005h-0.982v-5.026h1.973
	c1.027,0,1.635,0.699,1.635,1.539c0,0.706-0.432,1.145-0.92,1.321l1.123,2.167H556.014z"/>
<path id="path11696" fill="#FFFFFF" d="M561.396,127.058h-0.92v1.376h0.92c0.445,0,0.729-0.275,0.729-0.685
	C562.125,127.34,561.842,127.058,561.396,127.058 M561.445,129.316h-0.969v1.892h-0.982v-5.026h1.951
	c1.041,0,1.662,0.713,1.662,1.567C563.107,128.604,562.486,129.316,561.445,129.316"/>
<path id="path11702" fill="#FFFFFF" d="M565.789,127.058h-0.926v1.327h0.926c0.432,0,0.715-0.275,0.715-0.664
	C566.504,127.333,566.221,127.058,565.789,127.058 M566.555,131.208l-0.984-2.005h-0.707v2.005h-0.982v-5.026h1.973
	c1.025,0,1.633,0.699,1.633,1.539c0,0.706-0.432,1.145-0.918,1.321l1.123,2.167H566.555z"/>
<path id="path11708" fill="#FFFFFF" d="M568.451,131.208v-5.026h3.316v0.875h-2.334v1.179h1.988v0.875h-1.988v1.222h2.334v0.875
	H568.451z"/>
<path id="path11712" fill="#FFFFFF" d="M572.676,126.182h0.982v5.026h-0.982V126.182z"/>
<path id="path11718" fill="#FFFFFF" d="M576.16,131.25c-0.762,0-1.342-0.162-1.838-0.663l0.637-0.636
	c0.318,0.318,0.75,0.424,1.217,0.424c0.58,0,0.891-0.219,0.891-0.621c0-0.176-0.049-0.325-0.156-0.424
	c-0.098-0.092-0.211-0.141-0.445-0.176l-0.607-0.085c-0.432-0.063-0.75-0.198-0.977-0.417c-0.24-0.24-0.359-0.565-0.359-0.988
	c0-0.896,0.664-1.524,1.752-1.524c0.693,0,1.197,0.169,1.627,0.585l-0.621,0.615c-0.318-0.305-0.701-0.346-1.033-0.346
	c-0.523,0-0.777,0.29-0.777,0.635c0,0.127,0.043,0.262,0.148,0.36c0.1,0.092,0.262,0.169,0.467,0.198l0.594,0.084
	c0.459,0.064,0.75,0.191,0.963,0.389c0.268,0.254,0.387,0.622,0.387,1.066C578.027,130.7,577.215,131.25,576.16,131.25"/>
<path id="path11724" fill="#FFFFFF" d="M582.945,127.368c-0.17-0.204-0.396-0.31-0.736-0.31h-0.742v3.275h0.742
	c0.34,0,0.566-0.106,0.736-0.31c0.184-0.227,0.211-0.586,0.211-1.349S583.129,127.594,582.945,127.368 M583.631,130.729
	c-0.332,0.332-0.805,0.48-1.328,0.48h-1.818v-5.027h1.818c0.523,0,0.996,0.148,1.328,0.48c0.564,0.565,0.51,1.257,0.51,2.012
	S584.195,130.164,583.631,130.729"/>
<path id="path11730" fill="#FFFFFF" d="M585.09,131.208v-5.026h3.316v0.875h-2.332v1.179h1.986v0.875h-1.986v1.222h2.332v0.875
	H585.09z"/>
<path id="path11736" fill="#FFFFFF" d="M591.223,127.058h-0.926v1.327h0.926c0.432,0,0.715-0.275,0.715-0.664
	C591.938,127.333,591.654,127.058,591.223,127.058 M591.986,131.208l-0.982-2.005h-0.707v2.005h-0.982v-5.026h1.973
	c1.023,0,1.633,0.699,1.633,1.539c0,0.706-0.432,1.145-0.92,1.321l1.125,2.167H591.986z"/>
<path id="path11740" fill="#FFFFFF" d="M595.469,126.182h0.982v5.026h-0.982V126.182z"/>
<path id="path11746" fill="#FFFFFF" d="M600.029,127.368c-0.168-0.204-0.395-0.31-0.734-0.31h-0.742v3.275h0.742
	c0.34,0,0.566-0.106,0.734-0.31c0.184-0.227,0.213-0.586,0.213-1.349S600.213,127.594,600.029,127.368 M600.717,130.729
	c-0.334,0.332-0.807,0.48-1.33,0.48h-1.816v-5.027h1.816c0.523,0,0.996,0.148,1.33,0.48c0.564,0.565,0.508,1.257,0.508,2.012
	S601.281,130.164,600.717,130.729"/>
<path id="path11752" fill="#FFFFFF" d="M602.176,131.208v-5.026h3.316v0.875h-2.334v1.179h1.986v0.875h-1.986v1.222h2.334v0.875
	H602.176z"/>
<path id="path11758" fill="#FFFFFF" d="M606.398,131.208v-5.026h3.316v0.875h-2.334v1.179h1.988v0.875h-1.988v1.222h2.334v0.875
	H606.398z"/>
<path id="path11764" fill="#5CEB00" d="M471.361,129.294h0.774c4.506,0,8.402-1.687,8.402-6.818c0-5.155-3.896-6.818-8.402-6.818
	h-0.774V129.294z M469.155,113.642h3.661c5.421,0,9.927,2.859,9.927,8.74c0,6.022-4.412,8.927-9.998,8.927h-3.59V113.642z"/>
<path id="path11770" fill="#5CEB00" d="M488.54,119.641h-0.046l-2.065,11.668h-2.276l3.614-18.417l6.078,13.918l6.079-13.918
	l3.614,18.417h-2.276l-2.065-11.668h-0.048l-5.304,12.044L488.54,119.641z"/>
<path id="path11776" fill="#5CEB00" d="M509.099,119.641h-0.047l-2.065,11.668h-2.277l3.614-18.417l6.078,13.918l6.078-13.918
	l3.615,18.417h-2.277l-2.064-11.668h-0.047l-5.305,12.044L509.099,119.641z"/>
<path id="path11782" fill="#5CEB00" d="M533.225,117.719l-3.145,7.147h6.289L533.225,117.719z M529.164,126.881l-2.018,4.428h-2.371
	l8.449-18.417l8.447,18.417h-2.369l-2.018-4.428H529.164z"/>
</svg>
