<?xml version="1.0" encoding="utf-8"?>
<!-- Generator: Adobe Illustrator 16.0.4, SVG Export Plug-In . SVG Version: 6.00 Build 0)  -->
<svg version="1.2" baseProfile="tiny" id="Ebene_1" xmlns="http://www.w3.org/2000/svg" xmlns:xlink="http://www.w3.org/1999/xlink"
	 x="0px" y="0px" width="174.17px" height="47px" viewBox="0 0 174.17 47" xml:space="preserve">
<g>
	<path fill-rule="evenodd" fill="#5BEB00" d="M14.92,23h1.86V11.69H8.21V14h5.68v0.5c0,2.09-0.42,3.64-1.26,4.66
		c-0.85,1.03-2.17,1.53-3.99,1.53c-1.84,0-3.25-0.64-4.22-1.96c-0.98-1.31-1.46-3.28-1.46-5.93v-1.6c0-1.31,0.12-2.47,0.4-3.47
		c0.27-0.98,0.66-1.81,1.16-2.46c0.5-0.66,1.12-1.15,1.84-1.47c0.72-0.32,1.55-0.49,2.46-0.49c0.74,0,1.43,0.11,2.06,0.31
		c0.62,0.22,1.15,0.54,1.59,0.97c0.44,0.44,0.8,1,1.05,1.66c0.25,0.67,0.37,1.47,0.37,2.37h2.89c0-1.28-0.2-2.39-0.61-3.35
		c-0.4-0.96-0.95-1.75-1.67-2.38c-0.72-0.62-1.56-1.11-2.53-1.42C11,1.16,9.94,1,8.82,1C7.44,1,6.21,1.23,5.11,1.69
		C4.02,2.14,3.1,2.83,2.35,3.73C1.6,4.66,1.02,5.8,0.61,7.17C0.21,8.55,0,10.16,0,12c0,1.86,0.19,3.47,0.56,4.84
		c0.38,1.38,0.94,2.52,1.68,3.43c0.73,0.92,1.64,1.61,2.72,2.06C6.02,22.78,7.25,23,8.64,23c1.19,0,2.27-0.19,3.22-0.59
		c0.96-0.41,1.77-1.05,2.46-1.96L14.92,23z"/>
	<path fill-rule="evenodd" fill="#5BEB00" d="M27.23,9.42c0.47,0.75,0.72,1.83,0.72,3.27H21.6c0.07-0.72,0.18-1.36,0.33-1.91
		c0.16-0.53,0.38-0.98,0.66-1.36c0.28-0.36,0.62-0.64,1.05-0.83c0.42-0.18,0.92-0.28,1.51-0.28C26.06,8.31,26.76,8.69,27.23,9.42z
		 M20.4,8.08c-1.06,1.37-1.58,3.51-1.58,6.42c0,1.52,0.13,2.81,0.41,3.88c0.27,1.07,0.67,1.95,1.2,2.64c0.53,0.68,1.21,1.2,2,1.51
		c0.78,0.31,1.71,0.47,2.75,0.47c0.82,0,1.57-0.14,2.25-0.42c0.67-0.28,1.25-0.67,1.74-1.2c0.48-0.54,0.86-1.18,1.12-1.93
		c0.27-0.75,0.41-1.59,0.41-2.54h-2.6c0,0.59-0.07,1.11-0.21,1.57c-0.14,0.47-0.35,0.88-0.6,1.21s-0.56,0.58-0.9,0.75
		c-0.35,0.17-0.74,0.25-1.14,0.25c-1.25,0-2.18-0.46-2.77-1.38c-0.59-0.9-0.91-2.34-0.91-4.31h9.13v-1.58
		c0-1.31-0.13-2.44-0.36-3.37c-0.24-0.94-0.58-1.72-1.03-2.32c-0.47-0.59-1.05-1.03-1.74-1.31C26.87,6.14,26.06,6,25.15,6
		C23.04,6,21.46,6.7,20.4,8.08z"/>
	<path fill-rule="evenodd" fill="#5BEB00" d="M41.57,14.05v1.04c0,1.86-0.25,3.25-0.75,4.19c-0.5,0.94-1.25,1.41-2.27,1.41
		c-0.5,0-0.94-0.1-1.31-0.31c-0.38-0.21-0.69-0.54-0.94-0.99c-0.25-0.44-0.44-1.01-0.56-1.73c-0.13-0.71-0.19-1.57-0.19-2.57v-1.17
		c0-1,0.06-1.84,0.19-2.56c0.12-0.72,0.31-1.3,0.56-1.75c0.25-0.44,0.56-0.77,0.94-0.99c0.37-0.2,0.81-0.31,1.31-0.31
		C40.55,8.31,41.57,10.23,41.57,14.05z M44.19,0h-2.62v7.97h-0.16c-0.3-0.63-0.76-1.11-1.41-1.45C39.36,6.17,38.65,6,37.83,6
		c-0.7,0-1.36,0.17-1.97,0.5c-0.61,0.34-1.14,0.84-1.59,1.53c-0.45,0.69-0.81,1.58-1.08,2.64c-0.26,1.06-0.39,2.33-0.39,3.8
		c0,1.5,0.11,2.8,0.36,3.86c0.24,1.08,0.58,1.97,1.03,2.65c0.46,0.69,1,1.21,1.66,1.54c0.64,0.32,1.36,0.48,2.17,0.48
		c0.78,0,1.48-0.19,2.13-0.58c0.62-0.37,1.14-0.95,1.54-1.73h0.17L42.21,23h1.98V0z"/>
	<path fill-rule="evenodd" fill="#5BEB00" d="M55.15,16.77c0,0.65-0.11,1.23-0.31,1.71c-0.22,0.5-0.48,0.91-0.81,1.24
		c-0.35,0.33-0.72,0.58-1.13,0.73c-0.4,0.16-0.82,0.24-1.23,0.24c-0.75,0-1.31-0.17-1.69-0.53c-0.39-0.35-0.58-0.99-0.58-1.89
		c0-0.63,0.14-1.13,0.43-1.5c0.28-0.38,0.67-0.69,1.17-0.91c0.5-0.22,1.11-0.36,1.81-0.44c0.7-0.06,1.48-0.11,2.34-0.11V16.77z
		 M50.51,6.3c-0.65,0.18-1.23,0.47-1.7,0.84C48.33,7.52,47.95,8,47.68,8.56c-0.26,0.58-0.39,1.24-0.39,1.97v0.39
		c0,0.1,0,0.19,0.04,0.28h2.59v-0.36c0-0.29,0.03-0.59,0.12-0.9c0.08-0.3,0.22-0.56,0.43-0.82c0.18-0.24,0.45-0.43,0.78-0.59
		C51.58,8.39,52,8.31,52.5,8.31c0.53,0,0.98,0.08,1.33,0.21c0.34,0.12,0.6,0.31,0.81,0.53c0.19,0.23,0.33,0.51,0.4,0.83
		c0.07,0.31,0.11,0.67,0.11,1.04V13c-1.22,0-2.36,0.08-3.39,0.22c-1.04,0.16-1.95,0.42-2.7,0.81c-0.77,0.41-1.36,0.95-1.78,1.66
		c-0.44,0.72-0.64,1.62-0.64,2.75c0,0.65,0.06,1.22,0.2,1.7s0.33,0.89,0.56,1.24c0.24,0.34,0.5,0.6,0.82,0.82
		c0.31,0.22,0.62,0.38,0.95,0.49c0.33,0.12,0.66,0.2,0.98,0.25c0.32,0.04,0.63,0.06,0.91,0.06c0.87,0,1.67-0.19,2.37-0.56
		c0.71-0.38,1.29-0.92,1.72-1.61h0.16c0.16,0.65,0.47,1.19,0.94,1.58c0.45,0.4,1.03,0.59,1.72,0.59c0.42,0,0.78-0.03,1.07-0.12
		c0.29-0.1,0.5-0.18,0.66-0.27v-1.92h-1.02c-0.23,0-0.43-0.08-0.62-0.25c-0.19-0.16-0.28-0.44-0.28-0.82v-9.07
		c0-1.44-0.42-2.55-1.27-3.35C55.67,6.41,54.39,6,52.7,6C51.9,6,51.17,6.11,50.51,6.3z"/>
	<path fill-rule="evenodd" fill="#5BEB00" d="M65.8,6.55c-0.7,0.36-1.28,0.95-1.75,1.76h-0.18L63.51,6h-1.99v17h2.63V12.88
		c0-0.72,0.07-1.36,0.25-1.93c0.17-0.56,0.4-1.04,0.68-1.43c0.29-0.4,0.63-0.69,1-0.9c0.38-0.2,0.77-0.31,1.19-0.31
		c0.35,0,0.67,0.05,0.97,0.14c0.28,0.1,0.53,0.24,0.75,0.46c0.2,0.21,0.36,0.51,0.48,0.89c0.11,0.37,0.18,0.86,0.18,1.42V23h2.62
		V11.03c0-0.92-0.11-1.7-0.3-2.34c-0.2-0.63-0.48-1.14-0.84-1.55c-0.36-0.41-0.8-0.69-1.3-0.87C69.32,6.09,68.74,6,68.12,6
		C67.27,6,66.49,6.19,65.8,6.55z"/>
	<polygon fill-rule="evenodd" fill="#5BEB00" points="78.19,0 75.56,0 75.56,23 78.19,23 78.19,17.23 79.98,15.3 83.81,23 86.8,23 
		81.56,13.05 86.55,6 83.62,6 78.19,13.94 	"/>
	<path fill-rule="evenodd" fill="#5BEB00" d="M95.43,9.42c0.47,0.75,0.72,1.83,0.72,3.27h-6.351c0.07-0.72,0.181-1.36,0.33-1.91
		c0.16-0.53,0.381-0.98,0.66-1.36c0.28-0.36,0.621-0.64,1.051-0.83c0.42-0.18,0.92-0.28,1.51-0.28
		C94.26,8.31,94.959,8.69,95.43,9.42z M88.6,8.08c-1.06,1.37-1.58,3.51-1.58,6.42c0,1.52,0.13,2.81,0.41,3.88
		c0.27,1.07,0.67,1.95,1.2,2.64c0.531,0.68,1.21,1.2,2,1.51c0.781,0.31,1.711,0.47,2.75,0.47c0.82,0,1.57-0.14,2.25-0.42
		c0.67-0.28,1.25-0.67,1.74-1.2c0.48-0.54,0.86-1.18,1.12-1.93c0.271-0.75,0.41-1.59,0.41-2.54h-2.601c0,0.59-0.069,1.11-0.209,1.57
		c-0.141,0.47-0.351,0.88-0.601,1.21s-0.56,0.58-0.899,0.75c-0.351,0.17-0.74,0.25-1.141,0.25c-1.25,0-2.18-0.46-2.77-1.38
		c-0.59-0.9-0.91-2.34-0.91-4.31h9.13v-1.58c0-1.31-0.13-2.44-0.36-3.37c-0.24-0.94-0.58-1.72-1.029-2.32
		c-0.471-0.59-1.051-1.03-1.74-1.31C95.07,6.14,94.26,6,93.35,6C91.24,6,89.661,6.7,88.6,8.08z"/>
	<path fill-rule="evenodd" fill="#5BEB00" d="M105.92,6.55c-0.701,0.36-1.28,0.95-1.75,1.76h-0.181L103.629,6h-1.989v17h2.63V12.88
		c0-0.72,0.08-1.36,0.25-1.93c0.17-0.56,0.4-1.04,0.68-1.43c0.29-0.4,0.631-0.69,1-0.9c0.381-0.2,0.77-0.31,1.19-0.31
		c0.35,0,0.67,0.05,0.97,0.14c0.28,0.1,0.53,0.24,0.75,0.46c0.2,0.21,0.359,0.51,0.49,0.89c0.1,0.37,0.17,0.86,0.17,1.42V23h2.62
		V11.03c0-0.92-0.11-1.7-0.29-2.34c-0.21-0.63-0.49-1.14-0.85-1.55c-0.36-0.41-0.801-0.69-1.301-0.87C109.44,6.09,108.86,6,108.24,6
		C107.39,6,106.61,6.19,105.92,6.55z"/>
	<path fill-rule="evenodd" fill="#FFFFFF" d="M132.64,6h-2.66l-2.11,9.84c-0.109,0.52-0.199,1.02-0.279,1.5
		c-0.101,0.49-0.16,0.93-0.2,1.33c-0.08,0.47-0.15,0.91-0.19,1.33h-0.13l-0.14-1.41c-0.061-0.4-0.11-0.86-0.17-1.34l-0.19-1.41
		L124.84,6h-3.03l-1.71,9.84c-0.09,0.47-0.15,0.94-0.21,1.43c-0.07,0.48-0.11,0.93-0.16,1.34c-0.06,0.47-0.11,0.94-0.14,1.39h-0.141
		c-0.08-0.52-0.16-1.03-0.22-1.55c-0.06-0.42-0.14-0.87-0.22-1.36c-0.08-0.47-0.16-0.89-0.23-1.25L116.67,6h-2.881l4.19,17h2.92
		l1.72-9.97c0.08-0.45,0.141-0.92,0.2-1.39c0.07-0.47,0.11-0.91,0.17-1.31L123.14,9h0.12c0.029,0.44,0.08,0.89,0.14,1.33
		c0.05,0.4,0.09,0.84,0.16,1.31c0.06,0.47,0.12,0.94,0.22,1.39l1.76,9.97h2.91L132.64,6z"/>
	<path fill-rule="evenodd" fill="#FFFFFF" d="M142.549,9.42c0.471,0.75,0.721,1.83,0.721,3.27h-6.35c0.069-0.72,0.18-1.36,0.33-1.91
		c0.16-0.53,0.379-0.98,0.66-1.36c0.279-0.36,0.619-0.64,1.049-0.83c0.42-0.18,0.92-0.28,1.51-0.28
		C141.379,8.31,142.081,8.69,142.549,9.42z M135.719,8.08c-1.059,1.37-1.579,3.51-1.579,6.42c0,1.52,0.13,2.81,0.409,3.88
		c0.271,1.07,0.67,1.95,1.201,2.64c0.529,0.68,1.209,1.2,2,1.51c0.779,0.31,1.709,0.47,2.75,0.47c0.819,0,1.569-0.14,2.25-0.42
		c0.67-0.28,1.25-0.67,1.739-1.2c0.479-0.54,0.86-1.18,1.12-1.93c0.27-0.75,0.41-1.59,0.41-2.54h-2.6c0,0.59-0.07,1.11-0.211,1.57
		c-0.14,0.47-0.35,0.88-0.6,1.21s-0.561,0.58-0.9,0.75c-0.35,0.17-0.74,0.25-1.14,0.25c-1.25,0-2.18-0.46-2.771-1.38
		c-0.59-0.9-0.909-2.34-0.909-4.31h9.13v-1.58c0-1.31-0.13-2.44-0.359-3.37c-0.24-0.94-0.58-1.72-1.031-2.32
		c-0.469-0.59-1.049-1.03-1.739-1.31c-0.7-0.28-1.511-0.42-2.421-0.42C138.36,6,136.78,6.7,135.719,8.08z"/>
	<path fill-rule="evenodd" fill="#FFFFFF" d="M153.06,6.22c-0.31,0.16-0.58,0.34-0.8,0.58c-0.23,0.25-0.42,0.51-0.58,0.81
		c-0.15,0.3-0.29,0.59-0.391,0.91h-0.18L150.75,6h-1.99v17h2.63V12.88c0-0.74,0.079-1.36,0.25-1.86c0.17-0.5,0.399-0.9,0.68-1.21
		c0.29-0.29,0.63-0.51,1-0.65c0.38-0.13,0.771-0.21,1.19-0.21h0.88V6h-0.38h-0.391h-0.479C153.73,6,153.37,6.08,153.06,6.22z"/>
	<polygon fill-rule="evenodd" fill="#FFFFFF" points="160.43,0 157.799,0 157.799,23 160.43,23 160.43,17.23 162.219,15.3 
		166.049,23 169.04,23 163.799,13.05 168.79,6 165.86,6 160.43,13.94 	"/>
	<rect x="170.969" y="20" fill-rule="evenodd" fill="#5BEB00" width="3.201" height="3"/>
</g>
<g>
	<path fill-rule="evenodd" fill="#FFFFFF" d="M4.55,34.84c0.03-0.09,0.06-0.23,0.1-0.4c0.03-0.17,0.07-0.35,0.1-0.5
		c0.02-0.189,0.05-0.379,0.1-0.6h0.06c0.03,0.21,0.08,0.391,0.11,0.58c0.02,0.17,0.05,0.35,0.08,0.52c0.03,0.17,0.08,0.311,0.11,0.4
		l1.67,6.08H2.86L4.55,34.84z M8.18,45h1.7L5.96,32H3.93L0,45h1.58l0.85-2.73h4.89L8.18,45z"/>
	<path fill-rule="evenodd" fill="#FFFFFF" d="M15.94,35.811c0.27,0.31,0.41,0.75,0.41,1.33c0,0.56-0.14,1-0.41,1.31
		c-0.28,0.319-0.67,0.47-1.2,0.47c-0.53,0-0.94-0.141-1.2-0.449c-0.27-0.311-0.39-0.75-0.39-1.33c0-0.551,0.12-0.98,0.39-1.311
		c0.26-0.311,0.67-0.49,1.2-0.49C15.27,35.34,15.66,35.5,15.94,35.811z M16.16,44c0.19,0,0.35,0.02,0.49,0.061
		c0.14,0.029,0.26,0.1,0.36,0.17c0.09,0.069,0.15,0.16,0.2,0.27c0.03,0.09,0.06,0.2,0.06,0.33c0,0.109-0.03,0.22-0.09,0.33
		c-0.07,0.07-0.14,0.17-0.24,0.26c-0.09,0.061-0.22,0.13-0.34,0.17c-0.14,0.03-0.28,0.07-0.44,0.07h-2.62
		c-0.19,0-0.35-0.04-0.47-0.07c-0.14-0.04-0.25-0.109-0.35-0.17c-0.09-0.09-0.17-0.189-0.21-0.26c-0.05-0.11-0.07-0.221-0.07-0.33
		c0-0.13,0.02-0.24,0.07-0.33c0.04-0.109,0.1-0.2,0.2-0.27c0.09-0.07,0.2-0.141,0.34-0.17C13.18,44.02,13.35,44,13.54,44H16.16z
		 M17.29,32.5c-0.03,0.189-0.07,0.359-0.11,0.52c-0.05,0.15-0.11,0.32-0.19,0.48c-0.09,0.16-0.2,0.311-0.34,0.471
		c-0.14,0.149-0.32,0.279-0.54,0.409c-0.2-0.11-0.42-0.21-0.65-0.271C15.22,34.05,14.99,34,14.76,34c-0.49,0-0.93,0.08-1.3,0.221
		c-0.39,0.139-0.72,0.34-0.99,0.609c-0.26,0.279-0.46,0.609-0.61,0.98c-0.14,0.379-0.2,0.81-0.2,1.279c0,0.53,0.1,0.99,0.28,1.381
		c0.19,0.409,0.47,0.729,0.82,1c-0.41,0.189-0.72,0.439-0.97,0.779s-0.36,0.77-0.36,1.23c0,0.359,0.06,0.709,0.2,1.02
		c0.13,0.311,0.31,0.561,0.56,0.75c-0.18,0.061-0.36,0.16-0.51,0.279c-0.16,0.131-0.28,0.25-0.38,0.41
		c-0.11,0.141-0.19,0.311-0.25,0.5c-0.06,0.181-0.08,0.371-0.08,0.59c0,0.271,0.05,0.521,0.14,0.771c0.1,0.229,0.25,0.431,0.44,0.62
		c0.19,0.17,0.44,0.311,0.74,0.42c0.29,0.1,0.64,0.16,1.03,0.16h2.67c0.44,0,0.84-0.061,1.19-0.189c0.34-0.121,0.64-0.291,0.87-0.5
		c0.24-0.23,0.41-0.48,0.53-0.761c0.13-0.3,0.19-0.61,0.19-0.94c0-0.27-0.06-0.52-0.16-0.75c-0.1-0.239-0.26-0.439-0.45-0.629
		c-0.19-0.17-0.42-0.311-0.7-0.42c-0.28-0.09-0.58-0.15-0.92-0.15h-2.71c-0.12,0-0.23-0.04-0.32-0.1
		c-0.11-0.061-0.21-0.141-0.29-0.25c-0.07-0.11-0.14-0.23-0.18-0.391c-0.05-0.141-0.07-0.3-0.07-0.47c0-0.15,0.02-0.31,0.07-0.45
		c0.03-0.141,0.09-0.27,0.18-0.38c0.08-0.101,0.18-0.2,0.27-0.261c0.09-0.06,0.22-0.09,0.34-0.09h1c0.44,0,0.86-0.069,1.24-0.22
		c0.37-0.14,0.69-0.35,0.95-0.61c0.27-0.25,0.47-0.58,0.61-0.959c0.14-0.371,0.22-0.811,0.22-1.28c0-0.45-0.08-0.86-0.24-1.22
		c-0.15-0.34-0.35-0.65-0.6-0.931c0.25-0.069,0.46-0.19,0.65-0.35c0.19-0.15,0.36-0.341,0.5-0.56c0.14-0.221,0.25-0.471,0.31-0.75
		c0.07-0.281,0.11-0.58,0.11-0.891H17.29z"/>
	<path fill-rule="evenodd" fill="#FFFFFF" d="M24.94,37c0.27,0.439,0.41,1.08,0.41,1.92h-3.56c0.03-0.42,0.08-0.8,0.17-1.109
		c0.09-0.311,0.22-0.59,0.38-0.811c0.15-0.221,0.34-0.38,0.59-0.48c0.23-0.109,0.51-0.18,0.84-0.18
		C24.29,36.34,24.68,36.561,24.94,37z M21.1,36.221C20.51,37.029,20.21,38.3,20.21,40c0,0.891,0.08,1.66,0.23,2.279
		c0.16,0.631,0.38,1.141,0.69,1.551c0.3,0.4,0.67,0.699,1.11,0.891C22.68,44.91,23.19,45,23.79,45c0.47,0,0.89-0.08,1.26-0.25
		c0.38-0.16,0.71-0.391,0.99-0.7c0.26-0.319,0.47-0.69,0.62-1.13c0.16-0.439,0.24-0.939,0.24-1.5h-1.46c0,0.35-0.04,0.66-0.12,0.939
		c-0.09,0.281-0.2,0.521-0.34,0.701c-0.14,0.189-0.32,0.35-0.5,0.439c-0.21,0.109-0.43,0.16-0.64,0.16c-0.71,0-1.22-0.27-1.57-0.82
		c-0.34-0.54-0.51-1.4-0.51-2.57h5.14v-0.93c0-0.76-0.08-1.42-0.21-1.98c-0.12-0.549-0.32-1-0.57-1.34
		c-0.27-0.35-0.6-0.609-0.99-0.77S24.29,35,23.77,35C22.59,35,21.69,35.41,21.1,36.221z"/>
	<path fill-rule="evenodd" fill="#FFFFFF" d="M31.66,35.311c-0.39,0.219-0.71,0.569-0.98,1.049h-0.09L30.38,35h-1.12v10h1.48v-5.971
		c0-0.42,0.05-0.799,0.14-1.139c0.1-0.33,0.22-0.611,0.38-0.841c0.15-0.22,0.34-0.39,0.56-0.521c0.22-0.119,0.44-0.189,0.67-0.189
		c0.19,0,0.38,0.04,0.55,0.08c0.16,0.061,0.3,0.16,0.42,0.28c0.11,0.13,0.2,0.3,0.27,0.521c0.06,0.219,0.11,0.5,0.11,0.84V45h1.46
		v-7.05c0-0.53-0.06-1-0.17-1.37c-0.11-0.38-0.26-0.67-0.47-0.91c-0.2-0.23-0.45-0.4-0.73-0.51c-0.28-0.1-0.61-0.16-0.95-0.16
		C32.49,35,32.05,35.109,31.66,35.311z"/>
	<path fill-rule="evenodd" fill="#FFFFFF" d="M39.45,32h-1.16l-0.33,3h-0.81v1.34h0.81v6.391c0,0.289,0.02,0.569,0.08,0.83
		c0.06,0.279,0.16,0.52,0.28,0.739c0.13,0.22,0.3,0.39,0.52,0.511C39.06,44.939,39.32,45,39.65,45c0.19,0,0.38-0.02,0.58-0.061
		c0.19-0.049,0.36-0.109,0.48-0.189V43.7h-0.42c-0.28,0-0.5-0.08-0.64-0.229c-0.14-0.16-0.2-0.381-0.2-0.671v-6.46h1.26V35h-1.26V32
		z"/>
	<path fill-rule="evenodd" fill="#FFFFFF" d="M48.74,35h-1.46v5.971c0,0.439-0.07,0.809-0.16,1.139
		c-0.09,0.33-0.23,0.611-0.39,0.841c-0.16,0.239-0.34,0.409-0.56,0.53c-0.22,0.129-0.44,0.18-0.66,0.18c-0.2,0-0.39-0.02-0.55-0.08
		c-0.15-0.051-0.29-0.141-0.42-0.27c-0.12-0.121-0.2-0.291-0.26-0.511c-0.07-0.22-0.1-0.5-0.1-0.85V35H42.7v7.05
		c0,0.54,0.04,1,0.17,1.37c0.11,0.38,0.27,0.689,0.47,0.92c0.19,0.24,0.44,0.41,0.73,0.5c0.28,0.11,0.61,0.16,0.97,0.16
		c0.47,0,0.89-0.09,1.3-0.3c0.39-0.2,0.72-0.54,0.98-1.04h0.11L47.64,45h1.1V35z"/>
	<path fill-rule="evenodd" fill="#FFFFFF" d="M53.84,35.109c-0.17,0.061-0.33,0.16-0.45,0.271c-0.13,0.101-0.24,0.229-0.33,0.351
		c-0.09,0.149-0.16,0.289-0.22,0.43h-0.09L52.54,35h-1.12v10h1.48v-6.25c0-0.439,0.05-0.811,0.14-1.13c0.1-0.31,0.22-0.56,0.38-0.74
		c0.15-0.19,0.34-0.319,0.56-0.409c0.22-0.08,0.44-0.131,0.67-0.131h0.5v-1.22l-0.22-0.06c-0.06,0-0.14-0.011-0.21-0.031
		C54.62,35.02,54.54,35,54.45,35C54.22,35,54.01,35.05,53.84,35.109z"/>
	<path fill-rule="evenodd" fill="#FFFFFF" d="M62.73,32.16c-0.25,0.109-0.43,0.25-0.57,0.4c-0.15,0.17-0.24,0.359-0.3,0.56
		c-0.06,0.22-0.08,0.43-0.08,0.649V35h-0.84v1.34h0.84V45h1.47v-8.66h1.64V35h-1.64v-1.08c0-0.189,0.06-0.33,0.2-0.42
		c0.14-0.09,0.36-0.16,0.64-0.16h0.8v-1.09c-0.16-0.061-0.36-0.109-0.58-0.17C64.08,32.029,63.86,32,63.64,32
		C63.28,32,62.98,32.061,62.73,32.16z"/>
	<path fill-rule="evenodd" fill="#FFFFFF" d="M69.03,32h-1.56v1.34h1.56V32z M71.73,32h-1.56v1.34h1.56V32z M72.62,35h-1.46v5.971
		c0,0.439-0.07,0.809-0.16,1.139s-0.23,0.611-0.39,0.841c-0.16,0.239-0.34,0.409-0.56,0.53c-0.22,0.129-0.44,0.18-0.66,0.18
		c-0.2,0-0.39-0.02-0.55-0.08c-0.15-0.051-0.29-0.141-0.42-0.27c-0.12-0.121-0.2-0.291-0.26-0.511c-0.07-0.22-0.1-0.5-0.1-0.85V35
		h-1.48v7.05c0,0.54,0.04,1,0.17,1.37c0.11,0.38,0.27,0.689,0.47,0.92c0.19,0.24,0.44,0.41,0.73,0.5c0.28,0.11,0.61,0.16,0.97,0.16
		c0.47,0,0.89-0.09,1.3-0.3c0.39-0.2,0.72-0.54,0.98-1.04h0.11L71.52,45h1.1V35z"/>
	<path fill-rule="evenodd" fill="#FFFFFF" d="M77.72,35.109c-0.17,0.061-0.33,0.16-0.45,0.271c-0.13,0.101-0.24,0.229-0.33,0.351
		c-0.09,0.149-0.16,0.289-0.22,0.43h-0.09L76.42,35H75.3v10h1.48v-6.25c0-0.439,0.05-0.811,0.14-1.13c0.1-0.31,0.22-0.56,0.38-0.74
		c0.15-0.19,0.34-0.319,0.56-0.409c0.22-0.08,0.44-0.131,0.67-0.131h0.5v-1.22l-0.22-0.06c-0.06,0-0.14-0.011-0.21-0.031
		C78.5,35.02,78.42,35,78.33,35C78.1,35,77.89,35.05,77.72,35.109z"/>
	<path fill-rule="evenodd" fill="#FFFFFF" d="M88.14,35.311c-0.39,0.219-0.71,0.569-0.98,1.049h-0.09L86.86,35h-1.12v10h1.48v-5.971
		c0-0.42,0.05-0.799,0.14-1.139c0.1-0.33,0.22-0.611,0.38-0.841c0.15-0.22,0.34-0.39,0.56-0.521c0.22-0.119,0.44-0.189,0.669-0.189
		c0.191,0,0.381,0.04,0.551,0.08c0.16,0.061,0.3,0.16,0.42,0.28c0.109,0.13,0.2,0.3,0.27,0.521c0.061,0.219,0.11,0.5,0.11,0.84V45
		h1.47v-7.05c0-0.53-0.07-1-0.18-1.37c-0.109-0.38-0.26-0.67-0.47-0.91c-0.2-0.23-0.45-0.4-0.729-0.51
		c-0.281-0.1-0.611-0.16-0.951-0.16C88.969,35,88.54,35.109,88.14,35.311z"/>
	<path fill-rule="evenodd" fill="#FFFFFF" d="M98.86,37c0.27,0.439,0.41,1.08,0.41,1.92h-3.561c0.03-0.42,0.08-0.8,0.17-1.109
		C95.969,37.5,96.1,37.221,96.26,37c0.15-0.221,0.34-0.38,0.59-0.48c0.23-0.109,0.51-0.18,0.84-0.18
		C98.209,36.34,98.6,36.561,98.86,37z M95.02,36.221C94.43,37.029,94.129,38.3,94.129,40c0,0.891,0.08,1.66,0.23,2.279
		c0.16,0.631,0.38,1.141,0.689,1.551c0.301,0.4,0.67,0.699,1.111,0.891C96.6,44.91,97.11,45,97.709,45c0.471,0,0.891-0.08,1.26-0.25
		c0.381-0.16,0.711-0.391,0.99-0.7c0.26-0.319,0.471-0.69,0.621-1.13c0.159-0.439,0.239-0.939,0.239-1.5h-1.46
		c0,0.35-0.04,0.66-0.12,0.939c-0.09,0.281-0.2,0.521-0.34,0.701c-0.14,0.189-0.319,0.35-0.5,0.439
		c-0.21,0.109-0.431,0.16-0.64,0.16c-0.711,0-1.221-0.27-1.57-0.82c-0.34-0.54-0.51-1.4-0.51-2.57h5.14v-0.93
		c0-0.76-0.08-1.42-0.21-1.98c-0.12-0.549-0.32-1-0.57-1.34c-0.27-0.35-0.6-0.609-0.99-0.77C98.661,35.09,98.209,35,97.69,35
		C96.51,35,95.61,35.41,95.02,36.221z"/>
	<path fill-rule="evenodd" fill="#FFFFFF" d="M109.23,35h-1.47v5.971c0,0.439-0.07,0.809-0.16,1.139s-0.23,0.611-0.391,0.841
		c-0.16,0.239-0.34,0.409-0.56,0.53c-0.22,0.129-0.44,0.18-0.66,0.18c-0.2,0-0.39-0.02-0.55-0.08c-0.15-0.051-0.29-0.141-0.42-0.27
		c-0.12-0.121-0.2-0.291-0.26-0.511c-0.07-0.22-0.1-0.5-0.1-0.85V35h-1.48v7.05c0,0.54,0.05,1,0.17,1.37
		c0.109,0.38,0.27,0.689,0.47,0.92c0.19,0.24,0.44,0.41,0.729,0.5c0.281,0.11,0.611,0.16,0.971,0.16c0.47,0,0.891-0.09,1.3-0.3
		c0.39-0.2,0.72-0.54,0.979-1.04h0.111L108.12,45h1.11V35z"/>
	<path fill-rule="evenodd" fill="#FFFFFF" d="M116.299,37c0.271,0.439,0.41,1.08,0.41,1.92h-3.56c0.03-0.42,0.08-0.8,0.17-1.109
		c0.091-0.311,0.22-0.59,0.38-0.811c0.15-0.221,0.34-0.38,0.59-0.48c0.23-0.109,0.51-0.18,0.84-0.18
		C115.65,36.34,116.04,36.561,116.299,37z M112.459,36.221c-0.59,0.809-0.89,2.079-0.89,3.779c0,0.891,0.08,1.66,0.229,2.279
		c0.16,0.631,0.381,1.141,0.69,1.551c0.3,0.4,0.671,0.699,1.11,0.891C114.04,44.91,114.549,45,115.15,45
		c0.47,0,0.89-0.08,1.261-0.25c0.379-0.16,0.709-0.391,0.989-0.7c0.261-0.319,0.47-0.69,0.62-1.13c0.16-0.439,0.24-0.939,0.24-1.5
		h-1.461c0,0.35-0.039,0.66-0.119,0.939c-0.09,0.281-0.2,0.521-0.34,0.701c-0.141,0.189-0.32,0.35-0.5,0.439
		c-0.211,0.109-0.43,0.16-0.641,0.16c-0.71,0-1.22-0.27-1.57-0.82c-0.34-0.54-0.51-1.4-0.51-2.57h5.141v-0.93
		c0-0.76-0.08-1.42-0.211-1.98c-0.119-0.549-0.319-1-0.569-1.34c-0.271-0.35-0.601-0.609-0.99-0.77s-0.84-0.25-1.36-0.25
		C113.95,35,113.049,35.41,112.459,36.221z"/>
	<path fill-rule="evenodd" fill="#FFFFFF" d="M135.45,45V32h-2.41l-2.189,8.689c-0.061,0.23-0.12,0.511-0.17,0.86
		c-0.04,0.341-0.09,0.65-0.12,0.97c-0.05,0.371-0.08,0.76-0.101,1.141h-0.069c-0.05-0.381-0.101-0.75-0.13-1.131
		c-0.021-0.149-0.03-0.309-0.061-0.479c-0.029-0.159-0.05-0.329-0.08-0.489c-0.029-0.15-0.05-0.311-0.08-0.471
		c-0.029-0.15-0.05-0.279-0.08-0.4L127.79,32h-2.42v13h1.44v-9.609c0-0.091-0.021-0.25-0.03-0.48c-0.02-0.221-0.04-0.46-0.04-0.689
		c-0.03-0.271-0.04-0.561-0.06-0.881h0.08c0.05,0.33,0.09,0.631,0.16,0.891c0.01,0.129,0.029,0.24,0.06,0.35
		c0.01,0.12,0.03,0.23,0.06,0.33l0.051,0.29c0.01,0.1,0.029,0.159,0.06,0.19L129.6,45h1.43l2.46-9.609
		c0.04-0.111,0.07-0.281,0.11-0.511c0.05-0.22,0.1-0.46,0.16-0.69l0.16-0.85h0.06c-0.03,0.32-0.05,0.6-0.06,0.85l-0.051,0.69
		c-0.02,0.229-0.02,0.399-0.02,0.511V45H135.45z"/>
	<path fill-rule="evenodd" fill="#FFFFFF" d="M142.459,37c0.271,0.439,0.41,1.08,0.41,1.92h-3.56c0.03-0.42,0.08-0.8,0.17-1.109
		c0.09-0.311,0.22-0.59,0.38-0.811c0.15-0.221,0.34-0.38,0.59-0.48c0.23-0.109,0.51-0.18,0.84-0.18
		C141.81,36.34,142.2,36.561,142.459,37z M138.62,36.221c-0.59,0.809-0.89,2.079-0.89,3.779c0,0.891,0.08,1.66,0.229,2.279
		c0.16,0.631,0.381,1.141,0.69,1.551c0.3,0.4,0.67,0.699,1.11,0.891C140.2,44.91,140.709,45,141.31,45c0.47,0,0.89-0.08,1.26-0.25
		c0.38-0.16,0.71-0.391,0.99-0.7c0.26-0.319,0.47-0.69,0.62-1.13c0.16-0.439,0.24-0.939,0.24-1.5h-1.461
		c0,0.35-0.039,0.66-0.119,0.939c-0.09,0.281-0.2,0.521-0.34,0.701c-0.141,0.189-0.32,0.35-0.5,0.439
		c-0.211,0.109-0.431,0.16-0.641,0.16c-0.71,0-1.22-0.27-1.57-0.82c-0.34-0.54-0.51-1.4-0.51-2.57h5.141v-0.93
		c0-0.76-0.08-1.42-0.211-1.98c-0.119-0.549-0.319-1-0.569-1.34c-0.271-0.35-0.601-0.609-0.99-0.77S141.81,35,141.29,35
		C140.11,35,139.209,35.41,138.62,36.221z"/>
	<path fill-rule="evenodd" fill="#FFFFFF" d="M151.36,39.73v0.629c0,1.091-0.141,1.92-0.43,2.471c-0.28,0.561-0.711,0.83-1.28,0.83
		c-0.28,0-0.53-0.07-0.729-0.189c-0.221-0.131-0.391-0.311-0.53-0.58c-0.14-0.271-0.25-0.611-0.31-1.031
		c-0.08-0.409-0.111-0.909-0.111-1.5V39.66c0-0.6,0.031-1.1,0.111-1.52c0.06-0.41,0.17-0.75,0.31-1.021
		c0.14-0.261,0.31-0.46,0.53-0.591c0.199-0.119,0.449-0.189,0.729-0.189C150.78,36.34,151.36,37.48,151.36,39.73z M152.831,32
		h-1.471v4.16h-0.1c-0.17-0.36-0.43-0.641-0.791-0.85C150.11,35.109,149.7,35,149.25,35c-0.391,0-0.75,0.109-1.101,0.3
		c-0.34,0.2-0.649,0.5-0.899,0.9c-0.25,0.409-0.461,0.92-0.61,1.55c-0.16,0.63-0.22,1.37-0.22,2.23c0,0.899,0.06,1.66,0.199,2.289
		c0.131,0.621,0.33,1.141,0.58,1.541c0.25,0.41,0.561,0.719,0.94,0.91C148.5,44.91,148.9,45,149.36,45c0.43,0,0.82-0.109,1.18-0.33
		c0.36-0.22,0.66-0.561,0.881-1.01h0.09l0.209,1.34h1.111V32z"/>
	<path fill-rule="evenodd" fill="#FFFFFF" d="M156.799,32h-1.469v1.34h1.469V32z M156.799,35h-1.469v10h1.469V35z"/>
	<path fill-rule="evenodd" fill="#FFFFFF" d="M163.62,37c0.271,0.439,0.41,1.08,0.41,1.92h-3.561c0.031-0.42,0.08-0.8,0.171-1.109
		c0.09-0.311,0.22-0.59,0.38-0.811c0.15-0.221,0.34-0.38,0.59-0.48c0.23-0.109,0.51-0.18,0.84-0.18
		C162.969,36.34,163.36,36.561,163.62,37z M159.78,36.221c-0.59,0.809-0.89,2.079-0.89,3.779c0,0.891,0.079,1.66,0.229,2.279
		c0.16,0.631,0.381,1.141,0.69,1.551c0.3,0.4,0.67,0.699,1.11,0.891C161.36,44.91,161.87,45,162.469,45
		c0.471,0,0.891-0.08,1.261-0.25c0.38-0.16,0.71-0.391,0.989-0.7c0.261-0.319,0.471-0.69,0.621-1.13c0.16-0.439,0.24-0.939,0.24-1.5
		h-1.461c0,0.35-0.039,0.66-0.119,0.939c-0.09,0.281-0.201,0.521-0.34,0.701c-0.141,0.189-0.32,0.35-0.5,0.439
		c-0.211,0.109-0.431,0.16-0.641,0.16c-0.71,0-1.221-0.27-1.57-0.82c-0.34-0.54-0.51-1.4-0.51-2.57h5.141v-0.93
		c0-0.76-0.08-1.42-0.211-1.98c-0.119-0.549-0.32-1-0.57-1.34c-0.27-0.35-0.6-0.609-0.989-0.77S162.969,35,162.45,35
		C161.27,35,160.37,35.41,159.78,36.221z"/>
	<path fill-rule="evenodd" fill="#FFFFFF" d="M170.34,35.311c-0.391,0.219-0.711,0.569-0.98,1.049h-0.09L169.06,35h-1.12v10h1.48
		v-5.971c0-0.42,0.049-0.799,0.14-1.139c0.101-0.33,0.22-0.611,0.38-0.841c0.15-0.22,0.34-0.39,0.561-0.521
		c0.219-0.119,0.439-0.189,0.67-0.189c0.189,0,0.379,0.04,0.549,0.08c0.16,0.061,0.301,0.16,0.421,0.28
		c0.11,0.13,0.2,0.3,0.271,0.521c0.059,0.219,0.109,0.5,0.109,0.84V45h1.47v-7.05c0-0.53-0.069-1-0.18-1.37
		c-0.11-0.38-0.261-0.67-0.47-0.91c-0.2-0.23-0.45-0.4-0.73-0.51c-0.279-0.1-0.609-0.16-0.949-0.16
		C171.17,35,170.74,35.109,170.34,35.311z"/>
</g>
<g>
</g>
<g>
</g>
<g>
</g>
<g>
</g>
<g>
</g>
<g>
</g>
<g>
</g>
<g>
</g>
<g>
</g>
<g>
</g>
<g>
</g>
<g>
</g>
<g>
</g>
<g>
</g>
<g>
</g>
</svg>
