<?xml version="1.0" encoding="utf-8"?>
<!-- Generator: Adobe Illustrator 16.0.4, SVG Export Plug-In . SVG Version: 6.00 Build 0)  -->
<svg version="1.2" baseProfile="tiny" id="Ebene_1" xmlns="http://www.w3.org/2000/svg" xmlns:xlink="http://www.w3.org/1999/xlink"
	 x="0px" y="0px" width="178px" height="50.333px" viewBox="0 0 178 50.333" xml:space="preserve">
<text transform="matrix(1 0 0 1 0 24.3335)" fill="#5BEB00" font-family="'ArchivoNarrow-Regular'" font-size="32">G</text>
<text transform="matrix(1 0 0 1 19.8135 24.3335)" fill="#5BEB00" font-family="'ArchivoNarrow-Regular'" font-size="32">e</text>
<text transform="matrix(1 0 0 1 33.7998 24.3335)" fill="#5BEB00" font-family="'ArchivoNarrow-Regular'" font-size="32">d</text>
<text transform="matrix(1 0 0 1 47.7852 24.3335)" fill="#5BEB00" font-family="'ArchivoNarrow-Regular'" font-size="32">a</text>
<text transform="matrix(1 0 0 1 61.7715 24.3335)" fill="#5BEB00" font-family="'ArchivoNarrow-Regular'" font-size="32">n</text>
<text transform="matrix(1 0 0 1 75.7568 24.3335)" fill="#5BEB00" font-family="'ArchivoNarrow-Regular'" font-size="32">k</text>
<text transform="matrix(1 0 0 1 88.2734 24.3335)" fill="#5BEB00" font-family="'ArchivoNarrow-Regular'" font-size="32">e</text>
<text transform="matrix(1 0 0 1 102.2598 24.3335)" fill="#5BEB00" font-family="'ArchivoNarrow-Regular'" font-size="32">n</text>
<text transform="matrix(1 0 0 1 116.2451 24.3335)" fill="#FFFFFF" font-family="'ArchivoNarrow-Regular'" font-size="32">w</text>
<text transform="matrix(1 0 0 1 134.5752 24.3335)" fill="#FFFFFF" font-family="'ArchivoNarrow-Regular'" font-size="32">e</text>
<text transform="matrix(1 0 0 1 148.5605 24.3335)" fill="#FFFFFF" font-family="'ArchivoNarrow-Regular'" font-size="32">r</text>
<text transform="matrix(1 0 0 1 156.6865 24.3335)" fill="#FFFFFF" font-family="'ArchivoNarrow-Regular'" font-size="32">k</text>
<text transform="matrix(1 0 0 1 169.2041 24.3335)" fill="#5BEB00" font-family="'ArchivoNarrow-Regular'" font-size="32">.</text>
<text transform="matrix(1 0 0 1 2.1426 46.1968)" fill="#FFFFFF" font-family="'ArchivoNarrow-Regular'" font-size="18">A</text>
<text transform="matrix(1 0 0 1 12.5625 46.1968)" fill="#FFFFFF" font-family="'ArchivoNarrow-Regular'" font-size="18">g</text>
<text transform="matrix(1 0 0 1 21.3477 46.1968)" fill="#FFFFFF" font-family="'ArchivoNarrow-Regular'" font-size="18">e</text>
<text transform="matrix(1 0 0 1 30.1318 46.1968)" fill="#FFFFFF" font-family="'ArchivoNarrow-Regular'" font-size="18">n</text>
<text transform="matrix(1 0 0 1 38.917 46.1968)" fill="#FFFFFF" font-family="'ArchivoNarrow-Regular'" font-size="18">t</text>
<text transform="matrix(1 0 0 1 43.5977 46.1968)" fill="#FFFFFF" font-family="'ArchivoNarrow-Regular'" font-size="18">u</text>
<text transform="matrix(1 0 0 1 52.3828 46.1968)" fill="#FFFFFF" font-family="'ArchivoNarrow-Regular'" font-size="18">r</text>
<text transform="matrix(1 0 0 1 57.8721 46.1968)" fill="#FFFFFF" font-family="'ArchivoNarrow-Regular'" font-size="18"> </text>
<text transform="matrix(1 0 0 1 62.5527 46.1968)" fill="#FFFFFF" font-family="'ArchivoNarrow-Regular'" font-size="18">f</text>
<text transform="matrix(1 0 0 1 67.2324 46.1968)" fill="#FFFFFF" font-family="'ArchivoNarrow-Regular'" font-size="18">ü</text>
<text transform="matrix(1 0 0 1 76.0176 46.1968)" fill="#FFFFFF" font-family="'ArchivoNarrow-Regular'" font-size="18">r</text>
<text transform="matrix(1 0 0 1 81.5068 46.1968)" fill="#FFFFFF" font-family="'ArchivoNarrow-Regular'" font-size="18"> </text>
<text transform="matrix(1 0 0 1 86.1875 46.1968)" fill="#FFFFFF" font-family="'ArchivoNarrow-Regular'" font-size="18">n</text>
<text transform="matrix(1 0 0 1 94.9727 46.1968)" fill="#FFFFFF" font-family="'ArchivoNarrow-Regular'" font-size="18">e</text>
<text transform="matrix(1 0 0 1 103.7578 46.1968)" fill="#FFFFFF" font-family="'ArchivoNarrow-Regular'" font-size="18">u</text>
<text transform="matrix(1 0 0 1 112.542 46.1968)" fill="#FFFFFF" font-family="'ArchivoNarrow-Regular'" font-size="18">e</text>
<text transform="matrix(1 0 0 1 121.3271 46.1968)" fill="#FFFFFF" font-family="'ArchivoNarrow-Regular'" font-size="18"> </text>
<text transform="matrix(1 0 0 1 126.0078 46.1968)" fill="#FFFFFF" font-family="'ArchivoNarrow-Regular'" font-size="18">M</text>
<text transform="matrix(1 0 0 1 138.8799 46.1968)" fill="#FFFFFF" font-family="'ArchivoNarrow-Regular'" font-size="18">e</text>
<text transform="matrix(1 0 0 1 147.665 46.1968)" fill="#FFFFFF" font-family="'ArchivoNarrow-Regular'" font-size="18">d</text>
<text transform="matrix(1 0 0 1 156.4492 46.1968)" fill="#FFFFFF" font-family="'ArchivoNarrow-Regular'" font-size="18">i</text>
<text transform="matrix(1 0 0 1 160.3037 46.1968)" fill="#FFFFFF" font-family="'ArchivoNarrow-Regular'" font-size="18">e</text>
<text transform="matrix(1 0 0 1 169.0889 46.1968)" fill="#FFFFFF" font-family="'ArchivoNarrow-Regular'" font-size="18">n</text>
</svg>
