<?xml version="1.0" encoding="utf-8"?>
<!-- Generator: Adobe Illustrator 16.0.4, SVG Export Plug-In . SVG Version: 6.00 Build 0)  -->
<svg version="1.2" baseProfile="tiny" id="Ebene_1" xmlns="http://www.w3.org/2000/svg" xmlns:xlink="http://www.w3.org/1999/xlink"
	 x="0px" y="0px" width="200px" height="156px" viewBox="0 0 200 156" xml:space="preserve">
<path fill="#63E500" d="M0.81,140l20.16-16.09L0,107h23.771c4.931,13,13.097,24,23.513,33H0.81z M200,107h-24.62
	c-4.931,13-13.096,24-23.511,33h47.32l-20.16-16.09L200,107z"/>
<path fill-rule="evenodd" fill="#63E500" d="M99.58,0C56.46,0,21.5,34.92,21.5,78s34.96,78,78.08,78s78.07-34.92,78.07-78
	S142.7,0,99.58,0z M99.58,142.34c-35.57,0-64.41-28.811-64.41-64.34c0-35.53,28.84-64.34,64.41-64.34s64.4,28.81,64.4,64.34
	C163.98,113.529,135.15,142.34,99.58,142.34z"/>
<path fill-rule="evenodd" fill="#FFFFFF" d="M154.46,62.6c-4.29-0.78-20.76-1.6-27.16-1.6c-8.607,0-25.977,0.238-28.3,0.24
	C96.677,61.238,79.308,61,70.7,61c-6.4,0-22.87,0.82-27.16,1.6c-0.52,0-0.57,1.89-0.53,4.68c0.03,2.13,0.04,4.27,0.5,4.29
	c0.57,0.08,1.51,0.95,1.74,2.81c0.52,4.23,0.65,12.53,2.42,18.66c1.27,4.39,2.27,7.29,5.67,8.149C57.26,102.2,63.86,103,69.86,103
	c6.35,0,10.48-0.08,17.65-2.49c4.41-1.48,6.28-13.52,7.26-21.38c0.428-3.465,1.829-4.015,4.23-4.009
	c2.401-0.006,3.802,0.544,4.23,4.009c0.979,7.86,2.85,19.899,7.26,21.38c7.17,2.41,11.3,2.49,17.65,2.49c6,0,12.6-0.8,16.52-1.811
	c3.4-0.859,4.4-3.76,5.67-8.149c1.77-6.13,1.9-14.43,2.42-18.66c0.23-1.86,1.17-2.73,1.74-2.81c0.46-0.02,0.47-2.16,0.5-4.29
	C155.029,64.49,154.98,62.6,154.46,62.6z M84.67,96.939c-5.41,1.99-10.12,1.971-14.93,1.971c-5.44,0-10.92-0.66-14.86-1.91
	c-4.57-1.439-5.59-18.25-5.35-23.87c0.22-5.01,0.34-5.87,5.43-6.27c8.56-0.68,21.21-0.81,24.7-0.54c5.33,0.4,9,0.38,9.85,2.44
	C91.07,72.57,89.77,95.061,84.67,96.939z M143.12,97c-3.94,1.25-9.42,1.91-14.86,1.91c-4.81,0-9.52,0.02-14.93-1.971
	c-5.1-1.879-6.4-24.37-4.84-28.18c0.85-2.06,4.52-2.04,9.85-2.44c3.49-0.27,16.141-0.14,24.7,0.54c5.09,0.4,5.21,1.26,5.431,6.27
	C148.71,78.75,147.689,95.561,143.12,97z"/>
<g>
</g>
<g>
</g>
<g>
</g>
<g>
</g>
<g>
</g>
<g>
</g>
<g>
</g>
<g>
</g>
<g>
</g>
<g>
</g>
<g>
</g>
<g>
</g>
<g>
</g>
<g>
</g>
<g>
</g>
</svg>
