<?xml version="1.0" encoding="utf-8"?>
<!-- Generator: Adobe Illustrator 16.0.4, SVG Export Plug-In . SVG Version: 6.00 Build 0)  -->
<svg version="1.2" baseProfile="tiny" id="Ebene_1" xmlns="http://www.w3.org/2000/svg" xmlns:xlink="http://www.w3.org/1999/xlink"
	 x="0px" y="0px" width="200px" height="156px" viewBox="0 0 200 156" xml:space="preserve">
<path fill="#63E500" d="M0.81,140l20.16-16.09L0,107h23.771c4.931,13,13.097,24,23.513,33H0.81z M200,107h-24.62
	c-4.931,13-13.096,24-23.511,33h47.32l-20.16-16.09L200,107z"/>
<path fill-rule="evenodd" fill="#63E500" d="M99.58,0C56.46,0,21.5,34.92,21.5,78s34.96,78,78.08,78s78.07-34.92,78.07-78
	S142.7,0,99.58,0z M99.58,142.34c-35.57,0-64.41-28.811-64.41-64.34c0-35.53,28.84-64.34,64.41-64.34s64.4,28.81,64.4,64.34
	C163.98,113.529,135.15,142.34,99.58,142.34z"/>
<g>
	<g>
		<rect x="112" y="88" fill-rule="evenodd" fill="#FFFFFF" width="14" height="15"/>
		<rect x="72" y="61" fill-rule="evenodd" fill="#FFFFFF" width="54" height="4.76"/>
		<rect x="72" y="88" fill-rule="evenodd" fill="#FFFFFF" width="14" height="15"/>
		<rect x="75" y="71" fill-rule="evenodd" fill="#FFFFFF" width="7" height="6"/>
		<rect x="92" y="88" fill-rule="evenodd" fill="#FFFFFF" width="14" height="15"/>
		<rect x="90" y="71" fill-rule="evenodd" fill="#FFFFFF" width="36" height="2"/>
		<rect x="90" y="76" fill-rule="evenodd" fill="#FFFFFF" width="36" height="2"/>
		<rect x="90" y="81" fill-rule="evenodd" fill="#FFFFFF" width="36" height="2"/>
		<path fill-rule="evenodd" fill="#FFFFFF" d="M66,109V56h66v53H66z M138.92,115.54c3.35-3.56,1.93-7.09-0.52-9.54
			c1.49-0.35,2.979-2.359,2.979-5.6c0-5.17-3.75-7.83-3.75-18.711C137.63,70.8,142,68.77,142,63.6c0-3.24-1.49-5.25-2.98-5.6
			c2.451-2.45,3.871-5.98,0.53-9.55c-3.56-3.34-7.079-1.92-9.53,0.53c-0.35-1.49-2.359-2.98-5.59-2.98
			c-5.16,0-14.38,5.01-25.24,5.01c-10.869,0-19.459-4.38-24.619-4.38c-3.23,0-5.24,1.49-5.59,2.98c-2.45-2.46-5.97-3.88-9.53-0.53
			c-3.34,3.57-1.92,7.09,0.53,9.54C58.49,58.97,57,60.99,57,64.23c0,5.16,4.37,7.2,4.37,18.081C61.37,93.2,57,95.23,57,100.4
			c0,3.24,1.49,5.25,2.98,5.6c-2.45,2.45-3.87,5.98-0.53,9.55c3.56,3.341,7.08,1.921,9.53-0.53c0.35,1.49,2.36,2.98,5.59,2.98
			c5.16,0,13.75-4.38,24.619-4.38c10.86,0,19.461,4.38,24.61,4.38c3.24,0,5.25-1.49,5.601-2.98
			C131.84,117.471,135.359,118.891,138.92,115.54L138.92,115.54z"/>
	</g>
	
		<polyline fill-rule="evenodd" fill="none" stroke="#FFFFFF" stroke-width="2" stroke-linecap="round" stroke-linejoin="round" stroke-miterlimit="10" points="
		126.109,47.67 99.439,29 98.561,29 73.67,47.67 	"/>
	<path fill-rule="evenodd" fill="#FFFFFF" d="M97.221,32.11c0-0.98,0.799-1.78,1.779-1.78s1.779,0.8,1.779,1.78
		S99.98,33.89,99,33.89S97.221,33.09,97.221,32.11z"/>
</g>
<g>
</g>
<g>
</g>
<g>
</g>
<g>
</g>
<g>
</g>
<g>
</g>
<g>
</g>
<g>
</g>
<g>
</g>
<g>
</g>
<g>
</g>
<g>
</g>
<g>
</g>
<g>
</g>
<g>
</g>
</svg>
