<?xml version="1.0" encoding="utf-8"?>
<!-- Generator: Adobe Illustrator 16.0.4, SVG Export Plug-In . SVG Version: 6.00 Build 0)  -->
<!DOCTYPE svg PUBLIC "-//W3C//DTD SVG 1.1//EN" "http://www.w3.org/Graphics/SVG/1.1/DTD/svg11.dtd">
<svg version="1.1" id="Ebene_1" xmlns="http://www.w3.org/2000/svg" xmlns:xlink="http://www.w3.org/1999/xlink" x="0px" y="0px"
	 width="200px" height="156px" viewBox="0 0 200 156" enable-background="new 0 0 200 156" xml:space="preserve">
<path fill="#63E500" d="M0.81,140l20.16-16.09L0,107h23.771c4.931,13,13.097,24,23.513,33H0.81z M200,107h-24.62
	c-4.931,13-13.096,24-23.511,33h47.32l-20.16-16.09L200,107z"/>
<path fill="#63E500" d="M99.58,0C56.46,0,21.5,34.92,21.5,78s34.96,78,78.08,78s78.07-34.92,78.07-78S142.7,0,99.58,0z
	 M99.58,142.34c-35.57,0-64.41-28.811-64.41-64.34c0-35.53,28.84-64.34,64.41-64.34s64.4,28.81,64.4,64.34
	C163.98,113.529,135.15,142.34,99.58,142.34z"/>
<g>
	<path fill="#FFFFFF" d="M98.5,56.19c-1.471,0-2.65-1.2-2.65-2.69s1.18-2.69,2.65-2.69c1.46,0,2.65,1.2,2.65,2.69
		S99.96,56.19,98.5,56.19z M105.391,53.55l2.109-0.38l-0.35-2.36l-2.17,0.36l-1.19-2.12l1.36-1.67l-1.852-1.54l-1.43,1.65
		l-2.17-0.85L99.68,44.5h-2.33l-0.01,2.17l-2.32,0.82l-1.35-1.76l-1.82,1.6L93.18,49l-1.189,2.14l-2.061-0.33l-0.43,2.36l2.08,0.41
		L91.96,56l-1.78,1.07l1.131,2.08l1.869-1.1l1.84,1.54l-0.729,2.06l2.19,0.85l0.789-2.09l2.41,0.06l0.78,2.03l2.22-0.82l-0.729-2.06
		l1.811-1.57l1.899,1.07l1.188-2.05l-1.89-1.18L105.391,53.55z"/>
	<path fill="#FFFFFF" d="M99.5,26.5C71.103,26.5,48,49.603,48,78c0,28.397,23.103,51.5,51.5,51.5c28.397,0,51.5-23.103,51.5-51.5
		C151,49.603,127.897,26.5,99.5,26.5z M99.311,111c-3.91,0-7.214-2.528-8.306-6H90.5c-0.552,0-1-0.447-1-1s0.448-1,1-1h0.147
		c-0.01-0.166-0.026-0.331-0.026-0.5s0.016-0.334,0.026-0.5H90.5c-0.552,0-1-0.447-1-1s0.448-1,1-1h0.505
		c1.092-3.472,4.396-6,8.306-6c3.589,0,6.671,2.134,7.996,5.174l-3.134,1.344c-0.794-1.865-2.671-3.178-4.863-3.178
		c-1.979,0-3.683,1.081-4.584,2.66h5.774c0.553,0,1,0.447,1,1s-0.447,1-1,1h-6.409c-0.017,0.167-0.052,0.329-0.052,0.5
		s0.035,0.333,0.052,0.5h6.409c0.553,0,1,0.447,1,1s-0.447,1-1,1h-5.774c0.901,1.579,2.605,2.66,4.584,2.66
		c2.276,0,4.196-1.419,4.934-3.396l3.261,1.041C106.318,108.617,103.104,111,99.311,111z M99.5,78
		c-13.509,0-24.46,10.951-24.46,24.46c0,13.087,10.277,23.772,23.201,24.428C71.805,126.218,50.58,104.598,50.58,78
		c0-27.02,21.9-48.92,48.92-48.92c13.51,0,24.46,10.95,24.46,24.46C123.96,67.05,113.01,78,99.5,78z"/>
</g>
</svg>
