<?xml version="1.0" encoding="utf-8"?>
<!-- Generator: Adobe Illustrator 16.0.4, SVG Export Plug-In . SVG Version: 6.00 Build 0)  -->
<svg version="1.2" baseProfile="tiny" id="Ebene_1" xmlns="http://www.w3.org/2000/svg" xmlns:xlink="http://www.w3.org/1999/xlink"
	 x="0px" y="0px" width="200px" height="156px" viewBox="0 0 200 156" xml:space="preserve">
<path fill="#63E500" d="M0.81,140l20.16-16.09L0,107h23.771c4.931,13,13.097,24,23.513,33H0.81z M200,107h-24.62
	c-4.931,13-13.096,24-23.511,33h47.32l-20.16-16.09L200,107z"/>
<path fill="#63E500" d="M99.58,0C56.46,0,21.5,34.92,21.5,78s34.96,78,78.08,78s78.07-34.92,78.07-78S142.7,0,99.58,0z
	 M99.58,142.34c-35.57,0-64.41-28.811-64.41-64.34c0-35.53,28.84-64.34,64.41-64.34s64.4,28.81,64.4,64.34
	C163.98,113.529,135.15,142.34,99.58,142.34z"/>
<path fill="#FFFFFF" d="M129,102.8c-9.42-1.18-15.79-3.75-19.48-7.85c-2.117-2.35-3.231-4.736-3.74-11.075V54.894l16.691,4.336
	L99.3,31L76.12,59.23l16.7-4.337v13.698c-0.628,4.833-1.886,7.236-3.74,9.3c-1.75,1.949-7.07,5.5-23.08,7.5l1.06,8.639
	c12.145-1.512,20.615-4.12,25.76-7.917V126h12.959v-22.661c5.126,4.257,12.276,6.862,22.15,8.101L129,102.8z"/>
</svg>
