<svg id="Logo_Instagram" data-name="Logo Instagram" xmlns="http://www.w3.org/2000/svg" viewBox="0 0 36 36"><defs><style>.cls-1{fill:#fff;}</style></defs><title>Zeichenfläche 2</title><path id="Logo_Instagram-2" data-name="Logo Instagram" class="cls-1" d="M18,3.24c4.81,0,5.38,0,7.27.1A10,10,0,0,1,28.62,4a5.58,5.58,0,0,1,2.07,1.35A5.58,5.58,0,0,1,32,7.38a10,10,0,0,1,.62,3.34c.09,1.9.1,2.47.1,7.27s0,5.38-.1,7.27A10,10,0,0,1,32,28.62,6,6,0,0,1,28.62,32a10,10,0,0,1-3.34.62c-1.9.09-2.47.1-7.27.1s-5.38,0-7.27-.1A10,10,0,0,1,7.38,32a5.58,5.58,0,0,1-2.07-1.35A5.58,5.58,0,0,1,4,28.62a10,10,0,0,1-.62-3.34c-.09-1.9-.1-2.47-.1-7.27s0-5.38.1-7.27A10,10,0,0,1,4,7.38,5.58,5.58,0,0,1,5.31,5.31,5.58,5.58,0,0,1,7.38,4a10,10,0,0,1,3.34-.62c1.9-.09,2.47-.1,7.27-.1M18,0c-4.89,0-5.5,0-7.42.11A13.21,13.21,0,0,0,6.21.94,8.82,8.82,0,0,0,3,3,8.82,8.82,0,0,0,.94,6.21a13.21,13.21,0,0,0-.84,4.37C0,12.5,0,13.11,0,18s0,5.5.11,7.42a13.21,13.21,0,0,0,.84,4.37A8.82,8.82,0,0,0,3,33a8.82,8.82,0,0,0,3.19,2.08,13.21,13.21,0,0,0,4.37.84C12.5,36,13.11,36,18,36s5.5,0,7.42-.11a13.21,13.21,0,0,0,4.37-.84,9.2,9.2,0,0,0,5.26-5.26,13.21,13.21,0,0,0,.84-4.37C36,23.5,36,22.89,36,18s0-5.5-.11-7.42a13.21,13.21,0,0,0-.84-4.37A8.82,8.82,0,0,0,33,3,8.82,8.82,0,0,0,29.79.94,13.21,13.21,0,0,0,25.42.11C23.5,0,22.89,0,18,0Zm0,8.76A9.24,9.24,0,1,0,27.24,18,9.24,9.24,0,0,0,18,8.76ZM18,24a6,6,0,1,1,6-6A6,6,0,0,1,18,24ZM27.61,6.23a2.16,2.16,0,1,0,2.16,2.16A2.16,2.16,0,0,0,27.61,6.23Z"/></svg>