<svg id="Logo_Instagram" data-name="Logo Instagram" xmlns="http://www.w3.org/2000/svg" xmlns:xlink="http://www.w3.org/1999/xlink" viewBox="0 0 130 130"><defs><style>.cls-1{fill:url(#Unbenannter_Verlauf);}.cls-2{fill:url(#Unbenannter_Verlauf_2);}.cls-3{fill:#fff;}</style><radialGradient id="Unbenannter_Verlauf" cx="-191.61" cy="-336.91" r="64.99" gradientTransform="matrix(0, -1.98, -1.84, 0, -586.69, -239.87)" gradientUnits="userSpaceOnUse"><stop offset="0" stop-color="#fd5"/><stop offset="0.1" stop-color="#fd5"/><stop offset="0.5" stop-color="#ff543e"/><stop offset="1" stop-color="#c837ab"/></radialGradient><radialGradient id="Unbenannter_Verlauf_2" cx="222.87" cy="-56.65" r="64.99" gradientTransform="matrix(0.17, 0.87, 3.58, -0.72, 142.36, -224.94)" gradientUnits="userSpaceOnUse"><stop offset="0" stop-color="#3771c8"/><stop offset="0.13" stop-color="#3771c8"/><stop offset="1" stop-color="#60f" stop-opacity="0"/></radialGradient></defs><title>Zeichenfläche 1</title><path class="cls-1" d="M65,0C37.88,0,29.95,0,28.41.16c-5.57.46-9,1.34-12.81,3.22A26,26,0,0,0,8.13,8.84,27.9,27.9,0,0,0,.6,24.66C.16,27.7,0,28.32,0,43.85,0,49,0,55.84,0,65,0,92.1,0,100,.16,101.57c.45,5.42,1.3,8.83,3.1,12.56A27.38,27.38,0,0,0,21,128.63a46.1,46.1,0,0,0,9.44,1.25c1.61.07,18,.12,34.43.12s32.83,0,34.4-.1a44.4,44.4,0,0,0,9.78-1.28,27.22,27.22,0,0,0,17.75-14.53,32.13,32.13,0,0,0,3.06-12.32c.09-1.12.12-19,.12-36.81s0-35.66-.13-36.78a31.77,31.77,0,0,0-3.13-12.44,25.77,25.77,0,0,0-5.56-7.62A28.06,28.06,0,0,0,105.36.6c-3-.44-3.64-.57-19.18-.6Z"/><path class="cls-2" d="M65,0C37.88,0,29.95,0,28.41.16c-5.57.46-9,1.34-12.81,3.22A26,26,0,0,0,8.13,8.84,27.9,27.9,0,0,0,.6,24.66C.16,27.7,0,28.32,0,43.85,0,49,0,55.84,0,65,0,92.1,0,100,.16,101.57c.45,5.42,1.3,8.83,3.1,12.56A27.38,27.38,0,0,0,21,128.63a46.1,46.1,0,0,0,9.44,1.25c1.61.07,18,.12,34.43.12s32.83,0,34.4-.1a44.4,44.4,0,0,0,9.78-1.28,27.22,27.22,0,0,0,17.75-14.53,32.13,32.13,0,0,0,3.06-12.32c.09-1.12.12-19,.12-36.81s0-35.66-.13-36.78a31.77,31.77,0,0,0-3.13-12.44,25.77,25.77,0,0,0-5.56-7.62A28.06,28.06,0,0,0,105.36.6c-3-.44-3.64-.57-19.18-.6Z"/><path class="cls-3" d="M65,17c-13,0-14.67.06-19.79.29a35.21,35.21,0,0,0-11.65,2.23,24.55,24.55,0,0,0-14,14A35.07,35.07,0,0,0,17.3,45.21C17.07,50.33,17,52,17,65s.06,14.67.29,19.79a35.29,35.29,0,0,0,2.23,11.65,24.56,24.56,0,0,0,14,14,35.24,35.24,0,0,0,11.65,2.23c5.12.23,6.75.29,19.79.29s14.67-.06,19.78-.29a35.26,35.26,0,0,0,11.65-2.23,24.59,24.59,0,0,0,14-14,35.59,35.59,0,0,0,2.23-11.65c.23-5.12.29-6.75.29-19.79s-.06-14.67-.29-19.79a35.57,35.57,0,0,0-2.23-11.65,24.56,24.56,0,0,0-14-14,35.32,35.32,0,0,0-11.66-2.23C79.66,17.05,78,17,65,17ZM60.7,25.65H65c12.81,0,14.33,0,19.39.28a26.56,26.56,0,0,1,8.91,1.65,15.9,15.9,0,0,1,9.11,9.11,26.53,26.53,0,0,1,1.65,8.91c.23,5.06.28,6.58.28,19.39s0,14.33-.28,19.39a26.56,26.56,0,0,1-1.65,8.91,15.92,15.92,0,0,1-9.11,9.1,26.47,26.47,0,0,1-8.91,1.65c-5.06.23-6.58.28-19.39.28s-14.33-.05-19.39-.28a26.62,26.62,0,0,1-8.91-1.66,15.9,15.9,0,0,1-9.11-9.11,26.53,26.53,0,0,1-1.65-8.91c-.23-5.06-.28-6.58-.28-19.4s0-14.33.28-19.39a26.58,26.58,0,0,1,1.65-8.91,15.91,15.91,0,0,1,9.11-9.11,26.51,26.51,0,0,1,8.91-1.66c4.43-.2,6.14-.26,15.09-.27Zm29.92,8a5.76,5.76,0,1,0,5.76,5.76,5.76,5.76,0,0,0-5.76-5.76ZM65,40.35A24.65,24.65,0,1,0,89.65,65,24.65,24.65,0,0,0,65,40.35ZM65,49A16,16,0,1,1,49,65,16,16,0,0,1,65,49Z"/></svg>