<svg id="YouTube_Logo" data-name="YouTube Logo" xmlns="http://www.w3.org/2000/svg" xmlns:xlink="http://www.w3.org/1999/xlink" viewBox="0 0 77 32"><defs><style>.you{fill:#fff;} .cls-1{fill:url(#linear-gradient);}.cls-2{fill:#fff;}</style><linearGradient id="linear-gradient" x1="54.05" x2="54.05" y2="32" gradientUnits="userSpaceOnUse"><stop offset="0" stop-color="#e32e28"/><stop offset="1" stop-color="#be2126"/></linearGradient></defs><title>Artboard 1</title><path id="lozenge" class="cls-1" d="M76.54,6.9s-.45-3.14-1.82-4.52A6.59,6.59,0,0,0,70.12.46C63.7,0,54.06,0,54.06,0h0S44.41,0,38,.46a6.6,6.6,0,0,0-4.6,1.93C32,3.77,31.57,6.9,31.57,6.9a68.22,68.22,0,0,0-.46,7.36v3.45a68.22,68.22,0,0,0,.46,7.36s.45,3.14,1.82,4.52c1.75,1.81,4,1.75,5.06,1.94,3.67.35,15.6.46,15.6.46s9.64,0,16.06-.47a6.59,6.59,0,0,0,4.6-1.93c1.38-1.38,1.82-4.52,1.82-4.52A68.31,68.31,0,0,0,77,17.72V14.27A68.31,68.31,0,0,0,76.54,6.9Z"/><path id="Tube" class="cls-2" d="M73.16,18.7V15.57a6,6,0,0,0-.91-3.6A3.9,3.9,0,0,0,69,10.37,4,4,0,0,0,65.64,12a6.13,6.13,0,0,0-.94,3.67V21a5.64,5.64,0,0,0,1,3.53A4,4,0,0,0,69,26.09a3.85,3.85,0,0,0,3.37-1.66,3.94,3.94,0,0,0,.65-1.66,17.36,17.36,0,0,0,.1-1.8v-.43H70.23c0,1.11,0,1.77,0,1.92A1.19,1.19,0,0,1,69,23.57c-1,0-1.36-.71-1.35-2.12V18.7Zm-5.54-4c0-1.43.39-1.82,1.32-1.82s1.29.42,1.29,1.84v1.67H67.62Zm-7.36-4.37a4,4,0,0,0-2.94,1.73V5.39H54.56V25.9h2.77V24.36a4,4,0,0,0,2.93,1.74,2.28,2.28,0,0,0,2.29-1.73,11.72,11.72,0,0,0,.31-3.06V15.18a10.69,10.69,0,0,0-.37-3.05A2.25,2.25,0,0,0,60.26,10.35Zm-.32,11.11c0,1.53-.36,2.12-1.16,2.12a2.15,2.15,0,0,1-1.45-.7V13.59a2.17,2.17,0,0,1,1.45-.7c.8,0,1.16.45,1.16,2ZM52.25,25.9H49.33V24.21c-1.11,1.26-2,1.9-3.07,1.9a1.84,1.84,0,0,1-1.83-1.18,6.13,6.13,0,0,1-.32-2.25V10.59H47V23c.07.43.25.59.62.59.56,0,1.06-.48,1.68-1.35V10.59h2.92Zm-11.07,0H38.11V8.29H34.89V5.39h9.68V8.29H41.19Z"/><path id="You" class="you" d="M28.74,25.9H25.82V24.21c-1.11,1.26-2,1.9-3.07,1.9a1.84,1.84,0,0,1-1.83-1.18,6.13,6.13,0,0,1-.32-2.25V10.44h2.92V23c.07.43.25.59.62.59.56,0,1.06-.48,1.68-1.35V10.44h2.92ZM18.44,21a5.76,5.76,0,0,1-.86,3.55,4.12,4.12,0,0,1-3.29,1.61A4.07,4.07,0,0,1,11,24.55,5.68,5.68,0,0,1,10.14,21V15.5a6.12,6.12,0,0,1,.92-3.69,3.69,3.69,0,0,1,3.23-1.49,3.88,3.88,0,0,1,3.23,1.49,6.14,6.14,0,0,1,.92,3.67Zm-2.92-5.82c.15-1.53-.32-2.25-1.23-2.25s-1.38.72-1.23,2.25V21.3c-.15,1.53.32,2.29,1.23,2.29s1.38-.76,1.23-2.29ZM10.76,5.23H7.53L5.38,13.3,3.23,5.23H0C.66,7.16,3.84,17.48,3.84,17.48V25.9H6.92V17.48Z"/></svg>