<svg id="YouTube_Logo" data-name="YouTube Logo" xmlns="http://www.w3.org/2000/svg" viewBox="0 0 86 36"><defs><style>.cls-1{fill:#fff;}</style></defs><title>Artboard 1</title><g id="You"><path id="u" class="cls-1" d="M32.1,29.13H28.84V27.24c-1.24,1.42-2.28,2.14-3.43,2.14a2,2,0,0,1-2-1.33A6.94,6.94,0,0,1,23,25.52V11.74h3.26V25.86c.08.48.28.66.7.66.62,0,1.19-.54,1.88-1.52V11.74H32.1Z"/><path id="o" class="cls-1" d="M20.6,17.42a6.94,6.94,0,0,0-1-4.13A4.32,4.32,0,0,0,16,11.62a4.11,4.11,0,0,0-3.6,1.68,6.92,6.92,0,0,0-1,4.15v6.18a6.43,6.43,0,0,0,1,4A4.54,4.54,0,0,0,16,29.43a4.59,4.59,0,0,0,3.67-1.81,6.51,6.51,0,0,0,1-4ZM17.34,24c.17,1.72-.36,2.58-1.37,2.58s-1.54-.85-1.37-2.58V17.08c-.17-1.72.36-2.53,1.37-2.53s1.55.81,1.37,2.53Z"/><path id="y" class="cls-1" d="M7.72,19.66v9.47H4.29V19.66S.73,8.05,0,5.89H3.6L6,15l2.4-9.07H12Z"/></g><g id="Tube"><path class="cls-1" d="M65.64,14.51a2.41,2.41,0,0,0-1.62.79V25.74a2.39,2.39,0,0,0,1.62.79c.9,0,1.3-.66,1.3-2.38v-7.4C66.94,15,66.54,14.51,65.64,14.51Z"/><path class="cls-1" d="M78.44,16.58c0-1.59-.41-2.07-1.44-2.07s-1.48.44-1.48,2v1.9h2.92Z"/><path class="cls-1" d="M85.49,7.77s-.5-3.53-2-5.08A7.34,7.34,0,0,0,78.31.52C71.14,0,60.38,0,60.38,0h0S49.6,0,42.43.52a7.34,7.34,0,0,0-5.14,2.17c-1.54,1.55-2,5.08-2,5.08a77.3,77.3,0,0,0-.51,8.28v3.88a77.3,77.3,0,0,0,.51,8.28s.5,3.53,2,5.08c1.95,2,4.51,2,5.65,2.19,4.1.39,17.43.51,17.43.51s10.77,0,17.94-.53a7.34,7.34,0,0,0,5.14-2.17c1.54-1.55,2-5.08,2-5.08A77.4,77.4,0,0,0,86,19.93V16.05A77.4,77.4,0,0,0,85.49,7.77ZM46,29.13H42.57V9.33H39V6.06H49.78V9.33H46Zm12.36,0H55.1V27.24c-1.24,1.42-2.28,2.14-3.43,2.14a2,2,0,0,1-2-1.33,6.94,6.94,0,0,1-.36-2.53V11.91h3.26V25.86c.08.48.28.66.7.66.62,0,1.19-.54,1.88-1.52V11.91h3.26ZM70.2,24a13.28,13.28,0,0,1-.34,3.44,2.55,2.55,0,0,1-2.56,1.94,4.41,4.41,0,0,1-3.28-2v1.73H60.94V6.06H64v7.52a4.44,4.44,0,0,1,3.28-1.94,2.52,2.52,0,0,1,2.48,2,12.11,12.11,0,0,1,.42,3.44ZM77,26.52a1.34,1.34,0,0,0,1.39-1.25c0-.17,0-.91,0-2.16H81.7v.49a19.66,19.66,0,0,1-.11,2,4.45,4.45,0,0,1-.73,1.87,4.29,4.29,0,0,1-3.76,1.87,4.44,4.44,0,0,1-3.76-1.76,6.38,6.38,0,0,1-1.08-4v-6a6.94,6.94,0,0,1,1-4.13A4.45,4.45,0,0,1,77,11.67a4.34,4.34,0,0,1,3.67,1.8,6.77,6.77,0,0,1,1,4.05V21H75.53v3.09C75.51,25.72,76,26.52,77,26.52Z"/></g></svg>