<?xml version="1.0" encoding="utf-8"?>
<!-- Generator: Adobe Illustrator 21.0.0, SVG Export Plug-In . SVG Version: 6.00 Build 0)  -->
<svg version="1.1" id="Ebene_1" xmlns="http://www.w3.org/2000/svg" xmlns:xlink="http://www.w3.org/1999/xlink" x="0px" y="0px"
	 viewBox="0 0 108.6 73.5" style="enable-background:new 0 0 108.6 73.5;" xml:space="preserve">
<style type="text/css">
	.st0{fill:#FFFFFF;}
</style>
<path class="st0" d="M80.4,59.1H57v8l-4.7,4.8v1.6h32.9v-1.6l-4.7-4.8V59.1z M103.9,0H33.4c-1.9,0-4.7,2.8-4.7,4.8v15.4H35V6.4h67.4
	v43.1H49v6.4h55c1.9,0,4.7-2.8,4.7-4.8V4.8C108.6,2.8,105.8,0,103.9,0z M45,21.6H9.6c-1.5,0-2.6,1.2-2.6,2.6v17h4.9V26.7h31.1v41.9
	H20.4v3.3c0,0.6-0.2,1.2-0.5,1.7h25c1.5,0,2.6-1.2,2.6-2.6V24.2C47.6,22.8,46.4,21.6,45,21.6z M27.3,72.2c-0.7,0-1.3-0.6-1.3-1.3
	c0-0.7,0.6-1.3,1.3-1.3c0.7,0,1.3,0.6,1.3,1.3C28.6,71.7,28,72.2,27.3,72.2z M19.1,44.4c0-1-0.8-1.7-1.8-1.7H1.8
	c-1,0-1.8,0.8-1.8,1.7v27.5c0,1,0.8,1.7,1.8,1.7h15.5c1,0,1.8-0.8,1.8-1.7V44.4z M9.6,72.6c-0.7,0-1.3-0.6-1.3-1.3
	c0-0.7,0.6-1.3,1.3-1.3c0.7,0,1.3,0.6,1.3,1.3C10.9,72,10.3,72.6,9.6,72.6z M17.5,67.7c0,0.5-0.4,0.9-1,0.9H2.7c-0.5,0-1-0.4-1-0.9
	V45.6c0-0.5,0.4-1,1-1h13.8c0.5,0,1,0.4,1,1V67.7z"/>
</svg>
