<svg id="Capa_1" data-name="Capa 1" xmlns="http://www.w3.org/2000/svg" viewBox="0 0 78 59"><defs><style>.cls-1{fill:#fff;}</style></defs><title>Zeichenfläche 1</title><path class="cls-1" d="M43.88,19.67H24.37a4.89,4.89,0,0,0-4.87-4.92V9.83h9.69V0H14.63A4.89,4.89,0,0,0,9.75,4.92v9.83a4.89,4.89,0,0,0-4.87,4.92A4.89,4.89,0,0,0,0,24.58v29.5A4.89,4.89,0,0,0,4.88,59h39a4.89,4.89,0,0,0,4.87-4.92V24.58A4.89,4.89,0,0,0,43.88,19.67ZM31.69,54.08H7.31a2.46,2.46,0,0,1,0-4.92H31.69a2.46,2.46,0,0,1,0,4.92ZM50.84,4.92A4.89,4.89,0,0,0,46,0H34.07V9.83H46A4.89,4.89,0,0,0,50.84,4.92ZM63.38,29.5H58.5a4.89,4.89,0,0,0-4.87,4.92v9.83a4.89,4.89,0,0,0,4.87,4.92h4.88L78,59V19.67Z"/></svg>