<?xml version="1.0" encoding="utf-8"?>
<!-- Generator: Adobe Illustrator 16.0.4, SVG Export Plug-In . SVG Version: 6.00 Build 0)  -->
<svg version="1.2" baseProfile="tiny" id="Christian_Kreienkamp_1_"
	 xmlns="http://www.w3.org/2000/svg" xmlns:xlink="http://www.w3.org/1999/xlink" x="0px" y="0px" width="220px" height="228px"
	 viewBox="0 0 220 228" xml:space="preserve">
<polygon fill-rule="evenodd" fill="#5CEB00" points="0,0 220,0 220,135.805 76.158,135.805 31.474,176 31.474,135.805 0,135.805 "/>
<path fill="#B3B3B3" d="M4.531,219.828l4.352-5.805h1.562l-3.297,4.43L10.562,225H8.961l-2.672-5.359l-1.758,1.953V225H3.117
	v-10.977h1.414V219.828z M14.968,216.391c0.984,0,1.732,0.356,2.242,1.07c0.511,0.714,0.766,1.823,0.766,3.328
	c0,1.511-0.255,2.621-0.766,3.332c-0.51,0.711-1.258,1.066-2.242,1.066s-1.731-0.355-2.242-1.066
	c-0.51-0.711-0.766-1.821-0.766-3.332c0-1.505,0.255-2.614,0.766-3.328C13.237,216.747,13.984,216.391,14.968,216.391z
	 M14.968,217.555c-0.552,0-0.962,0.245-1.23,0.734c-0.268,0.489-0.402,1.222-0.402,2.195v0.617c0,0.969,0.134,1.698,0.402,2.188
	c0.269,0.489,0.679,0.734,1.23,0.734c0.547,0,0.956-0.245,1.227-0.734c0.271-0.489,0.406-1.219,0.406-2.188v-0.617
	c0-0.974-0.135-1.706-0.406-2.195C15.924,217.8,15.515,217.555,14.968,217.555z M22.898,216.391c0.317,0,0.604,0.044,0.859,0.133
	c0.255,0.089,0.473,0.234,0.652,0.438s0.319,0.466,0.418,0.789c0.099,0.323,0.148,0.719,0.148,1.188V225h-1.312v-5.969
	c0-0.292-0.029-0.532-0.086-0.723c-0.058-0.19-0.138-0.341-0.242-0.453c-0.104-0.112-0.229-0.19-0.375-0.234
	c-0.146-0.044-0.308-0.066-0.484-0.066c-0.208,0-0.406,0.052-0.594,0.156s-0.353,0.255-0.496,0.453
	c-0.144,0.198-0.258,0.44-0.344,0.727s-0.129,0.612-0.129,0.977V225h-1.312v-8.414h0.992l0.18,0.969h0.094
	c0.234-0.417,0.526-0.715,0.875-0.895C22.09,216.48,22.476,216.391,22.898,216.391z M31.882,217.188l-3.711,6.648h3.914V225h-5.711
	v-0.625l3.703-6.617h-3.445v-1.172h5.25V217.188z M37.116,216.391c0.458,0,0.862,0.074,1.211,0.223
	c0.349,0.148,0.638,0.382,0.867,0.699c0.229,0.317,0.402,0.727,0.52,1.227s0.176,1.102,0.176,1.805v0.836h-4.562
	c0.005,0.979,0.158,1.698,0.457,2.156c0.3,0.458,0.759,0.688,1.379,0.688c0.208,0,0.4-0.043,0.574-0.129
	c0.175-0.086,0.326-0.211,0.453-0.375c0.128-0.164,0.227-0.363,0.297-0.598s0.105-0.497,0.105-0.789h1.297
	c0,0.474-0.066,0.899-0.199,1.277s-0.32,0.698-0.562,0.961s-0.532,0.465-0.871,0.605c-0.338,0.141-0.713,0.211-1.125,0.211
	c-0.521,0-0.979-0.082-1.375-0.246c-0.396-0.164-0.728-0.425-0.996-0.781c-0.268-0.356-0.47-0.812-0.605-1.367
	c-0.135-0.555-0.203-1.223-0.203-2.004c0-1.505,0.265-2.614,0.793-3.328C35.273,216.747,36.064,216.391,37.116,216.391z
	 M37.116,217.555c-0.292,0-0.543,0.052-0.754,0.156s-0.387,0.259-0.527,0.465s-0.25,0.461-0.328,0.766s-0.133,0.66-0.164,1.066
	h3.172c0-0.808-0.118-1.418-0.355-1.832C37.922,217.762,37.574,217.555,37.116,217.555z M44.655,216.391
	c0.396,0,0.755,0.086,1.078,0.258c0.323,0.172,0.596,0.438,0.82,0.797c0.224,0.359,0.397,0.816,0.52,1.371
	c0.122,0.555,0.184,1.218,0.184,1.988c0,0.766-0.065,1.425-0.195,1.977c-0.13,0.552-0.309,1.007-0.535,1.363
	s-0.492,0.62-0.797,0.789s-0.632,0.254-0.98,0.254c-0.412,0-0.777-0.081-1.098-0.242s-0.554-0.391-0.699-0.688h-0.078v3.508h-1.312
	v-11.18h0.992l0.18,0.969h0.078c0.198-0.38,0.457-0.669,0.777-0.867S44.264,216.391,44.655,216.391z M44.374,217.555
	c-0.505,0-0.882,0.245-1.129,0.734c-0.248,0.489-0.371,1.222-0.371,2.195v0.617c0,0.969,0.124,1.698,0.371,2.188
	c0.247,0.489,0.624,0.734,1.129,0.734c0.25,0,0.47-0.055,0.66-0.164c0.19-0.109,0.348-0.281,0.473-0.516s0.219-0.536,0.281-0.906
	s0.094-0.815,0.094-1.336v-0.617c0-0.521-0.031-0.968-0.094-1.34s-0.156-0.676-0.281-0.91s-0.283-0.406-0.473-0.516
	C44.843,217.609,44.624,217.555,44.374,217.555z M50.178,216.586h1.133v1.172h-1.133v5.492c0,0.25,0.062,0.441,0.188,0.574
	s0.312,0.199,0.562,0.199h0.383v0.914c-0.109,0.062-0.254,0.114-0.434,0.156s-0.35,0.062-0.512,0.062
	c-0.287,0-0.526-0.056-0.719-0.168s-0.346-0.259-0.461-0.441s-0.197-0.39-0.246-0.621s-0.074-0.468-0.074-0.707v-5.461h-0.727
	v-1.172h0.727l0.289-2.336h1.023V216.586z M54.35,215h-1.305v-1.57h1.305V215z M54.35,225h-1.305v-8.414h1.305V225z M59.208,216.391
	c0.984,0,1.731,0.356,2.242,1.07c0.51,0.714,0.766,1.823,0.766,3.328c0,1.511-0.255,2.621-0.766,3.332
	c-0.511,0.711-1.258,1.066-2.242,1.066s-1.732-0.355-2.242-1.066c-0.511-0.711-0.766-1.821-0.766-3.332
	c0-1.505,0.255-2.614,0.766-3.328C57.477,216.747,58.224,216.391,59.208,216.391z M59.208,217.555c-0.552,0-0.962,0.245-1.23,0.734
	c-0.269,0.489-0.402,1.222-0.402,2.195v0.617c0,0.969,0.134,1.698,0.402,2.188c0.268,0.489,0.678,0.734,1.23,0.734
	c0.547,0,0.956-0.245,1.227-0.734c0.271-0.489,0.406-1.219,0.406-2.188v-0.617c0-0.974-0.136-1.706-0.406-2.195
	C60.164,217.8,59.755,217.555,59.208,217.555z M67.138,216.391c0.318,0,0.604,0.044,0.859,0.133
	c0.255,0.089,0.473,0.234,0.652,0.438s0.319,0.466,0.418,0.789c0.099,0.323,0.148,0.719,0.148,1.188V225h-1.312v-5.969
	c0-0.292-0.028-0.532-0.086-0.723c-0.057-0.19-0.138-0.341-0.242-0.453c-0.104-0.112-0.229-0.19-0.375-0.234
	c-0.146-0.044-0.307-0.066-0.484-0.066c-0.208,0-0.406,0.052-0.594,0.156s-0.353,0.255-0.496,0.453
	c-0.143,0.198-0.258,0.44-0.344,0.727s-0.129,0.612-0.129,0.977V225h-1.312v-8.414h0.992l0.18,0.969h0.094
	c0.234-0.417,0.526-0.715,0.875-0.895C66.331,216.48,66.716,216.391,67.138,216.391z"/>
<path fill="#FFFFFF" d="M7.528,193.432c0.645,0,1.244,0.094,1.797,0.281s1.033,0.477,1.437,0.865
	c0.404,0.391,0.722,0.889,0.954,1.494c0.231,0.607,0.347,1.329,0.347,2.167H9.708c0-0.475-0.053-0.889-0.158-1.243
	s-0.255-0.649-0.448-0.884s-0.423-0.409-0.69-0.522c-0.267-0.115-0.561-0.172-0.883-0.172c-0.428,0-0.801,0.091-1.121,0.272
	s-0.584,0.442-0.795,0.782s-0.368,0.755-0.47,1.244s-0.154,1.041-0.154,1.656v0.905c0,0.615,0.053,1.168,0.158,1.657
	s0.267,0.903,0.483,1.243s0.489,0.601,0.817,0.782s0.712,0.272,1.151,0.272c0.334,0,0.637-0.058,0.91-0.171
	c0.272-0.115,0.505-0.287,0.699-0.52c0.193-0.23,0.343-0.522,0.448-0.874s0.158-0.765,0.158-1.239h2.25
	c0,0.809-0.114,1.514-0.343,2.113c-0.229,0.602-0.545,1.1-0.949,1.494c-0.404,0.396-0.883,0.692-1.437,0.889
	c-0.554,0.195-1.156,0.294-1.806,0.294c-0.773,0-1.465-0.129-2.074-0.387s-1.125-0.65-1.547-1.178s-0.743-1.19-0.962-1.991
	c-0.22-0.799-0.33-1.744-0.33-2.834s0.11-2.036,0.33-2.839s0.541-1.468,0.962-1.995s0.938-0.92,1.547-1.178
	S6.755,193.432,7.528,193.432z M16.146,197.536h0.079c0.105-0.146,0.231-0.293,0.378-0.439s0.313-0.276,0.501-0.392
	c0.188-0.113,0.398-0.207,0.633-0.281c0.234-0.072,0.492-0.109,0.773-0.109c0.363,0,0.699,0.055,1.006,0.162
	c0.308,0.109,0.573,0.283,0.795,0.523s0.397,0.554,0.523,0.94s0.189,0.858,0.189,1.415V206h-2.153v-6.047
	c0-0.609-0.111-1.041-0.334-1.297c-0.223-0.254-0.527-0.382-0.914-0.382c-0.211,0-0.407,0.048-0.589,0.146
	c-0.182,0.096-0.338,0.231-0.47,0.404s-0.234,0.373-0.308,0.602s-0.11,0.475-0.11,0.738V206h-2.153v-13.017h2.153V197.536z
	 M26.79,196.314c0.135,0,0.258,0.009,0.369,0.026s0.208,0.035,0.29,0.053c0.094,0.023,0.173,0.047,0.237,0.07v2.083h-0.773
	c-0.234,0-0.458,0.035-0.672,0.105s-0.401,0.189-0.562,0.355c-0.161,0.168-0.29,0.391-0.387,0.668
	c-0.097,0.279-0.145,0.629-0.145,1.051V206h-2.153v-9.466h1.793l0.255,1.38h0.105c0.064-0.199,0.141-0.394,0.229-0.584
	s0.198-0.361,0.33-0.51c0.132-0.15,0.286-0.271,0.461-0.365S26.55,196.314,26.79,196.314z M31.129,194.952h-2.153v-1.969h2.153
	V194.952z M31.129,206h-2.153v-9.466h2.153V206z M36.122,196.314c0.451,0,0.872,0.059,1.261,0.176s0.729,0.285,1.02,0.506
	c0.29,0.219,0.517,0.489,0.681,0.809s0.246,0.681,0.246,1.085c0,0.1-0.004,0.19-0.013,0.272s-0.013,0.129-0.013,0.141h-2.188
	c0-0.422-0.095-0.73-0.286-0.928c-0.19-0.195-0.45-0.294-0.778-0.294c-0.334,0-0.604,0.083-0.809,0.251
	c-0.205,0.166-0.308,0.394-0.308,0.681c0,0.229,0.066,0.412,0.198,0.55s0.306,0.252,0.523,0.342
	c0.217,0.092,0.464,0.171,0.743,0.238s0.561,0.144,0.848,0.229s0.57,0.188,0.848,0.312s0.526,0.29,0.743,0.501
	s0.391,0.475,0.523,0.791s0.198,0.709,0.198,1.178c0,0.58-0.089,1.065-0.268,1.455s-0.425,0.704-0.738,0.944
	s-0.686,0.412-1.116,0.515c-0.431,0.102-0.898,0.153-1.402,0.153c-0.545,0-1.03-0.072-1.455-0.216
	c-0.425-0.143-0.785-0.347-1.081-0.61s-0.52-0.58-0.672-0.949s-0.229-0.779-0.229-1.23v-0.07c0-0.029,0.003-0.056,0.009-0.079
	c0-0.023,0.003-0.047,0.009-0.07h2.188v0.123c0.006,0.252,0.048,0.463,0.127,0.633s0.18,0.308,0.303,0.413s0.261,0.181,0.413,0.224
	c0.152,0.045,0.305,0.066,0.457,0.066c0.141,0,0.286-0.018,0.435-0.053s0.286-0.092,0.409-0.172
	c0.123-0.078,0.223-0.184,0.299-0.316c0.076-0.131,0.114-0.294,0.114-0.487c0-0.252-0.066-0.454-0.198-0.606
	s-0.306-0.279-0.523-0.383c-0.217-0.102-0.464-0.189-0.743-0.264c-0.278-0.072-0.561-0.153-0.848-0.241s-0.57-0.193-0.848-0.316
	s-0.526-0.287-0.743-0.492s-0.391-0.463-0.523-0.773s-0.198-0.694-0.198-1.151c0-0.48,0.088-0.9,0.264-1.262
	c0.176-0.359,0.416-0.66,0.721-0.9s0.662-0.42,1.072-0.541C35.205,196.375,35.647,196.314,36.122,196.314z M43.278,196.534h1.362
	v1.819h-1.362v5.273c0,0.516,0.252,0.773,0.756,0.773h0.606v1.6c-0.076,0.029-0.167,0.056-0.272,0.079s-0.217,0.047-0.334,0.07
	s-0.234,0.041-0.352,0.053s-0.229,0.018-0.334,0.018c-0.434,0-0.794-0.073-1.081-0.22s-0.516-0.34-0.686-0.58
	s-0.29-0.511-0.36-0.812s-0.105-0.611-0.105-0.928v-5.326h-0.958v-1.819h0.958l0.325-2.663h1.837V196.534z M48.129,194.952h-2.153
	v-1.969h2.153V194.952z M48.129,206h-2.153v-9.466h2.153V206z M52.902,196.314c1.096,0,1.907,0.245,2.435,0.734
	s0.791,1.176,0.791,2.061v4.658c0,0.223,0.053,0.384,0.158,0.483s0.22,0.149,0.343,0.149h0.439v1.529
	c-0.117,0.064-0.278,0.129-0.483,0.193s-0.472,0.097-0.8,0.097c-0.434,0-0.794-0.116-1.081-0.347
	c-0.287-0.231-0.483-0.532-0.589-0.901h-0.097c-0.135,0.188-0.275,0.359-0.422,0.515s-0.313,0.287-0.501,0.395
	c-0.188,0.109-0.4,0.192-0.637,0.251s-0.514,0.088-0.831,0.088c-0.223,0-0.47-0.037-0.743-0.11s-0.53-0.207-0.773-0.404
	c-0.243-0.195-0.447-0.467-0.611-0.812s-0.246-0.794-0.246-1.345c0-0.639,0.116-1.169,0.347-1.591s0.554-0.76,0.967-1.016
	c0.413-0.254,0.908-0.435,1.485-0.54s1.208-0.158,1.894-0.158v-0.993c0-0.164-0.013-0.316-0.04-0.457s-0.075-0.264-0.145-0.369
	s-0.17-0.189-0.299-0.25c-0.129-0.062-0.296-0.093-0.501-0.093c-0.223,0-0.407,0.03-0.554,0.093
	c-0.146,0.061-0.262,0.139-0.347,0.232s-0.145,0.201-0.18,0.32c-0.035,0.121-0.053,0.236-0.053,0.348v0.264h-2.109
	c-0.012-0.053-0.018-0.111-0.018-0.176v-0.22c0-0.393,0.076-0.751,0.229-1.077c0.152-0.324,0.368-0.602,0.646-0.83
	s0.614-0.405,1.006-0.531S52.416,196.314,52.902,196.314z M53.948,201.808c-0.316,0-0.623,0.023-0.918,0.07s-0.56,0.129-0.791,0.246
	s-0.417,0.275-0.558,0.475s-0.211,0.451-0.211,0.756c0,0.328,0.083,0.588,0.25,0.778s0.435,0.285,0.804,0.285
	c0.258,0,0.476-0.056,0.655-0.167s0.325-0.262,0.439-0.452s0.198-0.41,0.25-0.66c0.053-0.248,0.079-0.514,0.079-0.795V201.808z
	 M62.511,196.314c0.363,0,0.699,0.055,1.006,0.162c0.308,0.109,0.573,0.283,0.795,0.523s0.397,0.554,0.523,0.94
	s0.189,0.858,0.189,1.415V206h-2.153v-6.047c0-0.609-0.111-1.041-0.334-1.297c-0.223-0.254-0.527-0.382-0.914-0.382
	c-0.211,0-0.407,0.048-0.589,0.146c-0.182,0.096-0.338,0.231-0.47,0.404s-0.234,0.373-0.308,0.602s-0.11,0.475-0.11,0.738V206
	h-2.153v-9.466h1.793l0.22,1.169h0.105c0.123-0.182,0.264-0.357,0.422-0.527s0.337-0.317,0.536-0.443s0.419-0.228,0.659-0.304
	S62.229,196.314,62.511,196.314z M73.401,199.971l4.518-6.319h2.575l-3.656,5.019L80.6,206h-2.593l-2.681-5.511l-1.925,2.364V206
	h-2.32v-12.349h2.32V199.971z M85.79,196.314c0.135,0,0.258,0.009,0.369,0.026s0.208,0.035,0.29,0.053
	c0.094,0.023,0.173,0.047,0.237,0.07v2.083h-0.773c-0.234,0-0.458,0.035-0.672,0.105s-0.401,0.189-0.562,0.355
	c-0.161,0.168-0.29,0.391-0.387,0.668c-0.097,0.279-0.145,0.629-0.145,1.051V206h-2.153v-9.466h1.793l0.255,1.38h0.105
	c0.064-0.199,0.141-0.394,0.229-0.584s0.198-0.361,0.33-0.51c0.132-0.15,0.286-0.271,0.461-0.365S85.55,196.314,85.79,196.314z
	 M91.192,196.314c1.143,0,1.998,0.4,2.566,1.199c0.568,0.801,0.853,2.05,0.853,3.749v0.545h-4.808
	c0.006,0.422,0.037,0.797,0.092,1.125s0.141,0.605,0.255,0.831s0.262,0.396,0.444,0.514s0.404,0.176,0.668,0.176
	c0.369,0,0.664-0.158,0.883-0.475s0.33-0.759,0.33-1.327h2.136c0,0.609-0.083,1.138-0.25,1.587c-0.167,0.447-0.4,0.818-0.699,1.111
	s-0.653,0.512-1.063,0.654c-0.41,0.144-0.855,0.216-1.336,0.216c-1.213,0-2.134-0.401-2.764-1.204s-0.945-2.054-0.945-3.753
	s0.313-2.948,0.94-3.749C89.121,196.715,90.021,196.314,91.192,196.314z M91.192,198.081c-0.457,0-0.79,0.188-0.998,0.562
	s-0.33,0.908-0.365,1.6h2.514c0-0.691-0.092-1.225-0.277-1.6S91.591,198.081,91.192,198.081z M98.129,194.952h-2.153v-1.969h2.153
	V194.952z M98.129,206h-2.153v-9.466h2.153V206z M103.192,196.314c1.143,0,1.998,0.4,2.566,1.199
	c0.568,0.801,0.853,2.05,0.853,3.749v0.545h-4.808c0.006,0.422,0.037,0.797,0.092,1.125s0.141,0.605,0.255,0.831
	s0.262,0.396,0.444,0.514s0.404,0.176,0.668,0.176c0.369,0,0.664-0.158,0.883-0.475s0.33-0.759,0.33-1.327h2.136
	c0,0.609-0.083,1.138-0.25,1.587c-0.167,0.447-0.4,0.818-0.699,1.111s-0.653,0.512-1.063,0.654c-0.41,0.144-0.855,0.216-1.336,0.216
	c-1.213,0-2.134-0.401-2.764-1.204s-0.945-2.054-0.945-3.753s0.313-2.948,0.94-3.749
	C101.121,196.715,102.021,196.314,103.192,196.314z M103.192,198.081c-0.457,0-0.79,0.188-0.998,0.562s-0.33,0.908-0.365,1.6h2.514
	c0-0.691-0.092-1.225-0.277-1.6S103.591,198.081,103.192,198.081z M112.511,196.314c0.363,0,0.698,0.055,1.007,0.162
	c0.307,0.109,0.572,0.283,0.795,0.523s0.396,0.554,0.523,0.94c0.125,0.387,0.188,0.858,0.188,1.415V206h-2.153v-6.047
	c0-0.609-0.111-1.041-0.334-1.297c-0.223-0.254-0.527-0.382-0.914-0.382c-0.211,0-0.407,0.048-0.589,0.146
	c-0.182,0.096-0.339,0.231-0.47,0.404c-0.133,0.173-0.235,0.373-0.309,0.602s-0.109,0.475-0.109,0.738V206h-2.153v-9.466h1.793
	l0.22,1.169h0.105c0.123-0.182,0.264-0.357,0.422-0.527s0.337-0.317,0.536-0.443s0.419-0.228,0.659-0.304
	S112.229,196.314,112.511,196.314z M119.129,200.296l2.646-3.762h2.312l-2.812,3.85l2.953,5.616h-2.391l-1.916-3.92l-0.791,0.967
	V206h-2.153v-13.017h2.153V200.296z M127.902,196.314c1.096,0,1.907,0.245,2.435,0.734s0.791,1.176,0.791,2.061v4.658
	c0,0.223,0.053,0.384,0.158,0.483s0.22,0.149,0.343,0.149h0.439v1.529c-0.117,0.064-0.278,0.129-0.483,0.193s-0.472,0.097-0.8,0.097
	c-0.434,0-0.794-0.116-1.081-0.347c-0.287-0.231-0.483-0.532-0.589-0.901h-0.097c-0.135,0.188-0.275,0.359-0.422,0.515
	s-0.313,0.287-0.501,0.395c-0.188,0.109-0.4,0.192-0.637,0.251c-0.238,0.059-0.515,0.088-0.831,0.088
	c-0.223,0-0.47-0.037-0.743-0.11c-0.271-0.073-0.53-0.207-0.773-0.404c-0.243-0.195-0.446-0.467-0.61-0.812
	s-0.246-0.794-0.246-1.345c0-0.639,0.115-1.169,0.347-1.591s0.555-0.76,0.967-1.016c0.414-0.254,0.908-0.435,1.486-0.54
	c0.576-0.105,1.208-0.158,1.894-0.158v-0.993c0-0.164-0.013-0.316-0.04-0.457c-0.025-0.141-0.074-0.264-0.145-0.369
	s-0.17-0.189-0.299-0.25c-0.129-0.062-0.296-0.093-0.501-0.093c-0.223,0-0.407,0.03-0.554,0.093
	c-0.146,0.061-0.263,0.139-0.348,0.232s-0.145,0.201-0.18,0.32c-0.035,0.121-0.053,0.236-0.053,0.348v0.264h-2.109
	c-0.012-0.053-0.018-0.111-0.018-0.176v-0.22c0-0.393,0.076-0.751,0.229-1.077c0.152-0.324,0.367-0.602,0.646-0.83
	c0.277-0.229,0.613-0.405,1.006-0.531S127.416,196.314,127.902,196.314z M128.948,201.808c-0.316,0-0.623,0.023-0.919,0.07
	s-0.56,0.129-0.791,0.246s-0.417,0.275-0.558,0.475s-0.211,0.451-0.211,0.756c0,0.328,0.083,0.588,0.251,0.778
	c0.166,0.19,0.435,0.285,0.804,0.285c0.258,0,0.476-0.056,0.655-0.167c0.178-0.111,0.324-0.262,0.439-0.452
	c0.113-0.19,0.197-0.41,0.25-0.66c0.053-0.248,0.079-0.514,0.079-0.795V201.808z M141.844,196.314c0.34,0,0.651,0.052,0.936,0.154
	s0.53,0.271,0.738,0.51c0.208,0.236,0.371,0.551,0.488,0.939c0.117,0.391,0.176,0.869,0.176,1.438V206h-2.153v-6.047
	c0-0.609-0.088-1.041-0.264-1.297c-0.176-0.254-0.442-0.382-0.8-0.382c-0.176,0-0.343,0.043-0.501,0.128s-0.299,0.203-0.422,0.355
	s-0.22,0.336-0.29,0.549c-0.07,0.215-0.105,0.453-0.105,0.717V206h-2.118v-6.047c0-0.609-0.091-1.041-0.272-1.297
	c-0.182-0.254-0.451-0.382-0.809-0.382c-0.188,0-0.36,0.046-0.519,0.136c-0.158,0.092-0.294,0.221-0.409,0.387
	c-0.113,0.168-0.205,0.367-0.271,0.598c-0.068,0.232-0.102,0.488-0.102,0.77V206h-2.153v-9.466h1.793l0.22,1.169h0.105
	c0.111-0.182,0.243-0.357,0.396-0.527s0.322-0.317,0.51-0.443s0.394-0.228,0.62-0.304c0.225-0.076,0.467-0.114,0.725-0.114
	c0.475,0,0.886,0.107,1.234,0.32c0.349,0.215,0.617,0.57,0.805,1.068c0.123-0.182,0.265-0.357,0.426-0.527s0.345-0.317,0.55-0.443
	s0.431-0.228,0.677-0.304S141.562,196.314,141.844,196.314z M150.238,196.314c0.469,0,0.891,0.099,1.266,0.295
	s0.694,0.496,0.958,0.9s0.466,0.918,0.606,1.543c0.141,0.623,0.211,1.366,0.211,2.228s-0.074,1.603-0.225,2.224
	c-0.148,0.621-0.354,1.134-0.615,1.538s-0.569,0.702-0.927,0.892c-0.357,0.19-0.747,0.286-1.169,0.286
	c-0.475,0-0.9-0.104-1.279-0.312c-0.377-0.208-0.651-0.503-0.821-0.884h-0.097v4.087h-2.153v-12.577h1.793l0.22,1.169h0.088
	c0.24-0.463,0.545-0.81,0.914-1.041S149.787,196.314,150.238,196.314z M149.588,198.274c-0.521,0-0.893,0.229-1.111,0.686
	c-0.221,0.457-0.33,1.11-0.33,1.96v0.65c0,0.855,0.109,1.516,0.33,1.982c0.219,0.465,0.59,0.698,1.111,0.698
	s0.893-0.227,1.111-0.681c0.221-0.454,0.33-1.109,0.33-1.965v-0.686c0-0.85-0.109-1.503-0.33-1.96
	C150.48,198.503,150.109,198.274,149.588,198.274z"/>
<path d="M17.795,21.288h1.214v3.022h-3.04v-2.764l1.45-3.713h1.59L17.795,21.288z M21.823,21.288h1.214v3.022h-3.04v-2.764
	l1.45-3.713h1.59L21.823,21.288z M37.73,33h-2.836l-2.052-9.661c-0.043-0.194-0.083-0.414-0.118-0.659
	c-0.036-0.244-0.068-0.479-0.097-0.702c-0.029-0.259-0.058-0.521-0.086-0.788h-0.097c-0.043,0.288-0.079,0.565-0.107,0.831
	c-0.036,0.23-0.068,0.468-0.097,0.712c-0.029,0.245-0.061,0.446-0.097,0.604L30.114,33h-2.836l-3.276-15.167h2.793L28.6,27.16
	c0.036,0.166,0.07,0.371,0.102,0.615s0.062,0.479,0.091,0.702c0.028,0.266,0.061,0.536,0.097,0.81h0.086
	c0.028-0.281,0.057-0.554,0.086-0.82c0.028-0.23,0.059-0.464,0.091-0.702s0.066-0.439,0.102-0.604l1.826-9.327h3.19l1.805,9.327
	c0.028,0.151,0.061,0.347,0.097,0.588c0.036,0.241,0.068,0.477,0.097,0.707c0.028,0.266,0.061,0.543,0.097,0.831h0.086l0.086-0.777
	c0.028-0.216,0.059-0.448,0.091-0.696c0.032-0.248,0.07-0.466,0.113-0.653l1.848-9.327h2.417L37.73,33z M44.826,19.431h-2.632
	v-2.418h2.632V19.431z M44.826,33h-2.632V21.374h2.632V33z M51.856,21.104c0.165,0,0.315,0.011,0.451,0.032
	c0.136,0.021,0.254,0.043,0.354,0.065c0.114,0.029,0.211,0.058,0.29,0.086v2.558h-0.945c-0.287,0-0.561,0.043-0.822,0.129
	c-0.262,0.086-0.491,0.232-0.688,0.438c-0.197,0.205-0.354,0.479-0.473,0.82s-0.177,0.771-0.177,1.29V33h-2.632V21.374h2.191
	l0.312,1.695h0.129c0.079-0.245,0.172-0.484,0.279-0.718s0.242-0.442,0.403-0.626s0.349-0.333,0.564-0.448
	C51.309,21.162,51.562,21.104,51.856,21.104z M69.217,33h-2.653l-1.149-5.548c-0.058-0.295-0.107-0.61-0.15-0.945
	c-0.043-0.334-0.079-0.646-0.107-0.934c-0.029-0.338-0.054-0.669-0.075-0.993h-0.129c-0.021,0.317-0.047,0.641-0.075,0.972
	c-0.029,0.281-0.064,0.588-0.107,0.923s-0.093,0.653-0.15,0.956L63.502,33h-2.664l-2.814-11.626h2.643l1.096,4.771
	c0.086,0.396,0.159,0.808,0.22,1.236c0.061,0.428,0.109,0.822,0.145,1.182c0.043,0.417,0.075,0.828,0.097,1.23h0.086
	c0.028-0.381,0.068-0.777,0.118-1.188c0.036-0.353,0.086-0.743,0.15-1.171s0.136-0.851,0.215-1.269l0.999-4.793h2.632l0.999,4.814
	c0.057,0.288,0.114,0.635,0.172,1.042c0.057,0.406,0.111,0.8,0.161,1.182c0.05,0.446,0.1,0.907,0.15,1.382h0.086
	c0.057-0.446,0.118-0.885,0.183-1.317c0.057-0.367,0.118-0.757,0.183-1.171c0.064-0.414,0.132-0.786,0.204-1.117l1.01-4.814h2.449
	L69.217,33z M77.523,21.104c1.54,0,2.694,0.491,3.464,1.473c0.77,0.982,1.155,2.517,1.155,4.604s-0.385,3.624-1.155,4.609
	c-0.77,0.986-1.925,1.479-3.464,1.479c-1.54,0-2.695-0.493-3.464-1.479c-0.77-0.986-1.155-2.522-1.155-4.609
	s0.385-3.622,1.155-4.604C74.829,21.596,75.983,21.104,77.523,21.104z M77.523,23.339c-0.681,0-1.162,0.293-1.445,0.88
	c-0.283,0.586-0.424,1.434-0.424,2.542v0.842c0,1.116,0.141,1.967,0.424,2.553c0.283,0.586,0.764,0.879,1.445,0.879
	c0.68,0,1.162-0.293,1.445-0.879c0.283-0.586,0.424-1.438,0.424-2.553v-0.842c0-1.108-0.142-1.956-0.424-2.542
	C78.685,23.632,78.204,23.339,77.523,23.339z M86.826,33h-2.632V17.013h2.632V33z M91.826,33h-2.632V17.013h2.632V33z
	 M98.126,21.104c1.396,0,2.442,0.491,3.137,1.473c0.694,0.982,1.042,2.517,1.042,4.604v0.669h-5.876
	c0.007,0.518,0.044,0.979,0.113,1.382c0.068,0.403,0.172,0.743,0.312,1.02c0.14,0.277,0.32,0.487,0.542,0.631
	c0.222,0.144,0.494,0.216,0.816,0.216c0.451,0,0.811-0.194,1.08-0.583s0.403-0.932,0.403-1.63h2.61c0,0.749-0.102,1.398-0.306,1.948
	c-0.204,0.551-0.489,1.006-0.854,1.366s-0.799,0.628-1.3,0.804c-0.501,0.176-1.046,0.265-1.633,0.265
	c-1.482,0-2.609-0.493-3.378-1.479c-0.77-0.986-1.155-2.522-1.155-4.609s0.383-3.622,1.149-4.604
	C95.594,21.596,96.693,21.104,98.126,21.104z M98.126,23.274c-0.559,0-0.965,0.23-1.219,0.691c-0.254,0.461-0.403,1.116-0.446,1.965
	h3.072c0-0.849-0.113-1.504-0.338-1.965C98.969,23.504,98.613,23.274,98.126,23.274z M109.737,21.104c0.444,0,0.854,0.066,1.229,0.2
	c0.377,0.133,0.7,0.347,0.973,0.642c0.272,0.295,0.485,0.68,0.639,1.155c0.154,0.475,0.231,1.054,0.231,1.738V33h-2.632v-7.427
	c0-0.748-0.136-1.279-0.408-1.592s-0.645-0.469-1.117-0.469c-0.258,0-0.498,0.059-0.72,0.178c-0.222,0.119-0.414,0.285-0.575,0.497
	c-0.161,0.212-0.287,0.459-0.376,0.74c-0.09,0.281-0.134,0.583-0.134,0.907V33h-2.632V21.374h2.191l0.269,1.436h0.129
	c0.15-0.223,0.322-0.439,0.516-0.648c0.193-0.208,0.412-0.39,0.655-0.545c0.243-0.155,0.512-0.279,0.806-0.373
	C109.075,21.151,109.394,21.104,109.737,21.104z M124.126,21.104c1.396,0,2.442,0.491,3.137,1.473
	c0.694,0.982,1.042,2.517,1.042,4.604v0.669h-5.876c0.007,0.518,0.045,0.979,0.112,1.382c0.068,0.403,0.172,0.743,0.312,1.02
	c0.139,0.277,0.32,0.487,0.542,0.631s0.494,0.216,0.816,0.216c0.451,0,0.812-0.194,1.079-0.583c0.27-0.389,0.403-0.932,0.403-1.63
	h2.61c0,0.749-0.102,1.398-0.307,1.948c-0.203,0.551-0.488,1.006-0.854,1.366s-0.799,0.628-1.3,0.804s-1.046,0.265-1.633,0.265
	c-1.482,0-2.608-0.493-3.378-1.479c-0.771-0.986-1.155-2.522-1.155-4.609s0.383-3.622,1.149-4.604
	C121.595,21.596,122.693,21.104,124.126,21.104z M124.126,23.274c-0.559,0-0.965,0.23-1.22,0.691
	c-0.254,0.461-0.402,1.116-0.445,1.965h3.072c0-0.849-0.113-1.504-0.338-1.965C124.969,23.504,124.613,23.274,124.126,23.274z
	 M133.009,21.374h1.665v2.235h-1.665v6.477c0,0.633,0.308,0.95,0.924,0.95h0.741V33c-0.093,0.036-0.204,0.068-0.333,0.097
	s-0.265,0.058-0.408,0.086s-0.286,0.05-0.43,0.064c-0.144,0.015-0.279,0.022-0.408,0.022c-0.53,0-0.971-0.09-1.321-0.27
	s-0.63-0.417-0.838-0.712s-0.354-0.628-0.44-0.999s-0.129-0.75-0.129-1.139v-6.542h-1.171v-2.235h1.171l0.397-3.271h2.245V21.374z
	 M146.217,33h-2.653l-1.149-5.548c-0.058-0.295-0.107-0.61-0.15-0.945c-0.043-0.334-0.079-0.646-0.107-0.934
	c-0.028-0.338-0.054-0.669-0.075-0.993h-0.129c-0.021,0.317-0.047,0.641-0.075,0.972c-0.028,0.281-0.064,0.588-0.107,0.923
	s-0.093,0.653-0.15,0.956L140.502,33h-2.664l-2.814-11.626h2.643l1.096,4.771c0.086,0.396,0.159,0.808,0.221,1.236
	c0.061,0.428,0.108,0.822,0.145,1.182c0.043,0.417,0.075,0.828,0.097,1.23h0.086c0.028-0.381,0.068-0.777,0.118-1.188
	c0.036-0.353,0.086-0.743,0.15-1.171s0.136-0.851,0.215-1.269l0.999-4.793h2.632l0.999,4.814c0.058,0.288,0.114,0.635,0.172,1.042
	c0.058,0.406,0.111,0.8,0.161,1.182c0.05,0.446,0.101,0.907,0.15,1.382h0.086c0.058-0.446,0.118-0.885,0.183-1.317
	c0.058-0.367,0.118-0.757,0.183-1.171c0.064-0.414,0.133-0.786,0.204-1.117l1.01-4.814h2.449L146.217,33z M153.771,21.104
	c1.339,0,2.331,0.3,2.976,0.901c0.645,0.601,0.967,1.445,0.967,2.531v5.721c0,0.273,0.064,0.471,0.193,0.594
	c0.129,0.122,0.269,0.183,0.419,0.183h0.537v1.878c-0.144,0.079-0.34,0.158-0.591,0.238c-0.251,0.079-0.576,0.119-0.978,0.119
	c-0.53,0-0.971-0.143-1.321-0.427s-0.591-0.653-0.72-1.106h-0.118c-0.165,0.23-0.337,0.441-0.516,0.632
	c-0.179,0.19-0.383,0.353-0.612,0.486c-0.229,0.133-0.488,0.235-0.779,0.308c-0.289,0.072-0.628,0.108-1.015,0.108
	c-0.272,0-0.575-0.045-0.907-0.135c-0.334-0.09-0.648-0.255-0.945-0.497c-0.298-0.241-0.547-0.574-0.747-0.999
	c-0.2-0.424-0.301-0.975-0.301-1.651c0-0.784,0.142-1.436,0.425-1.954c0.282-0.519,0.676-0.934,1.182-1.247
	c0.504-0.313,1.109-0.534,1.814-0.664c0.706-0.13,1.478-0.194,2.315-0.194v-1.22c0-0.202-0.017-0.389-0.048-0.562
	c-0.033-0.173-0.092-0.324-0.178-0.454c-0.086-0.129-0.208-0.232-0.365-0.308c-0.157-0.075-0.361-0.113-0.612-0.113
	c-0.272,0-0.498,0.038-0.677,0.113c-0.179,0.076-0.32,0.171-0.424,0.286c-0.104,0.115-0.178,0.247-0.221,0.394
	s-0.064,0.29-0.064,0.426v0.324h-2.578c-0.015-0.065-0.021-0.137-0.021-0.216v-0.27c0-0.482,0.093-0.923,0.279-1.322
	s0.449-0.74,0.789-1.02c0.341-0.281,0.751-0.499,1.23-0.653S153.177,21.104,153.771,21.104z M155.05,27.851
	c-0.387,0-0.761,0.029-1.122,0.086c-0.362,0.058-0.685,0.158-0.967,0.302c-0.283,0.144-0.511,0.338-0.683,0.583
	c-0.172,0.245-0.258,0.555-0.258,0.929c0,0.403,0.103,0.721,0.306,0.955c0.205,0.234,0.532,0.351,0.983,0.351
	c0.315,0,0.582-0.068,0.8-0.205c0.219-0.137,0.398-0.322,0.537-0.556c0.141-0.234,0.242-0.503,0.307-0.81
	c0.064-0.306,0.097-0.631,0.097-0.977V27.851z M164.04,21.104c0.552,0,1.065,0.072,1.542,0.216c0.476,0.144,0.891,0.351,1.246,0.621
	c0.354,0.27,0.632,0.601,0.832,0.993s0.301,0.836,0.301,1.333c0,0.123-0.006,0.234-0.016,0.335
	c-0.012,0.101-0.017,0.158-0.017,0.172h-2.675c0-0.518-0.116-0.897-0.35-1.139c-0.232-0.241-0.549-0.362-0.95-0.362
	c-0.408,0-0.737,0.103-0.988,0.308s-0.376,0.484-0.376,0.837c0,0.28,0.08,0.505,0.242,0.674c0.16,0.169,0.374,0.31,0.639,0.421
	c0.265,0.111,0.567,0.208,0.908,0.291c0.34,0.083,0.686,0.177,1.036,0.281c0.351,0.104,0.696,0.232,1.036,0.383
	c0.341,0.151,0.644,0.356,0.908,0.615c0.265,0.259,0.479,0.583,0.639,0.972c0.162,0.389,0.242,0.871,0.242,1.446
	c0,0.712-0.109,1.308-0.328,1.787c-0.218,0.479-0.519,0.865-0.902,1.161c-0.383,0.295-0.838,0.505-1.363,0.631
	c-0.527,0.125-1.098,0.189-1.714,0.189c-0.666,0-1.259-0.088-1.778-0.265c-0.519-0.176-0.959-0.426-1.32-0.75
	c-0.362-0.324-0.636-0.712-0.822-1.166s-0.279-0.957-0.279-1.511v-0.086c0-0.036,0.004-0.068,0.011-0.097
	c0-0.029,0.004-0.058,0.011-0.086h2.675v0.151c0.007,0.31,0.06,0.568,0.155,0.777c0.098,0.208,0.221,0.377,0.371,0.507
	c0.15,0.129,0.318,0.221,0.505,0.275c0.187,0.054,0.372,0.081,0.559,0.081c0.172,0,0.349-0.021,0.532-0.065
	c0.182-0.043,0.349-0.113,0.499-0.21s0.272-0.227,0.365-0.388c0.093-0.162,0.14-0.362,0.14-0.599c0-0.31-0.08-0.558-0.242-0.745
	c-0.16-0.187-0.374-0.343-0.639-0.47c-0.265-0.125-0.567-0.233-0.908-0.324c-0.34-0.09-0.686-0.189-1.036-0.297
	s-0.696-0.237-1.036-0.389c-0.341-0.151-0.644-0.352-0.908-0.604c-0.265-0.251-0.479-0.568-0.639-0.95
	c-0.162-0.381-0.242-0.853-0.242-1.414c0-0.59,0.107-1.106,0.322-1.549c0.215-0.443,0.509-0.812,0.881-1.106
	c0.372-0.295,0.81-0.517,1.311-0.664S163.46,21.104,164.04,21.104z M25.69,46.431c0,0.828-0.165,1.482-0.494,1.965
	c-0.33,0.482-0.788,0.813-1.375,0.993c0.301,0.331,0.53,0.723,0.688,1.176c0.157,0.454,0.236,0.954,0.236,1.5
	c0,0.598-0.093,1.139-0.279,1.625c-0.187,0.486-0.458,0.901-0.816,1.247c-0.358,0.345-0.806,0.612-1.343,0.799
	s-1.153,0.28-1.848,0.28h-1.096c-0.236,0-0.428,0.069-0.575,0.205c-0.147,0.137-0.22,0.306-0.22,0.507
	c0,0.202,0.062,0.366,0.188,0.491c0.125,0.126,0.288,0.189,0.489,0.189h4.007c0.365,0,0.707,0.07,1.026,0.21
	c0.318,0.141,0.598,0.344,0.838,0.61c0.24,0.267,0.43,0.587,0.569,0.961s0.209,0.792,0.209,1.252c0,0.54-0.099,1.031-0.295,1.474
	c-0.197,0.442-0.464,0.82-0.8,1.133c-0.337,0.313-0.732,0.554-1.187,0.724c-0.455,0.169-0.94,0.253-1.456,0.253h-4.254
	c-0.351,0-0.681-0.065-0.988-0.194c-0.308-0.129-0.579-0.313-0.811-0.55c-0.233-0.238-0.416-0.52-0.548-0.848
	c-0.133-0.328-0.199-0.689-0.199-1.085c0-0.576,0.14-1.056,0.419-1.441s0.63-0.692,1.053-0.923c-0.287-0.18-0.512-0.416-0.677-0.707
	c-0.165-0.292-0.247-0.639-0.247-1.042c0-0.252,0.044-0.484,0.134-0.696c0.089-0.212,0.211-0.405,0.365-0.578
	c0.154-0.173,0.334-0.322,0.542-0.448c0.208-0.125,0.426-0.228,0.655-0.308c-0.466-0.345-0.816-0.782-1.053-1.312
	c-0.236-0.529-0.354-1.139-0.354-1.83c0-0.597,0.091-1.139,0.274-1.625s0.455-0.901,0.816-1.247
	c0.361-0.346,0.807-0.614,1.337-0.804c0.53-0.191,1.142-0.286,1.837-0.286c0.365,0,0.71,0.027,1.037,0.081
	c0.326,0.054,0.625,0.138,0.897,0.253c0.222-0.158,0.404-0.333,0.548-0.523c0.143-0.19,0.258-0.379,0.344-0.567
	c0.086-0.187,0.146-0.361,0.183-0.523c0.036-0.162,0.054-0.293,0.054-0.394H25.69z M19.073,59.871c-0.15,0-0.289,0.029-0.414,0.086
	c-0.125,0.057-0.236,0.135-0.333,0.232s-0.172,0.208-0.226,0.334s-0.081,0.261-0.081,0.405c0,0.331,0.1,0.594,0.301,0.788
	c0.2,0.194,0.451,0.292,0.752,0.292h2.965c0.336,0,0.619-0.097,0.849-0.292c0.229-0.194,0.344-0.457,0.344-0.788
	s-0.104-0.59-0.312-0.777c-0.208-0.188-0.462-0.281-0.763-0.281H19.073z M20.459,50.069c-0.537,0-0.944,0.177-1.219,0.529
	c-0.276,0.353-0.414,0.842-0.414,1.468c0,0.619,0.138,1.105,0.414,1.458c0.275,0.353,0.682,0.529,1.219,0.529
	c0.551,0,0.965-0.176,1.241-0.529c0.275-0.353,0.414-0.838,0.414-1.458c0-0.626-0.138-1.115-0.414-1.468
	C21.424,50.246,21.01,50.069,20.459,50.069z M30.771,48.104c1.339,0,2.331,0.3,2.976,0.901c0.645,0.601,0.967,1.445,0.967,2.531
	v5.721c0,0.273,0.064,0.471,0.193,0.594c0.129,0.122,0.269,0.183,0.419,0.183h0.537v1.878c-0.144,0.079-0.34,0.158-0.591,0.238
	c-0.251,0.079-0.577,0.119-0.978,0.119c-0.53,0-0.971-0.143-1.321-0.427c-0.351-0.284-0.591-0.653-0.72-1.106h-0.118
	c-0.165,0.23-0.337,0.441-0.516,0.632c-0.179,0.19-0.383,0.353-0.612,0.486c-0.229,0.133-0.489,0.235-0.779,0.308
	c-0.29,0.072-0.628,0.108-1.015,0.108c-0.272,0-0.575-0.045-0.908-0.135s-0.648-0.255-0.945-0.497
	c-0.297-0.241-0.546-0.574-0.747-0.999c-0.201-0.424-0.301-0.975-0.301-1.651c0-0.784,0.141-1.436,0.424-1.954
	c0.283-0.519,0.677-0.934,1.182-1.247s1.11-0.534,1.815-0.664c0.705-0.13,1.477-0.194,2.315-0.194v-1.22
	c0-0.202-0.016-0.389-0.048-0.562s-0.091-0.324-0.177-0.454c-0.086-0.129-0.208-0.232-0.365-0.308
	c-0.158-0.075-0.362-0.113-0.612-0.113c-0.272,0-0.498,0.038-0.677,0.113c-0.179,0.076-0.321,0.171-0.424,0.286
	c-0.104,0.115-0.177,0.247-0.22,0.394s-0.064,0.29-0.064,0.426v0.324h-2.578c-0.015-0.065-0.021-0.137-0.021-0.216v-0.27
	c0-0.482,0.093-0.923,0.279-1.322c0.186-0.399,0.449-0.74,0.79-1.02c0.34-0.281,0.75-0.499,1.23-0.653
	C29.64,48.182,30.177,48.104,30.771,48.104z M32.05,54.851c-0.387,0-0.761,0.029-1.123,0.086c-0.362,0.058-0.684,0.158-0.967,0.302
	c-0.283,0.144-0.51,0.338-0.682,0.583c-0.172,0.245-0.258,0.555-0.258,0.929c0,0.403,0.102,0.721,0.306,0.955
	s0.532,0.351,0.983,0.351c0.315,0,0.582-0.068,0.8-0.205c0.218-0.137,0.397-0.322,0.537-0.556s0.242-0.503,0.306-0.81
	c0.064-0.306,0.097-0.631,0.097-0.977V54.851z M42.737,48.104c0.444,0,0.854,0.066,1.23,0.2s0.7,0.347,0.972,0.642
	c0.272,0.295,0.485,0.68,0.639,1.155c0.154,0.475,0.231,1.054,0.231,1.738V60h-2.632v-7.427c0-0.748-0.136-1.279-0.408-1.592
	c-0.272-0.313-0.645-0.469-1.117-0.469c-0.258,0-0.498,0.059-0.72,0.178c-0.222,0.119-0.414,0.285-0.575,0.497
	c-0.161,0.212-0.287,0.459-0.376,0.74c-0.09,0.281-0.134,0.583-0.134,0.907V60h-2.632V48.374h2.191l0.269,1.436h0.129
	c0.15-0.223,0.322-0.439,0.516-0.648c0.193-0.208,0.412-0.39,0.655-0.545c0.243-0.155,0.512-0.279,0.806-0.373
	C42.075,48.151,42.394,48.104,42.737,48.104z M55.467,49.475l-4.501,8.291h4.662V60h-8.229v-1.123l4.49-8.269h-4.232v-2.235h7.81
	V49.475z M62.323,60V44.833h9.614v2.526h-6.8v3.616h5.833v2.526h-5.833v3.983h6.929V60H62.323z M76.826,46.431h-2.632v-2.418h2.632
	V46.431z M76.826,60h-2.632V48.374h2.632V60z M84.737,48.104c0.444,0,0.854,0.066,1.23,0.2s0.7,0.347,0.972,0.642
	c0.272,0.295,0.485,0.68,0.639,1.155c0.154,0.475,0.231,1.054,0.231,1.738V60h-2.632v-7.427c0-0.748-0.136-1.279-0.408-1.592
	c-0.272-0.313-0.645-0.469-1.117-0.469c-0.258,0-0.498,0.059-0.72,0.178c-0.222,0.119-0.414,0.285-0.575,0.497
	c-0.161,0.212-0.287,0.459-0.376,0.74c-0.09,0.281-0.134,0.583-0.134,0.907V60h-2.632V48.374h2.191l0.269,1.436h0.129
	c0.15-0.223,0.322-0.439,0.516-0.648c0.193-0.208,0.412-0.39,0.655-0.545c0.243-0.155,0.512-0.279,0.806-0.373
	C84.075,48.151,84.394,48.104,84.737,48.104z M93.095,43.84c0.15,0,0.315,0.007,0.494,0.022c0.179,0.014,0.354,0.034,0.526,0.059
	c0.172,0.025,0.336,0.054,0.494,0.086c0.157,0.032,0.29,0.063,0.397,0.092v1.976h-1.074c-0.616,0-0.924,0.316-0.924,0.95v1.349
	h1.998v2.235h-1.998V60h-2.643v-9.391h-1.171v-2.235h1.171V46.96c0-0.389,0.043-0.77,0.129-1.144s0.232-0.707,0.44-0.999
	c0.208-0.292,0.487-0.527,0.838-0.707C92.124,43.931,92.564,43.84,93.095,43.84z M99.771,48.104c1.339,0,2.331,0.3,2.976,0.901
	c0.645,0.601,0.967,1.445,0.967,2.531v5.721c0,0.273,0.064,0.471,0.193,0.594c0.129,0.122,0.269,0.183,0.419,0.183h0.537v1.878
	c-0.144,0.079-0.34,0.158-0.591,0.238c-0.251,0.079-0.577,0.119-0.978,0.119c-0.53,0-0.971-0.143-1.321-0.427
	c-0.351-0.284-0.591-0.653-0.72-1.106h-0.118c-0.165,0.23-0.337,0.441-0.516,0.632c-0.179,0.19-0.383,0.353-0.612,0.486
	c-0.229,0.133-0.489,0.235-0.779,0.308c-0.29,0.072-0.628,0.108-1.015,0.108c-0.272,0-0.575-0.045-0.908-0.135
	s-0.648-0.255-0.945-0.497c-0.297-0.241-0.546-0.574-0.747-0.999c-0.201-0.424-0.301-0.975-0.301-1.651
	c0-0.784,0.141-1.436,0.424-1.954c0.283-0.519,0.677-0.934,1.182-1.247s1.11-0.534,1.815-0.664c0.705-0.13,1.477-0.194,2.315-0.194
	v-1.22c0-0.202-0.016-0.389-0.048-0.562s-0.091-0.324-0.177-0.454c-0.086-0.129-0.208-0.232-0.365-0.308
	c-0.158-0.075-0.362-0.113-0.612-0.113c-0.272,0-0.498,0.038-0.677,0.113c-0.179,0.076-0.321,0.171-0.424,0.286
	c-0.104,0.115-0.177,0.247-0.22,0.394s-0.064,0.29-0.064,0.426v0.324h-2.578c-0.015-0.065-0.021-0.137-0.021-0.216v-0.27
	c0-0.482,0.093-0.923,0.279-1.322c0.186-0.399,0.449-0.74,0.79-1.02c0.34-0.281,0.75-0.499,1.23-0.653
	C98.64,48.182,99.177,48.104,99.771,48.104z M101.05,54.851c-0.387,0-0.761,0.029-1.123,0.086c-0.362,0.058-0.684,0.158-0.967,0.302
	c-0.283,0.144-0.51,0.338-0.682,0.583c-0.172,0.245-0.258,0.555-0.258,0.929c0,0.403,0.102,0.721,0.306,0.955
	s0.532,0.351,0.983,0.351c0.315,0,0.582-0.068,0.8-0.205c0.218-0.137,0.397-0.322,0.537-0.556s0.242-0.503,0.306-0.81
	c0.064-0.306,0.097-0.631,0.097-0.977V54.851z M110.19,48.104c0.616,0,1.175,0.09,1.676,0.27c0.501,0.18,0.928,0.459,1.278,0.837
	c0.351,0.377,0.621,0.858,0.811,1.441c0.19,0.583,0.285,1.281,0.285,2.094h-2.707c0-0.82-0.111-1.427-0.333-1.819
	s-0.559-0.588-1.01-0.588c-0.559,0-0.955,0.292-1.187,0.875c-0.233,0.583-0.349,1.432-0.349,2.547v0.842
	c0,1.116,0.124,1.967,0.371,2.553s0.667,0.879,1.262,0.879c0.473,0,0.812-0.201,1.021-0.604c0.208-0.403,0.312-1.007,0.312-1.813
	h2.621c0,0.813-0.093,1.513-0.279,2.1c-0.187,0.587-0.451,1.069-0.795,1.447c-0.344,0.377-0.759,0.657-1.246,0.836
	s-1.031,0.27-1.633,0.27c-0.752,0-1.404-0.121-1.955-0.362c-0.552-0.241-1.008-0.611-1.37-1.112c-0.362-0.5-0.628-1.133-0.8-1.9
	c-0.172-0.766-0.258-1.671-0.258-2.715c0-2.087,0.356-3.622,1.069-4.604C107.686,48.596,108.758,48.104,110.19,48.104z
	 M118.848,49.605h0.097c0.129-0.18,0.283-0.36,0.462-0.54c0.179-0.18,0.383-0.34,0.612-0.48c0.229-0.141,0.487-0.255,0.773-0.346
	c0.286-0.09,0.602-0.135,0.945-0.135c0.444,0,0.854,0.066,1.229,0.2c0.377,0.133,0.7,0.347,0.973,0.642
	c0.272,0.295,0.485,0.68,0.639,1.155c0.154,0.475,0.231,1.054,0.231,1.738V60h-2.632v-7.427c0-0.748-0.136-1.279-0.408-1.592
	s-0.645-0.469-1.117-0.469c-0.258,0-0.498,0.059-0.72,0.178c-0.222,0.119-0.413,0.285-0.575,0.497
	c-0.16,0.212-0.286,0.459-0.375,0.74c-0.09,0.281-0.135,0.583-0.135,0.907V60h-2.632V44.013h2.632V49.605z M131.126,48.104
	c1.396,0,2.442,0.491,3.137,1.473c0.694,0.982,1.042,2.517,1.042,4.604v0.669h-5.876c0.007,0.518,0.045,0.979,0.112,1.382
	c0.068,0.403,0.172,0.743,0.312,1.02c0.139,0.277,0.32,0.487,0.542,0.631s0.494,0.216,0.816,0.216c0.451,0,0.812-0.194,1.079-0.583
	c0.27-0.389,0.403-0.932,0.403-1.63h2.61c0,0.749-0.102,1.398-0.307,1.948c-0.203,0.551-0.488,1.006-0.854,1.366
	s-0.799,0.628-1.3,0.804s-1.046,0.265-1.633,0.265c-1.482,0-2.608-0.493-3.378-1.479c-0.771-0.986-1.155-2.522-1.155-4.609
	s0.383-3.622,1.149-4.604C128.595,48.596,129.693,48.104,131.126,48.104z M131.126,50.274c-0.559,0-0.965,0.23-1.22,0.691
	c-0.254,0.461-0.402,1.116-0.445,1.965h3.072c0-0.849-0.113-1.504-0.338-1.965C131.969,50.504,131.613,50.274,131.126,50.274z
	 M141.04,48.104c0.552,0,1.065,0.072,1.542,0.216c0.476,0.144,0.891,0.351,1.246,0.621c0.354,0.27,0.632,0.601,0.832,0.993
	s0.301,0.836,0.301,1.333c0,0.123-0.006,0.234-0.016,0.335c-0.012,0.101-0.017,0.158-0.017,0.172h-2.675
	c0-0.518-0.116-0.897-0.35-1.139c-0.232-0.241-0.549-0.362-0.95-0.362c-0.408,0-0.737,0.103-0.988,0.308s-0.376,0.484-0.376,0.837
	c0,0.28,0.08,0.505,0.242,0.674c0.16,0.169,0.374,0.31,0.639,0.421c0.265,0.111,0.567,0.208,0.908,0.291
	c0.34,0.083,0.686,0.177,1.036,0.281c0.351,0.104,0.696,0.232,1.036,0.383c0.341,0.151,0.644,0.356,0.908,0.615
	c0.265,0.259,0.479,0.583,0.639,0.972c0.162,0.389,0.242,0.871,0.242,1.446c0,0.712-0.109,1.308-0.328,1.787
	c-0.218,0.479-0.519,0.865-0.902,1.161c-0.383,0.295-0.838,0.505-1.363,0.631c-0.527,0.125-1.098,0.189-1.714,0.189
	c-0.666,0-1.259-0.088-1.778-0.265c-0.519-0.176-0.959-0.426-1.32-0.75c-0.362-0.324-0.636-0.712-0.822-1.166
	s-0.279-0.957-0.279-1.511v-0.086c0-0.036,0.004-0.068,0.011-0.097c0-0.029,0.004-0.058,0.011-0.086h2.675v0.151
	c0.007,0.31,0.06,0.568,0.155,0.777c0.098,0.208,0.221,0.377,0.371,0.507c0.15,0.129,0.318,0.221,0.505,0.275
	c0.187,0.054,0.372,0.081,0.559,0.081c0.172,0,0.349-0.021,0.532-0.065c0.182-0.043,0.349-0.113,0.499-0.21s0.272-0.227,0.365-0.388
	c0.093-0.162,0.14-0.362,0.14-0.599c0-0.31-0.08-0.558-0.242-0.745c-0.16-0.187-0.374-0.343-0.639-0.47
	c-0.265-0.125-0.567-0.233-0.908-0.324c-0.34-0.09-0.686-0.189-1.036-0.297s-0.696-0.237-1.036-0.389
	c-0.341-0.151-0.644-0.352-0.908-0.604c-0.265-0.251-0.479-0.568-0.639-0.95c-0.162-0.381-0.242-0.853-0.242-1.414
	c0-0.59,0.107-1.106,0.322-1.549c0.215-0.443,0.509-0.812,0.881-1.106c0.372-0.295,0.81-0.517,1.311-0.664
	S140.46,48.104,141.04,48.104z M150.245,51.396h-3.029v-3.022h3.029V51.396z M150.245,60h-3.029v-3.033h3.029V60z M166.81,60h-2.191
	l-0.269-1.436h-0.107c-0.286,0.561-0.657,0.986-1.111,1.273c-0.455,0.288-0.958,0.432-1.51,0.432c-0.573,0-1.089-0.121-1.547-0.362
	s-0.849-0.611-1.171-1.112c-0.322-0.5-0.569-1.133-0.741-1.9c-0.172-0.766-0.258-1.679-0.258-2.736c0-1.058,0.092-1.968,0.273-2.731
	c0.184-0.763,0.434-1.391,0.752-1.884c0.319-0.493,0.697-0.856,1.134-1.09s0.913-0.351,1.429-0.351c0.58,0,1.102,0.126,1.562,0.377
	c0.463,0.252,0.797,0.612,1.005,1.08h0.118v-5.548h2.632V60z M162.416,50.512c-0.638,0-1.09,0.28-1.359,0.842
	c-0.268,0.562-0.402,1.364-0.402,2.407v0.842c0,1.051,0.135,1.855,0.402,2.413c0.27,0.558,0.722,0.837,1.359,0.837
	s1.09-0.279,1.359-0.837c0.268-0.558,0.402-1.362,0.402-2.413v-0.788c0-0.525-0.032-0.993-0.097-1.403
	c-0.064-0.411-0.167-0.756-0.306-1.037c-0.141-0.281-0.321-0.495-0.543-0.642S162.738,50.512,162.416,50.512z M172.771,48.104
	c1.339,0,2.331,0.3,2.976,0.901c0.645,0.601,0.967,1.445,0.967,2.531v5.721c0,0.273,0.064,0.471,0.193,0.594
	c0.129,0.122,0.269,0.183,0.419,0.183h0.537v1.878c-0.144,0.079-0.34,0.158-0.591,0.238c-0.251,0.079-0.576,0.119-0.978,0.119
	c-0.53,0-0.971-0.143-1.321-0.427s-0.591-0.653-0.72-1.106h-0.118c-0.165,0.23-0.337,0.441-0.516,0.632
	c-0.179,0.19-0.383,0.353-0.612,0.486c-0.229,0.133-0.488,0.235-0.779,0.308c-0.289,0.072-0.628,0.108-1.015,0.108
	c-0.272,0-0.575-0.045-0.907-0.135c-0.334-0.09-0.648-0.255-0.945-0.497c-0.298-0.241-0.547-0.574-0.747-0.999
	c-0.2-0.424-0.301-0.975-0.301-1.651c0-0.784,0.142-1.436,0.425-1.954c0.282-0.519,0.676-0.934,1.182-1.247
	c0.504-0.313,1.109-0.534,1.814-0.664c0.706-0.13,1.478-0.194,2.315-0.194v-1.22c0-0.202-0.017-0.389-0.048-0.562
	c-0.033-0.173-0.092-0.324-0.178-0.454c-0.086-0.129-0.208-0.232-0.365-0.308c-0.157-0.075-0.361-0.113-0.612-0.113
	c-0.272,0-0.498,0.038-0.677,0.113c-0.179,0.076-0.32,0.171-0.424,0.286c-0.104,0.115-0.178,0.247-0.221,0.394
	s-0.064,0.29-0.064,0.426v0.324h-2.578c-0.015-0.065-0.021-0.137-0.021-0.216v-0.27c0-0.482,0.093-0.923,0.279-1.322
	s0.449-0.74,0.789-1.02c0.341-0.281,0.751-0.499,1.23-0.653S172.177,48.104,172.771,48.104z M174.05,54.851
	c-0.387,0-0.761,0.029-1.122,0.086c-0.362,0.058-0.685,0.158-0.967,0.302c-0.283,0.144-0.511,0.338-0.683,0.583
	c-0.172,0.245-0.258,0.555-0.258,0.929c0,0.403,0.103,0.721,0.306,0.955c0.205,0.234,0.532,0.351,0.983,0.351
	c0.315,0,0.582-0.068,0.8-0.205c0.219-0.137,0.398-0.322,0.537-0.556c0.141-0.234,0.242-0.503,0.307-0.81
	c0.064-0.306,0.097-0.631,0.097-0.977V54.851z M183.04,48.104c0.552,0,1.065,0.072,1.542,0.216c0.476,0.144,0.891,0.351,1.246,0.621
	c0.354,0.27,0.632,0.601,0.832,0.993s0.301,0.836,0.301,1.333c0,0.123-0.006,0.234-0.016,0.335
	c-0.012,0.101-0.017,0.158-0.017,0.172h-2.675c0-0.518-0.116-0.897-0.35-1.139c-0.232-0.241-0.549-0.362-0.95-0.362
	c-0.408,0-0.737,0.103-0.988,0.308s-0.376,0.484-0.376,0.837c0,0.28,0.08,0.505,0.242,0.674c0.16,0.169,0.374,0.31,0.639,0.421
	c0.265,0.111,0.567,0.208,0.908,0.291c0.34,0.083,0.686,0.177,1.036,0.281c0.351,0.104,0.696,0.232,1.036,0.383
	c0.341,0.151,0.644,0.356,0.908,0.615c0.265,0.259,0.479,0.583,0.639,0.972c0.162,0.389,0.242,0.871,0.242,1.446
	c0,0.712-0.109,1.308-0.328,1.787c-0.218,0.479-0.519,0.865-0.902,1.161c-0.383,0.295-0.838,0.505-1.363,0.631
	c-0.527,0.125-1.098,0.189-1.714,0.189c-0.666,0-1.259-0.088-1.778-0.265c-0.519-0.176-0.959-0.426-1.32-0.75
	c-0.362-0.324-0.636-0.712-0.822-1.166s-0.279-0.957-0.279-1.511v-0.086c0-0.036,0.004-0.068,0.011-0.097
	c0-0.029,0.004-0.058,0.011-0.086h2.675v0.151c0.007,0.31,0.06,0.568,0.155,0.777c0.098,0.208,0.221,0.377,0.371,0.507
	c0.15,0.129,0.318,0.221,0.505,0.275c0.187,0.054,0.372,0.081,0.559,0.081c0.172,0,0.349-0.021,0.532-0.065
	c0.182-0.043,0.349-0.113,0.499-0.21s0.272-0.227,0.365-0.388c0.093-0.162,0.14-0.362,0.14-0.599c0-0.31-0.08-0.558-0.242-0.745
	c-0.16-0.187-0.374-0.343-0.639-0.47c-0.265-0.125-0.567-0.233-0.908-0.324c-0.34-0.09-0.686-0.189-1.036-0.297
	s-0.696-0.237-1.036-0.389c-0.341-0.151-0.644-0.352-0.908-0.604c-0.265-0.251-0.479-0.568-0.639-0.95
	c-0.162-0.381-0.242-0.853-0.242-1.414c0-0.59,0.107-1.106,0.322-1.549c0.215-0.443,0.509-0.812,0.881-1.106
	c0.372-0.295,0.81-0.517,1.311-0.664S182.46,48.104,183.04,48.104z M193.04,48.104c0.552,0,1.065,0.072,1.542,0.216
	c0.476,0.144,0.891,0.351,1.246,0.621c0.354,0.27,0.632,0.601,0.832,0.993s0.301,0.836,0.301,1.333c0,0.123-0.006,0.234-0.016,0.335
	c-0.012,0.101-0.017,0.158-0.017,0.172h-2.675c0-0.518-0.116-0.897-0.35-1.139c-0.232-0.241-0.549-0.362-0.95-0.362
	c-0.408,0-0.737,0.103-0.988,0.308s-0.376,0.484-0.376,0.837c0,0.28,0.08,0.505,0.242,0.674c0.16,0.169,0.374,0.31,0.639,0.421
	c0.265,0.111,0.567,0.208,0.908,0.291c0.34,0.083,0.686,0.177,1.036,0.281c0.351,0.104,0.696,0.232,1.036,0.383
	c0.341,0.151,0.644,0.356,0.908,0.615c0.265,0.259,0.479,0.583,0.639,0.972c0.162,0.389,0.242,0.871,0.242,1.446
	c0,0.712-0.109,1.308-0.328,1.787c-0.218,0.479-0.519,0.865-0.902,1.161c-0.383,0.295-0.838,0.505-1.363,0.631
	c-0.527,0.125-1.098,0.189-1.714,0.189c-0.666,0-1.259-0.088-1.778-0.265c-0.519-0.176-0.959-0.426-1.32-0.75
	c-0.362-0.324-0.636-0.712-0.822-1.166s-0.279-0.957-0.279-1.511v-0.086c0-0.036,0.004-0.068,0.011-0.097
	c0-0.029,0.004-0.058,0.011-0.086h2.675v0.151c0.007,0.31,0.06,0.568,0.155,0.777c0.098,0.208,0.221,0.377,0.371,0.507
	c0.15,0.129,0.318,0.221,0.505,0.275c0.187,0.054,0.372,0.081,0.559,0.081c0.172,0,0.349-0.021,0.532-0.065
	c0.182-0.043,0.349-0.113,0.499-0.21s0.272-0.227,0.365-0.388c0.093-0.162,0.14-0.362,0.14-0.599c0-0.31-0.08-0.558-0.242-0.745
	c-0.16-0.187-0.374-0.343-0.639-0.47c-0.265-0.125-0.567-0.233-0.908-0.324c-0.34-0.09-0.686-0.189-1.036-0.297
	s-0.696-0.237-1.036-0.389c-0.341-0.151-0.644-0.352-0.908-0.604c-0.265-0.251-0.479-0.568-0.639-0.95
	c-0.162-0.381-0.242-0.853-0.242-1.414c0-0.59,0.107-1.106,0.322-1.549c0.215-0.443,0.509-0.812,0.881-1.106
	c0.372-0.295,0.81-0.517,1.311-0.664S192.46,48.104,193.04,48.104z M19.095,69.84c0.15,0,0.315,0.007,0.494,0.022
	c0.179,0.014,0.354,0.034,0.526,0.059c0.172,0.025,0.336,0.054,0.494,0.086c0.157,0.032,0.29,0.063,0.397,0.092v1.976h-1.074
	c-0.616,0-0.924,0.316-0.924,0.95v1.349h1.998v2.235h-1.998V86h-2.643v-9.391h-1.171v-2.235h1.171V72.96
	c0-0.389,0.043-0.77,0.129-1.144s0.232-0.707,0.44-0.999c0.208-0.292,0.487-0.527,0.838-0.707
	C18.124,69.931,18.564,69.84,19.095,69.84z M30.81,86h-2.191l-0.269-1.436h-0.129c-0.15,0.23-0.322,0.448-0.516,0.653
	s-0.412,0.385-0.655,0.54c-0.244,0.155-0.512,0.279-0.806,0.372c-0.294,0.094-0.612,0.141-0.956,0.141
	c-0.444,0-0.854-0.067-1.23-0.2c-0.376-0.133-0.7-0.347-0.972-0.643c-0.272-0.295-0.485-0.682-0.639-1.16
	c-0.154-0.479-0.231-1.06-0.231-1.744v-8.15h2.632v7.427c0,0.749,0.13,1.278,0.392,1.587c0.261,0.31,0.639,0.464,1.133,0.464
	c0.258,0,0.496-0.058,0.714-0.173c0.218-0.115,0.408-0.273,0.569-0.475c0.161-0.201,0.288-0.442,0.381-0.723
	c0.093-0.281,0.14-0.583,0.14-0.907v-7.2h2.632V86z M25.696,72.431h-2.202v-2.418h2.202V72.431z M29.542,72.431H27.34v-2.418h2.202
	V72.431z M37.856,74.104c0.165,0,0.315,0.011,0.451,0.032c0.136,0.021,0.254,0.043,0.354,0.065c0.114,0.029,0.211,0.058,0.29,0.086
	v2.558h-0.945c-0.287,0-0.561,0.043-0.822,0.129c-0.262,0.086-0.491,0.232-0.688,0.438c-0.197,0.205-0.354,0.479-0.473,0.82
	s-0.177,0.771-0.177,1.29V86h-2.632V74.374h2.191l0.312,1.695h0.129c0.079-0.245,0.172-0.484,0.279-0.718s0.242-0.442,0.403-0.626
	s0.349-0.333,0.564-0.448C37.309,74.162,37.562,74.104,37.856,74.104z M50.007,70.564c0.673,0,1.307,0.086,1.901,0.259
	c0.594,0.173,1.113,0.441,1.558,0.804c0.444,0.364,0.796,0.828,1.058,1.393c0.261,0.565,0.392,1.236,0.392,2.013v0.27h-2.879v-0.205
	c0-0.641-0.181-1.15-0.542-1.528c-0.362-0.377-0.865-0.566-1.509-0.566c-0.688,0-1.212,0.151-1.574,0.453
	c-0.362,0.302-0.542,0.688-0.542,1.155c0,0.381,0.105,0.696,0.317,0.944c0.211,0.249,0.489,0.461,0.833,0.637
	s0.734,0.331,1.171,0.464c0.437,0.133,0.884,0.279,1.343,0.437c0.458,0.159,0.906,0.344,1.343,0.556
	c0.437,0.212,0.827,0.482,1.171,0.81c0.344,0.328,0.621,0.732,0.833,1.214c0.211,0.482,0.317,1.072,0.317,1.771
	c0,0.871-0.131,1.612-0.392,2.224c-0.262,0.612-0.627,1.11-1.096,1.495c-0.469,0.385-1.03,0.666-1.681,0.842
	c-0.652,0.176-1.368,0.265-2.148,0.265c-0.695,0-1.357-0.099-1.987-0.297c-0.63-0.198-1.186-0.495-1.665-0.891
	c-0.48-0.396-0.861-0.889-1.144-1.479c-0.283-0.59-0.424-1.273-0.424-2.051c0-0.086,0.003-0.174,0.011-0.265
	c0.007-0.09,0.011-0.164,0.011-0.221h2.933c0,0.021-0.004,0.072-0.011,0.151c-0.007,0.08-0.011,0.148-0.011,0.205
	c0,0.36,0.054,0.688,0.161,0.982c0.107,0.295,0.265,0.549,0.473,0.761c0.208,0.212,0.46,0.376,0.757,0.491
	c0.297,0.115,0.639,0.172,1.026,0.172c0.422,0,0.78-0.052,1.074-0.156c0.293-0.104,0.53-0.241,0.709-0.41
	c0.179-0.169,0.308-0.36,0.387-0.572c0.079-0.212,0.118-0.43,0.118-0.653c0-0.36-0.068-0.667-0.204-0.923
	c-0.136-0.255-0.322-0.475-0.559-0.658s-0.51-0.342-0.822-0.475c-0.312-0.133-0.643-0.259-0.994-0.378
	c-0.351-0.119-0.713-0.239-1.085-0.361c-0.373-0.123-0.734-0.265-1.085-0.426c-0.351-0.162-0.682-0.354-0.994-0.578
	s-0.585-0.491-0.822-0.804s-0.423-0.684-0.559-1.112c-0.136-0.428-0.204-0.93-0.204-1.506c0-0.72,0.138-1.346,0.414-1.878
	c0.275-0.532,0.645-0.975,1.106-1.328s0.997-0.615,1.606-0.788C48.703,70.65,49.341,70.564,50.007,70.564z M59.826,72.431h-2.632
	v-2.418h2.632V72.431z M59.826,86h-2.632V74.374h2.632V86z M66.126,74.104c1.396,0,2.442,0.491,3.137,1.473
	c0.694,0.982,1.042,2.517,1.042,4.604v0.669h-5.876c0.007,0.518,0.044,0.979,0.113,1.382c0.068,0.403,0.172,0.743,0.312,1.02
	c0.14,0.277,0.32,0.487,0.542,0.631c0.222,0.144,0.494,0.216,0.816,0.216c0.451,0,0.811-0.194,1.08-0.583s0.403-0.932,0.403-1.63
	h2.61c0,0.749-0.102,1.398-0.306,1.948c-0.204,0.551-0.489,1.006-0.854,1.366s-0.799,0.628-1.3,0.804
	c-0.501,0.176-1.046,0.265-1.633,0.265c-1.482,0-2.609-0.493-3.378-1.479c-0.77-0.986-1.155-2.522-1.155-4.609
	s0.383-3.622,1.149-4.604C63.594,74.596,64.693,74.104,66.126,74.104z M66.126,76.274c-0.559,0-0.965,0.23-1.219,0.691
	c-0.254,0.461-0.403,1.116-0.446,1.965h3.072c0-0.849-0.113-1.504-0.338-1.965C66.969,76.504,66.613,76.274,66.126,76.274z
	 M80.771,74.104c1.339,0,2.331,0.3,2.976,0.901c0.645,0.601,0.967,1.445,0.967,2.531v5.721c0,0.273,0.064,0.471,0.193,0.594
	c0.129,0.122,0.269,0.183,0.419,0.183h0.537v1.878c-0.144,0.079-0.34,0.158-0.591,0.238c-0.251,0.079-0.577,0.119-0.978,0.119
	c-0.53,0-0.971-0.143-1.321-0.427c-0.351-0.284-0.591-0.653-0.72-1.106h-0.118c-0.165,0.23-0.337,0.441-0.516,0.632
	c-0.179,0.19-0.383,0.353-0.612,0.486c-0.229,0.133-0.489,0.235-0.779,0.308c-0.29,0.072-0.628,0.108-1.015,0.108
	c-0.272,0-0.575-0.045-0.908-0.135s-0.648-0.255-0.945-0.497c-0.297-0.241-0.546-0.574-0.747-0.999
	c-0.201-0.424-0.301-0.975-0.301-1.651c0-0.784,0.141-1.436,0.424-1.954c0.283-0.519,0.677-0.934,1.182-1.247
	s1.11-0.534,1.815-0.664c0.705-0.13,1.477-0.194,2.315-0.194v-1.22c0-0.202-0.016-0.389-0.048-0.562s-0.091-0.324-0.177-0.454
	c-0.086-0.129-0.208-0.232-0.365-0.308c-0.158-0.075-0.362-0.113-0.612-0.113c-0.272,0-0.498,0.038-0.677,0.113
	c-0.179,0.076-0.321,0.171-0.424,0.286c-0.104,0.115-0.177,0.247-0.22,0.394s-0.064,0.29-0.064,0.426v0.324h-2.578
	c-0.015-0.065-0.021-0.137-0.021-0.216v-0.27c0-0.482,0.093-0.923,0.279-1.322c0.186-0.399,0.449-0.74,0.79-1.02
	c0.34-0.281,0.75-0.499,1.23-0.653C79.64,74.182,80.177,74.104,80.771,74.104z M82.05,80.851c-0.387,0-0.761,0.029-1.123,0.086
	c-0.362,0.058-0.684,0.158-0.967,0.302c-0.283,0.144-0.51,0.338-0.682,0.583c-0.172,0.245-0.258,0.555-0.258,0.929
	c0,0.403,0.102,0.721,0.306,0.955s0.532,0.351,0.983,0.351c0.315,0,0.582-0.068,0.8-0.205c0.218-0.137,0.397-0.322,0.537-0.556
	s0.242-0.503,0.306-0.81c0.064-0.306,0.097-0.631,0.097-0.977V80.851z M89.826,86h-2.632V70.013h2.632V86z M94.826,86h-2.632V70.013
	h2.632V86z M101.126,74.104c1.396,0,2.442,0.491,3.137,1.473c0.694,0.982,1.042,2.517,1.042,4.604v0.669h-5.876
	c0.007,0.518,0.044,0.979,0.113,1.382c0.068,0.403,0.172,0.743,0.312,1.02c0.14,0.277,0.32,0.487,0.542,0.631
	c0.222,0.144,0.494,0.216,0.816,0.216c0.451,0,0.811-0.194,1.08-0.583s0.403-0.932,0.403-1.63h2.61c0,0.749-0.102,1.398-0.306,1.948
	c-0.204,0.551-0.489,1.006-0.854,1.366s-0.799,0.628-1.3,0.804c-0.501,0.176-1.046,0.265-1.633,0.265
	c-1.482,0-2.609-0.493-3.378-1.479c-0.77-0.986-1.155-2.522-1.155-4.609s0.383-3.622,1.149-4.604
	C98.594,74.596,99.693,74.104,101.126,74.104z M101.126,76.274c-0.559,0-0.965,0.23-1.219,0.691
	c-0.254,0.461-0.403,1.116-0.446,1.965h3.072c0-0.849-0.113-1.504-0.338-1.965C101.969,76.504,101.613,76.274,101.126,76.274z
	 M111.04,74.104c0.552,0,1.065,0.072,1.542,0.216c0.476,0.144,0.891,0.351,1.246,0.621c0.354,0.27,0.632,0.601,0.832,0.993
	s0.301,0.836,0.301,1.333c0,0.123-0.006,0.234-0.016,0.335c-0.012,0.101-0.017,0.158-0.017,0.172h-2.675
	c0-0.518-0.116-0.897-0.35-1.139c-0.232-0.241-0.549-0.362-0.95-0.362c-0.408,0-0.737,0.103-0.988,0.308s-0.376,0.484-0.376,0.837
	c0,0.28,0.081,0.505,0.242,0.674c0.161,0.169,0.375,0.31,0.639,0.421c0.265,0.111,0.567,0.208,0.908,0.291
	c0.34,0.083,0.686,0.177,1.036,0.281c0.351,0.104,0.696,0.232,1.036,0.383c0.341,0.151,0.644,0.356,0.908,0.615
	c0.265,0.259,0.479,0.583,0.639,0.972c0.162,0.389,0.242,0.871,0.242,1.446c0,0.712-0.109,1.308-0.328,1.787
	c-0.218,0.479-0.519,0.865-0.902,1.161c-0.383,0.295-0.838,0.505-1.363,0.631c-0.527,0.125-1.098,0.189-1.714,0.189
	c-0.666,0-1.259-0.088-1.778-0.265c-0.52-0.176-0.96-0.426-1.321-0.75c-0.362-0.324-0.636-0.712-0.822-1.166
	c-0.187-0.454-0.279-0.957-0.279-1.511v-0.086c0-0.036,0.003-0.068,0.011-0.097c0-0.029,0.003-0.058,0.011-0.086h2.675v0.151
	c0.007,0.31,0.059,0.568,0.156,0.777c0.097,0.208,0.22,0.377,0.371,0.507c0.15,0.129,0.318,0.221,0.505,0.275
	c0.187,0.054,0.372,0.081,0.559,0.081c0.172,0,0.349-0.021,0.532-0.065c0.182-0.043,0.349-0.113,0.499-0.21s0.272-0.227,0.365-0.388
	c0.093-0.162,0.14-0.362,0.14-0.599c0-0.31-0.08-0.558-0.242-0.745c-0.16-0.187-0.374-0.343-0.639-0.47
	c-0.265-0.125-0.567-0.233-0.908-0.324c-0.34-0.09-0.686-0.189-1.036-0.297c-0.351-0.108-0.697-0.237-1.037-0.389
	c-0.34-0.151-0.643-0.352-0.908-0.604c-0.265-0.251-0.478-0.568-0.639-0.95s-0.242-0.853-0.242-1.414
	c0-0.59,0.107-1.106,0.322-1.549c0.215-0.443,0.508-0.812,0.881-1.106c0.372-0.295,0.809-0.517,1.311-0.664
	C109.919,74.178,110.46,74.104,111.04,74.104z M127.737,74.104c0.444,0,0.854,0.066,1.229,0.2c0.377,0.133,0.7,0.347,0.973,0.642
	c0.272,0.295,0.485,0.68,0.639,1.155c0.154,0.475,0.231,1.054,0.231,1.738V86h-2.632v-7.427c0-0.748-0.136-1.279-0.408-1.592
	s-0.645-0.469-1.117-0.469c-0.258,0-0.498,0.059-0.72,0.178c-0.222,0.119-0.413,0.285-0.575,0.497
	c-0.16,0.212-0.286,0.459-0.375,0.74c-0.09,0.281-0.135,0.583-0.135,0.907V86h-2.632V74.374h2.191l0.269,1.436h0.129
	c0.15-0.223,0.322-0.439,0.516-0.648c0.193-0.208,0.412-0.39,0.655-0.545s0.512-0.279,0.806-0.373
	C127.075,74.151,127.394,74.104,127.737,74.104z M137.523,74.104c1.54,0,2.694,0.491,3.465,1.473
	c0.77,0.982,1.154,2.517,1.154,4.604s-0.385,3.624-1.154,4.609c-0.771,0.986-1.925,1.479-3.465,1.479s-2.694-0.493-3.465-1.479
	c-0.77-0.986-1.154-2.522-1.154-4.609s0.385-3.622,1.154-4.604C134.829,74.596,135.983,74.104,137.523,74.104z M137.523,76.339
	c-0.681,0-1.162,0.293-1.445,0.88c-0.282,0.586-0.424,1.434-0.424,2.542v0.842c0,1.116,0.142,1.967,0.424,2.553
	c0.283,0.586,0.765,0.879,1.445,0.879s1.162-0.293,1.445-0.879c0.282-0.586,0.424-1.438,0.424-2.553v-0.842
	c0-1.108-0.142-1.956-0.424-2.542C138.686,76.632,138.204,76.339,137.523,76.339z M148.19,74.104c0.616,0,1.175,0.09,1.676,0.27
	c0.501,0.18,0.928,0.459,1.278,0.837c0.351,0.377,0.621,0.858,0.811,1.441c0.19,0.583,0.285,1.281,0.285,2.094h-2.707
	c0-0.82-0.111-1.427-0.333-1.819s-0.559-0.588-1.01-0.588c-0.559,0-0.954,0.292-1.187,0.875c-0.233,0.583-0.35,1.432-0.35,2.547
	v0.842c0,1.116,0.123,1.967,0.371,2.553c0.246,0.586,0.667,0.879,1.262,0.879c0.473,0,0.812-0.201,1.021-0.604
	c0.208-0.403,0.312-1.007,0.312-1.813h2.621c0,0.813-0.093,1.513-0.279,2.1c-0.187,0.587-0.451,1.069-0.795,1.447
	c-0.344,0.377-0.759,0.657-1.246,0.836s-1.031,0.27-1.633,0.27c-0.752,0-1.403-0.121-1.955-0.362s-1.008-0.611-1.369-1.112
	c-0.362-0.5-0.629-1.133-0.801-1.9c-0.172-0.766-0.258-1.671-0.258-2.715c0-2.087,0.356-3.622,1.068-4.604
	C145.686,74.596,146.758,74.104,148.19,74.104z M156.848,75.605h0.097c0.129-0.18,0.283-0.36,0.462-0.54
	c0.179-0.18,0.383-0.34,0.612-0.48c0.229-0.141,0.487-0.255,0.773-0.346c0.286-0.09,0.602-0.135,0.945-0.135
	c0.444,0,0.854,0.066,1.229,0.2c0.377,0.133,0.7,0.347,0.973,0.642c0.272,0.295,0.485,0.68,0.639,1.155
	c0.154,0.475,0.231,1.054,0.231,1.738V86h-2.632v-7.427c0-0.748-0.136-1.279-0.408-1.592s-0.645-0.469-1.117-0.469
	c-0.258,0-0.498,0.059-0.72,0.178c-0.222,0.119-0.413,0.285-0.575,0.497c-0.16,0.212-0.286,0.459-0.375,0.74
	c-0.09,0.281-0.135,0.583-0.135,0.907V86h-2.632V70.013h2.632V75.605z M20.126,101.104c1.396,0,2.442,0.491,3.137,1.473
	c0.694,0.982,1.042,2.517,1.042,4.604v0.669h-5.876c0.007,0.518,0.044,0.979,0.113,1.382c0.068,0.403,0.172,0.743,0.312,1.02
	c0.14,0.277,0.32,0.487,0.542,0.631c0.222,0.144,0.494,0.216,0.816,0.216c0.451,0,0.811-0.194,1.08-0.583s0.403-0.932,0.403-1.63
	h2.61c0,0.749-0.102,1.398-0.306,1.948c-0.204,0.551-0.489,1.006-0.854,1.366s-0.799,0.628-1.3,0.804
	c-0.501,0.176-1.046,0.265-1.633,0.265c-1.482,0-2.609-0.493-3.378-1.479c-0.77-0.986-1.155-2.522-1.155-4.609
	s0.383-3.622,1.149-4.604C17.594,101.596,18.693,101.104,20.126,101.104z M20.126,103.274c-0.559,0-0.965,0.23-1.219,0.691
	c-0.254,0.461-0.403,1.116-0.446,1.965h3.072c0-0.849-0.113-1.504-0.338-1.965C20.969,103.504,20.613,103.274,20.126,103.274z
	 M28.826,99.431h-2.632v-2.418h2.632V99.431z M28.826,113h-2.632v-11.626h2.632V113z M36.737,101.104c0.444,0,0.854,0.066,1.23,0.2
	s0.7,0.347,0.972,0.642c0.272,0.295,0.485,0.68,0.639,1.155c0.154,0.475,0.231,1.054,0.231,1.738V113h-2.632v-7.427
	c0-0.748-0.136-1.279-0.408-1.592c-0.272-0.313-0.645-0.469-1.117-0.469c-0.258,0-0.498,0.059-0.72,0.178
	c-0.222,0.119-0.414,0.285-0.575,0.497c-0.161,0.212-0.287,0.459-0.376,0.74c-0.09,0.281-0.134,0.583-0.134,0.907V113h-2.632
	v-11.626h2.191l0.269,1.436h0.129c0.15-0.223,0.322-0.439,0.516-0.648c0.193-0.208,0.412-0.39,0.655-0.545
	c0.243-0.155,0.512-0.279,0.806-0.373C36.075,101.151,36.394,101.104,36.737,101.104z M45.095,96.84c0.15,0,0.315,0.007,0.494,0.022
	c0.179,0.014,0.354,0.034,0.526,0.059c0.172,0.025,0.336,0.054,0.494,0.086c0.157,0.032,0.29,0.063,0.397,0.092v1.976h-1.074
	c-0.616,0-0.924,0.316-0.924,0.95v1.349h1.998v2.235h-1.998V113h-2.643v-9.391h-1.171v-2.235h1.171V99.96
	c0-0.389,0.043-0.77,0.129-1.144s0.232-0.707,0.44-0.999c0.208-0.292,0.487-0.527,0.838-0.707
	C44.124,96.931,44.564,96.84,45.095,96.84z M51.771,101.104c1.339,0,2.331,0.3,2.976,0.901c0.645,0.601,0.967,1.445,0.967,2.531
	v5.721c0,0.273,0.064,0.471,0.193,0.594c0.129,0.122,0.269,0.183,0.419,0.183h0.537v1.878c-0.144,0.079-0.34,0.158-0.591,0.238
	c-0.251,0.079-0.577,0.119-0.978,0.119c-0.53,0-0.971-0.143-1.321-0.427c-0.351-0.284-0.591-0.653-0.72-1.106h-0.118
	c-0.165,0.23-0.337,0.441-0.516,0.632c-0.179,0.19-0.383,0.353-0.612,0.486c-0.229,0.133-0.489,0.235-0.779,0.308
	c-0.29,0.072-0.628,0.108-1.015,0.108c-0.272,0-0.575-0.045-0.908-0.135s-0.648-0.255-0.945-0.497
	c-0.297-0.241-0.546-0.574-0.747-0.999c-0.201-0.424-0.301-0.975-0.301-1.651c0-0.784,0.141-1.436,0.424-1.954
	c0.283-0.519,0.677-0.934,1.182-1.247s1.11-0.534,1.815-0.664c0.705-0.13,1.477-0.194,2.315-0.194v-1.22
	c0-0.202-0.016-0.389-0.048-0.562s-0.091-0.324-0.177-0.454c-0.086-0.129-0.208-0.232-0.365-0.308
	c-0.158-0.075-0.362-0.113-0.612-0.113c-0.272,0-0.498,0.038-0.677,0.113c-0.179,0.076-0.321,0.171-0.424,0.286
	c-0.104,0.115-0.177,0.247-0.22,0.394s-0.064,0.29-0.064,0.426v0.324h-2.578c-0.015-0.065-0.021-0.137-0.021-0.216v-0.27
	c0-0.482,0.093-0.923,0.279-1.322c0.186-0.399,0.449-0.74,0.79-1.02c0.34-0.281,0.75-0.499,1.23-0.653
	C50.64,101.182,51.177,101.104,51.771,101.104z M53.05,107.851c-0.387,0-0.761,0.029-1.123,0.086
	c-0.362,0.058-0.684,0.158-0.967,0.302c-0.283,0.144-0.51,0.338-0.682,0.583c-0.172,0.245-0.258,0.555-0.258,0.929
	c0,0.403,0.102,0.721,0.306,0.955s0.532,0.351,0.983,0.351c0.315,0,0.582-0.068,0.8-0.205c0.218-0.137,0.397-0.322,0.537-0.556
	s0.242-0.503,0.306-0.81c0.064-0.306,0.097-0.631,0.097-0.977V107.851z M62.19,101.104c0.616,0,1.174,0.09,1.676,0.27
	c0.501,0.18,0.927,0.459,1.278,0.837c0.351,0.377,0.621,0.858,0.811,1.441c0.189,0.583,0.285,1.281,0.285,2.094h-2.707
	c0-0.82-0.111-1.427-0.333-1.819c-0.222-0.392-0.559-0.588-1.01-0.588c-0.559,0-0.955,0.292-1.187,0.875
	c-0.233,0.583-0.349,1.432-0.349,2.547v0.842c0,1.116,0.124,1.967,0.371,2.553s0.667,0.879,1.262,0.879
	c0.473,0,0.812-0.201,1.021-0.604c0.208-0.403,0.312-1.007,0.312-1.813h2.621c0,0.813-0.093,1.513-0.279,2.1
	c-0.187,0.587-0.451,1.069-0.795,1.447c-0.344,0.377-0.759,0.657-1.246,0.836c-0.487,0.18-1.031,0.27-1.633,0.27
	c-0.752,0-1.404-0.121-1.955-0.362c-0.552-0.241-1.008-0.611-1.37-1.112c-0.362-0.5-0.628-1.133-0.8-1.9
	c-0.172-0.766-0.258-1.671-0.258-2.715c0-2.087,0.356-3.622,1.069-4.604C59.686,101.596,60.758,101.104,62.19,101.104z
	 M70.848,102.605h0.097c0.129-0.18,0.283-0.36,0.462-0.54c0.179-0.18,0.383-0.34,0.612-0.48c0.229-0.141,0.487-0.255,0.773-0.346
	c0.286-0.09,0.602-0.135,0.945-0.135c0.444,0,0.854,0.066,1.23,0.2s0.7,0.347,0.972,0.642c0.272,0.295,0.485,0.68,0.639,1.155
	c0.154,0.475,0.231,1.054,0.231,1.738V113h-2.632v-7.427c0-0.748-0.136-1.279-0.408-1.592c-0.272-0.313-0.645-0.469-1.117-0.469
	c-0.258,0-0.498,0.059-0.72,0.178c-0.222,0.119-0.414,0.285-0.575,0.497c-0.161,0.212-0.287,0.459-0.376,0.74
	c-0.09,0.281-0.134,0.583-0.134,0.907V113h-2.632V97.013h2.632V102.605z M83.126,101.104c1.396,0,2.442,0.491,3.137,1.473
	c0.694,0.982,1.042,2.517,1.042,4.604v0.669h-5.876c0.007,0.518,0.044,0.979,0.113,1.382c0.068,0.403,0.172,0.743,0.312,1.02
	c0.14,0.277,0.32,0.487,0.542,0.631c0.222,0.144,0.494,0.216,0.816,0.216c0.451,0,0.811-0.194,1.08-0.583s0.403-0.932,0.403-1.63
	h2.61c0,0.749-0.102,1.398-0.306,1.948c-0.204,0.551-0.489,1.006-0.854,1.366s-0.799,0.628-1.3,0.804
	c-0.501,0.176-1.046,0.265-1.633,0.265c-1.482,0-2.609-0.493-3.378-1.479c-0.77-0.986-1.155-2.522-1.155-4.609
	s0.383-3.622,1.149-4.604C80.594,101.596,81.693,101.104,83.126,101.104z M83.126,103.274c-0.559,0-0.965,0.23-1.219,0.691
	c-0.254,0.461-0.403,1.116-0.446,1.965h3.072c0-0.849-0.113-1.504-0.338-1.965C83.969,103.504,83.613,103.274,83.126,103.274z
	 M93.856,101.104c0.165,0,0.315,0.011,0.451,0.032c0.136,0.021,0.254,0.043,0.354,0.065c0.114,0.029,0.211,0.058,0.29,0.086v2.558
	h-0.945c-0.287,0-0.561,0.043-0.822,0.129c-0.262,0.086-0.491,0.232-0.688,0.438c-0.197,0.205-0.354,0.479-0.473,0.82
	s-0.177,0.771-0.177,1.29V113h-2.632v-11.626h2.191l0.312,1.695h0.129c0.079-0.245,0.172-0.484,0.279-0.718s0.242-0.442,0.403-0.626
	s0.349-0.333,0.564-0.448C93.309,101.162,93.562,101.104,93.856,101.104z M111.217,113h-2.653l-1.149-5.548
	c-0.058-0.295-0.107-0.61-0.15-0.945c-0.043-0.334-0.079-0.646-0.107-0.934c-0.029-0.338-0.054-0.669-0.075-0.993h-0.129
	c-0.021,0.317-0.047,0.641-0.075,0.972c-0.029,0.281-0.064,0.588-0.107,0.923s-0.093,0.653-0.15,0.956l-1.117,5.57h-2.664
	l-2.814-11.626h2.643l1.096,4.771c0.086,0.396,0.159,0.808,0.22,1.236c0.061,0.428,0.109,0.822,0.145,1.182
	c0.043,0.417,0.075,0.828,0.097,1.23h0.086c0.028-0.381,0.068-0.777,0.118-1.188c0.036-0.353,0.086-0.743,0.15-1.171
	s0.136-0.851,0.215-1.269l0.999-4.793h2.632l0.999,4.814c0.057,0.288,0.114,0.635,0.172,1.042c0.057,0.406,0.111,0.8,0.161,1.182
	c0.05,0.446,0.1,0.907,0.15,1.382h0.086c0.058-0.446,0.118-0.885,0.183-1.317c0.058-0.367,0.118-0.757,0.183-1.171
	c0.064-0.414,0.133-0.786,0.204-1.117l1.01-4.814h2.449L111.217,113z M117.826,99.431h-2.632v-2.418h2.632V99.431z M117.826,113
	h-2.632v-11.626h2.632V113z M124.856,101.104c0.165,0,0.315,0.011,0.451,0.032s0.254,0.043,0.354,0.065
	c0.114,0.029,0.211,0.058,0.29,0.086v2.558h-0.945c-0.286,0-0.561,0.043-0.821,0.129c-0.262,0.086-0.491,0.232-0.688,0.438
	c-0.197,0.205-0.355,0.479-0.473,0.82c-0.119,0.342-0.178,0.771-0.178,1.29V113h-2.632v-11.626h2.191l0.312,1.695h0.129
	c0.079-0.245,0.172-0.484,0.279-0.718s0.242-0.442,0.402-0.626c0.162-0.184,0.35-0.333,0.564-0.448
	C124.309,101.162,124.562,101.104,124.856,101.104z M135.81,113h-2.191l-0.269-1.436h-0.107c-0.286,0.561-0.657,0.986-1.111,1.273
	c-0.455,0.288-0.958,0.432-1.51,0.432c-0.573,0-1.089-0.121-1.547-0.362s-0.849-0.611-1.171-1.112c-0.322-0.5-0.569-1.133-0.741-1.9
	c-0.172-0.766-0.258-1.679-0.258-2.736c0-1.058,0.092-1.968,0.273-2.731c0.184-0.763,0.434-1.391,0.752-1.884
	c0.319-0.493,0.697-0.856,1.134-1.09s0.913-0.351,1.429-0.351c0.58,0,1.102,0.126,1.562,0.377c0.463,0.252,0.797,0.612,1.005,1.08
	h0.118v-5.548h2.632V113z M131.416,103.512c-0.638,0-1.09,0.28-1.359,0.842c-0.268,0.562-0.402,1.364-0.402,2.407v0.842
	c0,1.051,0.135,1.855,0.402,2.413c0.27,0.558,0.722,0.837,1.359,0.837s1.09-0.279,1.359-0.837c0.268-0.558,0.402-1.362,0.402-2.413
	v-0.788c0-0.525-0.032-0.993-0.097-1.403c-0.064-0.411-0.167-0.756-0.306-1.037c-0.141-0.281-0.321-0.495-0.543-0.642
	S131.738,103.512,131.416,103.512z M141.03,113h-3.04v-3.033h3.04V113z M146.03,100.597l-1.45,3.713h-1.59l1.214-3.444h-1.214
	v-3.033h3.04V100.597z M150.059,100.597l-1.461,3.713h-1.579l1.214-3.444h-1.214v-3.033h3.04V100.597z"/>
</svg>
