<?xml version="1.0" encoding="utf-8"?>
<!-- Generator: Adobe Illustrator 16.0.4, SVG Export Plug-In . SVG Version: 6.00 Build 0)  -->
<svg version="1.2" baseProfile="tiny" id="Ebene_1" xmlns="http://www.w3.org/2000/svg" xmlns:xlink="http://www.w3.org/1999/xlink"
	 x="0px" y="0px" width="91.502px" height="81.5px" viewBox="0 0 91.502 81.5" xml:space="preserve">
<path fill-rule="evenodd" fill="#FFFFFF" d="M91.29,26.33c-0.41,1.15-2.479,3.97-2.79,4.5c-0.311,0.52-1.35-0.53-1.35-0.53
	s-2.69-1.83-3.621-1.83c-0.93,0-3.17,0.21-4.819,0.53c-0.739,0.14-3.15,0.41-4.081-0.63c-0.94-1.05-1.04-2.42-1.04-3.08
	c0-1.57-2.171-1.73-1.971,0.15c0.21,1.88,1.757,8.42,3.627,11.34c1.859,2.93,5.946,7.9,7.807,9.25c0,0-0.78,9.471-1.1,11.351
	c1.659,0.62,2.371,2.511,0.402,3.649c0.93,1.361,3.273,5.65,3.273,8.791c0,3.13-1.103,5.74-2.144,7.209
	C84.215,77.971,85,78.91,85,78.91v2.59H65v-6.471c0-2.047-1-3.734-3-3.972V71.05c0-2.047-2-3.734-4-3.972V66.76
	c0-1.701-0.838-3.146-2.334-3.724c0.438-0.717,1.174-1.451,1.773-2.206c-0.719,0-2.279-2.51,0.621-3.561
	c-1.031-2.09-4.351-8.779-4.551-21.109c-0.109-6.27,0.9-17.75,7.45-24.36c3.931-3.97,9.74-4.49,11.7-4.49c1.97,0,2.9,0.31,3.83,0.62
	c0.83-0.62,1.34-1.15,2.48-1.93C80.939,7.52,79.7,9.92,79.7,9.92c0.62,0.52,1.96,1.57,2.479,2.51c0.521,0.94,1.66,3.24,2.28,4.08
	c0.62,0.83,2.17,3.44,5.69,6.06C91.59,23.63,91.71,25.18,91.29,26.33z M22,67.111V66.83c0,0-1.41-0.77-1.87-1
	c-1.49-2-2.24-13.07-2.34-15.17l5.21-0.5v-2.24l-5.697-1.355c2.741-1.318,4.637-4.126,4.637-7.384c0-4.52-3.64-8.18-8.14-8.18
	c-4.49,0-8.14,3.66-8.14,8.18c0,3.31,1.961,6.157,4.771,7.448L5,47.92v2.24l5.1,0.5c-0.1,2.1-0.855,13.17-2.345,15.17
	c-0.46,0.23-1.755,1-1.755,1V69l0.78,0.42L1,73.51v2.25l0.64,1.2L0,78.109V81.5h15v-6.471c0-2.047,2-3.734,4-3.972V71.05
	C19,69.04,21,67.395,22,67.111z M58,71.5h-4v-5h-4.09c0-10-4.07-27-4.07-27H49v-4h-3v-3.3c2,0,4-5.1,4-6.59v-4.72l2-4.48V15.5h-6v-1
	h-1.561L43,12.56V10.5h1.57l3.15,0.345l1.34-3.187L47.84,4.579L42.87,5.24l1.21-3.49l-3.52-1.745L37.1,1.743l1.22,3.479l-4.98-0.681
	l-1.22,3.04l1.34,3.265l3.16-0.345H38v2.06l-1.26,1.94H35v1h-6v0.91l2,4.48v4.72c0,1.49,2,6.59,4,6.59v3.3h-3v4h3.34
	c0,0-4.07,17-4.07,27H27v5h-4v4h-4v6h42v-6h-3V71.5z"/>
<g>
</g>
<g>
</g>
<g>
</g>
<g>
</g>
<g>
</g>
<g>
</g>
<g>
</g>
<g>
</g>
<g>
</g>
<g>
</g>
<g>
</g>
<g>
</g>
<g>
</g>
<g>
</g>
<g>
</g>
</svg>
