<?xml version="1.0" encoding="utf-8"?>
<!-- Generator: Adobe Illustrator 16.0.4, SVG Export Plug-In . SVG Version: 6.00 Build 0)  -->
<svg version="1.2" baseProfile="tiny" id="Ebene_1" xmlns="http://www.w3.org/2000/svg" xmlns:xlink="http://www.w3.org/1999/xlink"
	 x="0px" y="0px" width="122.5px" height="90.25px" viewBox="0 0 122.5 90.25" xml:space="preserve">
<path fill-rule="evenodd" fill="#FFFFFF" d="M6,44.75c-1.1,0-2-0.9-2-2s0.9-2,2-2s2,0.9,2,2S7.1,44.75,6,44.75z M6,36.75
	c-3.31,0-6,2.69-6,6s2.69,6,6,6s6-2.69,6-6S9.31,36.75,6,36.75z"/>
<path fill-rule="evenodd" fill="#FFFFFF" d="M42.5,78c-1.1,0-2-0.9-2-2s0.9-2,2-2s2,0.9,2,2S43.6,78,42.5,78z M42.5,71
	c-2.76,0-5,2.24-5,5s2.24,5,5,5s5-2.24,5-5S45.26,71,42.5,71z"/>
<polygon fill="#FFFFFF" points="46,18.73 46,14.69 56.34,14.69 53.13,11.19 55.98,8.25 64,16.53 55.98,24.25 53.49,21.31 
	56.34,18.73 "/>
<polygon fill="#FFFFFF" points="64,82.66 64,77.1 100.67,77.1 95.92,72.29 100.141,68.25 112,79.63 100.141,90.25 96.45,86.2 
	100.67,82.66 "/>
<path fill-rule="evenodd" fill="#FFFFFF" d="M24.5,23.75c-7.46,0-13.5,6.05-13.5,13.5s6.04,13.5,13.5,13.5S38,44.7,38,37.25
	S31.96,23.75,24.5,23.75z M24.5,48.25c-6.08,0-11-4.93-11-11s4.92-11,11-11s11,4.93,11,11S30.58,48.25,24.5,48.25z M24.5,28.75
	c-4.69,0-8.5,3.81-8.5,8.5s3.81,8.5,8.5,8.5s8.5-3.81,8.5-8.5S29.19,28.75,24.5,28.75z M24.5,41.25c-2.21,0-4-1.79-4-4s1.79-4,4-4
	s4,1.79,4,4S26.71,41.25,24.5,41.25z"/>
<path fill-rule="evenodd" fill="#FFFFFF" d="M46.5,29.25c-5.8,0-10.5,4.7-10.5,10.5s4.7,10.5,10.5,10.5S57,45.55,57,39.75
	S52.3,29.25,46.5,29.25z M46.5,45.75c-3.31,0-6-2.69-6-6s2.69-6,6-6s6,2.69,6,6S49.81,45.75,46.5,45.75z M44,39.75
	c0-1.38,1.12-2.5,2.5-2.5s2.5,1.12,2.5,2.5s-1.12,2.5-2.5,2.5S44,41.13,44,39.75z"/>
<path fill-rule="evenodd" fill="#FFFFFF" d="M83.5,0c-5.52,0-10,4.48-10,10s4.48,10,10,10s10-4.48,10-10S89.02,0,83.5,0z M83.5,16.5
	c-3.59,0-6.5-2.91-6.5-6.5s2.91-6.5,6.5-6.5S90,6.41,90,10S87.09,16.5,83.5,16.5z M83.5,5.5C81.02,5.5,79,7.52,79,10
	s2.02,4.5,4.5,4.5S88,12.48,88,10S85.98,5.5,83.5,5.5z M83.5,12c-1.1,0-2-0.9-2-2s0.9-2,2-2s2,0.9,2,2S84.6,12,83.5,12z"/>
<path fill-rule="evenodd" fill="#FFFFFF" d="M33,53.5c-4.42,0-8,3.58-8,8s3.58,8,8,8s8-3.58,8-8S37.42,53.5,33,53.5z M33,68
	c-3.59,0-6.5-2.91-6.5-6.5S29.41,55,33,55s6.5,2.91,6.5,6.5S36.59,68,33,68z M33,57c-2.49,0-4.5,2.02-4.5,4.5S30.51,66,33,66
	s4.5-2.02,4.5-4.5S35.49,57,33,57z M33,63.5c-1.1,0-2-0.9-2-2s0.9-2,2-2s2,0.9,2,2S34.1,63.5,33,63.5z"/>
<path fill-rule="evenodd" fill="#FFFFFF" d="M98,16c-13.529,0-24.5,10.97-24.5,24.5C73.5,54.029,84.471,65,98,65
	s24.5-10.971,24.5-24.5C122.5,26.97,111.529,16,98,16z M98,57.75c-9.529,0-17.25-7.721-17.25-17.25c0-9.53,7.721-17.25,17.25-17.25
	s17.25,7.72,17.25,17.25C115.25,50.029,107.529,57.75,98,57.75z M85.75,43.25v-5.5h14.5L95.75,33l4-4L111,40.25l-11.25,10.5l-3.5-4
	l4-3.5H85.75z"/>
<path fill-rule="evenodd" fill="#FFFFFF" d="M65.5,37.5C56.39,37.5,49,44.89,49,54c0,9.109,7.39,16.5,16.5,16.5
	C74.609,70.5,82,63.109,82,54C82,44.89,74.609,37.5,65.5,37.5z M65.5,64.5C59.7,64.5,55,59.8,55,54s4.7-10.5,10.5-10.5
	S76,48.2,76,54S71.3,64.5,65.5,64.5z M65.5,46c-4.42,0-8,3.58-8,8s3.58,8,8,8s8-3.58,8-8S69.92,46,65.5,46z M65.5,59.5
	c-3.04,0-5.5-2.46-5.5-5.5s2.46-5.5,5.5-5.5S71,50.96,71,54S68.54,59.5,65.5,59.5z"/>
<g>
</g>
<g>
</g>
<g>
</g>
<g>
</g>
<g>
</g>
<g>
</g>
<g>
</g>
<g>
</g>
<g>
</g>
<g>
</g>
<g>
</g>
<g>
</g>
<g>
</g>
<g>
</g>
<g>
</g>
</svg>
