<?xml version="1.0" encoding="utf-8"?>
<!-- Generator: Adobe Illustrator 16.0.4, SVG Export Plug-In . SVG Version: 6.00 Build 0)  -->
<svg version="1.2" baseProfile="tiny" id="Ebene_1" xmlns="http://www.w3.org/2000/svg" xmlns:xlink="http://www.w3.org/1999/xlink"
	 x="0px" y="0px" width="110px" height="75px" viewBox="0 0 110 75" xml:space="preserve">
<path fill-rule="evenodd" fill="#FFFFFF" d="M34.81,0c-1.9,0-4.71,2.81-4.71,4.82V51.15c0,2.01,2.81,4.779,4.71,4.779h70.51
	c1.869,0,4.68-2.77,4.68-4.779V4.82c0-2.01-2.811-4.82-4.68-4.82H34.81z M36.39,6.43h67.36v43.11H36.39V6.43z M81.811,67.109V59.12
	H58.33v7.989L53.61,71.9v1.609h32.91V71.9L81.811,67.109z"/>
<rect x="10.88" y="25.06" width="35.79" height="44.98"/>
<path fill-rule="evenodd" fill="#FFFFFF" d="M10.98,74.27c-1.83,0-3.32-1.49-3.32-3.33V24.25c0-1.83,1.49-3.33,3.32-3.33h35.36
	c1.84,0,3.33,1.5,3.33,3.33v46.689c0,1.84-1.49,3.33-3.33,3.33H10.98z"/>
<path fill-rule="evenodd" d="M46.34,20.23H10.98c-2.21,0-4.01,1.81-4.01,4.02v46.689c0,2.221,1.8,4.021,4.01,4.021h35.36
	c2.22,0,4.02-1.8,4.02-4.021V24.25C50.36,22.04,48.56,20.23,46.34,20.23z M28.72,72.23c0.71,0,1.28-0.58,1.28-1.291
	c0-0.709-0.57-1.289-1.28-1.289c-0.72,0-1.29,0.58-1.29,1.289C27.43,71.65,28,72.23,28.72,72.23z M13.23,68.59h31.08V26.7H13.23
	V68.59z M46.34,21.61c1.46,0,2.64,1.19,2.64,2.64v46.689c0,1.461-1.18,2.65-2.64,2.65H10.98c-1.46,0-2.64-1.189-2.64-2.65V24.25
	c0-1.45,1.18-2.64,2.64-2.64H46.34z"/>
<rect x="2.14" y="44.221" width="17.48" height="25.409"/>
<path fill-rule="evenodd" fill="#FFFFFF" d="M3.13,74.311c-1.35,0-2.44-1.08-2.44-2.42V44.359c0-1.34,1.09-2.43,2.44-2.43h15.55
	c1.35,0,2.44,1.09,2.44,2.43v27.531c0,1.34-1.09,2.42-2.44,2.42H3.13z"/>
<path fill-rule="evenodd" d="M18.68,41.25H3.13C1.41,41.25,0,42.641,0,44.359v27.531C0,73.609,1.41,75,3.13,75h15.55
	c1.73,0,3.13-1.391,3.13-3.109V44.359C21.81,42.641,20.41,41.25,18.68,41.25z M10.98,72.63c0.74,0,1.33-0.59,1.33-1.31
	c0-0.73-0.59-1.32-1.33-1.32c-0.73,0-1.33,0.59-1.33,1.32C9.65,72.04,10.25,72.63,10.98,72.63z M4.09,68.689h13.79
	c0.53,0,0.96-0.42,0.96-0.949V45.62c0-0.521-0.43-0.95-0.96-0.95H4.09c-0.53,0-0.96,0.43-0.96,0.95v22.12
	C3.13,68.27,3.56,68.689,4.09,68.689z M18.68,42.62c0.97,0,1.76,0.78,1.76,1.739v27.531c0,0.959-0.79,1.729-1.76,1.729H3.13
	c-0.97,0-1.75-0.771-1.75-1.729V44.359c0-0.959,0.78-1.739,1.75-1.739H18.68z"/>
<g>
</g>
<g>
</g>
<g>
</g>
<g>
</g>
<g>
</g>
<g>
</g>
<g>
</g>
<g>
</g>
<g>
</g>
<g>
</g>
<g>
</g>
<g>
</g>
<g>
</g>
<g>
</g>
<g>
</g>
</svg>
